<?xml version="1.0" encoding="UTF-8" standalone="no"?>
<svg
   viewBox="0 0 22 22"
   version="1.1"
   id="svg1"
   sodipodi:docname="media-playback-start.svg"
   width="22"
   height="22"
   inkscape:version="1.3.2 (091e20ef0f, 2023-11-25)"
   xmlns:inkscape="http://www.inkscape.org/namespaces/inkscape"
   xmlns:sodipodi="http://sodipodi.sourceforge.net/DTD/sodipodi-0.dtd"
   xmlns="http://www.w3.org/2000/svg"
   xmlns:svg="http://www.w3.org/2000/svg">
  <sodipodi:namedview
     id="namedview1"
     pagecolor="#ffffff"
     bordercolor="#000000"
     borderopacity="0.25"
     inkscape:showpageshadow="2"
     inkscape:pageopacity="0.0"
     inkscape:pagecheckerboard="0"
     inkscape:deskcolor="#d1d1d1"
     inkscape:zoom="11.984375"
     inkscape:cx="10.9309"
     inkscape:cy="18.691004"
     inkscape:window-width="1920"
     inkscape:window-height="994"
     inkscape:window-x="0"
     inkscape:window-y="0"
     inkscape:window-maximized="1"
     inkscape:current-layer="svg1" />
  <defs
     id="defs1">
    <style
      id="current-color-scheme"
      type="text/css">.ColorScheme-Text { color:#eff0f1; }
      </style>
  </defs>
  <g
     id="22-22-media-playback-start"
     style="fill:#bac8df;fill-opacity:1">
    <path
       style="opacity:0.00100002;fill:#bac8df;fill-opacity:1"
       d="M 0,0 H 22 V 22 H 0 Z"
       id="path2" />
    <path
       d="M 16.65688,5.343156 C 15.145874,3.832116 13.13672,3 11,3 8.86328,3 6.854124,3.832116 5.34328,5.343156 3.83213,6.854195 3,8.863173 3,11 3,13.136827 3.83213,15.145804 5.34328,16.656844 6.854124,18.16776 8.86328,19 11,19 c 2.13688,0 4.145874,-0.83224 5.65688,-2.343156 1.51088,-1.51104 2.343117,-3.520017 2.343117,-5.656844 0,-2.136827 -0.832237,-4.145889 -2.343117,-5.656844 z M 15.743321,16.20977 C 14.27032,17.459244 13.08232,18.049913 11,18.034657 8.78936,18.018377 7.96936,17.60312 6.256679,16.209343 4.865047,14.81784 3.965343,12.967958 3.965343,11 3.965343,9.03192 4.893616,6.939724 6.256679,5.79 7.785848,4.446283 9.060442,3.980037 11,3.965343 12.96792,3.950353 14.285044,4.57832 15.743321,5.790148 17.134924,7.181728 18.034657,9.03192 18.034657,11 c 0,1.967958 -0.899733,3.818274 -2.291336,5.20977 z"
       id="path2-36-912-3-36"
       style="stroke-width:0.0249998;fill-opacity:1;fill:currentColor;"
       sodipodi:nodetypes="cscscscsccscscscsc"
       class="ColorScheme-Text " />
    <path
       d="m 14.499999,11.338314 c 2.54e-4,0.139853 -0.05592,0.274033 -0.155961,0.372835 l -4.24259,3.590618 C 9.6744893,15.621192 8.5104024,15.665465 8.5100191,14.57924 V 11.228216 8.3185514 c 0,-0.4063031 -0.090559,-1.1873767 0.2728412,-1.5482141 v 0 c 0.3644084,-0.3604497 0.9552476,-0.3604497 1.3196567,0 l 4.241521,4.1951417 c 0.100083,0.0988 0.156215,0.232981 0.155961,0.372835 z"
       id="path4-3-75-3"
       style="fill:currentColor;fill-opacity:1;stroke-width:0.265128"
       sodipodi:nodetypes="ccccccssccc"
       class="ColorScheme-Text " />
  </g>
</svg>
