<?xml version="1.0" encoding="UTF-8" standalone="no"?>
<svg
   viewBox="0 0 22 22"
   version="1.1"
   id="svg1"
   sodipodi:docname="folder-activities.svg"
   inkscape:version="1.3.2 (091e20ef0f, 2023-11-25)"
   xmlns:inkscape="http://www.inkscape.org/namespaces/inkscape"
   xmlns:sodipodi="http://sodipodi.sourceforge.net/DTD/sodipodi-0.dtd"
   xmlns="http://www.w3.org/2000/svg"
   xmlns:svg="http://www.w3.org/2000/svg">
  <sodipodi:namedview
     id="namedview1"
     pagecolor="#ffffff"
     bordercolor="#000000"
     borderopacity="0.25"
     inkscape:showpageshadow="2"
     inkscape:pageopacity="0.0"
     inkscape:pagecheckerboard="0"
     inkscape:deskcolor="#d1d1d1"
     inkscape:zoom="34.636364"
     inkscape:cx="11"
     inkscape:cy="13.309711"
     inkscape:window-width="1920"
     inkscape:window-height="994"
     inkscape:window-x="0"
     inkscape:window-y="0"
     inkscape:window-maximized="1"
     inkscape:current-layer="svg1" />
  <defs
     id="defs3051">
    <style
       type="text/css"
       id="current-color-scheme">.ColorScheme-Text { color:#eff0f1; }
</style>
  </defs>
  <path
     id="path20-6-0-7"
     style="fill:currentColor;fill-opacity:1;stroke-width:0.663066"
     d="m 7.0000716,3.1718552 c -0.5524192,0 -1.0001243,0.442887 -1.0001243,0.989113 0,0.546492 0.4476984,0.989288 1.0001243,0.989288 0.552185,0 1.0000179,-0.442796 1.0000179,-0.989288 0,-0.546226 -0.4478329,-0.989113 -1.0000179,-0.989113 z m 6.9999984,0 c -1.218839,-0.669191 -2.664023,0.747987 -2.000072,1.978401 l 3.000091,2.967774 -3.00009,2.9678448 c -0.823796,1.36128 0.806239,2.666544 2.000072,1.978555 L 19,8.1180302 Z M 4.6667194,9.1074062 C 3.7462854,9.1074062 3,9.8455982 3,10.756109 c 0,0.910609 0.7462854,1.648834 1.6667194,1.648834 0.9203742,0 1.6665965,-0.738225 1.6665965,-1.648834 0,-0.9105108 -0.7462223,-1.6487018 -1.6665965,-1.6487028 z m 4.3332655,5.9354828 c -1.1046165,0 -1.9999133,0.88591 -1.9999133,1.97865 0,1.092681 0.8952968,1.978461 1.9999133,1.978461 1.1045801,0 2.0000711,-0.88578 2.0000711,-1.978461 0,-1.09274 -0.895492,-1.97865 -2.0000711,-1.97865 z"
     class="ColorScheme-Text "
     sodipodi:nodetypes="ssssscccccccssssssssss" />
</svg>
