<?xml version="1.0" encoding="UTF-8" standalone="no"?>
<svg
   viewBox="0 0 32 32"
   version="1.1"
   id="svg1"
   sodipodi:docname="media-playback-playing.svg"
   width="32"
   height="32"
   inkscape:version="1.3.2 (091e20ef0f, 2023-11-25)"
   xmlns:inkscape="http://www.inkscape.org/namespaces/inkscape"
   xmlns:sodipodi="http://sodipodi.sourceforge.net/DTD/sodipodi-0.dtd"
   xmlns="http://www.w3.org/2000/svg"
   xmlns:svg="http://www.w3.org/2000/svg">
  <sodipodi:namedview
     id="namedview1"
     pagecolor="#ffffff"
     bordercolor="#000000"
     borderopacity="0.25"
     inkscape:showpageshadow="2"
     inkscape:pageopacity="0.0"
     inkscape:pagecheckerboard="0"
     inkscape:deskcolor="#d1d1d1"
     inkscape:zoom="11.984375"
     inkscape:cx="15.853977"
     inkscape:cy="20.610169"
     inkscape:window-width="1920"
     inkscape:window-height="994"
     inkscape:window-x="0"
     inkscape:window-y="0"
     inkscape:window-maximized="1"
     inkscape:current-layer="svg1" />
  <defs
     id="defs1">
    <style
       type="text/css"
       id="style1">.ColorScheme-Text { color:#d8dee9; }
</style>
  </defs>
  <g
     id="media-playback-playing"
     transform="matrix(1.6,0,0,1.6,0,51.2)"
     style="fill:#d3dae3;fill-opacity:1">
    <rect
       id="rect179"
       style="opacity:0.00100002;fill:#d3dae3;fill-opacity:1;stroke-width:0.625"
       y="-32"
       x="0"
       height="20"
       width="20" />
  </g>
  <path
     d="M 24.485327,7.514734 C 22.218813,5.248174 19.205087,4 16.000001,4 12.794928,4 9.7811875,5.248174 7.5149275,7.514734 5.2481955,9.781293 4.0000015,12.794761 4.0000015,16 c 0,3.205239 1.248194,6.218706 3.514926,8.485266 C 9.7811875,26.751646 12.794928,28 16.000001,28 c 3.205326,0 6.218812,-1.248354 8.485326,-3.514734 2.26632,-2.26656 3.514671,-5.280027 3.514671,-8.485266 0,-3.205239 -1.248351,-6.218831 -3.514671,-8.485266 z M 23.114984,23.81465 c -2.209497,1.874216 -3.991508,2.760223 -7.114983,2.737333 C 12.684047,26.527566 11.454048,25.904686 8.8850185,23.814017 6.7975705,21.726766 5.4480165,18.951936 5.4480165,16 c 0,-2.952114 1.392402,-6.090414 3.437002,-7.814994 2.2937565,-2.015581 4.2056475,-2.714951 7.1149825,-2.736989 2.951874,-0.02251 4.92757,0.919469 7.114983,2.737205 2.087403,2.087368 3.437,4.862664 3.437,7.814778 0,2.951936 -1.349597,5.727412 -3.437,7.81465 z"
     id="path2-36-912-3-36"
     style="fill:currentColor;fill-opacity:1;stroke-width:0.0374992"
     sodipodi:nodetypes="cscscscsccscscscsc"
     class="ColorScheme-Text " />
  <path
     d="m 21.585197,16.057468 c 3.77e-4,0.209785 -0.08297,0.411051 -0.231384,0.559253 l -6.294375,5.385926 c -0.633443,0.479139 -2.360501,0.54555 -2.361074,-1.083789 v -5.026534 -4.364493 c 0,-0.609457 -0.134359,-1.781068 0.404797,-2.322328 v 0 c 0.540634,-0.540674 1.417226,-0.540674 1.957861,0 l 6.292792,6.292714 c 0.148484,0.148206 0.231761,0.349471 0.231383,0.559251 z"
     id="path4-3-75-3"
     style="fill:currentColor;fill-opacity:1;stroke-width:0.395516"
     sodipodi:nodetypes="ccccccssccc"
     class="ColorScheme-Text " />
</svg>
