<?xml version="1.0" encoding="UTF-8" standalone="no"?>
<svg
   width="22"
   height="22"
   version="1.1"
   id="svg3"
   sodipodi:docname="ac-adapter-symbolic.svg"
   inkscape:version="1.4 (unknown)"
   xmlns:inkscape="http://www.inkscape.org/namespaces/inkscape"
   xmlns:sodipodi="http://sodipodi.sourceforge.net/DTD/sodipodi-0.dtd"
   xmlns="http://www.w3.org/2000/svg"
   xmlns:svg="http://www.w3.org/2000/svg">
  <defs
     id="defs3" />
  <sodipodi:namedview
     id="namedview3"
     pagecolor="#ffffff"
     bordercolor="#000000"
     borderopacity="0.25"
     inkscape:showpageshadow="2"
     inkscape:pageopacity="0.0"
     inkscape:pagecheckerboard="0"
     inkscape:deskcolor="#d1d1d1"
     inkscape:zoom="10"
     inkscape:cx="19.15"
     inkscape:cy="20.15"
     inkscape:window-width="1920"
     inkscape:window-height="998"
     inkscape:window-x="0"
     inkscape:window-y="0"
     inkscape:window-maximized="1"
     inkscape:current-layer="svg3" />
  <g
     id="g4"
     transform="matrix(1.33333,0,0,1.33333,0.33333133,1.66667)">
    <path
       d="M 6,5 V 5.5 C 6,5.90274 5.923,6.30306 5.78125,6.6797 5.65109,7.05173 5.46219,7.40148 5.21484,7.707 4.9662,8.01416 4.66402,8.27709 4.32617,8.48825 L 4.32031,8.49216 4.3164,8.49411 C 4.219452,8.553123 4.10239,8.570079 4,8.61911 v 2.3809 h 8 c 0.554,0 1,-0.446 1,-1 v -4 c 0,-0.554 -0.446,-1 -1,-1 z"
       fill="#dedede"
       style="paint-order:stroke fill markers"
       id="path1" />
    <path
       class="ColorScheme-Text"
       d="m 6,3 v 1 h 6 c 1.108,0 1.9254,0.89452 2,2 v 4 c 0,1.108 -0.892,2 -2,2 H 4 v 1 h 8 c 1.662,0 3,-1.338 3,-3 V 9 h 1 V 7 H 15 V 6 C 15,4.338 13.662,3 12,3 Z"
       color="#333333"
       fill="#dedede"
       id="path2" />
    <g
       transform="translate(-0.069557)"
       fill="#dedede"
       stroke-linecap="round"
       stroke-linejoin="round"
       stroke-width="4"
       style="paint-order:stroke fill markers"
       aria-label=""
       id="g3">
      <path
         d="m 5.0696,5.5 c 0,0.29167 -0.052083,0.57292 -0.15625,0.84375 C 4.8196,6.61458 4.68418,6.85937 4.5071,7.07813 4.33002,7.29689 4.11648,7.48438 3.86648,7.64063 3.6269,7.78646 3.36127,7.89063 3.0696,7.95313 v 5.0469 h -1 V 7.95313 C 1.77793,7.89063 1.5071,7.78646 1.2571,7.64063 1.01752,7.48438 0.80918,7.29688 0.6321,7.07813 0.45502,6.85938 0.31439,6.61459 0.21022,6.34375 0.11647,6.07292 0.0696,5.79167 0.0696,5.5 V 3 h 1 V 1 h 1 v 2 h 1 V 1 h 1 v 2 h 1 z m -4,0 c 0,0.41667 0.14583,0.77083 0.4375,1.0625 C 1.79877,6.85417 2.15293,7 2.5696,7 2.98627,7 3.34043,6.85417 3.6321,6.5625 3.92377,6.27083 4.0696,5.91667 4.0696,5.5 V 4 h -3 z"
         color="#000000"
         fill="#dedede"
         stroke-linecap="round"
         stroke-width="2"
         style="-inkscape-stroke:none"
         id="path3" />
    </g>
  </g>
</svg>
