<?xml version="1.0" encoding="UTF-8" standalone="no"?>
<svg
   style="clip-rule:evenodd;fill-rule:evenodd;stroke-linejoin:round;stroke-miterlimit:2"
   viewBox="0 0 22 22"
   version="1.1"
   id="svg4"
   sodipodi:docname="drive-harddisk-system-symbolic.svg"
   width="22"
   height="22"
   inkscape:version="1.4 (unknown)"
   xmlns:inkscape="http://www.inkscape.org/namespaces/inkscape"
   xmlns:sodipodi="http://sodipodi.sourceforge.net/DTD/sodipodi-0.dtd"
   xmlns="http://www.w3.org/2000/svg"
   xmlns:svg="http://www.w3.org/2000/svg">
  <defs
     id="defs4" />
  <sodipodi:namedview
     id="namedview4"
     pagecolor="#ffffff"
     bordercolor="#000000"
     borderopacity="0.25"
     inkscape:showpageshadow="2"
     inkscape:pageopacity="0.0"
     inkscape:pagecheckerboard="0"
     inkscape:deskcolor="#d1d1d1"
     inkscape:zoom="24.21875"
     inkscape:cx="16.536774"
     inkscape:cy="8.6503226"
     inkscape:window-width="1920"
     inkscape:window-height="998"
     inkscape:window-x="0"
     inkscape:window-y="0"
     inkscape:window-maximized="1"
     inkscape:current-layer="svg4" />
  <g
     id="g5"
     transform="matrix(1.1576177,0,0,1.1428571,1.7390804,1.8571432)">
    <g
       transform="translate(0.600962)"
       id="g1">
      <path
         d="M 3,1 C 2,1 2,2 2,2 v 12 c 0,1 1,1 1,1 h 8.798 c 1,0 1,-1 1,-1 V 2 c 0,-1 -1,-1 -1,-1 z M 3.243,14.03 C 3.193,14.017 3.143,14.009 3.092,14.005 Z M 3.011,2 3,2.064 V 13.989 L 3.064,14 h 8.723 l 0.011,-0.064 V 2.011 L 11.734,2 Z M 2.995,2.092 2.97,2.243 C 2.983,2.193 2.991,2.143 2.995,2.092 Z M 11.706,1.995 11.556,1.97 c 0.049,0.013 0.1,0.021 0.15,0.025 z"
         fill="#dfdfdf"
         id="path1"
         style="fill:#f3f3f3;fill-opacity:1" />
    </g>
    <g
       transform="matrix(0.952123,0.72642,-0.72642,0.952123,8.9021,-4.01483)"
       id="g3">
      <path
         d="M 6.038,9.618 C 5.968,9.343 5.898,9.126 5.677,9.126 5.456,9.126 5.374,9.34 5.31,9.618 l -0.729,3.456 c 0,0.271 0.665,0.492 1,0.492 0.335,0 1.008,-0.221 1.008,-0.492 z"
         style="fill:#f2f2f2;fill-opacity:1"
         id="path3" />
    </g>
    <g
       transform="matrix(1.19759,0,0,1.19759,-1.50957,-1.61524)"
       id="g4">
      <path
         d="M 6.131,9.023 C 5.493,8.488 5.087,7.686 5.087,6.789 5.087,5.181 6.392,3.876 8,3.876 c 1.608,0 2.913,1.305 2.913,2.913 0,1.603 -1.297,2.905 -2.898,2.913 L 8.12,9.501 C 8.341,8.983 8.324,8.564 7.975,8.298 7.623,8.029 7.2,8.115 6.762,8.48 Z M 8,6.24 c 0.303,0 0.549,0.246 0.549,0.549 C 8.549,7.092 8.303,7.338 8,7.338 7.697,7.338 7.451,7.092 7.451,6.789 7.451,6.486 7.697,6.24 8,6.24 Z"
         style="fill:#f2f2f2;fill-opacity:1"
         id="path4" />
    </g>
  </g>
</svg>
