<?xml version="1.0" encoding="UTF-8" standalone="no"?>
<svg
   style="clip-rule:evenodd;fill-rule:evenodd;stroke-linejoin:round;stroke-miterlimit:2"
   viewBox="0 0 22 22"
   version="1.1"
   id="svg2"
   sodipodi:docname="drive-harddisk-usb-symbolic.svg"
   width="22"
   height="22"
   inkscape:version="1.4 (unknown)"
   xmlns:inkscape="http://www.inkscape.org/namespaces/inkscape"
   xmlns:sodipodi="http://sodipodi.sourceforge.net/DTD/sodipodi-0.dtd"
   xmlns="http://www.w3.org/2000/svg"
   xmlns:svg="http://www.w3.org/2000/svg">
  <defs
     id="defs2" />
  <sodipodi:namedview
     id="namedview2"
     pagecolor="#ffffff"
     bordercolor="#000000"
     borderopacity="0.25"
     inkscape:showpageshadow="2"
     inkscape:pageopacity="0.0"
     inkscape:pagecheckerboard="0"
     inkscape:deskcolor="#d1d1d1"
     inkscape:zoom="24.21875"
     inkscape:cx="17.734194"
     inkscape:cy="14.430968"
     inkscape:window-width="1920"
     inkscape:window-height="998"
     inkscape:window-x="0"
     inkscape:window-y="0"
     inkscape:window-maximized="1"
     inkscape:current-layer="svg2" />
  <g
     id="g2"
     transform="matrix(1.0037562,0,0,1,2.8827546,2.74)">
    <path
       d="M 7.7308994,9.7449307 V 2.5179226 h 1.0347951 v 7.2270081 h 3.5007115 c 0.306297,0 0.553614,-0.2483508 0.553614,-0.5536153 V 6.3590819 h 1.034799 c 0,0 -0.01243,1.7001678 -0.02275,2.9915919 -0.006,0.7905842 -0.648816,1.4290502 -1.439399,1.4290502 H 8.7656945 v 3.384814 H 7.7308994 V 10.779724 H 3.8897407 c -0.7936881,0 -1.4373302,-0.642606 -1.4394002,-1.4362939 -0.00416,-1.3514422 -0.00932,-3.1695767 -0.00932,-3.1695767 h 1.0347949 v 3.017462 c 0,0.146941 0.058985,0.2876732 0.1624628,0.3911524 0.1034795,0.1034799 0.2442117,0.1624629 0.3911526,0.1624629 z"
       style="fill:#ebebeb;stroke-width:1.03481"
       id="path1" />
    <path
       d="m 8.2482972,12.069082 c 1.1569007,0 2.0954568,0.939591 2.0954568,2.095456 0,1.156903 -0.9385561,2.095462 -2.0954568,2.095462 -1.1569012,0 -2.0954602,-0.938559 -2.0954602,-2.095462 0,-1.155865 0.938559,-2.095456 2.0954602,-2.095456 z M 2.9584253,4.0783937 c 1.1569006,0 2.0954597,0.9395935 2.0954597,2.0954597 0,1.1569006 -0.9385591,2.0954597 -2.0954597,2.0954597 C 1.8025591,8.2693131 0.864,7.330754 0.864,6.1738534 0.864,5.0179872 1.8025591,4.0783937 2.9584253,4.0783937 Z M 15.309739,4.9000205 c 0,-0.3797694 -0.308367,-0.6881382 -0.68814,-0.6881382 h -2.547665 c -0.379767,0 -0.68814,0.3083688 -0.68814,0.6881382 v 2.5476652 c 0,0.37977 0.308373,0.6881389 0.68814,0.6881389 h 2.547665 c 0.379773,0 0.68814,-0.3083689 0.68814,-0.6881389 z M 8.2482972,0.26 10.487591,3.9738789 H 6.0090009 Z"
       style="fill:#ebebeb;stroke-width:1.03481"
       id="path2" />
  </g>
</svg>
