<?xml version="1.0" encoding="UTF-8" standalone="no"?>
<svg
   height="22"
   width="22"
   version="1.1"
   id="svg1"
   sodipodi:docname="media-tape-symbolic.svg"
   inkscape:version="1.4 (unknown)"
   xmlns:inkscape="http://www.inkscape.org/namespaces/inkscape"
   xmlns:sodipodi="http://sodipodi.sourceforge.net/DTD/sodipodi-0.dtd"
   xmlns="http://www.w3.org/2000/svg"
   xmlns:svg="http://www.w3.org/2000/svg">
  <defs
     id="defs1" />
  <sodipodi:namedview
     id="namedview1"
     pagecolor="#ffffff"
     bordercolor="#000000"
     borderopacity="0.25"
     inkscape:showpageshadow="2"
     inkscape:pageopacity="0.0"
     inkscape:pagecheckerboard="0"
     inkscape:deskcolor="#d1d1d1"
     inkscape:zoom="10"
     inkscape:cx="6.45"
     inkscape:cy="16.25"
     inkscape:window-width="1920"
     inkscape:window-height="998"
     inkscape:window-x="0"
     inkscape:window-y="0"
     inkscape:window-maximized="1"
     inkscape:current-layer="svg1" />
  <g
     transform="matrix(1.5712041,0,0,1.5,-1907.4418,-92.5045)"
     id="g1">
    <path
       d="m 1215,64.003 c -0.554,0 -1,0.446 -1,1 v 8 c 0,0.554 0.446,1 1,1 h 12.002 c 0,0 1,0 1,-1.002 v -8 c 0,-1 -1,-0.998 -1,-0.998 z m 0.5,0.998 h 10.977 c 0,0 0.525,0 0.525,0.5 v 7 c 0,0 0,0.5 -0.5,0.5 H 1215.5 c 0,0 -0.5,0 -0.5,-0.5 v -7 c 0,-0.5 0.5,-0.5 0.5,-0.5 z m 2.5,2.002 a 2,2 0 1 0 0,4 h 6 a 2,2 0 1 0 -2,-2 c 0,0.365 0.11,0.706 0.281,1 h -2.562 c 0.17,-0.294 0.281,-0.635 0.281,-1 a 2,2 0 0 0 -2,-2 z m 0,1 a 1,1 0 1 1 0,2 1,1 0 0 1 0,-2 z m 6,0 a 1,1 0 1 1 0,2 1,1 0 0 1 0,-2 z"
       fill="#dedede"
       id="path1" />
  </g>
</svg>
