<?xml version="1.0" encoding="UTF-8" standalone="no"?>
<svg
   style="clip-rule:evenodd;fill-rule:evenodd;stroke-linejoin:round;stroke-miterlimit:2"
   viewBox="0 0 22 22"
   version="1.1"
   id="svg2"
   sodipodi:docname="media-zip-symbolic.svg"
   width="22"
   height="22"
   inkscape:version="1.4 (unknown)"
   xmlns:inkscape="http://www.inkscape.org/namespaces/inkscape"
   xmlns:sodipodi="http://sodipodi.sourceforge.net/DTD/sodipodi-0.dtd"
   xmlns="http://www.w3.org/2000/svg"
   xmlns:svg="http://www.w3.org/2000/svg">
  <defs
     id="defs2" />
  <sodipodi:namedview
     id="namedview2"
     pagecolor="#ffffff"
     bordercolor="#000000"
     borderopacity="0.25"
     inkscape:showpageshadow="2"
     inkscape:pageopacity="0.0"
     inkscape:pagecheckerboard="0"
     inkscape:deskcolor="#d1d1d1"
     inkscape:zoom="14.142136"
     inkscape:cx="12.692567"
     inkscape:cy="16.864497"
     inkscape:window-width="1920"
     inkscape:window-height="998"
     inkscape:window-x="0"
     inkscape:window-y="0"
     inkscape:window-maximized="1"
     inkscape:current-layer="svg2" />
  <g
     id="g3"
     transform="translate(2,2)">
    <g
       transform="matrix(1.1428572,0,0,1.1428572,-0.14285714,0.233928)"
       id="g1">
      <path
         d="M 9.943,5.6 C 9.943,4.527 9.073,3.657 8,3.657 6.927,3.657 6.057,4.527 6.057,5.6 v 3.47 c 0,1.073 0.87,1.943 1.943,1.943 1.073,0 1.943,-0.87 1.943,-1.943 z M 8.923,7.859 C 8.923,7.35 8.509,6.936 8,6.936 7.491,6.936 7.077,7.35 7.077,7.859 v 1.14 c 0,0.509 0.414,0.923 0.923,0.923 0.509,0 0.923,-0.414 0.923,-0.923 z M 8,4.693 C 8.501,4.693 8.907,5.099 8.907,5.6 8.907,6.101 8.501,6.507 8,6.507 7.499,6.507 7.093,6.101 7.093,5.6 7.093,5.099 7.499,4.693 8,4.693 Z"
         fill="#dfdfdf"
         id="path1" />
    </g>
    <g
       transform="matrix(1.1428572,0,0,1.1428572,-0.16214114,2.1080228)"
       id="g2">
      <rect
         x="6.7459998"
         y="1.55"
         width="2.5409999"
         height="0.93300003"
         fill="#dfdfdf"
         id="rect2" />
    </g>
    <path
       d="m 10.451433,1 h 4.262853 C 17,1 17,3.2857142 17,3.2857142 V 15.857142 C 17,15.857142 17,17 15.857142,17 H 2.1428572 C 2.1428572,17 1,17 1,15.857142 V 3.2857142 C 1,1 3.2857142,1 3.2857142,1 h 4.2628572 v 0.2662858 h 2.9028616 z m 0,2.2857142 V 3.104 H 7.5485714 V 3.2857142 H 1.72 V 16.121142 H 16.28 V 3.2857142 Z m 0,-1.4582856 H 7.5485714 v 0.7177142 h 2.9028616 z"
       fill="#dfdfdf"
       id="path2"
       style="stroke-width:1.14286" />
  </g>
</svg>
