<?xml version="1.0" encoding="UTF-8" standalone="no"?>
<svg
   viewBox="0 0 22 22"
   version="1.1"
   id="svg5"
   sodipodi:docname="modem-symbolic.svg"
   width="22"
   height="22"
   inkscape:version="1.4 (unknown)"
   xmlns:inkscape="http://www.inkscape.org/namespaces/inkscape"
   xmlns:sodipodi="http://sodipodi.sourceforge.net/DTD/sodipodi-0.dtd"
   xmlns="http://www.w3.org/2000/svg"
   xmlns:svg="http://www.w3.org/2000/svg"
   xmlns:rdf="http://www.w3.org/1999/02/22-rdf-syntax-ns#"
   xmlns:cc="http://creativecommons.org/ns#"
   xmlns:dc="http://purl.org/dc/elements/1.1/">
  <metadata
     id="metadata9">
    <rdf:RDF>
      <cc:Work
         rdf:about="">
        <dc:format>image/svg+xml</dc:format>
        <dc:type
           rdf:resource="http://purl.org/dc/dcmitype/StillImage" />
      </cc:Work>
    </rdf:RDF>
  </metadata>
  <sodipodi:namedview
     pagecolor="#ffffff"
     bordercolor="#666666"
     borderopacity="1"
     objecttolerance="10"
     gridtolerance="10"
     guidetolerance="10"
     inkscape:pageopacity="0"
     inkscape:pageshadow="2"
     inkscape:window-width="1920"
     inkscape:window-height="998"
     id="namedview7"
     showgrid="false"
     inkscape:zoom="10.727273"
     inkscape:cx="-8.0635591"
     inkscape:cy="11.04661"
     inkscape:window-x="0"
     inkscape:window-y="0"
     inkscape:window-maximized="1"
     inkscape:current-layer="svg5"
     inkscape:showpageshadow="2"
     inkscape:pagecheckerboard="0"
     inkscape:deskcolor="#d1d1d1" />
  <defs
     id="defs3051">
    <style
       type="text/css"
       id="current-color-scheme">
.ColorScheme-Text { 
    color:#f1f3f3;
}
      </style>
  </defs>
  <path
     style="stroke:none;fill-opacity:1;fill:currentColor;"
     d="M 8,4 A 5,5 0 0 0 3,9 h 1 a 4,4 0 0 1 4,-4 4,4 0 0 1 4,4 h 1 A 5,5 0 0 0 8,4 Z M 8,6 A 3,3 0 0 0 5,9 h 1 a 2,2 0 0 1 2,-2 2,2 0 0 1 2,2 h 1 A 3,3 0 0 0 8,6 Z M 8,8 A 1,1 0 0 0 7,9 1,1 0 0 0 8,10 1,1 0 0 0 9,9 1,1 0 0 0 8,8 Z m -5,3 v 7 h 16 v -7 z m 1,1 h 14 v 5 H 4 Z m 8,3 v 1 h 1 v -1 z m 2,0 v 1 h 1 v -1 z m 2,0 v 1 h 1 v -1 z"
     id="rect3343"
     class="ColorScheme-Text"
     inkscape:connector-curvature="0" />
</svg>
