<?xml version="1.0" encoding="UTF-8" standalone="no"?>
<svg
   width="22"
   height="22"
   version="1.1"
   id="svg1"
   sodipodi:docname="phone-old-symbolic.svg"
   inkscape:version="1.4 (unknown)"
   xmlns:inkscape="http://www.inkscape.org/namespaces/inkscape"
   xmlns:sodipodi="http://sodipodi.sourceforge.net/DTD/sodipodi-0.dtd"
   xmlns="http://www.w3.org/2000/svg"
   xmlns:svg="http://www.w3.org/2000/svg">
  <defs
     id="defs1" />
  <sodipodi:namedview
     id="namedview1"
     pagecolor="#ffffff"
     bordercolor="#000000"
     borderopacity="0.25"
     inkscape:showpageshadow="2"
     inkscape:pageopacity="0.0"
     inkscape:pagecheckerboard="0"
     inkscape:deskcolor="#d1d1d1"
     inkscape:zoom="24.21875"
     inkscape:cx="9.1045161"
     inkscape:cy="9.6"
     inkscape:window-width="1920"
     inkscape:window-height="998"
     inkscape:window-x="0"
     inkscape:window-y="0"
     inkscape:window-maximized="1"
     inkscape:current-layer="svg1" />
  <path
     d="M 6.11111,2.000024 C 5.7725566,2.000024 5.5,2.2676237 5.5,2.6000231 V 8.0000154 9.8000133 17.600012 C 5.5,18.929592 6.5902232,20 7.9444434,20 H 14.055565 C 15.409768,20 16.5,18.929592 16.5,17.600012 V 8.0000154 C 16.5,6.6704188 15.409768,5.600019 14.055565,5.600019 H 7.9444434 c -0.44638,0 -0.8627899,0.117543 -1.2222203,0.3210966 V 2.5999992 C 6.7222231,2.2675995 6.4496666,2 6.11111,2 Z m 1.8333334,4.7999946 h 6.1111216 c 0.677101,0 1.222204,0.5351985 1.222204,1.1999968 v 9.5999966 c 0,0.66479 -0.545103,1.19998 -1.222204,1.19998 H 7.9444434 c -0.6771099,0 -1.2222203,-0.53519 -1.2222203,-1.19998 V 9.8000133 8.0000154 c 0,-0.6647983 0.5451104,-1.1999968 1.2222203,-1.1999968 z m 0.92383,1.1999968 c -0.5081766,-0.00133 -0.9204069,0.4034155 -0.91905,0.9023389 v 1.7953177 c -0.00143,0.498937 0.4108866,0.903671 0.91905,0.902339 h 4.2730126 c 0.507697,6.67e-4 0.918018,-0.403883 0.916674,-0.902339 V 8.9023543 C 14.059272,8.4034208 13.647052,7.9986834 13.138905,8.0000154 H 8.8683334 Z M 9.1666666,9.200015 h 3.6666644 v 1.199997 H 9.1666666 Z m -0.6063332,4.800001 c -0.8148168,0 -0.8148168,1.19998 0,1.19998 h 1.3965103 c 0.8148193,0 0.8148193,-1.19998 0,-1.19998 z m 3.4900566,0 c -0.81482,0 -0.81482,1.19998 0,1.19998 h 1.398826 c 0.814829,0 0.814829,-1.19998 0,-1.19998 z m -3.4900566,2.399988 c -0.8148168,0 -0.8148168,1.200008 0,1.200008 h 1.3965103 c 0.8148193,0 0.8148193,-1.200008 0,-1.200008 z m 3.4900566,0 c -0.81482,0 -0.81482,1.200008 0,1.200008 h 1.398826 c 0.814829,0 0.814829,-1.200008 0,-1.200008 z"
     fill="#dedede"
     id="path1"
     style="stroke-width:1.21116" />
</svg>
