<?xml version="1.0" encoding="UTF-8" standalone="no"?>
<svg
   width="22"
   height="22"
   version="1.1"
   id="svg2"
   sodipodi:docname="uninterruptible-power-supply-symbolic.svg"
   inkscape:version="1.4 (unknown)"
   xmlns:inkscape="http://www.inkscape.org/namespaces/inkscape"
   xmlns:sodipodi="http://sodipodi.sourceforge.net/DTD/sodipodi-0.dtd"
   xmlns="http://www.w3.org/2000/svg"
   xmlns:svg="http://www.w3.org/2000/svg">
  <defs
     id="defs2" />
  <sodipodi:namedview
     id="namedview2"
     pagecolor="#ffffff"
     bordercolor="#000000"
     borderopacity="0.25"
     inkscape:showpageshadow="2"
     inkscape:pageopacity="0.0"
     inkscape:pagecheckerboard="0"
     inkscape:deskcolor="#d1d1d1"
     inkscape:zoom="17.125242"
     inkscape:cx="13.518057"
     inkscape:cy="17.60559"
     inkscape:window-width="1920"
     inkscape:window-height="998"
     inkscape:window-x="0"
     inkscape:window-y="0"
     inkscape:window-maximized="1"
     inkscape:current-layer="svg2" />
  <g
     transform="translate(-1130,-18)"
     id="g2">
    <path
       color="#000000"
       d="m 1137,21 c -1.108,0 -2,0.892 -2,2 v 13.5 c 0,0 0,0.5 0.5,0.5 h 11 c 0,0 0.5,0 0.5,-0.5 V 23 c 0,-1.108 -0.892,-2 -2,-2 z m 0,1 h 8 c 0.554,0 1,0.446 1,1 v 10.5 c 0,0 0.054,0.5 -0.5,0.5 h -9 c 0,0 -0.5,0 -0.5,-0.5 V 23 c 0,-0.554 0.446,-1 1,-1 z m 8.5,13 a 0.5,0.5 0 1 1 0,1 0.5,0.5 0 0 1 0,-1 z"
       fill="#dedede"
       overflow="visible"
       style="marker:none"
       id="path1" />
    <path
       color="#bebebe"
       d="m 1141,24 -3,5 h 3 v 3 l 3,-5 h -3 z"
       fill="#dedede"
       overflow="visible"
       style="isolation:auto;mix-blend-mode:normal;marker:none"
       id="path2" />
  </g>
</svg>
