<?xml version="1.0" encoding="UTF-8" standalone="no"?>
<svg
   width="22"
   height="22"
   version="1.1"
   id="svg1"
   sodipodi:docname="video-display-symbolic.svg"
   inkscape:version="1.4 (unknown)"
   xmlns:inkscape="http://www.inkscape.org/namespaces/inkscape"
   xmlns:sodipodi="http://sodipodi.sourceforge.net/DTD/sodipodi-0.dtd"
   xmlns="http://www.w3.org/2000/svg"
   xmlns:svg="http://www.w3.org/2000/svg">
  <defs
     id="defs1" />
  <sodipodi:namedview
     id="namedview1"
     pagecolor="#ffffff"
     bordercolor="#000000"
     borderopacity="0.25"
     inkscape:showpageshadow="2"
     inkscape:pageopacity="0.0"
     inkscape:pagecheckerboard="0"
     inkscape:deskcolor="#d1d1d1"
     inkscape:zoom="24.21875"
     inkscape:cx="9.7651613"
     inkscape:cy="9.1045161"
     inkscape:window-width="1920"
     inkscape:window-height="998"
     inkscape:window-x="0"
     inkscape:window-y="0"
     inkscape:window-maximized="1"
     inkscape:current-layer="svg1" />
  <path
     d="M 3.5625001,3 C 2.9738749,3 2.5,3.475733 2.5,4.066667 V 14.73333 C 2.5,15.32427 2.9738749,15.8 3.5625001,15.8 h 5.3124987 v 1.06667 c 0,0 0,1.06666 -1.0625002,1.06666 V 19 h 6.3749954 v -1.06667 c -1.062493,0 -1.062493,-1.06666 -1.062493,-1.06666 V 15.8 h 5.312496 C 19.026118,15.8 19.5,15.32427 19.5,14.73333 V 4.066667 C 19.5,3.475733 19.026118,3 18.437497,3 Z M 4.0937497,4.0624 H 17.90625 c 0,0 0.531247,0 0.531247,0.533333 v 9.599997 c 0,0.53334 -0.531247,0.53334 -0.531247,0.53334 H 4.0937497 c -0.5312496,0 -0.5312496,-0.53334 -0.5312496,-0.53334 V 4.595733 c 0,0 0,-0.533333 0.5312496,-0.533333 z"
     fill="#dedede"
     id="path1"
     style="stroke-width:1.06461" />
</svg>
