<?xml version="1.0" encoding="UTF-8" standalone="no"?>
<svg
   viewBox="0 0 32 32"
   version="1.1"
   id="svg1"
   sodipodi:docname="dialog-cancel.svg"
   inkscape:version="1.3.2 (091e20ef0f, 2023-11-25)"
   xmlns:inkscape="http://www.inkscape.org/namespaces/inkscape"
   xmlns:sodipodi="http://sodipodi.sourceforge.net/DTD/sodipodi-0.dtd"
   xmlns="http://www.w3.org/2000/svg"
   xmlns:svg="http://www.w3.org/2000/svg">
  <sodipodi:namedview
     id="namedview1"
     pagecolor="#ffffff"
     bordercolor="#000000"
     borderopacity="0.25"
     inkscape:showpageshadow="2"
     inkscape:pageopacity="0.0"
     inkscape:pagecheckerboard="0"
     inkscape:deskcolor="#d1d1d1"
     inkscape:zoom="23.8125"
     inkscape:cx="16"
     inkscape:cy="16"
     inkscape:window-width="1920"
     inkscape:window-height="994"
     inkscape:window-x="0"
     inkscape:window-y="0"
     inkscape:window-maximized="1"
     inkscape:current-layer="svg1" />
  <defs
     id="defs3051">
    <style
       type="text/css"
       id="current-color-scheme">
      .ColorScheme-Text {
        color:#fcfcfc;
      }
      </style>
  </defs>
  <path
     style="fill:currentColor;fill-opacity:1;stroke:none;stroke-width:1.08335"
     d="M 16,3 A 13,13 0 0 0 7.2106125,6.444662 l -0.00187,-0.00183 A 13,13 0 0 0 7.1682897,6.4827535 13,13 0 0 0 3,16 13,13 0 0 0 16,29 13,13 0 0 0 24.789385,25.555337 l 0.0072,0.0017 a 13,13 0 0 0 0.03508,-0.0399 A 13,13 0 0 0 29,16 13,13 0 0 0 16,3 m 0,1.0833335 A 11.916665,11.916665 0 0 1 27.916665,16 11.916665,11.916665 0 0 1 24.791495,24.025558 L 7.9746665,7.20875 A 11.916665,11.916665 0 0 1 16,4.0833335 M 7.20875,7.9746665 24.025335,24.796665 A 11.916665,11.916665 0 0 1 16,27.916665 11.916665,11.916665 0 0 1 4.0833335,16 11.916665,11.916665 0 0 1 7.208496,7.974447"
     class="ColorScheme-Text"
     id="path1" />
</svg>
