<?xml version="1.0" encoding="UTF-8" standalone="no"?>
<svg
   viewBox="0 0 32 32"
   version="1.1"
   id="svg1"
   sodipodi:docname="system-switch-user.svg"
   inkscape:version="1.3.2 (091e20ef0f, 2023-11-25)"
   xmlns:inkscape="http://www.inkscape.org/namespaces/inkscape"
   xmlns:sodipodi="http://sodipodi.sourceforge.net/DTD/sodipodi-0.dtd"
   xmlns="http://www.w3.org/2000/svg"
   xmlns:svg="http://www.w3.org/2000/svg">
  <sodipodi:namedview
     id="namedview1"
     pagecolor="#ffffff"
     bordercolor="#000000"
     borderopacity="0.25"
     inkscape:showpageshadow="2"
     inkscape:pageopacity="0.0"
     inkscape:pagecheckerboard="0"
     inkscape:deskcolor="#d1d1d1"
     showgrid="true"
     inkscape:zoom="23.8125"
     inkscape:cx="16"
     inkscape:cy="16"
     inkscape:window-width="1920"
     inkscape:window-height="994"
     inkscape:window-x="0"
     inkscape:window-y="0"
     inkscape:window-maximized="1"
     inkscape:current-layer="svg1">
    <inkscape:grid
       id="grid1"
       units="px"
       originx="0"
       originy="0"
       spacingx="1"
       spacingy="1"
       empcolor="#0099e5"
       empopacity="0.30196078"
       color="#0099e5"
       opacity="0.14901961"
       empspacing="5"
       dotted="false"
       gridanglex="30"
       gridanglez="30"
       visible="true" />
  </sodipodi:namedview>
  <defs
     id="defs3051">
    <style
       type="text/css"
       id="current-color-scheme">.ColorScheme-Text { color: #fcfcfc; } </style>
  </defs>
  <path
     style="fill:currentColor;fill-opacity:1;stroke:none;stroke-width:1.07465"
     id="path1011"
     d="m 18.15002,7.512398 c -1.382295,0 -2.597929,0.6637096 -3.384576,1.67662 0.353964,0.120484 0.6944,0.269465 1.016211,0.449057 0.589505,-0.6418355 1.427899,-1.0512974 2.368365,-1.0512974 1.781112,0 3.224994,1.4430544 3.224994,3.2231374 0,1.502766 -1.032801,2.755001 -2.425043,3.111924 6.63e-4,0.03735 0.0059,0.07362 0.0059,0.11122 0,0.341749 -0.03473,0.67427 -0.0882,1.00094 2.031315,-0.342948 3.581887,-2.096319 3.581887,-4.224084 0,-2.373449 -1.925171,-4.297517 -4.300002,-4.297517 z M 12.775013,20.404956 C 8.6028673,20.404956 5.25,23.294626 5.25,27.319179 5.25351,27.885829 5.324235,28.44936 5.4628865,29 H 6.6580062 19.19516 20.145775 c 0.138672,-0.55064 0.151138,-1.113682 0.15424,-1.680334 0,-4.024553 -3.352864,-6.91471 -7.525002,-6.91471 z m 0.029,1.065785 c 4.099917,0 6.420985,2.443542 6.420985,5.848925 -0.0011,0.187216 -0.01224,0.373475 -0.03117,0.559754 H 6.356177 C 6.337202,27.693141 6.326715,27.506395 6.324999,27.319179 c 0,-3.405385 2.3431876,-5.848438 6.420701,-5.848438 z m 6.691031,-4.288971 c -0.27612,0 -0.547207,0.0173 -0.815312,0.0462 -0.135289,0.41223 -0.313288,0.806919 -0.529732,1.179308 0.441194,-0.09799 0.892283,-0.14863 1.345044,-0.151085 3.390363,1e-6 6.138808,2.645602 6.138808,5.909121 -9.69e-4,0.179388 -0.0092,0.358631 -0.02839,0.537191 h -4.870064 c 0.116889,0.34508 0.217797,0.697059 0.289931,1.059702 l 5.519752,0.01473 c 0.133173,-0.527692 0.201934,-1.068538 0.204919,-1.61158 0,-3.856883 -3.248172,-6.983514 -7.254968,-6.983513 z m -6.720041,-6.446233 c -2.374834,0 -4.30001,1.924064 -4.30001,4.297522 0,2.373459 1.925176,4.297522 4.30001,4.297521 2.374823,10e-7 4.300006,-1.924062 4.300006,-4.297521 0,-2.373458 -1.925183,-4.297522 -4.300006,-4.297522 z m 0,1.074378 c 1.781112,0 3.224996,1.443047 3.224996,3.223144 0,1.780084 -1.443884,3.223144 -3.224996,3.223143 -1.781126,1e-6 -3.225006,-1.443059 -3.225006,-3.223143 0,-1.780097 1.44388,-3.223144 3.225006,-3.223144 z M 16.029025,3 C 13.84168,3 12.068494,4.767876 12.068494,6.9486622 v 0.661048 L 10.341201,5.7804965 9.682225,6.578711 12.0827,8.9714052 12.775011,9.661161 13.400662,8.8632452 15.619467,6.4702487 14.927156,5.7808091 13.092136,7.610166 V 6.9483486 c 0,-1.5577043 1.374513,-2.8201591 2.936902,-2.8201591 1.562388,0 2.12098,0.5576514 2.12098,2.1153557 h 1.074997 C 19.225015,3.9871664 18.024337,3.041986 16.029038,3 Z"
     class="ColorScheme-Text" />
</svg>
