<?xml version="1.0" encoding="UTF-8" standalone="no"?>
<svg
   version="1.1"
   viewBox="0 0 32 32"
   id="svg1"
   sodipodi:docname="system-reboot-update.svg"
   inkscape:version="1.3.2 (091e20ef0f, 2023-11-25)"
   xmlns:inkscape="http://www.inkscape.org/namespaces/inkscape"
   xmlns:sodipodi="http://sodipodi.sourceforge.net/DTD/sodipodi-0.dtd"
   xmlns="http://www.w3.org/2000/svg"
   xmlns:svg="http://www.w3.org/2000/svg">
  <sodipodi:namedview
     id="namedview1"
     pagecolor="#ffffff"
     bordercolor="#000000"
     borderopacity="0.25"
     inkscape:showpageshadow="2"
     inkscape:pageopacity="0.0"
     inkscape:pagecheckerboard="0"
     inkscape:deskcolor="#d1d1d1"
     inkscape:zoom="23.8125"
     inkscape:cx="16"
     inkscape:cy="16"
     inkscape:window-width="1920"
     inkscape:window-height="994"
     inkscape:window-x="0"
     inkscape:window-y="0"
     inkscape:window-maximized="1"
     inkscape:current-layer="svg1" />
  <defs
     id="defs1">
    <style
       id="current-color-scheme"
       type="text/css">.ColorScheme-Text { color:#232629; }</style>
  </defs>
  <path
     class="ColorScheme-Text"
     d="M 16,3 C 8.8203056,3 3,8.8203056 3,16 c 0.010989,0.36204 0.037115,0.723474 0.078286,1.083335 H 4.1679688 C 4.1232993,16.723693 4.095058,16.362208 4.0833335,16 4.0833335,9.418614 9.418614,4.0833335 16,4.0833335 20.017318,4.096476 23.757635,6.1328875 25.948894,9.5 h -4.532229 v 1.083335 h 6.5 V 4.0833335 h -1.08333 V 8.8377279 C 24.430237,5.1976315 20.361781,3.0052752 16,3 Z m 6.5,10.833335 -6.5,6.741206 h 3.25 V 29 h 6.5 V 20.574541 H 29 Z m -18.4166665,7.58333 v 6.5 h 1.083333 v -4.750166 c 2.2000703,3.307219 5.7914265,5.427114 9.7499985,5.755215 V 27.836261 C 11.303091,27.500293 8.0395509,25.535936 6.0511062,22.5 H 10.583335 V 21.416665 H 4.1827804 Z"
     fill="currentColor"
     id="path1"
     style="stroke-width:1.08335" />
</svg>
