<?xml version="1.0" encoding="UTF-8" standalone="no"?>
<svg
   viewBox="0 0 32 32"
   version="1.1"
   id="svg2"
   sodipodi:docname="system-suspend-hibernate.svg"
   inkscape:version="1.3.2 (091e20ef0f, 2023-11-25)"
   xmlns:inkscape="http://www.inkscape.org/namespaces/inkscape"
   xmlns:sodipodi="http://sodipodi.sourceforge.net/DTD/sodipodi-0.dtd"
   xmlns="http://www.w3.org/2000/svg"
   xmlns:svg="http://www.w3.org/2000/svg">
  <defs
     id="defs2" />
  <sodipodi:namedview
     id="namedview2"
     pagecolor="#ffffff"
     bordercolor="#000000"
     borderopacity="0.25"
     inkscape:showpageshadow="2"
     inkscape:pageopacity="0.0"
     inkscape:pagecheckerboard="0"
     inkscape:deskcolor="#d1d1d1"
     showgrid="true"
     inkscape:zoom="23.8125"
     inkscape:cx="16"
     inkscape:cy="16"
     inkscape:window-width="1920"
     inkscape:window-height="994"
     inkscape:window-x="0"
     inkscape:window-y="0"
     inkscape:window-maximized="1"
     inkscape:current-layer="svg2">
    <inkscape:grid
       id="grid2"
       units="px"
       originx="0"
       originy="0"
       spacingx="1"
       spacingy="1"
       empcolor="#0099e5"
       empopacity="0.30196078"
       color="#0099e5"
       opacity="0.14901961"
       empspacing="5"
       dotted="false"
       gridanglex="30"
       gridanglez="30"
       visible="true" />
  </sodipodi:namedview>
  <style
     type="text/css"
     id="current-color-scheme">.ColorScheme-Text { color: #fcfcfc; } </style>
  <g
     class="ColorScheme-Text"
     fill="currentColor"
     id="g2">
    <path
       d="M 9.43173,4.806928 8.5136528,5.333067 10.78346,9.2443805 6.9599037,8.2247243 6.6870187,9.2422762 11.53125,10.533422 14.777308,16.127324 H 8.2862496 L 4.739807,12.597989 3.9909614,13.343 6.7906726,16.127324 H 2.25 v 1.052275 H 6.7906726 L 3.9909614,19.96393 4.739807,20.708943 8.2862496,17.179599 H 14.777308 L 11.53125,22.773507 6.6870187,24.064655 6.9599037,25.082206 10.78346,24.062545 8.5136528,27.973858 9.430672,28.5 l 2.270869,-3.911311 1.023843,3.803981 1.020676,-0.273596 -1.296738,-4.819424 3.550673,-6.120051 3.550674,6.120051 -1.296729,4.819424 1.020676,0.273596 1.023841,-3.803981 2.270866,3.911311 0.917016,-0.526142 -2.269801,-3.911313 3.823559,1.019661 0.272884,-1.017551 -4.844231,-1.291148 -3.246061,-5.593908 h 6.491056 l 3.546448,3.529344 0.748845,-0.745013 -2.799715,-2.784331 H 29.75 V 16.127324 H 25.209323 L 28.009038,13.343 27.260193,12.597989 23.713745,16.127324 h -7.71375 v -0.002 L 12.449322,10.007305 13.74606,5.1878776 12.725384,4.9142855 11.701541,8.7182677 Z M 23.403841,3.5 v 1.052277 h 2.425293 l -2.115389,2.1045541 -0.309904,0.3083176 v 0.7439596 h 4.230775 V 6.6568311 H 25.209323 L 27.324707,4.552277 27.634616,4.2439596 V 3.5 h -0.747789 z"
       id="path1"
       style="stroke-width:1.055" />
    <path
       d="M20 10v1h2.293l-2 2-.293.293V14h4v-1h-2.293l2-2 .293-.293V10h-.707zm-4-5v1h2.293l-2 2-.293.293V9h4V8h-2.293l2-2L20 5.707V5h-.707z"
       id="path2" />
  </g>
</svg>
