<?xml version="1.0" encoding="UTF-8" standalone="no"?>
<svg
   viewBox="0 0 32 32"
   version="1.1"
   id="svg2"
   sodipodi:docname="system-suspend.svg"
   inkscape:version="1.3.2 (091e20ef0f, 2023-11-25)"
   xmlns:inkscape="http://www.inkscape.org/namespaces/inkscape"
   xmlns:sodipodi="http://sodipodi.sourceforge.net/DTD/sodipodi-0.dtd"
   xmlns="http://www.w3.org/2000/svg"
   xmlns:svg="http://www.w3.org/2000/svg">
  <defs
     id="defs2" />
  <sodipodi:namedview
     id="namedview2"
     pagecolor="#ffffff"
     bordercolor="#000000"
     borderopacity="0.25"
     inkscape:showpageshadow="2"
     inkscape:pageopacity="0.0"
     inkscape:pagecheckerboard="0"
     inkscape:deskcolor="#d1d1d1"
     inkscape:zoom="23.8125"
     inkscape:cx="16"
     inkscape:cy="16"
     inkscape:window-width="1920"
     inkscape:window-height="994"
     inkscape:window-x="0"
     inkscape:window-y="0"
     inkscape:window-maximized="1"
     inkscape:current-layer="svg2" />
  <style
     type="text/css"
     id="current-color-scheme">.ColorScheme-Text { color: #fcfcfc; } </style>
  <g
     class="ColorScheme-Text"
     fill="currentColor"
     id="g2">
    <path
       d="M 10.218545,4 A 12.950807,12.950807 0 0 0 10.214352,4.00864 12.950807,12.950807 0 0 0 4,15.049193 12.950807,12.950807 0 0 0 16.950807,28 12.950807,12.950807 0 0 0 28,21.781452 L 27.209999,20.991457 A 11.871573,11.871573 0 0 1 21.267741,22.603832 11.871573,11.871573 0 0 1 9.3961685,10.732259 11.871573,11.871573 0 0 1 10.999909,4.7943165 a 11.871573,11.871573 0 0 1 0.0084,-0.00435 z M 9.1803224,6.0937134 A 12.950807,12.950807 0 0 0 8.3169349,10.732259 12.950807,12.950807 0 0 0 21.267741,23.683069 12.950807,12.950807 0 0 0 25.936503,22.79809 11.871573,11.871573 0 0 1 16.950807,26.920763 11.871573,11.871573 0 0 1 5.0792336,15.049193 11.871573,11.871573 0 0 1 9.1803224,6.0926341 Z M 23.426212,4.2568573 v 1.0792336 h 2.47468 L 23.742421,7.4945591 23.426212,7.8107743 V 8.573788 h 4.316935 V 7.4945591 h -2.474684 l 2.15846,-2.1584682 0.316224,-0.3162147 V 4.2568573 h -0.763018 z"
       id="path1"
       style="stroke-width:1.07926" />
    <path
       d="M20 13v1h2.293l-2 2-.293.293V17h4v-1h-2.293l2-2 .293-.293V13h-.707zm-6-5v1h2.293l-2 2-.293.293V12h4v-1h-2.293l2-2L18 8.707V8h-.707z"
       id="path2" />
  </g>
</svg>
