<?xml version="1.0" encoding="UTF-8" standalone="no"?>
<svg
   width="32"
   height="32"
   version="1.1"
   id="svg1"
   sodipodi:docname="system-user-list.svg"
   inkscape:version="1.3.2 (091e20ef0f, 2023-11-25)"
   xmlns:inkscape="http://www.inkscape.org/namespaces/inkscape"
   xmlns:sodipodi="http://sodipodi.sourceforge.net/DTD/sodipodi-0.dtd"
   xmlns="http://www.w3.org/2000/svg"
   xmlns:svg="http://www.w3.org/2000/svg">
  <defs
     id="defs1" />
  <sodipodi:namedview
     id="namedview1"
     pagecolor="#ffffff"
     bordercolor="#000000"
     borderopacity="0.25"
     inkscape:showpageshadow="2"
     inkscape:pageopacity="0.0"
     inkscape:pagecheckerboard="0"
     inkscape:deskcolor="#d1d1d1"
     showgrid="true"
     inkscape:zoom="23.8125"
     inkscape:cx="16"
     inkscape:cy="16"
     inkscape:window-width="1920"
     inkscape:window-height="994"
     inkscape:window-x="0"
     inkscape:window-y="0"
     inkscape:window-maximized="1"
     inkscape:current-layer="svg1">
    <inkscape:grid
       id="grid1"
       units="px"
       originx="0"
       originy="0"
       spacingx="1"
       spacingy="1"
       empcolor="#0099e5"
       empopacity="0.30196078"
       color="#0099e5"
       opacity="0.14901961"
       empspacing="5"
       dotted="false"
       gridanglex="30"
       gridanglez="30"
       visible="true" />
  </sodipodi:namedview>
  <style
     type="text/css"
     id="current-color-scheme">.ColorScheme-Text { color: #fcfcfc; } </style>
  <g
     id="system-user-list"
     transform="translate(108) translate(-130,0)">
    <path
       id="path110"
       class="ColorScheme-Text"
       d="m 46.083353,8.363636 c -0.638602,0 -1.227365,0.1904433 -1.726571,0.511364 0.04682,0.506459 0.0078,1.006539 -0.0083,1.45733 0.408533,-0.551846 1.051704,-0.877192 1.735231,-0.877786 1.196616,0 2.166668,0.976829 2.166668,2.181817 0,1.204989 -0.970052,2.18182 -2.166668,2.18182 -1.127262,-6.01e-4 -2.065738,-0.871516 -2.158208,-2.002838 -0.199706,0.457614 -0.503378,0.840342 -0.753569,1.19955 -9.8e-4,0.0013 -0.003,0.0026 -0.004,0.0039 0.515668,1.11243 1.612826,1.889939 2.916106,1.889939 1.799626,0 3.247894,-1.459634 3.247894,-3.272721 0,-1.813097 -1.448268,-3.2727306 -3.247894,-3.2727306 z m -7.58334,9.818184 c 4.801377,0 8.666669,3.89234 8.666669,8.727276 H 29.83334 c 0,-4.834936 3.865314,-8.727275 8.666673,-8.727276 z m 2.4e-5,-1.090919 c -5.40104,0 -9.750038,4.05451 -9.750038,9.09091 V 28 h 19.500024 v -1.818189 c 0,-5.0364 -4.348978,-9.090909 -9.749986,-9.09091 z M 46.057953,16 c -1.367038,5.28e-4 -2.595876,0.522375 -3.548337,1.352976 0.411697,0.170345 0.829919,0.366288 1.237601,0.554006 0.005,0.0025 0.0093,0.0052 0.01481,0.0081 0.666585,-0.490832 1.444312,-0.82458 2.293779,-0.82458 2.412434,5.6e-5 4.358736,2.550538 4.358736,4.363636 h -2.9559 c 0.212516,0.369922 0.326713,0.707031 0.486421,1.090912 H 51.5 v -1.090908 c 0,-3.021126 -2.426891,-5.453395 -5.43994,-5.454544 z M 38.500003,5.0909095 c 2.393255,0 4.33334,1.9536618 4.33334,4.3636345 0,2.409978 -1.940085,4.363637 -4.33334,4.363637 -2.393237,0 -4.333326,-1.953659 -4.333326,-4.363637 0,-2.4099727 1.940089,-4.3636345 4.333326,-4.3636345 z M 38.500003,4 c -2.991562,0 -5.416667,2.442076 -5.416667,5.454544 0,3.012466 2.425105,5.454552 5.416667,5.454552 2.546697,0 4.682901,-1.769795 5.261905,-4.154639 0.10115,-0.416586 0.154775,-0.85194 0.154775,-1.299913 C 43.916683,6.442076 41.491546,4 38.500003,4 Z m -7.557934,12 c 1.367035,5.28e-4 2.595874,0.522375 3.548339,1.352976 -0.43818,0.177738 -0.872601,0.38773 -1.252447,0.562484 -0.666585,-0.490806 -1.444307,-0.824559 -2.29378,-0.824559 -2.412433,6.4e-5 -4.358737,2.550546 -4.358737,4.36364 h 2.955905 c -0.202552,0.363559 -0.344851,0.752401 -0.486416,1.090915 H 25.5 V 21.454541 C 25.5,18.433413 27.926888,16.001153 30.939943,16 Z m -0.02755,-7.636364 c 0.638599,0 1.227366,0.1904433 1.726571,0.511364 -0.05244,0.501899 -0.0096,1.011868 0.0083,1.457328 -0.408534,-0.551844 -1.051705,-0.87719 -1.735231,-0.877784 -1.196616,0 -2.166669,0.976829 -2.166669,2.181817 0,1.204989 0.970053,2.18182 2.166669,2.18182 1.127262,-6.01e-4 2.065739,-0.871516 2.158209,-2.002838 0.204004,0.439286 0.510953,0.840112 0.753565,1.19955 9.8e-4,0.0013 0.003,0.0026 0.004,0.0039 -0.51567,1.112431 -1.612829,1.889939 -2.916109,1.889939 -1.799625,0 -3.24789,-1.459634 -3.24789,-3.272721 0,-1.813097 1.448265,-3.2727296 3.24789,-3.2727306 z"
       fill="currentColor"
       style="stroke-width:1.08718" />
    <path
       id="path84-3"
       d="m22 0v32h32v-32z"
       fill="none" />
  </g>
</svg>
