<?xml version="1.0" encoding="UTF-8" standalone="no"?>
<svg
   version="1.1"
   viewBox="0 0 32 32"
   id="svg1"
   sodipodi:docname="system-shutdown-update.svg"
   inkscape:version="1.3.2 (091e20ef0f, 2023-11-25)"
   xmlns:inkscape="http://www.inkscape.org/namespaces/inkscape"
   xmlns:sodipodi="http://sodipodi.sourceforge.net/DTD/sodipodi-0.dtd"
   xmlns="http://www.w3.org/2000/svg"
   xmlns:svg="http://www.w3.org/2000/svg">
  <sodipodi:namedview
     id="namedview1"
     pagecolor="#ffffff"
     bordercolor="#000000"
     borderopacity="0.25"
     inkscape:showpageshadow="2"
     inkscape:pageopacity="0.0"
     inkscape:pagecheckerboard="0"
     inkscape:deskcolor="#d1d1d1"
     inkscape:zoom="23.8125"
     inkscape:cx="16"
     inkscape:cy="16"
     inkscape:window-width="1920"
     inkscape:window-height="994"
     inkscape:window-x="0"
     inkscape:window-y="0"
     inkscape:window-maximized="1"
     inkscape:current-layer="svg1" />
  <defs
     id="defs1">
    <style
       id="current-color-scheme"
       type="text/css">.ColorScheme-Text {
        color:#232629;
      }</style>
  </defs>
  <path
     class="ColorScheme-Text"
     d="M 14.916666,3 V 3.0550132 4.1425781 12.75 h 2.166668 V 4.1383466 3.050781 3 H 16 Z m 3.25,0.1840819 V 4.2906902 C 22.6121,5.1225854 26.203512,8.3992743 27.438474,12.75 H 28.56413 C 27.284694,7.7919398 23.213953,4.0467589 18.166666,3.1840819 Z m -4.333332,0.012699 C 7.5840258,4.2530982 3.0072895,9.662051 3,16 3.017165,22.746999 8.1931114,28.359479 14.916666,28.921713 V 27.832034 C 8.794014,27.273135 4.1015431,22.148077 4.0833334,16 4.086522,10.256738 8.1857959,5.3328026 13.833334,4.288574 Z M 22.5,13.833334 16,20.574542 h 3.25 V 29 h 6.5 V 20.574542 H 29 Z"
     fill="currentColor"
     id="path1"
     style="stroke-width:1.08334" />
</svg>
