<?xml version="1.0" encoding="UTF-8" standalone="no"?>
<svg
   viewBox="0 0 32 32"
   version="1.1"
   id="svg1"
   sodipodi:docname="system-users.svg"
   inkscape:version="1.3.2 (091e20ef0f, 2023-11-25)"
   xmlns:inkscape="http://www.inkscape.org/namespaces/inkscape"
   xmlns:sodipodi="http://sodipodi.sourceforge.net/DTD/sodipodi-0.dtd"
   xmlns="http://www.w3.org/2000/svg"
   xmlns:svg="http://www.w3.org/2000/svg">
  <sodipodi:namedview
     id="namedview1"
     pagecolor="#ffffff"
     bordercolor="#000000"
     borderopacity="0.25"
     inkscape:showpageshadow="2"
     inkscape:pageopacity="0.0"
     inkscape:pagecheckerboard="0"
     inkscape:deskcolor="#d1d1d1"
     inkscape:zoom="23.8125"
     inkscape:cx="16"
     inkscape:cy="16"
     inkscape:window-width="1920"
     inkscape:window-height="994"
     inkscape:window-x="0"
     inkscape:window-y="0"
     inkscape:window-maximized="1"
     inkscape:current-layer="svg1" />
  <defs
     id="defs3051">
    <style
       type="text/css"
       id="current-color-scheme">.ColorScheme-Text { color: #fcfcfc; } </style>
  </defs>
  <path
     style="fill:currentColor;fill-opacity:1;stroke:none;stroke-width:1.08334"
     d="M 20.875,3 A 4.875,4.875 0 0 0 16,7.875 4.875,4.875 0 0 0 20.875,12.75 4.875,4.875 0 0 0 25.75,7.875 4.875,4.875 0 0 0 20.875,3 Z m 0,1.0833334 A 3.7916666,3.7916666 0 0 1 24.666666,7.875 3.7916666,3.7916666 0 0 1 20.875,11.666666 3.7916666,3.7916666 0 0 1 17.083334,7.875 3.7916666,3.7916666 0 0 1 20.875,4.0833334 Z m -9.75,4.3333332 c -2.6923876,0 -4.875,2.1826134 -4.875,4.8749994 0,2.692388 2.1826124,4.875 4.875,4.875 2.692387,0 4.875,-2.182612 4.875,-4.875 C 16,10.59928 13.817387,8.4166666 11.125,8.4166666 Z M 11.125,9.5 A 3.7916666,3.7916666 0 0 1 14.916666,13.291666 3.7916666,3.7916666 0 0 1 11.125,17.083334 3.7916666,3.7916666 0 0 1 7.3333334,13.291666 3.7916666,3.7916666 0 0 1 11.125,9.5 Z m 9.75,4.333334 c -0.956424,0.003 -1.904786,0.18664 -2.801438,0.541666 -0.07172,0.458986 -0.188638,0.90975 -0.349119,1.34571 0.977944,-0.527924 2.056638,-0.803206 3.150557,-0.804044 3.889005,0 7.041666,3.395178 7.041666,7.583334 h -9.036943 c 0.184517,0.35023 0.352619,0.71187 0.503578,1.083334 H 29 V 22.5 c 0,-4.786466 -3.637684,-8.666666 -8.125,-8.666666 z M 11.125,19.25 C 6.637686,19.25 3,23.1302 3,27.916666 V 29 H 19.25 V 27.916666 C 19.25,23.1302 15.612316,19.25 11.125,19.25 Z m 0,1.083334 c 3.889005,0 7.041666,3.395176 7.041666,7.583332 H 4.0833334 c 0,-4.188156 3.1526616,-7.583332 7.0416666,-7.583332 z"
     class="ColorScheme-Text"
     id="path1" />
</svg>
