<?xml version="1.0" encoding="UTF-8" standalone="no"?>
<svg
   version="1.1"
   viewBox="0 0 32 32"
   id="svg1"
   sodipodi:docname="system-lock-screen.svg"
   inkscape:version="1.3.2 (091e20ef0f, 2023-11-25)"
   xmlns:inkscape="http://www.inkscape.org/namespaces/inkscape"
   xmlns:sodipodi="http://sodipodi.sourceforge.net/DTD/sodipodi-0.dtd"
   xmlns="http://www.w3.org/2000/svg"
   xmlns:svg="http://www.w3.org/2000/svg">
  <sodipodi:namedview
     id="namedview1"
     pagecolor="#ffffff"
     bordercolor="#000000"
     borderopacity="0.25"
     inkscape:showpageshadow="2"
     inkscape:pageopacity="0.0"
     inkscape:pagecheckerboard="0"
     inkscape:deskcolor="#d1d1d1"
     inkscape:zoom="23.8125"
     inkscape:cx="16"
     inkscape:cy="16"
     inkscape:window-width="1920"
     inkscape:window-height="994"
     inkscape:window-x="0"
     inkscape:window-y="0"
     inkscape:window-maximized="1"
     inkscape:current-layer="svg1" />
  <defs
     id="defs1">
    <style
       type="text/css"
       id="current-color-scheme">.ColorScheme-Text { color: #fcfcfc; } </style>
  </defs>
  <path
     class="ColorScheme-Text"
     d="M 16,3 C 8.8202987,3 3,8.8202987 3,16 3,23.179697 8.8202987,29 16,29 23.179697,29 29,23.179697 29,16 29,8.8202987 23.179697,3 16,3 Z m 0,1.0833337 C 22.581392,4.0833337 27.916663,9.418608 27.916663,16 27.916663,22.581392 22.581392,27.916663 16,27.916663 9.418608,27.916663 4.0833337,22.581392 4.0833337,16 4.0833337,9.418608 9.418608,4.0833337 16,4.0833337 Z m 0,3.25 c -2.400663,0 -4.333337,1.9326663 -4.333337,4.3333293 V 16 H 9.5 v 8.666663 h 13 V 16 H 20.333337 V 11.666663 C 20.333337,9.266 18.400663,7.3333337 16,7.3333337 Z m 0,1.0833326 c 1.8005,0 3.25,1.6910907 3.25,3.7916707 V 16 h -6.5 v -3.791663 c 0,-2.10058 1.4495,-3.7916707 3.25,-3.7916707 z"
     fill="currentColor"
     id="path1"
     style="stroke-width:1.08337" />
</svg>
