<?xml version="1.0" encoding="UTF-8" standalone="no"?>
<svg
   version="1.1"
   viewBox="0 0 32 32"
   id="svg1"
   sodipodi:docname="view-refresh.svg"
   inkscape:version="1.3.2 (091e20ef0f, 2023-11-25)"
   xmlns:inkscape="http://www.inkscape.org/namespaces/inkscape"
   xmlns:sodipodi="http://sodipodi.sourceforge.net/DTD/sodipodi-0.dtd"
   xmlns="http://www.w3.org/2000/svg"
   xmlns:svg="http://www.w3.org/2000/svg">
  <sodipodi:namedview
     id="namedview1"
     pagecolor="#ffffff"
     bordercolor="#000000"
     borderopacity="0.25"
     inkscape:showpageshadow="2"
     inkscape:pageopacity="0.0"
     inkscape:pagecheckerboard="0"
     inkscape:deskcolor="#d1d1d1"
     inkscape:zoom="23.8125"
     inkscape:cx="16"
     inkscape:cy="16"
     inkscape:window-width="1920"
     inkscape:window-height="994"
     inkscape:window-x="0"
     inkscape:window-y="0"
     inkscape:window-maximized="1"
     inkscape:current-layer="svg1" />
  <defs
     id="defs1">
    <style
       type="text/css"
       id="current-color-scheme">.ColorScheme-Text {
        color:#eff0f1;
      }</style>
  </defs>
  <path
     class="ColorScheme-Text"
     fill="currentColor"
     d="m 29,16 a 13,13 0 0 1 -1.811195,6.590984 L 21.3625,16.76592 22.131667,16 l 4.771,4.771 A 11.916667,11.916667 0 0 0 27.916667,16 11.916667,11.916667 0 0 0 16,4.0833333 11.916667,11.916667 0 0 0 10.202478,5.604655 L 9.413332,4.8113333 A 13,13 0 0 1 16,3 13,13 0 0 1 29,16 M 22.590984,27.188805 A 13,13 0 0 1 16,29 13,13 0 0 1 3,16 13,13 0 0 1 4.8111977,9.40902 L 10.63858,15.23408 9.872667,16 5.1016667,11.226833 A 11.916667,11.916667 0 0 0 4.0833333,16 11.916667,11.916667 0 0 0 16,27.916667 11.916667,11.916667 0 0 0 21.797522,26.395343 Z"
     id="path1"
     style="stroke-width:1.08333" />
</svg>
