<?xml version="1.0" encoding="UTF-8" standalone="no"?>
<!-- Created with Inkscape (http://www.inkscape.org/) -->

<svg
   id="svg7384"
   height="22"
   viewBox="0 0 22 22"
   width="22"
   version="1.1"
   sodipodi:docname="airplane-mode-symbolic.svg"
   inkscape:version="1.4 (unknown)"
   xmlns:inkscape="http://www.inkscape.org/namespaces/inkscape"
   xmlns:sodipodi="http://sodipodi.sourceforge.net/DTD/sodipodi-0.dtd"
   xmlns="http://www.w3.org/2000/svg"
   xmlns:svg="http://www.w3.org/2000/svg"
   xmlns:rdf="http://www.w3.org/1999/02/22-rdf-syntax-ns#"
   xmlns:cc="http://creativecommons.org/ns#"
   xmlns:dc="http://purl.org/dc/elements/1.1/">
  <defs
     id="defs9" />
  <sodipodi:namedview
     pagecolor="#ffffff"
     bordercolor="#666666"
     borderopacity="1"
     objecttolerance="10"
     gridtolerance="10"
     guidetolerance="10"
     inkscape:pageopacity="0"
     inkscape:pageshadow="2"
     inkscape:window-width="1920"
     inkscape:window-height="996"
     id="namedview7"
     showgrid="false"
     inkscape:zoom="14.75"
     inkscape:cx="8.0338983"
     inkscape:cy="7.9661017"
     inkscape:window-x="0"
     inkscape:window-y="0"
     inkscape:window-maximized="1"
     inkscape:current-layer="svg7384"
     inkscape:showpageshadow="2"
     inkscape:pagecheckerboard="0"
     inkscape:deskcolor="#d1d1d1" />
  <metadata
     id="metadata90">
    <rdf:RDF>
      <cc:Work
         rdf:about="">
        <dc:format>image/svg+xml</dc:format>
        <dc:type
           rdf:resource="http://purl.org/dc/dcmitype/StillImage" />
        <dc:title>Gnome Symbolic Icon Theme</dc:title>
      </cc:Work>
    </rdf:RDF>
  </metadata>
  <title
     id="title9167">Gnome Symbolic Icon Theme</title>
  <path
     inkscape:connector-curvature="0"
     style="color:#31363b;fill:#d3dae3;fill-opacity:1;fill-rule:evenodd;stroke:none;stroke-width:1px;stroke-linecap:butt;stroke-linejoin:miter;stroke-opacity:1"
     d="M 8,3 C 5.23858,3 2.9999999,5.2385762 2.9999999,7.9999999 h 1 c 0,-2.209139 1.7908601,-4 4.0000001,-4 z m 3,0 c 0,0 -1,0 -1,2.9999999 V 8.5 L 8.90039,9.0507811 V 9.0000002 H 8.09961 V 9.3007814 H 8 V 9.5000002 L 6,10.5 V 10 H 5.9004 V 9.699219 H 5.09962 V 10 H 5 v 1 l -2.0000001,1 v 1 L 5.1914,12.726562 5.30078,13 h 0.39844 l 0.14257,-0.355469 2.75196,-0.34375 h 0.10547 l 0.006,-0.01367 L 10,12.125 V 15 c 0,0.487991 0.24052,0.971967 0.484375,1.34375 L 8,18 v 1 l 3,-1 3,1 V 18 L 11.515625,16.34375 C 11.75948,15.971967 12,15.487991 12,15 v -2.875 l 1.294922,0.162109 0.0059,0.01367 h 0.105469 l 2.751953,0.34375 0.142578,0.355469 H 16.69926 L 16.808635,12.72656 19,13 V 12 L 17,11 V 10 H 16.90039 V 9.6992188 H 16.099608 V 10 h -0.09961 v 0.5 l -2,-1 V 9.3007811 h -0.09961 V 9 H 13.099606 V 9.050781 L 12,8.5 V 5.9999999 c 0,-3 -1,-3 -1,-2.9999999 z M 8,4.9999999 c -1.65685,0 -3,1.3431458 -3,3 h 1 c 0,-1.1045695 0.89543,-2 2,-2 z m 0,2 c 0,0 -1,0 -1,1 h 1 z"
     id="path4467-5"
     class="ColorScheme-Text" />
</svg>
