<?xml version="1.0" encoding="UTF-8" standalone="no"?>
<svg
   viewBox="0 0 16 16"
   version="1.1"
   id="svg1"
   sodipodi:docname="folder-activities.svg"
   inkscape:version="1.3.2 (091e20ef0f, 2023-11-25)"
   xmlns:inkscape="http://www.inkscape.org/namespaces/inkscape"
   xmlns:sodipodi="http://sodipodi.sourceforge.net/DTD/sodipodi-0.dtd"
   xmlns="http://www.w3.org/2000/svg"
   xmlns:svg="http://www.w3.org/2000/svg">
  <sodipodi:namedview
     id="namedview1"
     pagecolor="#ffffff"
     bordercolor="#000000"
     borderopacity="0.25"
     inkscape:showpageshadow="2"
     inkscape:pageopacity="0.0"
     inkscape:pagecheckerboard="0"
     inkscape:deskcolor="#d1d1d1"
     inkscape:zoom="47.625"
     inkscape:cx="8"
     inkscape:cy="8"
     inkscape:window-width="1920"
     inkscape:window-height="994"
     inkscape:window-x="0"
     inkscape:window-y="0"
     inkscape:window-maximized="1"
     inkscape:current-layer="svg1" />
  <defs
     id="defs3051">
    <style
       type="text/css"
       id="current-color-scheme">.ColorScheme-Text { color:#fcfcfc; }
</style>
  </defs>
  <path
     id="path20-6-0-7"
     style="stroke-width:0.497298;fill-opacity:1;fill:currentColor;"
     d="m 5.0000535,2.1288947 c -0.4143141,0 -0.7500929,0.332166 -0.7500929,0.741833 0,0.409863 0.3357731,0.741967 0.7500929,0.741967 0.4141393,0 0.7500133,-0.332104 0.7500133,-0.741967 0,-0.409667 -0.335874,-0.741833 -0.7500133,-0.741833 z m 5.2500005,0 c -0.9141323,-0.501901 -1.9980194,0.560988 -1.5000534,1.4838 l 2.2500684,2.225825 -2.2500684,2.2258862 c -0.617848,1.02096 0.604674,1.9999051 1.5000534,1.483914 L 14.000001,5.8385197 Z M 3.250039,6.5805559 c -0.6903259,0 -1.2500401,0.553642 -1.2500401,1.236524 0,0.682958 0.5597142,1.236622 1.2500401,1.236622 0.6902802,0 1.2499473,-0.553664 1.2499473,-1.236622 0,-0.682882 -0.5596671,-1.236524 -1.2499473,-1.236524 z m 3.2499481,4.4516131 c -0.8284603,0 -1.4999336,0.66443 -1.4999336,1.483982 0,0.819511 0.6714733,1.483849 1.4999336,1.483849 0.8284324,0 1.5000615,-0.664338 1.5000615,-1.483849 0,-0.819552 -0.6716291,-1.483982 -1.5000615,-1.483982 z"
     class="ColorScheme-Text "
     sodipodi:nodetypes="ssssscccccccssssssssss" />
</svg>
