<?xml version="1.0" encoding="UTF-8" standalone="no"?>
<svg
   width="22"
   height="22"
   version="1.1"
   id="svg6"
   sodipodi:docname="system-user-prompt.svg"
   inkscape:version="1.3.2 (091e20ef0f, 2023-11-25)"
   viewBox="0 0 22 22"
   xmlns:inkscape="http://www.inkscape.org/namespaces/inkscape"
   xmlns:sodipodi="http://sodipodi.sourceforge.net/DTD/sodipodi-0.dtd"
   xmlns="http://www.w3.org/2000/svg"
   xmlns:svg="http://www.w3.org/2000/svg">
  <sodipodi:namedview
     id="namedview1"
     pagecolor="#cfcfcf"
     bordercolor="#000000"
     borderopacity="0.25"
     inkscape:showpageshadow="2"
     inkscape:pageopacity="0.0"
     inkscape:pagecheckerboard="0"
     inkscape:deskcolor="#d1d1d1"
     inkscape:zoom="31.75"
     inkscape:cx="12"
     inkscape:cy="12"
     inkscape:window-width="1920"
     inkscape:window-height="994"
     inkscape:window-x="0"
     inkscape:window-y="0"
     inkscape:window-maximized="1"
     inkscape:current-layer="svg6" />
  <defs
     id="defs10" />
  <namedview
     id="namedview8"
     pagecolor="#ffffff"
     bordercolor="#000000"
     borderopacity="0.25"
     inkscape:showpageshadow="2"
     inkscape:pageopacity="0.0"
     inkscape:pagecheckerboard="0"
     inkscape:deskcolor="#d1d1d1"
     showgrid="false"
     inkscape:zoom="35.136364"
     inkscape:cx="9.4773609"
     inkscape:cy="10.98577"
     inkscape:window-width="1920"
     inkscape:window-height="1011"
     inkscape:window-x="0"
     inkscape:window-y="0"
     inkscape:window-maximized="1"
     inkscape:current-layer="svg6" />
  <style
     type="text/css"
     id="current-color-scheme">.ColorScheme-Text { color: #fcfcfc; }
</style>
  <g
     transform="translate(1,1)"
     id="g1">
    <g
       id="22-22-system-user-prompt"
       transform="matrix(0.6875,0,0,0.6875,-15.125,0)"
       stroke-width="1.45455">
      <path
         id="path44-5-7"
         d="M 22,0 V 32 H 54 V 0 Z"
         fill="none" />
    </g>
  </g>
  <path
     style="fill:currentColor;fill-opacity:1;stroke:none;stroke-width:0.667309"
     d="M 11.000005,2.9999998 A 8.0156598,8 0 0 0 3.0704502,10.096356 H 18.947827 A 8.0156598,8 0 0 0 11.000005,2.9999998 Z m 0,0.8502602 a 7.163681,7.1496857 0 0 1 6.983699,5.5677088 H 4.0358773 A 7.163681,7.1496857 0 0 1 11.000005,3.85026 Z M 5.9902178,7.4999998 v 1 h 3.3398565 v -1 z m 4.00783,0 v 1 h 2.0039192 v -1 z m 2.6718872,0 v 1 h 3.339866 v -1 z M 3,11.22396 A 8.0156598,8 0 0 0 11.000005,19 8.0156598,8 0 0 0 19,11.22396 Z m 0.9093286,0.691406 H 18.102417 A 7.163681,7.1496857 0 0 1 11.000005,18.149732 7.163681,7.1496857 0 0 1 3.9093286,11.915366 Z M 6.9921753,13 c -0.5533663,0 -1.0019575,0.447724 -1.0019575,1 0,0.552276 0.4485912,1 1.0019575,1 0.5533642,0 1.0019575,-0.447724 1.0019575,-1 0,-0.552276 -0.4485933,-1 -1.0019575,-1 z m 2.6718863,0 c -0.5533639,0 -1.0019575,0.447724 -1.0019575,1 0,0.552276 0.4485936,1 1.0019575,1 0.5533594,0 1.0019574,-0.447724 1.0019574,-1 0,-0.552276 -0.448598,-1 -1.0019574,-1 z m 2.6718814,0 c -0.553364,0 -1.001953,0.447724 -1.001953,1 0,0.552276 0.448589,1 1.001953,1 0.553377,0 1.001954,-0.447724 1.001954,-1 0,-0.552276 -0.448577,-1 -1.001954,-1 z m 2.671901,0 c -0.553386,0 -1.001958,0.447724 -1.001958,1 0,0.552276 0.448572,1 1.001958,1 0.55336,0 1.001957,-0.447724 1.001957,-1 0,-0.552276 -0.448597,-1 -1.001957,-1 z"
     class="ColorScheme-Text "
     id="path1" />
</svg>
