<?xml version="1.0" encoding="UTF-8" standalone="no"?>
<svg
   inkscape:version="1.3.2 (091e20ef0f, 2023-11-25)"
   sodipodi:docname="folder-download.svg"
   id="svg14"
   version="1.1"
   viewBox="0 0 64 64"
   xmlns:inkscape="http://www.inkscape.org/namespaces/inkscape"
   xmlns:sodipodi="http://sodipodi.sourceforge.net/DTD/sodipodi-0.dtd"
   xmlns="http://www.w3.org/2000/svg"
   xmlns:svg="http://www.w3.org/2000/svg"
   xmlns:rdf="http://www.w3.org/1999/02/22-rdf-syntax-ns#"
   xmlns:cc="http://creativecommons.org/ns#"
   xmlns:dc="http://purl.org/dc/elements/1.1/">
  <metadata
     id="metadata18">
    <rdf:RDF>
      <cc:Work
         rdf:about="">
        <dc:format>image/svg+xml</dc:format>
        <dc:type
           rdf:resource="http://purl.org/dc/dcmitype/StillImage" />
      </cc:Work>
    </rdf:RDF>
  </metadata>
  <sodipodi:namedview
     inkscape:current-layer="svg14"
     inkscape:window-maximized="1"
     inkscape:window-y="0"
     inkscape:window-x="0"
     inkscape:cy="76.385549"
     inkscape:cx="16.141852"
     inkscape:zoom="3.4692426"
     showgrid="false"
     id="namedview16"
     inkscape:window-height="996"
     inkscape:window-width="1920"
     inkscape:pageshadow="2"
     inkscape:pageopacity="0"
     guidetolerance="10"
     gridtolerance="10"
     objecttolerance="10"
     borderopacity="1"
     bordercolor="#666666"
     pagecolor="#ffffff"
     inkscape:showpageshadow="2"
     inkscape:pagecheckerboard="0"
     inkscape:deskcolor="#d1d1d1" />
  <defs
     id="defs3051">
    <style
       id="current-color-scheme"
       type="text/css">.ColorScheme-Text { color:#31363b; }
.ColorScheme-Background { color:#eff0f1; }
.ColorScheme-Highlight { color:#3daee9; }
.ColorScheme-ViewText { color:#31363b; }
.ColorScheme-ViewBackground { color:#fcfcfc; }
.ColorScheme-ViewHover { color:#93cee9; }
.ColorScheme-ViewFocus { color:#3daee9; }
.ColorScheme-ButtonText { color:#31363b; }
.ColorScheme-ButtonBackground { color:#eff0f1; }
.ColorScheme-ButtonHover { color:#93cee9; }
.ColorScheme-ButtonFocus { color:#3daee9; }
</style>
  </defs>
  <path
     style="fill:currentColor;fill-opacity:1;stroke:none;stroke-width:0.999999"
     d="m 4.0006634,10.000011 v 1 9 0 c -0.520363,0.02153 -1.022963,0.505476 -0.999899,1 h 0.0019 c -4.6e-5,0.004 -0.0019,0.008 -0.0019,0.01172 v 34.98828 c 0.0087,0.99939 0.980114,2.00599 1.999799,2 v 0 H 58.995109 v 0 c 1.011732,0.022 1.994216,-0.97253 1.999798,-2 v -34.988281 -0.01172 -4 c 0.05936,-0.589244 -0.407896,-1.006383 -0.999899,-1 v -4 c 0,-0.003 -0.002,0.004 -0.002,0 h 0.002 v 0 c -0.0061,-1.000671 -0.953819,-1.995969 -1.999798,-2 H 31.997836 L 27.99824,6.0000099 H 8.0002599 c -2.0372375,-0.0051 -3.9639055,1.970324 -3.9995965,4.0000011 z"
     class="ColorScheme-Highlight "
     id="path1"
     sodipodi:nodetypes="ccccccsccccccccccscccccccc" />
  <path
     style="fill-opacity:0.33;fill-rule:evenodd;stroke-width:0.999999"
     d="m 4.0302774,10.000011 -0.02961,1 v 9 H 21.998846 l 3.999596,-4 h 33.996566 v -4 c 0,-0.003 -0.002,0.004 -0.002,0 h 0.002 c -0.0062,-1.011275 -1.004016,-2.005681 -1.999798,-2 H 31.997836 L 27.99824,6.0000109 H 8.0002599 c -2.0074525,0.0026 -4.0060035,2.0072 -3.9699825,4.0000001 z"
     id="path2"
     sodipodi:nodetypes="ccccccsccccccc" />
  <path
     style="fill:#ffffff;fill-opacity:0.2;fill-rule:evenodd;stroke-width:0.999999"
     d="m 27.99824,6.0000109 2.999697,5.0000001 h 1.999798 24.997475 c 1.212814,-0.06389 2.005543,1.005906 1.999798,2 v -1 c 6e-4,-0.992592 -0.988601,-1.993446 -1.999798,-2 H 32.997735 31.997836 Z m -1.999798,10.0000001 -3.999596,4 H 3.0007644 v 1 H 22.998745 Z"
     id="path3"
     sodipodi:nodetypes="cccccccccccccccc" />
  <path
     style="color:#31363b;fill-opacity:0.2;fill-rule:evenodd;stroke-width:0.999999"
     d="m 25.998442,16.000011 -5.999394,3 H 4.0006634 v 1 H 21.998846 Z m -22.9976776,40 c 0.0064,1.0086 0.993701,2.00146 1.999799,2 v 0 H 58.995109 v 0 0 c 1.002828,0.002 2.001139,-0.99966 1.999798,-2 z"
     class="ColorScheme-Text"
     id="path4"
     sodipodi:nodetypes="cccccccccccccc" />
  <path
     id="path12-7"
     class="ColorScheme-Background"
     d="m 29,27 v 1 6 h 1 v -6 h 4 v 6 h 1 V 27 Z M 25.707031,34.300781 25,35.007812 l 4.292969,4.292969 0.0078,-0.0078 2.707031,2.707031 2.699219,-2.699219 4.292969,-4.292969 -0.707031,-0.707031 -4.292969,4.292969 -2,2 -2,-2 z M 22,44 v 2 1 h 1 19 v -1 -2 h -1 v 2 H 23 v -2 z"
     style="color:#eff0f1;fill:#e5e5e5;fill-opacity:1;stroke:none" />
</svg>
