<?xml version="1.0" encoding="UTF-8" standalone="no"?>
<svg
   viewBox="0 0 64 64"
   version="1.1"
   id="svg5"
   sodipodi:docname="folder-rpm.svg"
   inkscape:version="1.3.2 (091e20ef0f, 2023-11-25)"
   xmlns:inkscape="http://www.inkscape.org/namespaces/inkscape"
   xmlns:sodipodi="http://sodipodi.sourceforge.net/DTD/sodipodi-0.dtd"
   xmlns="http://www.w3.org/2000/svg"
   xmlns:svg="http://www.w3.org/2000/svg">
  <sodipodi:namedview
     id="namedview5"
     pagecolor="#ffffff"
     bordercolor="#999999"
     borderopacity="1"
     inkscape:showpageshadow="2"
     inkscape:pageopacity="0"
     inkscape:pagecheckerboard="0"
     inkscape:deskcolor="#d1d1d1"
     inkscape:zoom="5.96875"
     inkscape:cx="31.329843"
     inkscape:cy="48.08377"
     inkscape:window-width="1920"
     inkscape:window-height="996"
     inkscape:window-x="0"
     inkscape:window-y="0"
     inkscape:window-maximized="1"
     inkscape:current-layer="svg5" />
  <defs
     id="defs3051">
    <style
       type="text/css"
       id="current-color-scheme">
      .ColorScheme-Text {
        color:#232629;
      }
      .ColorScheme-Highlight {
        color:#3daee9;
      }
      </style>
  </defs>
  <path
     style="color:#3daee9;fill:#c83771;fill-opacity:1;stroke:none"
     d="m 4.0007645,10.000011 v 1 9 0 c -0.5204163,0.02153 -1.0230671,0.505476 -1,1 h 0.00195 c -4.69e-5,0.004 -0.00195,0.008 -0.00195,0.01172 v 34.98828 c 0.00871,0.999392 0.9802128,2.005992 2,2 v 0 H 59.000765 v 0 c 1.011834,0.02205 1.994418,-0.972534 2,-2 v -34.988281 -0.01172 -4 c 0.05937,-0.589244 -0.407937,-1.006383 -1,-1 v -4 c 0,-0.003 -0.002,0.004 -0.002,0 h 0.002 v 0 c -0.0061,-1.000671 -0.953916,-1.995969 -2,-2 H 32.000764 l -4,-4.0000001 H 8.0007645 c -2.0374437,-0.0051 -3.964306,1.970323 -4,4.0000011 z"
     class="ColorScheme-Highlight"
     id="path1"
     sodipodi:nodetypes="ccccccsccccccccccscccccccc" />
  <path
     style="fill-opacity:0.33;fill-rule:evenodd"
     d="m 4.0303815,10.000011 -0.029617,1 v 9 H 22.000764 l 4,-4 h 34.000001 v -4 c 0,-0.003 -0.002,0.004 -0.002,0 h 0.002 c -0.0062,-1.011275 -1.004117,-2.005682 -2,-2 H 32.000764 l -4,-4.0000001 H 8.0007645 c -2.0076554,0.0026 -4.0064082,2.0072 -3.970383,4.0000001 z"
     id="path2"
     sodipodi:nodetypes="ccccccsccccccc" />
  <path
     style="fill:#ffffff;fill-opacity:0.2;fill-rule:evenodd"
     d="m 28.000764,6.0000109 3,5.0000001 h 2.000001 25 c 1.212936,-0.06389 2.005746,1.005906 2,2 v -1 c 5.99e-4,-0.992592 -0.988701,-1.993446 -2,-2 h -25 -1.000001 z m -2,10.0000001 -4,4 H 3.0007645 v 1 H 23.000764 Z"
     id="path3"
     sodipodi:nodetypes="cccccccccccccccc" />
  <path
     style="color:#31363b;fill-opacity:0.2;fill-rule:evenodd"
     d="m 26.000764,16.000011 -6,3 H 4.0007645 v 1 H 22.000764 Z m -22.9999995,40 c 0.00641,1.008598 0.9938012,2.001463 2,2 v 0 H 59.000765 v 0 0 c 1.002929,0.0016 2.00134,-0.999662 2,-2 z"
     class="ColorScheme-Text"
     id="path4"
     sodipodi:nodetypes="cccccccccccccc" />
  <path
     style="color:#232629;fill:currentColor;fill-opacity:0.6;stroke:none;stroke-width:0.999998"
     d="m 31.519234,30.025615 c -5.56998,0.23864 -10.16697,4.729641 -10.5,10.489041 -0.08829,1.517064 0.13041,2.981964 0.593705,4.332811 l 0.941337,-0.337261 c -0.420649,-1.227443 -0.615351,-2.557711 -0.535117,-3.936033 0.325956,-5.600057 5.058668,-9.871643 10.571477,-9.540517 5.512809,0.331114 9.717833,5.140712 9.391877,10.740768 -0.0327,0.561507 -0.120612,1.105207 -0.238263,1.636707 l 0.972583,0.230132 c 0.130191,-0.586606 0.227575,-1.18745 0.263653,-1.807322 0.358553,-6.160059 -4.267183,-11.449825 -10.33126,-11.814053 -0.379006,-0.02277 -0.755538,-0.02583 -1.126869,-0.01 z m 1.009689,2.039439 c -0.807629,-0.0455 -1.617662,0.01974 -2.408023,0.194421 l 0.18358,0.999879 c 0.710037,-0.160356 1.437595,-0.220108 2.163901,-0.180534 4.410251,0.264898 7.773882,4.110207 7.513111,8.590235 -0.0217,0.339047 -0.06509,0.676277 -0.128896,1.009799 l 1.001878,0.0615 c 0.0602,-0.33404 0.103725,-0.671025 0.126944,-1.009799 0.293368,-5.040052 -3.490965,-9.36749 -8.452495,-9.665501 z m -5.001579,1.202235 c -1.60688,0.932906 -2.890079,2.345658 -3.67746,4.047133 l 0.869075,0.525729 c 0.686019,-1.535103 1.82525,-2.816037 3.259523,-3.66424 z m 4.59536,6.112361 c -0.953356,0.03488 -1.909269,0.699422 -2.003757,1.769626 -0.06519,1.120017 0.776208,2.08034 1.878766,2.146567 0.738435,0.04398 1.439402,-0.328329 1.824083,-0.970121 -0.008,0.0136 -0.01574,0.02626 -0.02344,0.03968 L 41.598557,45 l 0.31443,-0.964169 -7.802153,-2.634604 v -0.01191 c -0.08482,-1.449568 -1.034775,-2.044562 -1.988132,-2.009677 z m -8.999329,0.345195 c -0.0523,0.306391 -0.08806,0.616275 -0.109367,0.926476 -0.0177,0.338976 -0.0186,0.676835 0,1.015751 l 1.009691,0.06151 c -0.0254,-0.338825 -0.02832,-0.678343 -0.01172,-1.017735 0.0149,-0.239311 0.04017,-0.479188 0.07616,-0.716183 z m 9.050106,0.529698 c 0.55129,0.03312 0.971981,0.513279 0.939384,1.073283 -0.0326,0.559983 -0.505284,0.987364 -1.056562,0.95425 -0.551289,-0.03312 -0.971981,-0.51328 -0.939383,-1.073282 0.0326,-0.560014 0.505282,-0.987365 1.056561,-0.954251 z"
     class="ColorScheme-Text"
     id="path5-9" />
</svg>
