<?xml version="1.0" encoding="UTF-8" standalone="no"?>
<svg
   viewBox="0 0 64 64"
   version="1.1"
   id="svg4"
   sodipodi:docname="folder-open.svg"
   inkscape:version="1.3.2 (091e20ef0f, 2023-11-25)"
   xmlns:inkscape="http://www.inkscape.org/namespaces/inkscape"
   xmlns:sodipodi="http://sodipodi.sourceforge.net/DTD/sodipodi-0.dtd"
   xmlns:xlink="http://www.w3.org/1999/xlink"
   xmlns="http://www.w3.org/2000/svg"
   xmlns:svg="http://www.w3.org/2000/svg">
  <sodipodi:namedview
     id="namedview4"
     pagecolor="#ffffff"
     bordercolor="#999999"
     borderopacity="1"
     inkscape:showpageshadow="2"
     inkscape:pageopacity="0"
     inkscape:pagecheckerboard="0"
     inkscape:deskcolor="#d1d1d1"
     showgrid="true"
     inkscape:zoom="5.6568543"
     inkscape:cx="27.223611"
     inkscape:cy="36.239222"
     inkscape:window-width="1920"
     inkscape:window-height="996"
     inkscape:window-x="0"
     inkscape:window-y="0"
     inkscape:window-maximized="1"
     inkscape:current-layer="svg4">
    <inkscape:grid
       id="grid4"
       units="px"
       originx="0"
       originy="0"
       spacingx="1"
       spacingy="1"
       empcolor="#0099e5"
       empopacity="0.30196078"
       color="#0099e5"
       opacity="0.14902"
       empspacing="5"
       dotted="false"
       gridanglex="30"
       gridanglez="30"
       visible="true" />
  </sodipodi:namedview>
  <defs
     id="defs3051">
    <style
       type="text/css"
       id="current-color-scheme">
      .ColorScheme-Text {
        color:#31363b;
      }
      .ColorScheme-Background {
        color:#eff0f1;
      }
      .ColorScheme-Highlight {
        color:#3daee9;
      }
      .ColorScheme-ViewText {
        color:#31363b;
      }
      .ColorScheme-ViewBackground {
        color:#fcfcfc;
      }
      .ColorScheme-ViewHover {
        color:#93cee9;
      }
      .ColorScheme-ViewFocus{
        color:#3daee9;
      }
      .ColorScheme-ButtonText {
        color:#31363b;
      }
      .ColorScheme-ButtonBackground {
        color:#eff0f1;
      }
      .ColorScheme-ButtonHover {
        color:#93cee9;
      }
      .ColorScheme-ButtonFocus{
        color:#3daee9;
      }
      </style>
    <linearGradient
       id="linearGradient9"
       inkscape:collect="always">
      <stop
         style="stop-color:#3385ff;stop-opacity:1"
         offset="0"
         id="stop7" />
      <stop
         style="stop-color:#3aacbe;stop-opacity:1;"
         offset="0.48888862"
         id="stop8" />
      <stop
         style="stop-color:#b07bff;stop-opacity:1;"
         offset="1"
         id="stop9" />
    </linearGradient>
    <linearGradient
       inkscape:collect="always"
       xlink:href="#linearGradient9"
       id="linearGradient1"
       x1="61.578136"
       y1="671.5705"
       x2="97.508179"
       y2="671.5705"
       gradientUnits="userSpaceOnUse" />
  </defs>
  <path
     style="fill:currentColor;fill-opacity:1;stroke:none"
     d="m 4,10 v 1 9 0 C 3.4795837,20.02153 2.9769329,20.505476 3,21 H 3.00195 C 3.0019031,21.004 3,21.008019 3,21.011719 V 56 c 0.00871,0.999392 0.9802128,2.005992 2,2 v 0 h 54 v 0 c 1.011834,0.02205 1.994418,-0.972534 2,-2 V 21.011719 21 17 c 0.05937,-0.589244 -0.407937,-1.006383 -1,-1 v -4 c 0,-0.003 -0.002,0.004 -0.002,0 L 60,12 v 0 C 59.9939,10.999329 59.046085,10.004031 58,10 H 32 L 28,6 H 8 C 5.9625563,5.9949207 4.035694,7.9703236 4,10 Z"
     class="ColorScheme-Highlight"
     id="path1"
     sodipodi:nodetypes="ccccccsccccccccccscccccccc" />
  <path
     style="fill-opacity:0.33;fill-rule:evenodd"
     d="M 4.029617,10 4,11 v 9 h 18 l 4,-4 h 34 v -4 c 0,-0.003 -0.002,0.004 -0.002,0 H 60 c -0.0062,-1.011275 -1.004117,-2.0056814 -2,-2 H 32 L 28,6 H 8 C 5.9923446,6.00259 3.9935918,8.0072001 4.029617,10 Z"
     id="path2"
     sodipodi:nodetypes="ccccccsccccccc" />
  <path
     style="fill:#ffffff;fill-opacity:0.2;fill-rule:evenodd"
     d="m 28,6 3,5 h 2 25 c 1.212937,-0.06389 2.005746,1.005906 2,2 v -1 c 6e-4,-0.992592 -0.988701,-1.993446 -2,-2 H 33 32 Z m -2,10 -4,4 H 3 v 1 h 20 z"
     id="path3"
     sodipodi:nodetypes="cccccccccccccccc" />
  <path
     style="fill-opacity:0.2;fill-rule:evenodd"
     d="m 26,16 -6,3 H 4 v 1 H 22 Z M 3,56 c 0.00641,1.008598 0.9938012,2.001463 2,2 v 0 h 54 v 0 0 c 1.002929,0.0016 2.001341,-0.999662 2,-2 z"
     class="ColorScheme-Text"
     id="path4"
     sodipodi:nodetypes="cccccccccccccc" />
  <text
     xml:space="preserve"
     style="font-weight:bold;font-size:15.9916px;font-family:'Open Sans';-inkscape-font-specification:'Open Sans, Bold';fill:#ededed;fill-opacity:1;fill-rule:evenodd;stroke-width:9.80884"
     x="-12.510946"
     y="52.874771"
     id="text18313-6"
     transform="matrix(0.84737078,-0.53533611,0.53415521,0.84266232,0,0)"><tspan
       sodipodi:role="line"
       id="tspan18311-5"
       x="-12.510946"
       y="52.874771"
       style="fill:#ededed;fill-opacity:1;stroke-width:9.80884">open</tspan></text>
</svg>
