<?xml version="1.0" encoding="UTF-8" standalone="no"?>
<svg
   id="svg2"
   height="64"
   version="1.1"
   width="64"
   sodipodi:docname="folder-encrypted.svg"
   inkscape:version="1.3.2 (091e20ef0f, 2023-11-25)"
   xmlns:inkscape="http://www.inkscape.org/namespaces/inkscape"
   xmlns:sodipodi="http://sodipodi.sourceforge.net/DTD/sodipodi-0.dtd"
   xmlns:xlink="http://www.w3.org/1999/xlink"
   xmlns="http://www.w3.org/2000/svg"
   xmlns:svg="http://www.w3.org/2000/svg"
   xmlns:rdf="http://www.w3.org/1999/02/22-rdf-syntax-ns#"
   xmlns:cc="http://creativecommons.org/ns#"
   xmlns:dc="http://purl.org/dc/elements/1.1/">
  <sodipodi:namedview
     id="namedview1"
     pagecolor="#ffffff"
     bordercolor="#999999"
     borderopacity="1"
     inkscape:showpageshadow="2"
     inkscape:pageopacity="0"
     inkscape:pagecheckerboard="0"
     inkscape:deskcolor="#d1d1d1"
     inkscape:zoom="2.984375"
     inkscape:cx="27.141361"
     inkscape:cy="19.434555"
     inkscape:window-width="1920"
     inkscape:window-height="996"
     inkscape:window-x="0"
     inkscape:window-y="0"
     inkscape:window-maximized="1"
     inkscape:current-layer="svg2" />
  <defs
     id="defs5455">
    <linearGradient
       id="linearGradient4172-5">
      <stop
         id="stop4174-6"
         style="stop-color:#3e3e3e" />
      <stop
         id="stop4176-6"
         style="stop-color:#494949"
         offset="1" />
    </linearGradient>
    <linearGradient
       gradientTransform="matrix(1,0,0,0.99967455,-384.57143,-483.62155)"
       x2="0"
       gradientUnits="userSpaceOnUse"
       y2="499.78421"
       y1="541.79797"
       xlink:href="#linearGradient4172-5"
       id="linearGradient4178-3-3" />
  </defs>
  <metadata
     id="metadata5458">
    <rdf:RDF>
      <cc:Work
         rdf:about="">
        <dc:format>image/svg+xml</dc:format>
        <dc:type
           rdf:resource="http://purl.org/dc/dcmitype/StillImage" />
      </cc:Work>
    </rdf:RDF>
  </metadata>
  <path
     style="color:#3daee9;fill:#3e3e3e;fill-opacity:1;stroke:none;stroke-width:0.999999"
     d="m 4.0006635,10.000011 v 1 9 0 c -0.5203637,0.02153 -1.0229638,0.505476 -0.999899,1 h 0.00195 c -4.69e-5,0.004 -0.00195,0.008 -0.00195,0.01172 v 34.98828 c 0.00871,0.999392 0.9801138,2.005992 1.999798,2 v 0 H 58.995109 v 0 c 1.011732,0.02205 1.994216,-0.972534 1.999798,-2 v -34.988281 -0.01172 -4 c 0.05936,-0.589244 -0.407896,-1.006383 -0.999899,-1 v -4 c 0,-0.003 -0.002,0.004 -0.002,0 h 0.002 v 0 c -0.0061,-1.000671 -0.953819,-1.995969 -1.999798,-2 H 31.997836 L 27.99824,6.0000098 H 8.0002595 C 5.9630216,5.9949298 4.0363539,7.9703334 4.0006635,10.000011 Z"
     class="ColorScheme-Highlight"
     id="path1"
     sodipodi:nodetypes="ccccccsccccccccccscccccccc" />
  <path
     style="fill-opacity:0.33;fill-rule:evenodd;stroke-width:0.999999"
     d="m 4.0302775,10.000011 -0.029614,1 v 9 H 21.998846 l 3.999596,-4 h 33.996566 v -4 c 0,-0.003 -0.002,0.004 -0.002,0 h 0.002 c -0.0062,-1.011275 -1.004016,-2.005681 -1.999798,-2 H 31.997836 L 27.99824,6.0000108 H 8.0002595 C 5.9928069,6.0026008 3.994256,8.0072109 4.0302775,10.000011 Z"
     id="path2"
     sodipodi:nodetypes="ccccccsccccccc" />
  <path
     style="fill:#ffffff;fill-opacity:0.2;fill-rule:evenodd;stroke-width:0.999999"
     d="m 27.99824,6.0000108 2.999697,5.0000002 h 1.999798 24.997475 c 1.212814,-0.06389 2.005543,1.005906 1.999798,2 v -1 c 6e-4,-0.992592 -0.988601,-1.993446 -1.999798,-2 H 32.997735 31.997836 Z m -1.999798,10.0000002 -3.999596,4 H 3.0007645 v 1 H 22.998745 Z"
     id="path3"
     sodipodi:nodetypes="cccccccccccccccc" />
  <path
     style="color:#31363b;fill-opacity:0.2;fill-rule:evenodd;stroke-width:0.999999"
     d="m 25.998442,16.000011 -5.999394,3 H 4.0006635 v 1 H 21.998846 Z m -22.9976775,40 c 0.00641,1.008598 0.9937008,2.001463 1.999798,2 v 0 H 58.995109 v 0 0 c 1.002828,0.0016 2.001139,-0.999662 1.999798,-2 z"
     class="ColorScheme-Text"
     id="path4"
     sodipodi:nodetypes="cccccccccccccc" />
  <rect
     y="54"
     x="10"
     height="4"
     width="4"
     id="rect4179-5-7-6-9"
     style="opacity:0.6;fill:#5f5f5f;fill-opacity:1;stroke:none;stroke-width:2;stroke-miterlimit:4;stroke-dasharray:none;stroke-opacity:1" />
  <rect
     y="54"
     x="18"
     height="4"
     width="4"
     id="rect4179-5-6-27-7-5"
     style="opacity:0.6;fill:#5f5f5f;fill-opacity:1;stroke:none;stroke-width:2;stroke-miterlimit:4;stroke-dasharray:none;stroke-opacity:1" />
  <rect
     y="54"
     x="26"
     height="4"
     width="4"
     id="rect4179-5-6-2-22-5-0"
     style="opacity:0.6;fill:#5f5f5f;fill-opacity:1;stroke:none;stroke-width:2;stroke-miterlimit:4;stroke-dasharray:none;stroke-opacity:1" />
  <rect
     y="54"
     x="34"
     height="4"
     width="4"
     id="rect4179-5-6-2-9-6-6-4"
     style="opacity:0.6;fill:#5f5f5f;fill-opacity:1;stroke:none;stroke-width:2;stroke-miterlimit:4;stroke-dasharray:none;stroke-opacity:1" />
  <rect
     y="54"
     x="42"
     height="4"
     width="4"
     id="rect4179-5-6-2-9-1-1-9-8"
     style="opacity:0.6;fill:#5f5f5f;fill-opacity:1;stroke:none;stroke-width:2;stroke-miterlimit:4;stroke-dasharray:none;stroke-opacity:1" />
  <rect
     y="54"
     x="50"
     height="4"
     width="4"
     id="rect4179-5-6-2-9-1-2-0-8-7"
     style="opacity:0.6;fill:#5f5f5f;fill-opacity:1;stroke:none;stroke-width:2;stroke-miterlimit:4;stroke-dasharray:none;stroke-opacity:1" />
  <rect
     y="50"
     x="5.999999"
     height="4"
     width="4"
     id="rect4179-2-1-2-7"
     style="opacity:0.6;fill:#5f5f5f;fill-opacity:1;stroke:none;stroke-width:2;stroke-miterlimit:4;stroke-dasharray:none;stroke-opacity:1" />
  <rect
     y="50"
     x="14"
     height="4"
     width="4"
     id="rect4179-5-61-5-8-2"
     style="opacity:0.6;fill:#5f5f5f;fill-opacity:1;stroke:none;stroke-width:2;stroke-miterlimit:4;stroke-dasharray:none;stroke-opacity:1" />
  <rect
     y="50"
     x="22"
     height="4"
     width="4"
     id="rect4179-5-6-8-9-2-7"
     style="opacity:0.6;fill:#5f5f5f;fill-opacity:1;stroke:none;stroke-width:2;stroke-miterlimit:4;stroke-dasharray:none;stroke-opacity:1" />
  <rect
     y="50"
     x="30"
     height="4"
     width="4"
     id="rect4179-5-6-2-7-4-9-2"
     style="opacity:0.6;fill:#5f5f5f;fill-opacity:1;stroke:none;stroke-width:2;stroke-miterlimit:4;stroke-dasharray:none;stroke-opacity:1" />
  <rect
     y="50"
     x="38"
     height="4"
     width="4"
     id="rect4179-5-6-2-9-9-9-9-2"
     style="opacity:0.6;fill:#5f5f5f;fill-opacity:1;stroke:none;stroke-width:2;stroke-miterlimit:4;stroke-dasharray:none;stroke-opacity:1" />
  <rect
     y="50"
     x="46"
     height="4"
     width="4"
     id="rect4179-5-6-2-9-1-20-0-6-6"
     style="opacity:0.6;fill:#5f5f5f;fill-opacity:1;stroke:none;stroke-width:2;stroke-miterlimit:4;stroke-dasharray:none;stroke-opacity:1" />
  <rect
     y="50"
     x="54"
     height="4"
     width="4"
     id="rect4179-5-6-2-9-1-2-2-9-0-1"
     style="opacity:0.6;fill:#5f5f5f;fill-opacity:1;stroke:none;stroke-width:2;stroke-miterlimit:4;stroke-dasharray:none;stroke-opacity:1" />
  <rect
     y="46"
     x="3"
     height="4"
     width="3"
     id="rect4179-7-1-2-0"
     style="opacity:0.6;fill:#5f5f5f;fill-opacity:1;stroke:none;stroke-width:2;stroke-miterlimit:4;stroke-dasharray:none;stroke-opacity:1" />
  <rect
     y="46"
     x="10"
     height="4"
     width="4"
     id="rect4179-5-5-7-7-6"
     style="opacity:0.6;fill:#5f5f5f;fill-opacity:1;stroke:none;stroke-width:2;stroke-miterlimit:4;stroke-dasharray:none;stroke-opacity:1" />
  <rect
     y="46"
     x="18"
     height="4"
     width="4"
     id="rect4179-5-6-9-7-6-1"
     style="opacity:0.6;fill:#5f5f5f;fill-opacity:1;stroke:none;stroke-width:2;stroke-miterlimit:4;stroke-dasharray:none;stroke-opacity:1" />
  <rect
     y="46"
     x="26"
     height="4"
     width="4"
     id="rect4179-5-6-2-2-1-1-5"
     style="opacity:0.6;fill:#5f5f5f;fill-opacity:1;stroke:none;stroke-width:2;stroke-miterlimit:4;stroke-dasharray:none;stroke-opacity:1" />
  <rect
     y="46"
     x="34"
     height="4"
     width="4"
     id="rect4179-5-6-2-9-2-1-3-9"
     style="opacity:0.6;fill:#5f5f5f;fill-opacity:1;stroke:none;stroke-width:2;stroke-miterlimit:4;stroke-dasharray:none;stroke-opacity:1" />
  <rect
     y="46"
     x="42"
     height="4"
     width="4"
     id="rect4179-5-6-2-9-1-8-5-2-4"
     style="opacity:0.6;fill:#5f5f5f;fill-opacity:1;stroke:none;stroke-width:2;stroke-miterlimit:4;stroke-dasharray:none;stroke-opacity:1" />
  <rect
     y="46"
     x="50"
     height="4"
     width="4"
     id="rect4179-5-6-2-9-1-2-9-9-1-9"
     style="opacity:0.6;fill:#5f5f5f;fill-opacity:1;stroke:none;stroke-width:2;stroke-miterlimit:4;stroke-dasharray:none;stroke-opacity:1" />
  <rect
     y="46"
     x="58"
     height="4"
     width="2.9999826"
     id="rect4179-5-6-2-9-1-2-7-7-7-5-0"
     style="opacity:0.6;fill:#5f5f5f;fill-opacity:1;stroke:none;stroke-width:2;stroke-miterlimit:4;stroke-dasharray:none;stroke-opacity:1" />
  <path
     style="fill:#7a7a7a;fill-opacity:1"
     d="m 32,28 c -2.77,0 -5,2.23 -5,5 v 4 h -3 v 2 7 H 40 V 37 H 38.25 37 v -4 c 0,-2.77 -2.23,-5 -5,-5 z m 0,1 c 2.0775,0 4,1.57625 4,4 v 4 h -8 v -4 c 0,-2.42375 1.92251,-4 4,-4 z m -7,9 h 14 v 7 H 25 Z"
     id="rect4136-9-5-1" />
</svg>
