<?xml version="1.0" encoding="UTF-8" standalone="no"?>
<!-- Created with Inkscape (http://www.inkscape.org/) -->

<svg
   width="64"
   version="1.1"
   height="64"
   id="svg1"
   sodipodi:docname="user-desktop.svg"
   inkscape:version="1.3.2 (091e20ef0f, 2023-11-25)"
   xmlns:inkscape="http://www.inkscape.org/namespaces/inkscape"
   xmlns:sodipodi="http://sodipodi.sourceforge.net/DTD/sodipodi-0.dtd"
   xmlns:xlink="http://www.w3.org/1999/xlink"
   xmlns="http://www.w3.org/2000/svg"
   xmlns:svg="http://www.w3.org/2000/svg">
  <sodipodi:namedview
     id="namedview1"
     pagecolor="#ffffff"
     bordercolor="#999999"
     borderopacity="1"
     inkscape:showpageshadow="2"
     inkscape:pageopacity="0"
     inkscape:pagecheckerboard="0"
     inkscape:deskcolor="#d1d1d1"
     showgrid="true"
     inkscape:zoom="11.9375"
     inkscape:cx="32.08377"
     inkscape:cy="31.078534"
     inkscape:window-width="1920"
     inkscape:window-height="996"
     inkscape:window-x="0"
     inkscape:window-y="0"
     inkscape:window-maximized="1"
     inkscape:current-layer="layer1">
    <inkscape:grid
       id="grid1"
       units="px"
       originx="0"
       originy="0"
       spacingx="1"
       spacingy="1"
       empcolor="#0099e5"
       empopacity="0.30196078"
       color="#0099e5"
       opacity="0.14901961"
       empspacing="5"
       dotted="false"
       gridanglex="30"
       gridanglez="30"
       visible="true" />
  </sodipodi:namedview>
  <defs
     id="defs5455">
    <linearGradient
       inkscape:collect="always"
       xlink:href="#linearGradient4697"
       id="linearGradient4703"
       y1="503.07938"
       x1="418.16971"
       y2="531.45813"
       x2="384.57144"
       gradientUnits="userSpaceOnUse"
       gradientTransform="matrix(0.91666628 0 0 0.91666628 -340.52366 -455.81464)" />
    <linearGradient
       inkscape:collect="always"
       id="linearGradient4697">
      <stop
         style="stop-color:#1abc9c"
         id="stop4699" />
      <stop
         offset="1"
         style="stop-color:#2980b9"
         id="stop4701" />
    </linearGradient>
    <linearGradient
       inkscape:collect="always"
       xlink:href="#linearGradient4526"
       id="linearGradient4532"
       y1="521.63281"
       x1="404.0452"
       y2="528.35034"
       x2="430.73611"
       gradientUnits="userSpaceOnUse"
       gradientTransform="matrix(0.91666628 0 0 0.91666628 -340.52366 -455.81464)" />
    <linearGradient
       inkscape:collect="always"
       id="linearGradient4526">
      <stop
         style="stop-color:#cc4a5e"
         id="stop4528" />
      <stop
         offset="1"
         style="stop-color:#aa478a"
         id="stop4530" />
    </linearGradient>
    <linearGradient
       inkscape:collect="always"
       xlink:href="#linearGradient4468"
       id="linearGradient4474"
       y1="542.22382"
       x1="398.09201"
       y2="524.89966"
       x2="394.00299"
       gradientUnits="userSpaceOnUse"
       gradientTransform="matrix(0.91666628 0 0 0.91666628 -340.52366 -455.81464)" />
    <linearGradient
       inkscape:collect="always"
       id="linearGradient4468">
      <stop
         style="stop-color:#334545"
         id="stop4470" />
      <stop
         offset="1"
         style="stop-color:#536161"
         id="stop4472" />
    </linearGradient>
    <linearGradient
       inkscape:collect="always"
       xlink:href="#linearGradient4468"
       id="linearGradient4500"
       y1="568.79803"
       x1="431.57141"
       y2="562.79803"
       x2="439.57141"
       gradientUnits="userSpaceOnUse"
       gradientTransform="matrix(-1 0 0 1 839.14285 -40.00001)" />
    <linearGradient
       inkscape:collect="always"
       xlink:href="#linearGradient4468"
       id="linearGradient4498"
       y1="581.87024"
       x1="406.53735"
       y2="572.67786"
       x2="423.31955"
       gradientUnits="userSpaceOnUse"
       gradientTransform="matrix(-0.91666628 0 0 0.91666628 428.69029 -492.4813)" />
    <linearGradient
       inkscape:collect="always"
       xlink:href="#linearGradient4468"
       id="linearGradient4496"
       y1="572.33411"
       x1="423.05438"
       y2="566.76562"
       x2="431.22452"
       gradientUnits="userSpaceOnUse"
       gradientTransform="matrix(-0.91666628 0 0 0.91666628 448.69029 -492.4813)" />
    <linearGradient
       inkscape:collect="always"
       xlink:href="#linearGradient4468"
       id="linearGradient4492"
       y1="577.10217"
       x1="431.3129"
       y2="571.44531"
       x2="440.63208"
       gradientUnits="userSpaceOnUse"
       gradientTransform="matrix(-0.91666628 0 0 0.91666628 428.69029 -492.4813)" />
    <linearGradient
       inkscape:collect="always"
       xlink:href="#linearGradient4468"
       id="linearGradient4490"
       y1="577.36243"
       x1="430.56738"
       y2="591.32782"
       x2="423.74994"
       gradientUnits="userSpaceOnUse"
       gradientTransform="matrix(-0.91666628 0 0 0.91666628 428.69029 -492.4813)" />
  </defs>
  <g
     inkscape:label="Capa 1"
     inkscape:groupmode="layer"
     id="layer1"
     transform="matrix(1 0 0 1 -384.57143 -483.798)">
    <g
       id="g4578"
       transform="matrix(1.2083328 0 0 1.5888879 -77.11883 -310.68057)">
      <path
         inkscape:connector-curvature="0"
         style="fill:url(#linearGradient4703)"
         id="path4589"
         d="M 12,8.3076994 V 34.269242 C 12.0066,35.064647 13.1174,35.977853 14.275848,36 H 53.724122 C 54.895819,35.972416 55.975702,35.070368 56,34.269242 L 55.999984,8.3076994 56,8.3197748 C 56.003477,7.1129383 54.48964,6.0209365 52.965502,6 H 15.034468 C 13.514584,5.9793928 11.994699,7.1640477 12,8.3076994 Z"
         transform="matrix(1.0909096,0,0,1.0909096,371.48052,497.25255)"
         sodipodi:nodetypes="cccccccccc" />
      <path
         inkscape:connector-curvature="0"
         style="fill:url(#linearGradient4532);stroke-width:2;stroke-linecap:round"
         id="path4284"
         d="M 55.252743,6.8786607 25.71875,23.482422 47.400391,36 h 6.323731 C 54.893763,35.984345 55.98475,35.111451 56,34.217893 V 8.313791 C 55.962244,7.8795177 55.895741,7.488715 55.252743,6.8786607 Z"
         transform="matrix(1.0909096,0,0,1.0909096,371.48052,497.25255)"
         sodipodi:nodetypes="ccccccc" />
      <path
         inkscape:connector-curvature="0"
         style="fill:url(#linearGradient4474);stroke-width:2;stroke-linecap:round"
         id="path4284-5-6"
         d="M 25.75,23.416016 12,31.355469 l -1.4e-5,2.913773 C 11.988558,35.177198 13.291907,36.005228 14.275848,36 h 33.329621 z"
         transform="matrix(1.0909096,0,0,1.0909096,371.48052,497.25255)"
         sodipodi:nodetypes="cccccc" />
      <path
         inkscape:transform-center-x="-5.5056915"
         inkscape:connector-curvature="0"
         style="fill:url(#linearGradient4500);stroke-linecap:round;stroke-width:2"
         id="path4284-5-6-2-2"
         d="m 407.82995,527.56606 -8.25852,-4.76806 0,9.53611 z" />
      <path
         inkscape:connector-curvature="0"
         style="fill:url(#linearGradient4498);stroke-linecap:round;stroke-width:2"
         id="path4284-5-6-2-0"
         d="m 40.890625,32.15625 0,3.84375 6.65625,0 -6.65625,-3.84375 z"
         transform="matrix(1.0909096 0 0 1.0909096 371.48052 497.25255)" />
      <path
         inkscape:connector-curvature="0"
         style="fill:url(#linearGradient4496);stroke-linecap:round;stroke-width:2"
         id="path4284-5-6-2-6"
         d="m 53.320312,27.787109 0,8.212891 0.916016,0 6.654297,-3.841797 -7.570313,-4.371094 z"
         transform="matrix(1.0909096 0 0 1.0909096 349.66233 497.25255)" />
      <path
         inkscape:connector-curvature="0"
         style="fill:url(#linearGradient4492);stroke-linecap:round;stroke-width:2"
         id="path4284-5-6-2-6-50"
         d="M 25.75,32.158203 25.75,36 32.404297,36 25.75,32.158203 Z"
         transform="matrix(1.0909096 0 0 1.0909096 371.48052 497.25255)" />
      <path
         inkscape:connector-curvature="0"
         style="fill:url(#linearGradient4490);stroke-linecap:round;stroke-width:2"
         id="path4284-5-6-2-0-6"
         d="M 40.890625,32.15625 34.234375,36 l 6.65625,0 0,-3.84375 z"
         transform="matrix(1.0909096 0 0 1.0909096 371.48052 497.25255)" />
      <path
         inkscape:transform-center-x="5.5056789"
         inkscape:connector-curvature="0"
         style="fill:#aa478a;stroke-width:2;stroke-linecap:round"
         id="path4284-1"
         d="m 399.53737,522.87024 30.81563,-17.29285 2.21843,7.53774 z"
         sodipodi:nodetypes="cccc" />
    </g>
    <g
       id="g4255">
      <path
         inkscape:connector-curvature="0"
         style="fill:#ffffff;fill-opacity:0.784314"
         id="rect4128"
         d="m 387.57143,537.798 v 1 c -0.003,1.53443 1.26159,2.98032 3,3 v 0 h 52 c 1.63915,-0.0887 2.90076,-1.56468 3,-3 v 0 -1 z"
         sodipodi:nodetypes="ccccccccc" />
      <g
         id="text4213"
         transform="matrix(0.64829823 0 0 0.64829823 155.63174 190.06072)">
        <path
           inkscape:connector-curvature="0"
           id="path4218"
           d="m 434.23853,537.83412 c -0.15893,0.11003 -0.36677,0.22414 -0.54201,0.30157 l 0.0734,0.28934 c 0.14264,-0.0448 0.27305,-0.12225 0.43198,-0.22414 l 0,2.60819 0.35455,0 0,-2.97496 -0.31787,0 z" />
        <path
           inkscape:connector-curvature="0"
           id="path4220"
           d="m 435.20119,538.03381 0.11819,0.29749 c 0.16708,-0.17116 0.41568,-0.24452 0.66427,-0.24452 0.33825,0 0.52571,0.18747 0.52571,0.51757 l 0,0.0204 c -0.004,0.2323 -0.15486,0.46051 -0.38715,0.71726 l -1.02697,1.14108 0.0448,0.32602 1.74016,0 0.0245,-0.30565 -1.38153,0 0.83951,-0.89656 c 0.32603,-0.35048 0.52572,-0.63575 0.52979,-1.01067 l 0,-0.0122 c 0,-0.48904 -0.34232,-0.81098 -0.88434,-0.81098 -0.38715,0 -0.63982,0.10595 -0.80691,0.26082 z" />
        <path
           inkscape:connector-curvature="0"
           id="path4222"
           d="m 437.42599,540.85799 0.4116,0 0,-0.46459 -0.4116,0 0,0.46459 z m 0,-1.82574 0.4116,0 0,-0.46051 -0.4116,0 0,0.46051 z" />
        <path
           inkscape:connector-curvature="0"
           id="path4224"
           d="m 439.75394,539.98995 c 0,0.3627 -0.2649,0.56239 -0.65613,0.56239 -0.30157,0 -0.50941,-0.0978 -0.6602,-0.21599 l -0.1141,0.28934 c 0.11003,0.10596 0.39122,0.22822 0.77838,0.22822 0.57869,0 1.00252,-0.3301 1.00252,-0.85989 0,-0.41975 -0.23229,-0.68872 -0.59499,-0.77023 0.32195,-0.0978 0.52164,-0.3301 0.52164,-0.71317 0,-0.47681 -0.41161,-0.73763 -0.85174,-0.73763 -0.41161,0 -0.6765,0.0897 -0.85581,0.22821 l 0.1141,0.28935 c 0.15894,-0.12634 0.39123,-0.21192 0.66428,-0.21192 0.35047,0 0.54609,0.14671 0.54609,0.47681 0,0.46866 -0.43198,0.52164 -0.88842,0.52164 l 0,0.29342 c 0.55424,0 0.99438,0.0856 0.99438,0.61945 z" />
        <path
           inkscape:connector-curvature="0"
           id="path4226"
           d="m 441.86538,538.2824 0,1.49971 -0.99437,0 0.99437,-1.49971 z m 0.67243,1.78905 0.0285,-0.28934 -0.36678,0 0,-1.94799 -0.37085,0 -1.30817,1.93169 0,0.30564 1.34484,0 0,0.73763 0.33418,0 0,-0.73763 0.33825,0 z" />
      </g>
      <path
         inkscape:connector-curvature="0"
         style="color:#000000"
         id="path2994"
         d="m 391.07143,538.69839 a 0.16666666,0.16666666 0 0 0 -0.16667,0.16667 0.16666666,0.16666666 0 0 0 0.16667,0.16667 0.16666666,0.16666666 0 0 0 0.16666,-0.16667 0.16666666,0.16666666 0 0 0 -0.16666,-0.16667 z m 0.83333,0 -0.32292,0.26042 0.43229,0.53646 -0.40625,0.40625 0.29688,0.29687 0.66667,-0.66667 -0.66667,-0.83333 z m -1.08333,0.66667 a 0.25,0.25 0 0 0 -0.25,0.25 0.25,0.25 0 0 0 0.25,0.25 0.25,0.25 0 0 0 0.25,-0.25 0.25,0.25 0 0 0 -0.25,-0.25 z m 0.5,0.83333 a 0.25,0.25 0 0 0 -0.25,0.25 0.25,0.25 0 0 0 0.25,0.25 0.25,0.25 0 0 0 0.25,-0.25 0.25,0.25 0 0 0 -0.25,-0.25 z" />
    </g>
  </g>
</svg>
