<?xml version="1.0" encoding="UTF-8" standalone="no"?>
<svg
   viewBox="0 0 64 64"
   version="1.1"
   id="svg5"
   sodipodi:docname="folder-blender.svg"
   inkscape:version="1.3.2 (091e20ef0f, 2023-11-25)"
   xmlns:inkscape="http://www.inkscape.org/namespaces/inkscape"
   xmlns:sodipodi="http://sodipodi.sourceforge.net/DTD/sodipodi-0.dtd"
   xmlns="http://www.w3.org/2000/svg"
   xmlns:svg="http://www.w3.org/2000/svg">
  <sodipodi:namedview
     id="namedview5"
     pagecolor="#ffffff"
     bordercolor="#999999"
     borderopacity="1"
     inkscape:showpageshadow="2"
     inkscape:pageopacity="0"
     inkscape:pagecheckerboard="0"
     inkscape:deskcolor="#d1d1d1"
     inkscape:zoom="11.9375"
     inkscape:cx="30.910995"
     inkscape:cy="33.759162"
     inkscape:window-width="1920"
     inkscape:window-height="996"
     inkscape:window-x="0"
     inkscape:window-y="0"
     inkscape:window-maximized="1"
     inkscape:current-layer="svg5" />
  <defs
     id="defs3051">
    <style
       type="text/css"
       id="current-color-scheme">
      .ColorScheme-Text {
        color:#232629;
      }
      .ColorScheme-Highlight {
        color:#3daee9;
      }
      </style>
  </defs>
  <path
     style="color:#3daee9;fill:#ff9955;fill-opacity:1;stroke:none;stroke-width:0.999999"
     d="m 4.0006635,10.00001 v 1 9 0 c -0.5203637,0.02153 -1.0229638,0.505476 -0.999899,1 h 0.00195 c -4.69e-5,0.004 -0.00195,0.008 -0.00195,0.01172 v 34.98828 c 0.00871,0.999392 0.9801138,2.005992 1.999798,2 v 0 H 58.995109 v 0 c 1.011732,0.02205 1.994216,-0.972534 1.999798,-2 v -34.988281 -0.01172 -4 c 0.05936,-0.589244 -0.407896,-1.006383 -0.999899,-1 v -4 c 0,-0.003 -0.002,0.004 -0.002,0 h 0.002 v 0 c -0.0061,-1.000671 -0.953819,-1.995969 -1.999798,-2 H 31.997836 L 27.99824,6.0000098 H 8.0002595 C 5.9630216,5.9949298 4.0363539,7.9703334 4.0006635,10.00001 Z"
     class="ColorScheme-Highlight"
     id="path1"
     sodipodi:nodetypes="ccccccsccccccccccscccccccc" />
  <path
     style="fill-opacity:0.33;fill-rule:evenodd;stroke-width:0.999999"
     d="m 4.0302775,10.00001 -0.029614,1 v 9 H 21.998846 l 3.999596,-4 h 33.996566 v -4 c 0,-0.003 -0.002,0.004 -0.002,0 h 0.002 c -0.0062,-1.011275 -1.004016,-2.005682 -1.999798,-2 H 31.997836 L 27.99824,6.0000098 H 8.0002595 C 5.9928069,6.0025998 3.994256,8.00721 4.0302775,10.00001 Z"
     id="path2"
     sodipodi:nodetypes="ccccccsccccccc" />
  <path
     style="fill:#ffffff;fill-opacity:0.2;fill-rule:evenodd;stroke-width:0.999999"
     d="m 27.99824,6.0000098 2.999697,5.0000002 h 1.999798 24.997475 c 1.212814,-0.06389 2.005543,1.005906 1.999798,2 v -1 c 6e-4,-0.992592 -0.988601,-1.993446 -1.999798,-2 H 32.997735 31.997836 Z m -1.999798,10.0000002 -3.999596,4 H 3.0007645 v 1 H 22.998745 Z"
     id="path3"
     sodipodi:nodetypes="cccccccccccccccc" />
  <path
     style="color:#31363b;fill-opacity:0.2;fill-rule:evenodd;stroke-width:0.999999"
     d="m 25.998442,16.00001 -5.999394,3 H 4.0006635 v 1 H 21.998846 Z m -22.9976775,40 c 0.00641,1.008598 0.9937008,2.001463 1.999798,2 v 0 H 58.995109 v 0 0 c 1.002828,0.0016 2.001139,-0.999662 1.999798,-2 z"
     class="ColorScheme-Text"
     id="path4"
     sodipodi:nodetypes="cccccccccccccc" />
  <path
     style="color:#232629;fill:currentColor;fill-opacity:0.6;stroke:none"
     d="m 30.625,26 a 1.5,1.5 0 0 0 -1.5,1.5 1.5,1.5 0 0 0 0.475,1 H 29.5 L 33,32 H 21.5 A 1.5,1.5 0 0 0 20,33.5 1.5,1.5 0 0 0 21.5,35 H 27 l -6.4,6.4 a 1.5,1.5 0 0 0 -0.6,1.2 1.5,1.5 0 0 0 1.5,1.5 1.5,1.5 0 0 0 1.1,-0.5 c 0,0 0,0 0,0 L 26,40.2 a 8,8 0 0 0 8,7.8 8,8 0 0 0 8,-8 8,8 0 0 0 -3,-6.3 L 31.7,26.5 A 1.5,1.5 0 0 0 30.625,26 Z M 34,35 a 5,5 0 0 1 3,1 l 0.9,0.9 v 0 a 5,5 0 0 1 1.1,3.1 5,5 0 0 1 -5,5 5,5 0 0 1 -5,-5 5,5 0 0 1 5,-5 z m 0,3 a 2,2 0 0 0 -2,2 2,2 0 0 0 2,2 2,2 0 0 0 2,-2 2,2 0 0 0 -2,-2 z"
     class="ColorScheme-Text"
     id="path5-6" />
</svg>
