<?xml version="1.0" encoding="UTF-8" standalone="no"?>
<svg
   inkscape:version="1.3.2 (091e20ef0f, 2023-11-25)"
   sodipodi:docname="folder-activities.svg"
   id="svg14"
   version="1.1"
   viewBox="0 0 64 64"
   xmlns:inkscape="http://www.inkscape.org/namespaces/inkscape"
   xmlns:sodipodi="http://sodipodi.sourceforge.net/DTD/sodipodi-0.dtd"
   xmlns="http://www.w3.org/2000/svg"
   xmlns:svg="http://www.w3.org/2000/svg"
   xmlns:rdf="http://www.w3.org/1999/02/22-rdf-syntax-ns#"
   xmlns:cc="http://creativecommons.org/ns#"
   xmlns:dc="http://purl.org/dc/elements/1.1/">
  <metadata
     id="metadata18">
    <rdf:RDF>
      <cc:Work
         rdf:about="">
        <dc:format>image/svg+xml</dc:format>
        <dc:type
           rdf:resource="http://purl.org/dc/dcmitype/StillImage" />
      </cc:Work>
    </rdf:RDF>
  </metadata>
  <sodipodi:namedview
     inkscape:current-layer="svg14"
     inkscape:window-maximized="1"
     inkscape:window-y="0"
     inkscape:window-x="0"
     inkscape:cy="66.873385"
     inkscape:cx="39.778134"
     inkscape:zoom="3.4692426"
     showgrid="false"
     id="namedview16"
     inkscape:window-height="996"
     inkscape:window-width="1920"
     inkscape:pageshadow="2"
     inkscape:pageopacity="0"
     guidetolerance="10"
     gridtolerance="10"
     objecttolerance="10"
     borderopacity="1"
     bordercolor="#666666"
     pagecolor="#ffffff"
     inkscape:showpageshadow="2"
     inkscape:pagecheckerboard="0"
     inkscape:deskcolor="#d1d1d1" />
  <defs
     id="defs3051">
    <style
       id="current-color-scheme"
       type="text/css">.ColorScheme-Text { color:#31363b; }
.ColorScheme-Background { color:#eff0f1; }
.ColorScheme-Highlight { color:#3daee9; }
.ColorScheme-ViewText { color:#31363b; }
.ColorScheme-ViewBackground { color:#fcfcfc; }
.ColorScheme-ViewHover { color:#93cee9; }
.ColorScheme-ViewFocus { color:#3daee9; }
.ColorScheme-ButtonText { color:#31363b; }
.ColorScheme-ButtonBackground { color:#eff0f1; }
.ColorScheme-ButtonHover { color:#93cee9; }
.ColorScheme-ButtonFocus { color:#3daee9; }
</style>
  </defs>
  <path
     style="fill:currentColor;fill-opacity:1;stroke:none"
     d="m 4.0007645,10.00001 v 1 9 0 c -0.5204163,0.02153 -1.0230671,0.505476 -1,1 h 0.00195 c -4.69e-5,0.004 -0.00195,0.008 -0.00195,0.01172 v 34.98828 c 0.00871,0.99939 0.9802128,2.00599 2,2 v 0 H 59.000765 v 0 c 1.011834,0.022 1.994418,-0.97253 2,-2 v -34.98828 -0.01172 -4 c 0.05937,-0.589244 -0.407937,-1.006383 -1,-1 v -4 c 0,-0.003 -0.002,0.004 -0.002,0 h 0.002 v 0 c -0.0061,-1.000671 -0.953916,-1.995969 -2,-2 h -26 L 28.000764,6.0000099 H 8.0007645 c -2.0374437,-0.0051 -3.964306,1.970324 -4,4.0000001 z"
     class="ColorScheme-Highlight "
     id="path1"
     sodipodi:nodetypes="ccccccsccccccccccscccccccc" />
  <path
     style="fill-opacity:0.33;fill-rule:evenodd"
     d="m 4.0303815,10.00001 -0.029617,1 v 9 H 22.000764 l 4,-4 h 34.000001 v -4 c 0,-0.003 -0.002,0.004 -0.002,0 h 0.002 c -0.0062,-1.011275 -1.004117,-2.005681 -2,-2 h -26 L 28.000764,6.0000099 H 8.0007645 c -2.0076554,0.0026 -4.0064082,2.0072 -3.970383,4.0000001 z"
     id="path2"
     sodipodi:nodetypes="ccccccsccccccc" />
  <path
     style="fill:#ffffff;fill-opacity:0.2;fill-rule:evenodd"
     d="m 28.000764,6.0000099 3,5.0000001 h 2.000001 25 c 1.212936,-0.06389 2.005746,1.005906 2,2 v -1 c 5.99e-4,-0.992592 -0.988701,-1.993446 -2,-2 h -25 -1 z m -2,10.0000001 -4,4 H 3.0007645 v 1 H 23.000764 Z"
     id="path3"
     sodipodi:nodetypes="cccccccccccccccc" />
  <path
     style="color:#31363b;fill-opacity:0.2;fill-rule:evenodd"
     d="m 26.000764,16.00001 -6,3 H 4.0007645 v 1 H 22.000764 Z m -22.9999995,40 c 0.00641,1.0086 0.9938012,2.00146 2,2 v 0 H 59.000765 v 0 0 c 1.002929,0.002 2.00134,-0.99966 2,-2 z"
     class="ColorScheme-Text"
     id="path4-3"
     sodipodi:nodetypes="cccccccccccccc" />
  <path
     id="path12-6"
     class="ColorScheme-Background"
     d="M 26.5,27 A 1.5000025,1.499995 0 0 0 25,28.5 1.5000025,1.499995 0 0 0 26.5,30 1.5000025,1.499995 0 0 0 28,28.5 1.5000025,1.499995 0 0 0 26.5,27 Z m 8.5,0 -2.84375,2.84375 4.375,4.375001 -4.53125,5.15625 3,2.625 7,-8 z m -10.5,7.000001 a 2.4999926,2.5 0 0 0 -2.5,2.5 2.4999926,2.5 0 0 0 2.5,2.5 2.4999926,2.5 0 0 0 2.5,-2.5 2.4999926,2.5 0 0 0 -2.5,-2.5 z m 4.5,7 a 2.9999924,3 0 0 0 -3,3 2.9999924,3 0 0 0 3,3 2.9999924,3 0 0 0 3,-3 2.9999924,3 0 0 0 -3,-3 z"
     style="color:#eff0f1;fill:#e5e5e5;fill-opacity:1;stroke:none" />
</svg>
