<?xml version="1.0" encoding="UTF-8" standalone="no"?>
<svg
   viewBox="0 0 64 64"
   version="1.1"
   id="svg14"
   sodipodi:docname="folder-cloud.svg"
   inkscape:version="1.3.2 (091e20ef0f, 2023-11-25)"
   xmlns:inkscape="http://www.inkscape.org/namespaces/inkscape"
   xmlns:sodipodi="http://sodipodi.sourceforge.net/DTD/sodipodi-0.dtd"
   xmlns="http://www.w3.org/2000/svg"
   xmlns:svg="http://www.w3.org/2000/svg"
   xmlns:rdf="http://www.w3.org/1999/02/22-rdf-syntax-ns#"
   xmlns:cc="http://creativecommons.org/ns#"
   xmlns:dc="http://purl.org/dc/elements/1.1/">
  <metadata
     id="metadata18">
    <rdf:RDF>
      <cc:Work
         rdf:about="">
        <dc:format>image/svg+xml</dc:format>
        <dc:type
           rdf:resource="http://purl.org/dc/dcmitype/StillImage" />
      </cc:Work>
    </rdf:RDF>
  </metadata>
  <sodipodi:namedview
     inkscape:document-rotation="0"
     pagecolor="#ffffff"
     bordercolor="#666666"
     borderopacity="1"
     objecttolerance="10"
     gridtolerance="10"
     guidetolerance="10"
     inkscape:pageopacity="0"
     inkscape:pageshadow="2"
     inkscape:window-width="1920"
     inkscape:window-height="996"
     id="namedview16"
     showgrid="true"
     inkscape:zoom="3.4692426"
     inkscape:cx="40.642876"
     inkscape:cy="56.496481"
     inkscape:window-x="0"
     inkscape:window-y="0"
     inkscape:window-maximized="1"
     inkscape:current-layer="svg14"
     inkscape:showpageshadow="2"
     inkscape:pagecheckerboard="0"
     inkscape:deskcolor="#d1d1d1">
    <inkscape:grid
       type="xygrid"
       id="grid835"
       originx="0"
       originy="0"
       spacingy="1"
       spacingx="1"
       units="px"
       visible="true" />
  </sodipodi:namedview>
  <defs
     id="defs3051">
    <style
       type="text/css"
       id="current-color-scheme">.ColorScheme-Text { color:#31363b; }
.ColorScheme-Background { color:#eff0f1; }
.ColorScheme-Highlight { color:#3daee9; }
.ColorScheme-ViewText { color:#31363b; }
.ColorScheme-ViewBackground { color:#fcfcfc; }
.ColorScheme-ViewHover { color:#93cee9; }
.ColorScheme-ViewFocus { color:#3daee9; }
.ColorScheme-ButtonText { color:#31363b; }
.ColorScheme-ButtonBackground { color:#eff0f1; }
.ColorScheme-ButtonHover { color:#93cee9; }
.ColorScheme-ButtonFocus { color:#3daee9; }
</style>
  </defs>
  <path
     style="fill:currentColor;fill-opacity:1;stroke:none"
     d="m 4.0007646,10.000011 v 1 9 0 c -0.520417,0.02153 -1.023068,0.505476 -1,1 h 0.002 c -4.7e-5,0.004 -0.002,0.008 -0.002,0.01172 v 34.98828 c 0.0087,0.999392 0.980212,2.005992 2,2 v 0 H 59.000764 v 0 c 1.011833,0.02205 1.994417,-0.972534 2,-2 v -34.988281 -0.01172 -4 c 0.05937,-0.589244 -0.407938,-1.006383 -1,-1 v -4 c 0,-0.003 -0.002,0.004 -0.002,0 h 0.002 v 0 c -0.0061,-1.000671 -0.953916,-1.995969 -2,-2 h -26 l -4,-4.0000001 H 8.0007646 c -2.037444,-0.0051 -3.964306,1.970324 -4,4.0000011 z"
     class="ColorScheme-Highlight "
     id="path1"
     sodipodi:nodetypes="ccccccsccccccccccscccccccc" />
  <path
     style="fill-opacity:0.33;fill-rule:evenodd"
     d="m 4.0303816,10.000011 -0.02962,1 v 9 H 22.000761 l 4,-4 h 34 v -4 c 0,-0.003 -0.002,0.004 -0.002,0 h 0.002 c -0.0062,-1.011275 -1.004118,-2.005681 -2,-2 h -26 l -4,-4.0000001 H 8.0007616 c -2.007656,0.0026 -4.006409,2.0072 -3.970383,4.0000001 z"
     id="path2"
     sodipodi:nodetypes="ccccccsccccccc" />
  <path
     style="fill:#ffffff;fill-opacity:0.2;fill-rule:evenodd"
     d="m 28.000764,6.0000109 3,5.0000001 h 2 25 c 1.212936,-0.06389 2.005746,1.005906 2,2 v -1 c 5.99e-4,-0.992592 -0.988702,-1.993446 -2,-2 h -25 -1 z m -2,10.0000001 -4,4 H 3.0007646 v 1 H 23.000764 Z"
     id="path3"
     sodipodi:nodetypes="cccccccccccccccc" />
  <path
     style="color:#31363b;fill-opacity:0.2;fill-rule:evenodd"
     d="m 26.000764,16.000011 -6,3 H 4.0007646 v 1 H 22.000764 Z m -22.9999994,40 c 0.0064,1.008598 0.993801,2.001463 2,2 v 0 H 59.000764 v 0 0 c 1.002928,0.0016 2.00134,-0.999662 2,-2 z"
     class="ColorScheme-Text"
     id="path4"
     sodipodi:nodetypes="cccccccccccccc" />
  <path
     style="color:#eff0f1;fill:#e5e5e5;fill-opacity:1;stroke:none"
     d="M 32.000002,28 A 7,7 0 0 0 25,35 7,7 0 0 0 25.08008,36.001953 5,5 0 0 0 25,36.000053 a 5,5 0 0 0 -5,5 5,5 0 0 0 5,5 h 13.000002 a 6,6 0 0 0 6,-6 6,6 0 0 0 -5.06836,-5.921875 7,7 0 0 0 -6.93164,-6.078125 z m 0,1 a 6,6 0 0 1 0.59961,0.0293 6,6 0 0 1 2.78711,1.019531 6,6 0 0 1 0.002,0 6,6 0 0 1 1.31055,1.220703 6,6 0 0 1 0,0.002 6,6 0 0 1 1.21484,2.732422 6,6 0 0 1 0.0859,0.996094 5,5 0 0 1 0.99609,0.09961 5,5 0 0 1 0.48242,0.123047 5,5 0 0 1 0.002,0 5,5 0 0 1 0.46679,0.171875 5,5 0 0 1 0.002,0 5,5 0 0 1 0.44726,0.216797 5,5 0 0 1 0.004,0.0019 5,5 0 0 1 0.42187,0.259766 5,5 0 0 1 0.004,0.0019 5,5 0 0 1 0.39453,0.300781 5,5 0 0 1 0.002,0.002 5,5 0 0 1 0.36329,0.337891 5,5 0 0 1 0.002,0.002 5,5 0 0 1 0.61914,0.78125 5,5 0 0 1 0.002,0.002 5,5 0 0 1 0.2461,0.431641 5,5 0 0 1 0.002,0.002 5,5 0 0 1 0.20312,0.453125 5,5 0 0 1 0.002,0.002 5,5 0 0 1 0.15625,0.472656 5,5 0 0 1 0,0.002 5,5 0 0 1 0.10937,0.486329 5,5 0 0 1 0,0.002 5,5 0 0 1 0.0605,0.49414 5,5 0 0 1 0.0117,0.353516 5,5 0 0 1 -5,5 H 25 a 4,4 0 0 1 -4,-4 4,4 0 0 1 0.01953,-0.398438 4,4 0 0 1 3.980469,-3.601562 4,4 0 0 1 0.298828,0.01367 4,4 0 0 1 0,0.002 4,4 0 0 1 1.156254,0.261719 A 6,6 0 0 1 26.11328,36.131125 6,6 0 0 1 26.03906,35.623313 6,6 0 0 1 26.02539,35.508078 6,6 0 0 1 26,35.000266 a 6,6 0 0 1 0.0293,-0.599609 6,6 0 0 1 5.970705,-5.400391 z"
     class="ColorScheme-Background"
     id="path12-2" />
</svg>
