<?xml version="1.0" encoding="UTF-8" standalone="no"?>
<svg
   viewBox="0 0 64 64"
   version="1.1"
   id="svg14"
   sodipodi:docname="folder-build.svg"
   inkscape:version="1.3.2 (091e20ef0f, 2023-11-25)"
   xmlns:inkscape="http://www.inkscape.org/namespaces/inkscape"
   xmlns:sodipodi="http://sodipodi.sourceforge.net/DTD/sodipodi-0.dtd"
   xmlns="http://www.w3.org/2000/svg"
   xmlns:svg="http://www.w3.org/2000/svg">
  <sodipodi:namedview
     id="namedview16"
     pagecolor="#ffffff"
     bordercolor="#666666"
     borderopacity="1.0"
     inkscape:pageshadow="2"
     inkscape:pageopacity="0.0"
     inkscape:pagecheckerboard="0"
     showgrid="false"
     inkscape:zoom="9.71875"
     inkscape:cx="20.88746"
     inkscape:cy="31.897106"
     inkscape:window-width="1920"
     inkscape:window-height="996"
     inkscape:window-x="0"
     inkscape:window-y="0"
     inkscape:window-maximized="1"
     inkscape:current-layer="svg14"
     inkscape:showpageshadow="2"
     inkscape:deskcolor="#d1d1d1" />
  <defs
     id="defs3051">
    <style
       type="text/css"
       id="current-color-scheme">.ColorScheme-Text { color:#232629; }
.ColorScheme-Highlight { color:#3daee9; }
</style>
  </defs>
  <path
     style="fill:currentColor;fill-opacity:1;stroke:none;stroke-width:0.999999"
     d="m 4.0006635,10 v 1 9 0 c -0.5203637,0.02153 -1.0229638,0.505476 -0.999899,1 h 0.00195 c -4.69e-5,0.004 -0.00195,0.008 -0.00195,0.01172 V 56 c 0.00871,0.999392 0.9801138,2.005992 1.999798,2 v 0 H 58.995109 v 0 c 1.011732,0.02205 1.994216,-0.972534 1.999798,-2 V 21.011719 21 17 c 0.05936,-0.589244 -0.407896,-1.006383 -0.999899,-1 v -4 c 0,-0.003 -0.002,0.004 -0.002,0 h 0.002 v 0 c -0.0061,-1.000671 -0.953819,-1.995969 -1.999798,-2 H 31.997836 L 27.99824,6 H 8.0002595 C 5.9630216,5.99492 4.0363539,7.9703236 4.0006635,10 Z"
     class="ColorScheme-Highlight "
     id="path1"
     sodipodi:nodetypes="ccccccsccccccccccscccccccc" />
  <path
     style="fill-opacity:0.33;fill-rule:evenodd;stroke-width:0.999999"
     d="m 4.0302775,10 -0.029614,1 v 9 H 21.998846 l 3.999596,-4 h 33.996566 v -4 c 0,-0.003 -0.002,0.004 -0.002,0 h 0.002 C 59.988808,10.988725 58.990992,9.9943186 57.99521,10 H 31.997836 L 27.99824,6 H 8.0002595 C 5.9928069,6.00259 3.994256,8.0072001 4.0302775,10 Z"
     id="path2"
     sodipodi:nodetypes="ccccccsccccccc" />
  <path
     style="fill:#ffffff;fill-opacity:0.2;fill-rule:evenodd;stroke-width:0.999999"
     d="m 27.99824,6 2.999697,5 h 1.999798 24.997475 c 1.212814,-0.06389 2.005543,1.005906 1.999798,2 v -1 c 6e-4,-0.992592 -0.988601,-1.993446 -1.999798,-2 H 32.997735 31.997836 Z m -1.999798,10 -3.999596,4 H 3.0007645 v 1 H 22.998745 Z"
     id="path3"
     sodipodi:nodetypes="cccccccccccccccc" />
  <path
     style="color:#31363b;fill-opacity:0.2;fill-rule:evenodd;stroke-width:0.999999"
     d="m 25.998442,16 -5.999394,3 H 4.0006635 v 1 H 21.998846 Z M 3.0007645,56 c 0.00641,1.008598 0.9937008,2.001463 1.999798,2 v 0 H 58.995109 v 0 0 c 1.002828,0.0016 2.001139,-0.999662 1.999798,-2 z"
     class="ColorScheme-Text"
     id="path4"
     sodipodi:nodetypes="cccccccccccccc" />
  <path
     style="color:#232629;fill:#e5e5e5;fill-opacity:1;stroke:none"
     d="m 39.797874,25 -0.310546,1.060546 c -0.636,-0.053 -1.276719,0.01708 -1.886719,0.205078 l -0.529297,-0.96875 -1.755859,0.958985 0.529297,0.96875 c -0.489,0.412 -0.89336,0.912562 -1.19336,1.476562 l -1.05664,-0.308593 -0.5625,1.917968 1.060546,0.310547 c -0.053,0.636 0.01513,1.278672 0.203125,1.888672 l -0.96875,0.529297 0.958985,1.755859 0.96875,-0.53125 c 0.412,0.489 0.914515,0.895313 1.478515,1.195313 l -0.310547,1.05664 1.919922,0.5625 0.310547,-1.060546 c 0.636,0.053 1.276719,-0.01708 1.886719,-0.205078 l 0.53125,0.96875 1.753906,-0.958985 -0.529297,-0.96875 c 0.489,-0.412 0.89336,-0.912562 1.19336,-1.476562 l 1.05664,0.308593 0.5625,-1.917968 -1.060547,-0.310547 c 0.053,-0.636 -0.01512,-1.278672 -0.203124,-1.888672 l 0.96875,-0.529297 -0.958985,-1.755859 -0.96875,0.53125 c -0.412,-0.489 -0.914515,-0.895313 -1.478515,-1.195313 l 0.310546,-1.05664 z m -0.988281,2.048828 c 0.198468,-0.01293 0.398731,-0.0109 0.597657,0.0059 0.265233,0.02234 0.529812,0.07048 0.789062,0.146484 0.998,0.293 1.843469,0.963141 2.355469,1.869141 0.532,0.94 0.661422,2.05675 0.357422,3.09375 -0.293,0.998 -0.963141,1.843469 -1.869141,2.355469 -0.94,0.532 -2.05675,0.661422 -3.09375,0.357422 -0.998,-0.293 -1.845422,-0.963141 -2.357422,-1.869141 -0.532,-0.94 -0.661422,-2.05675 -0.357422,-3.09375 0.293,-0.998 0.963141,-1.843469 1.869141,-2.355469 0.52875,-0.29925 1.11358,-0.470984 1.708984,-0.509765 z m -13.330078,2.921875 -1.990234,0.195312 0.107422,1.099609 c -0.61,0.188001 -1.177829,0.490579 -1.673829,0.892579 l -0.855468,-0.701172 -1.269532,1.544922 0.853516,0.701171 c -0.3,0.565001 -0.486687,1.18236 -0.554687,1.81836 l -1.095703,0.107422 0.195312,1.990234 1.099609,-0.107422 c 0.188,0.61 0.490578,1.177828 0.892579,1.673828 l -0.701172,0.855469 1.544922,1.269531 0.701171,-0.853515 c 0.565,0.3 1.18236,0.486687 1.81836,0.554687 l 0.107422,1.095703 1.990234,-0.195312 -0.107422,-1.099609 c 0.61,-0.188 1.177828,-0.490579 1.673828,-0.892579 l 0.855469,0.701172 1.269531,-1.544922 L 29.487328,38.375 c 0.3,-0.565 0.486687,-1.18236 0.554687,-1.81836 l 1.095703,-0.107422 -0.195312,-1.990234 -1.09961,0.107422 c -0.188,-0.61 -0.490578,-1.177828 -0.892578,-1.673828 l 0.701172,-0.855469 -1.544922,-1.269531 -0.701172,0.853515 c -0.565,-0.3 -1.182359,-0.486687 -1.818359,-0.554687 z m -0.02734,2.085937 c 0.766032,0.07373 1.500829,0.368719 2.111329,0.855469 0.845,0.674 1.381328,1.660328 1.486328,2.736328 0.102,1.036 -0.204516,2.070766 -0.853516,2.884766 -0.674,0.845 -1.662281,1.381328 -2.738281,1.486328 -1.036,0.102 -2.068813,-0.204516 -2.882813,-0.853516 -0.845,-0.674 -1.381328,-1.662281 -1.486328,-2.738281 -0.102,-1.036 0.204516,-2.068813 0.853516,-2.882813 0.674,-0.845 1.660328,-1.381328 2.736328,-1.486328 0.259,-0.02555 0.518094,-0.02653 0.773437,-0.002 z m 8.617188,3.982422 v 1.105469 c -0.626,0.128 -1.220906,0.374562 -1.753906,0.726562 l -0.78125,-0.78125 -1.414063,1.414063 0.78125,0.78125 c -0.353,0.533 -0.601469,1.127906 -0.730469,1.753906 h -1.101562 v 2 h 1.105469 c 0.128,0.626 0.374562,1.220906 0.726562,1.753906 l -0.78125,0.78125 1.414063,1.414063 0.78125,-0.78125 c 0.533,0.353 1.127906,0.601469 1.753906,0.730469 v 1.101562 h 2 v -1.105469 c 0.626,-0.128 1.220906,-0.374562 1.753906,-0.726562 l 0.78125,0.78125 1.414063,-1.414063 -0.78125,-0.78125 c 0.353,-0.533 0.601467,-1.127906 0.730468,-1.753906 h 1.101563 v -2 h -1.105469 c -0.128,-0.626 -0.374562,-1.220906 -0.726562,-1.753906 l 0.78125,-0.78125 -1.414063,-1.414063 -0.78125,0.78125 c -0.533,-0.353 -1.127906,-0.601469 -1.753906,-0.730469 v -1.101562 z m 1,2 c 1.041,0 2.040109,0.405859 2.787109,1.130859 0.775,0.753 1.212891,1.788141 1.212891,2.869141 0,1.041 -0.405859,2.040109 -1.130859,2.787109 -0.753001,0.775 -1.788141,1.212891 -2.869141,1.212891 -1.041,0 -2.04011,-0.405859 -2.787109,-1.130859 -0.775001,-0.753 -1.212891,-1.788141 -1.212891,-2.869141 0,-1.041 0.405859,-2.040109 1.130859,-2.787109 0.753,-0.775 1.788141,-1.212891 2.869141,-1.212891 z"
     class="ColorScheme-Text"
     id="path12-6" />
</svg>
