<?xml version="1.0" encoding="UTF-8" standalone="no"?>
<svg
   viewBox="0 0 64 64"
   version="1.1"
   id="svg4"
   sodipodi:docname="folder-arch.svg"
   inkscape:version="1.3.2 (091e20ef0f, 2023-11-25)"
   xmlns:inkscape="http://www.inkscape.org/namespaces/inkscape"
   xmlns:sodipodi="http://sodipodi.sourceforge.net/DTD/sodipodi-0.dtd"
   xmlns="http://www.w3.org/2000/svg"
   xmlns:svg="http://www.w3.org/2000/svg">
  <sodipodi:namedview
     id="namedview4"
     pagecolor="#ffffff"
     bordercolor="#000000"
     borderopacity="0.25"
     inkscape:showpageshadow="2"
     inkscape:pageopacity="0.0"
     inkscape:pagecheckerboard="0"
     inkscape:deskcolor="#d1d1d1"
     inkscape:zoom="4.248165"
     inkscape:cx="-4.0017278"
     inkscape:cy="0.47079151"
     inkscape:window-width="1920"
     inkscape:window-height="996"
     inkscape:window-x="0"
     inkscape:window-y="0"
     inkscape:window-maximized="1"
     inkscape:current-layer="svg4" />
  <defs
     id="defs3051">
    <style
       type="text/css"
       id="current-color-scheme">.ColorScheme-Text { color:#31363b; }
.ColorScheme-Background { color:#eff0f1; }
.ColorScheme-Highlight { color:#3daee9; }
.ColorScheme-ViewText { color:#31363b; }
.ColorScheme-ViewBackground { color:#fcfcfc; }
.ColorScheme-ViewHover { color:#93cee9; }
.ColorScheme-ViewFocus { color:#3daee9; }
.ColorScheme-ButtonText { color:#31363b; }
.ColorScheme-ButtonBackground { color:#eff0f1; }
.ColorScheme-ButtonHover { color:#93cee9; }
.ColorScheme-ButtonFocus { color:#3daee9; }
</style>
  </defs>
  <path
     style="fill:currentColor;fill-opacity:1;stroke:none"
     d="m 4.0007645,10.000011 v 1 9 0 c -0.520416,0.02153 -1.023067,0.505476 -1,1 h 0.002 c -4.7e-5,0.004 -0.002,0.008 -0.002,0.01172 v 34.98828 c 0.0087,0.999392 0.980213,2.005992 2,2 v 0 H 59.000765 v 0 c 1.011834,0.02205 1.994418,-0.972534 2,-2 v -34.988281 -0.01172 -4 c 0.05937,-0.589244 -0.407937,-1.006383 -1,-1 v -4 c 0,-0.003 -0.002,0.004 -0.002,0 h 0.002 v 0 c -0.0061,-1.000671 -0.953915,-1.995969 -2,-2 h -26 l -4,-4.0000001 H 8.0007645 c -2.037444,-0.0051 -3.964306,1.970324 -4,4.0000011 z"
     class="ColorScheme-Highlight "
     id="path1"
     sodipodi:nodetypes="ccccccsccccccccccscccccccc" />
  <path
     style="fill-opacity:0.33;fill-rule:evenodd"
     d="m 4.0303815,10.000011 -0.02962,1 v 9 H 22.000762 l 4,-4 h 34 v -4 c 0,-0.003 -0.002,0.004 -0.002,0 h 0.002 c -0.0062,-1.011275 -1.004117,-2.005681 -2,-2 h -26 l -4,-4.0000001 H 8.0007615 c -2.007655,0.0026 -4.006408,2.0072 -3.970383,4.0000001 z"
     id="path2"
     sodipodi:nodetypes="ccccccsccccccc" />
  <path
     style="fill:#ffffff;fill-opacity:0.2;fill-rule:evenodd"
     d="m 28.000765,6.0000109 3,5.0000001 h 2 25 c 1.212937,-0.06389 2.005746,1.005906 2,2 v -1 c 6e-4,-0.992592 -0.988701,-1.993446 -2,-2 h -25 -1 z m -2,10.0000001 -4,4 H 3.0007645 v 1 H 23.000765 Z"
     id="path3"
     sodipodi:nodetypes="cccccccccccccccc" />
  <path
     style="color:#31363b;fill-opacity:0.2;fill-rule:evenodd"
     d="m 26.000765,16.000011 -6,3 H 4.0007645 v 1 H 22.000765 Z m -23.0000005,40 c 0.0064,1.008598 0.993801,2.001463 2,2 v 0 H 59.000765 v 0 0 c 1.002929,0.0016 2.001341,-0.999662 2,-2 z"
     class="ColorScheme-Text"
     id="path4"
     sodipodi:nodetypes="cccccccccccccc" />
  <g
     id="start-here-kde-5-7"
     transform="matrix(0.12037189,0,0,0.12034545,21.166521,26.168466)"
     inkscape:label="#start-here-kde"
     style="fill:#e5e5e5;fill-opacity:1">
    <g
       id="22-22-start-here-kde-3-7-2-3-5"
       style="fill:#e5e5e5;fill-opacity:1">
      <g
         transform="translate(-50.6,-139.51)"
         id="g6-5-9-5-3"
         style="fill:#e5e5e5;fill-opacity:1">
        <g
           transform="matrix(0.87464,0,0,0.87464,14.731,23.409)"
           id="g4-3-1-6-5"
           style="fill:#e5e5e5;fill-opacity:1">
          <path
             transform="matrix(1.1433,0,0,1.1433,22.92,121.64)"
             d="M 105.81,16.625 C 98.4131,34.76 93.952,46.623 85.716,64.219 90.7654,69.5713 96.963,75.804 107.028,82.844 96.207,78.3912 88.825,73.9206 83.309,69.282 c -10.54,21.993 -27.053,53.321 -60.562,113.53 26.338,-15.205 46.754,-24.579 65.781,-28.156 -0.81703,-3.514 -1.2816,-7.3152 -1.25,-11.281 l 0.03125,-0.84375 c 0.41792,-16.874 9.1957,-29.85 19.594,-28.969 10.398,0.88104 18.48,15.282 18.062,32.156 -0.0786,3.1751 -0.43674,6.2296 -1.0625,9.0625 18.821,3.6816 39.019,13.032 65,28.031 -5.123,-9.4318 -9.6957,-17.934 -14.062,-26.031 -6.8784,-5.3312 -14.053,-12.27 -28.688,-19.781 10.059,2.6138 17.261,5.6293 22.875,9 -44.398,-82.662 -47.994,-93.646 -63.219,-129.38 z"
             id="path2-5-2-2-6"
             style="fill:#e5e5e5;fill-opacity:1" />
        </g>
      </g>
    </g>
  </g>
</svg>
