<?xml version="1.0" encoding="UTF-8" standalone="no"?>
<svg
   viewBox="0 0 64 64"
   version="1.1"
   id="svg12"
   sodipodi:docname="folder-reddit.svg"
   inkscape:version="1.3.2 (091e20ef0f, 2023-11-25)"
   xmlns:inkscape="http://www.inkscape.org/namespaces/inkscape"
   xmlns:sodipodi="http://sodipodi.sourceforge.net/DTD/sodipodi-0.dtd"
   xmlns="http://www.w3.org/2000/svg"
   xmlns:svg="http://www.w3.org/2000/svg"
   xmlns:rdf="http://www.w3.org/1999/02/22-rdf-syntax-ns#"
   xmlns:cc="http://creativecommons.org/ns#"
   xmlns:dc="http://purl.org/dc/elements/1.1/">
  <metadata
     id="metadata16">
    <rdf:RDF>
      <cc:Work
         rdf:about="">
        <dc:format>image/svg+xml</dc:format>
        <dc:type
           rdf:resource="http://purl.org/dc/dcmitype/StillImage" />
      </cc:Work>
    </rdf:RDF>
  </metadata>
  <sodipodi:namedview
     pagecolor="#ffffff"
     bordercolor="#666666"
     borderopacity="1"
     objecttolerance="10"
     gridtolerance="10"
     guidetolerance="10"
     inkscape:pageopacity="0"
     inkscape:pageshadow="2"
     inkscape:window-width="1920"
     inkscape:window-height="996"
     id="namedview14"
     showgrid="false"
     inkscape:zoom="9.8125"
     inkscape:cx="32.815287"
     inkscape:cy="32"
     inkscape:window-x="0"
     inkscape:window-y="0"
     inkscape:window-maximized="1"
     inkscape:current-layer="svg12"
     inkscape:showpageshadow="2"
     inkscape:pagecheckerboard="0"
     inkscape:deskcolor="#d1d1d1" />
  <defs
     id="defs3051">
    <style
       type="text/css"
       id="current-color-scheme">.ColorScheme-Text { color:#31363b; }
.ColorScheme-Background { color:#eff0f1; }
.ColorScheme-Highlight { color:#3daee9; }
.ColorScheme-ViewText { color:#31363b; }
.ColorScheme-ViewBackground { color:#fcfcfc; }
.ColorScheme-ViewHover { color:#93cee9; }
.ColorScheme-ViewFocus { color:#3daee9; }
.ColorScheme-ButtonText { color:#31363b; }
.ColorScheme-ButtonBackground { color:#eff0f1; }
.ColorScheme-ButtonHover { color:#93cee9; }
.ColorScheme-ButtonFocus { color:#3daee9; }
</style>
  </defs>
  <path
     style="fill:currentColor;fill-opacity:1;stroke:none;stroke-width:0.999999"
     d="m 4.0006635,10 v 1 9 0 c -0.5203637,0.02153 -1.0229638,0.505476 -0.999899,1 h 0.00195 c -4.69e-5,0.004 -0.00195,0.008 -0.00195,0.01172 V 56 c 0.00871,0.999392 0.9801138,2.005992 1.999798,2 v 0 H 58.995109 v 0 c 1.011732,0.02205 1.994216,-0.972534 1.999798,-2 V 21.011719 21 17 c 0.05936,-0.589244 -0.407896,-1.006383 -0.999899,-1 v -4 c 0,-0.003 -0.002,0.004 -0.002,0 h 0.002 v 0 c -0.0061,-1.000671 -0.953819,-1.995969 -1.999798,-2 H 31.997836 L 27.99824,6 H 8.0002595 C 5.9630216,5.99492 4.0363539,7.9703236 4.0006635,10 Z"
     class="ColorScheme-Highlight "
     id="path1"
     sodipodi:nodetypes="ccccccsccccccccccscccccccc" />
  <path
     style="fill-opacity:0.33;fill-rule:evenodd;stroke-width:0.999999"
     d="m 4.0302775,10 -0.029614,1 v 9 H 21.998846 l 3.999596,-4 h 33.996566 v -4 c 0,-0.003 -0.002,0.004 -0.002,0 h 0.002 C 59.988808,10.988725 58.990992,9.9943186 57.99521,10 H 31.997836 L 27.99824,6 H 8.0002595 C 5.9928069,6.00259 3.994256,8.0072001 4.0302775,10 Z"
     id="path2"
     sodipodi:nodetypes="ccccccsccccccc" />
  <path
     style="fill:#ffffff;fill-opacity:0.2;fill-rule:evenodd;stroke-width:0.999999"
     d="m 27.99824,6 2.999697,5 h 1.999798 24.997475 c 1.212814,-0.06389 2.005543,1.005906 1.999798,2 v -1 c 6e-4,-0.992592 -0.988601,-1.993446 -1.999798,-2 H 32.997735 31.997836 Z m -1.999798,10 -3.999596,4 H 3.0007645 v 1 H 22.998745 Z"
     id="path3"
     sodipodi:nodetypes="cccccccccccccccc" />
  <path
     style="color:#31363b;fill-opacity:0.2;fill-rule:evenodd;stroke-width:0.999999"
     d="m 25.998442,16 -5.999394,3 H 4.0006635 v 1 H 21.998846 Z M 3.0007645,56 c 0.00641,1.008598 0.9937008,2.001463 1.999798,2 v 0 H 58.995109 v 0 0 c 1.002828,0.0016 2.001139,-0.999662 1.999798,-2 z"
     class="ColorScheme-Text"
     id="path4"
     sodipodi:nodetypes="cccccccccccccc" />
  <path
     d="m 42.71555,36.6023 c 0,-1.64516 -1.33843,-2.97938 -2.97924,-2.97938 -0.64647,0 -1.26381,0.20718 -1.77351,0.58431 -1.44623,-0.72934 -3.16586,-1.16847 -4.98486,-1.27207 l 1.1892,-3.28595 2.8758,0.71688 c 0.0621,1.18095 1.04416,2.11731 2.23757,2.11731 1.23469,0 2.24163,-1.00693 2.24163,-2.24161 C 41.52214,29.00694 40.5152,28 39.28051,28 c -0.84119,0 -1.57459,0.46406 -1.95998,1.15197 l -3.94068,-0.98623 -1.71542,4.7445 c -1.9765,0.058 -3.84956,0.5055 -5.41168,1.28874 -0.5097,-0.37714 -1.12284,-0.58011 -1.76932,-0.58011 -1.645,0.005 -2.98343,1.34248 -2.98343,2.98343 0,0.80381 0.33149,1.57864 0.89914,2.13399 -0.0372,0.23616 -0.058,0.47652 -0.058,0.71672 0,1.8025 1.05243,3.47664 2.95851,4.71148 1.82321,1.18499 4.239,1.83551 6.79981,1.83551 2.56082,0 4.9724,-0.65052 6.79965,-1.83551 1.90609,-1.23905 2.95867,-2.91303 2.95867,-4.71148 0,-0.23615 -0.0207,-0.47231 -0.0539,-0.70847 0.57591,-0.55113 0.91162,-1.33017 0.91162,-2.14224 z m -15.27361,1.74034 c 0,-0.95725 0.77904,-1.73629 1.73629,-1.73629 0.9571,0 1.73614,0.77904 1.73614,1.73629 0,0.95709 -0.77904,1.73613 -1.73614,1.73613 -0.95725,0 -1.73629,-0.77904 -1.73629,-1.73613 z m 4.77768,5.4944 c -1.34669,0 -2.6602,-0.38119 -3.7955,-1.10212 l 0.66704,-1.04837 c 0.93653,0.59662 2.02214,0.9116 3.13266,0.9116 1.11055,0 2.19194,-0.31498 3.13252,-0.9116 l 0.66719,1.04837 c -1.14371,0.72093 -2.45722,1.10212 -3.80391,1.10212 z m 3.07877,-3.75827 c -0.95725,0 -1.73613,-0.77904 -1.73613,-1.73613 0,-0.95725 0.77888,-1.73629 1.73613,-1.73629 0.95725,0 1.73613,0.77904 1.73613,1.73629 0,0.95709 -0.77888,1.73613 -1.73613,1.73613 z m 0,0"
     id="path2-3-6"
     style="fill:#e5e5e5;fill-opacity:1;stroke-width:0.0414367" />
</svg>
