<?xml version="1.0" encoding="UTF-8" standalone="no"?>
<svg
   fill="none"
   viewBox="0 0 24 24"
   width="24"
   height="24"
   version="1.1"
   id="svg2"
   sodipodi:docname="preferences-desktop-locale-symbolic.svg"
   inkscape:version="1.4.2 (unknown)"
   xmlns:inkscape="http://www.inkscape.org/namespaces/inkscape"
   xmlns:sodipodi="http://sodipodi.sourceforge.net/DTD/sodipodi-0.dtd"
   xmlns="http://www.w3.org/2000/svg"
   xmlns:svg="http://www.w3.org/2000/svg">
  <sodipodi:namedview
     id="namedview2"
     pagecolor="#d2d2d2"
     bordercolor="#000000"
     borderopacity="0.25"
     inkscape:showpageshadow="2"
     inkscape:pageopacity="0.0"
     inkscape:pagecheckerboard="0"
     inkscape:deskcolor="#d1d1d1"
     showgrid="true"
     inkscape:zoom="32"
     inkscape:cx="12"
     inkscape:cy="14.5"
     inkscape:current-layer="svg2">
    <inkscape:grid
       id="grid2"
       units="px"
       originx="0"
       originy="0"
       spacingx="1"
       spacingy="1"
       empcolor="#0099e5"
       empopacity="0.30196078"
       color="#0099e5"
       opacity="0.14902"
       empspacing="5"
       enabled="true"
       visible="true" />
  </sodipodi:namedview>
  <defs
     id="defs1">
    <style
       type="text/css"
       id="current-color-scheme">.ColorScheme-Text { color: #fcfcfc; } </style>
  </defs>
  <g
     transform="translate(1,1)"
     id="g2">
    <path
       d="M 18,9 V 6 C 18,4 17.614583,4 16,4 H 11 C 9.53125,4 9,4 9,6 v 3 c 0,2 0.5644732,2 2,2 h 2 l 2,2 v -2 h 1 c 1.479167,0 2.052083,0 2,-2 z"
       style="fill:currentColor"
       class="ColorScheme-Text"
       id="path1"
       sodipodi:nodetypes="cccccccccccc" />
    <path
       fill-rule="evenodd"
       d="M 10,15 H 4 C 3,15 2,14 1.96875,13 L 2,4 C 2,3 3,2 4,2 h 14 c 1,0 2,1 2,2 v 9 c 0,1 -1,2 -2,2 h -3 v 5 z M 3,12 V 5 C 3,3.46875 3,3 5,3 h 12 c 2,0 2,0.53125 2,2 v 7 c 0,1.520833 0,2 -2,2 h -3 v 3.586 L 10.414,14 H 5 C 3,14 3,13.541667 3,12 Z"
       clip-rule="evenodd"
       style="fill:currentColor"
       class="ColorScheme-Text"
       id="path2"
       sodipodi:nodetypes="cccccccccccccccccccccccc" />
  </g>
</svg>
