<svg xmlns="http://www.w3.org/2000/svg" width="192" height="192" fill="none"><defs><linearGradient id="a" x1="0%" x2="100%" y1="0%" y2="100%"><stop offset="0%" style="stop-color:#1a1d2e;stop-opacity:1"/><stop offset="100%" style="stop-color:#0a0e27;stop-opacity:1"/></linearGradient><linearGradient id="c" x1="0%" x2="100%" y1="0%" y2="100%"><stop offset="0%" style="stop-color:#00dc82;stop-opacity:1"/><stop offset="100%" style="stop-color:#00a86b;stop-opacity:1"/></linearGradient><pattern id="b" width="7.68" height="7.68" x="0" y="0" patternUnits="userSpaceOnUse"><path fill="#0a0e27" d="M0 0h7.68v7.68H0z"/><path stroke="#060815" stroke-width="1.5" d="m0 0 3.84 3.84m0-3.84 3.84 3.84M0 3.84l3.84 3.84" opacity=".5"/></pattern><filter id="d"><feGaussianBlur result="coloredBlur" stdDeviation="6"/><feMerge><feMergeNode in="coloredBlur"/><feMergeNode in="SourceGraphic"/></feMerge></filter></defs><rect width="192" height="192" fill="url(#a)" rx="24"/><rect width="192" height="192" fill="url(#b)" opacity=".4" rx="24"/><g stroke="url(#c)" stroke-linecap="round" stroke-width="15" transform="translate(48 48)"><path d="M0 48 57.6 0M0 48l57.6 48" filter="url(#d)"/></g><circle cx="163.2" cy="163.2" r="11.52" fill="#00DC82" opacity=".9"><animate attributeName="opacity" dur="2s" repeatCount="indefinite" values="0.6;1;0.6"/><animate attributeName="r" dur="2s" repeatCount="indefinite" values="11.52;13.440000000000001;11.52"/></circle><circle cx="163.2" cy="163.2" r="17.28" stroke="#00DC82" stroke-width="3" opacity=".3"/><path stroke="#00DC82" stroke-width="3" d="M15.36 15.36H28.8M15.36 15.36V28.8M176.64 15.36H163.2M176.64 15.36V28.8" opacity=".4"/></svg>