<?xml version="1.0" encoding="UTF-8" standalone="no"?>
<svg
   width="22"
   height="22"
   version="1.1"
   id="svg2"
   sodipodi:docname="folder-unlocked-symbolic.svg"
   inkscape:version="1.4 (unknown)"
   xmlns:inkscape="http://www.inkscape.org/namespaces/inkscape"
   xmlns:sodipodi="http://sodipodi.sourceforge.net/DTD/sodipodi-0.dtd"
   xmlns="http://www.w3.org/2000/svg"
   xmlns:svg="http://www.w3.org/2000/svg">
  <sodipodi:namedview
     id="namedview2"
     pagecolor="#ffffff"
     bordercolor="#000000"
     borderopacity="0.25"
     inkscape:showpageshadow="2"
     inkscape:pageopacity="0.0"
     inkscape:pagecheckerboard="0"
     inkscape:deskcolor="#d1d1d1"
     inkscape:zoom="14.142136"
     inkscape:cx="10.783378"
     inkscape:cy="7.3892659"
     inkscape:window-width="1920"
     inkscape:window-height="998"
     inkscape:window-x="0"
     inkscape:window-y="0"
     inkscape:window-maximized="1"
     inkscape:current-layer="svg2" />
  <defs
     id="defs1">
    <style
       id="current-color-scheme"
       type="text/css">.ColorScheme-Text { color:#dedede; }</style>
  </defs>
  <g
     id="g2"
     transform="matrix(1.0625,0,0,1.0666667,-2.3083259,0.28470985)">
    <path
       d="m 16.525483,2.5455844 c -2.216,0 -4,1.784 -4,4 v 2 h 1 v -2 c 0,-1.662 1.338,-3 3,-3 1.662,0 3,1.338 3,3 v 2 h 1 v -2 c 0,-2.216 -1.784,-4 -4,-4 z"
       style="fill:currentColor"
       class="ColorScheme-Text"
       id="path1" />
    <path
       d="m 6.5254834,8.5455844 c -1.108,0 -2,0.892 -2,1.9999996 v 5 c 0,1.108 0.892,2 2,2 h 7.9999996 c 1.108,0 2,-0.892 2,-2 v -5 c 0,-1.1079996 -0.892,-1.9999996 -2,-1.9999996 z m 0,1 h 7.9999996 c 0.554,0 1,0.446 1,0.9999996 v 5 c 0,0.554 -0.446,1 -1,1 H 6.5254834 c -0.554,0 -1,-0.446 -1,-1 v -5 c 0,-0.5539996 0.446,-0.9999996 1,-0.9999996 z"
       style="fill:currentColor"
       class="ColorScheme-Text"
       id="path2" />
  </g>
</svg>
