<?xml version="1.0" encoding="UTF-8" standalone="no"?>
<svg
   width="22"
   height="22"
   version="1.1"
   viewBox="0 0 22 22"
   id="svg1"
   sodipodi:docname="folder-java-symbolic.svg"
   inkscape:version="1.4 (unknown)"
   xmlns:inkscape="http://www.inkscape.org/namespaces/inkscape"
   xmlns:sodipodi="http://sodipodi.sourceforge.net/DTD/sodipodi-0.dtd"
   xmlns="http://www.w3.org/2000/svg"
   xmlns:svg="http://www.w3.org/2000/svg">
  <sodipodi:namedview
     id="namedview1"
     pagecolor="#ffffff"
     bordercolor="#000000"
     borderopacity="0.25"
     inkscape:showpageshadow="2"
     inkscape:pageopacity="0.0"
     inkscape:pagecheckerboard="0"
     inkscape:deskcolor="#d1d1d1"
     inkscape:zoom="14.142136"
     inkscape:cx="9.8994949"
     inkscape:cy="23.369879"
     inkscape:window-width="1920"
     inkscape:window-height="998"
     inkscape:window-x="0"
     inkscape:window-y="0"
     inkscape:window-maximized="1"
     inkscape:current-layer="svg1" />
  <defs
     id="defs1">
    <style
       id="current-color-scheme"
       type="text/css">.ColorScheme-Text { color:#dedede; }</style>
  </defs>
  <path
     d="m 8.8609592,15.374897 c 0,0 -0.6231329,0.356241 0.441918,0.474988 1.2907458,0.14375 1.9488868,0.125 3.3700598,-0.140619 0,0 0.37515,0.231251 0.896555,0.431238 -3.185611,1.340595 -7.2105567,-0.07811 -4.7085229,-0.765607 M 8.4731046,13.621804 c 0,0 -0.696262,0.506238 0.3687991,0.61562 1.3766123,0.140619 2.4671383,0.149997 4.3491813,-0.206252 0,0 0.260707,0.259369 0.670827,0.399999 -3.856465,1.109398 -8.1484716,0.09062 -5.3888378,-0.809357 m 3.2810398,-2.971788 c 0.785272,0.887487 -0.206649,1.687494 -0.206649,1.687494 0,0 1.993348,-1.012496 1.077808,-2.278092 -0.855217,-1.1811956 -1.510194,-1.7686934 2.037909,-3.790586 0.0031,0 -5.5700372,1.3686951 -2.908987,4.381184 m 4.215702,6.018676 c 0,0 0.460998,0.371869 -0.505502,0.662488 -1.840843,0.54687 -7.6556576,0.712489 -9.2707431,0.02187 -0.5818071,-0.246869 0.5086784,-0.593738 0.852043,-0.66562 0.3560817,-0.075 0.5627313,-0.0625 0.5627313,-0.0625 C 6.963033,16.178077 3.4340283,17.503049 5.8153002,17.88114 12.307384,18.918636 17.654512,17.41552 15.96984,16.668645 M 9.1598239,11.806262 c 0,0 -2.9598536,0.690617 -1.049119,0.940606 0.8075327,0.10625 2.4162691,0.08125 3.9136451,-0.04062 1.224004,-0.1 2.454419,-0.318748 2.454419,-0.318748 0,0 -0.432381,0.181249 -0.743946,0.390617 C 10.730409,13.556224 4.9283104,13.193735 6.5974184,12.4 8.0121823,11.731262 9.1598849,11.806262 9.1598849,11.806262 m 5.3093851,2.91559 c 3.055283,-1.559394 1.64052,-3.05929 0.654925,-2.85619 -0.241628,0.05 -0.349715,0.09375 -0.349715,0.09375 0,0 0.08901,-0.1375 0.260706,-0.19687 1.948885,-0.674987 3.449516,1.987492 -0.629494,3.040591 0,-0.0031 0.04769,-0.04375 0.06359,-0.08125 M 12.625283,2.9999242 c 0,0 1.691387,1.6624937 -1.605522,4.2186845 -2.6419236,2.0499922 -0.604057,3.2217883 0,4.5561833 C 9.4778252,10.406097 8.3459938,9.2030014 9.1058724,8.0811054 10.221833,6.4405114 13.308861,5.6405144 12.625283,2.9999242 M 9.4619541,18.949866 C 12.39322,19.134235 16.89511,18.846744 17,17.484272 c 0,0 -0.203471,0.515617 -2.422576,0.928106 -2.502033,0.462498 -5.5891604,0.409366 -7.4171829,0.112497 0,-0.0031 0.3751476,0.303119 2.3018147,0.424991"
     style="fill:currentColor;stroke-width:1.00864"
     class="ColorScheme-Text"
     id="path1" />
</svg>
