<?xml version="1.0" encoding="UTF-8" standalone="no"?>
<!-- Created with Inkscape (http://www.inkscape.org/) -->

<svg
   width="32"
   version="1.1"
   height="32"
   id="svg1"
   sodipodi:docname="preferences-desktop-font.svg"
   inkscape:version="1.3.2 (091e20ef0f, 2023-11-25)"
   xmlns:inkscape="http://www.inkscape.org/namespaces/inkscape"
   xmlns:sodipodi="http://sodipodi.sourceforge.net/DTD/sodipodi-0.dtd"
   xmlns:xlink="http://www.w3.org/1999/xlink"
   xmlns="http://www.w3.org/2000/svg"
   xmlns:svg="http://www.w3.org/2000/svg">
  <sodipodi:namedview
     id="namedview1"
     pagecolor="#ffffff"
     bordercolor="#000000"
     borderopacity="0.25"
     inkscape:showpageshadow="2"
     inkscape:pageopacity="0.0"
     inkscape:pagecheckerboard="0"
     inkscape:deskcolor="#d1d1d1"
     inkscape:zoom="23.875"
     inkscape:cx="16"
     inkscape:cy="16"
     inkscape:window-width="1920"
     inkscape:window-height="996"
     inkscape:window-x="0"
     inkscape:window-y="0"
     inkscape:window-maximized="1"
     inkscape:current-layer="layer1" />
  <defs
     id="defs5455">
    <linearGradient
       id="linearGradient1"
       inkscape:collect="always">
      <stop
         style="stop-color:#6f7c91;stop-opacity:1"
         offset="0"
         id="stop1" />
      <stop
         style="stop-color:#535d6c;stop-opacity:1"
         offset="1"
         id="stop2" />
    </linearGradient>
    <linearGradient
       inkscape:collect="always"
       id="linearGradient4219">
      <stop
         style="stop-color:#cecfd0;stop-opacity:1;"
         id="stop4221"
         offset="0" />
      <stop
         offset="1"
         style="stop-color:#ffffff;stop-opacity:1;"
         id="stop4223" />
    </linearGradient>
    <linearGradient
       inkscape:collect="always"
       xlink:href="#linearGradient4219"
       id="linearGradient4309"
       y1="537.79797"
       y2="525.79797"
       x2="0"
       gradientUnits="userSpaceOnUse" />
    <linearGradient
       inkscape:collect="always"
       xlink:href="#linearGradient4227"
       id="linearGradient4387"
       y1="9"
       x1="9"
       y2="23"
       x2="23"
       gradientUnits="userSpaceOnUse"
       gradientTransform="matrix(1.1996772,0,0,1.1996772,381.01208,512.29907)" />
    <linearGradient
       inkscape:collect="always"
       id="linearGradient4227">
      <stop
         style="stop-color:#292c2f"
         id="stop4229" />
      <stop
         offset="1"
         style="stop-opacity:0"
         id="stop4231" />
    </linearGradient>
    <linearGradient
       inkscape:collect="always"
       xlink:href="#linearGradient1"
       id="linearGradient2"
       x1="386.57144"
       y1="531.79796"
       x2="414.57141"
       y2="531.79796"
       gradientUnits="userSpaceOnUse" />
    <linearGradient
       inkscape:collect="always"
       xlink:href="#linearGradient4219"
       id="linearGradient3"
       gradientUnits="userSpaceOnUse"
       y1="537.79797"
       x2="0"
       y2="525.79797" />
  </defs>
  <metadata
     id="metadata5458" />
  <g
     inkscape:label="Capa 1"
     inkscape:groupmode="layer"
     id="layer1"
     transform="matrix(1 0 0 1 -384.57143 -515.798)">
    <rect
       width="27.999973"
       x="386.57144"
       y="517.79797"
       rx="13.999987"
       height="27.999973"
       style="fill:url(#linearGradient2);fill-opacity:1"
       id="rect4179" />
    <path
       style="opacity:0.2;fill:url(#linearGradient4387);fill-rule:evenodd;stroke-width:1.19967"
       id="path4361"
       d="m 396.94537,524.26085 -7.33159,14.23215 7.41327,6.856 c 0.27913,0.0147 1.64096,0.44895 1.92352,0.44895 8.01458,0 13.92562,-5.05209 15.62084,-12.53954 l -4.4202,-4.43986 -3.99272,-0.3445 -2.2821,1.30509 0.0961,0.0641 -0.0769,-0.0151 3.14681,3.14678 -0.64434,0.74049 z"
       sodipodi:nodetypes="cccsccccccccc" />
    <g
       id="text4228"
       transform="matrix(1.1996778,0,0,1.1996778,-80.34959,-106.49214)">
      <path
         style="fill:url(#linearGradient3)"
         id="path4233"
         d="m 395.02473,532.78927 1.99875,-5.655 1.80375,5.655 z m 5.57375,4.8425 h 1.43 l -4.17625,-11.8625 h -1.69 l -4.42,11.8625 h 1.43 l 1.41375,-3.75375 h 4.7125 z" />
      <path
         style="fill:url(#linearGradient4309)"
         id="path4235"
         d="m 405.53315,536.78677 c -0.82875,0 -1.44625,-0.40625 -1.44625,-1.38125 0,-1.21875 0.73125,-1.60875 3.20125,-1.93375 0.0163,0 0.79625,-0.11375 0.79625,-0.11375 v 2.145 c -0.56875,0.78 -1.7225,1.28375 -2.55125,1.28375 z m 2.58375,-0.11375 0.195,0.95875 h 1.08875 v -6.4025 c 0,-1.95 -1.34875,-2.51875 -3.07125,-2.51875 -1.235,0 -2.38875,0.30875 -3.055,0.66625 l 0.37375,1.04 c 0.715,-0.34125 1.755,-0.585 2.71375,-0.585 1.2025,0 1.7225,0.5525 1.7225,1.60875 v 0.99125 l -0.8775,0.0975 c -2.2425,0.325 -4.4525,0.63375 -4.4525,2.925 0,1.625 1.21875,2.3725 2.64875,2.3725 0.91,0 1.95,-0.2925 2.71375,-1.15375 z" />
    </g>
  </g>
</svg>
