<?xml version="1.0" encoding="UTF-8" standalone="no"?>
<svg
   width="22"
   height="22"
   version="1.1"
   id="svg1"
   sodipodi:docname="kup-symbolic.svg"
   inkscape:version="1.3.2 (091e20ef0f, 2023-11-25)"
   xmlns:inkscape="http://www.inkscape.org/namespaces/inkscape"
   xmlns:sodipodi="http://sodipodi.sourceforge.net/DTD/sodipodi-0.dtd"
   xmlns="http://www.w3.org/2000/svg"
   xmlns:svg="http://www.w3.org/2000/svg">
  <defs
     id="defs1" />
  <sodipodi:namedview
     id="namedview1"
     pagecolor="#c0c0c0"
     bordercolor="#999999"
     borderopacity="1"
     inkscape:showpageshadow="2"
     inkscape:pageopacity="0"
     inkscape:pagecheckerboard="0"
     inkscape:deskcolor="#d1d1d1"
     showgrid="true"
     inkscape:zoom="34.727273"
     inkscape:cx="11"
     inkscape:cy="11"
     inkscape:window-width="1920"
     inkscape:window-height="996"
     inkscape:window-x="0"
     inkscape:window-y="0"
     inkscape:window-maximized="1"
     inkscape:current-layer="svg1">
    <inkscape:grid
       id="grid1"
       units="px"
       originx="0"
       originy="0"
       spacingx="1"
       spacingy="1"
       empcolor="#0099e5"
       empopacity="0.30196078"
       color="#0099e5"
       opacity="0.14901961"
       empspacing="5"
       dotted="false"
       gridanglex="30"
       gridanglez="30"
       visible="true" />
  </sodipodi:namedview>
  <style
     type="text/css"
     id="current-color-scheme">.ColorScheme-Text { color: #fcfcfc; } </style>
  <g
     id="kup"
     transform="translate(0,-1030.3621)">
    <g
       id="vlc">
      <path
         id="rect4246"
         class="ColorScheme-Text"
         d="m0 1030.3621h22v22h-22z"
         fill="none" />
    </g>
    <path
       id="innershape"
       class="ColorScheme-Text"
       d="m 11.0069,1036.3621 c -2.205324,0 -3.993093,1.7878 -3.993093,3.9931 0,2.2053 1.787769,3.9931 3.993093,3.9931 2.205324,0 3.993094,-1.7878 3.993094,-3.9931 0,-2.2053 -1.78777,-3.9931 -3.993094,-3.9931 z m -0.0069,1 c 1.837771,0 3,1.1622 3,3 0,1.8378 -1.162229,3 -3,3 -1.83777,0 -3,-1.1622 -3,-3 0,-1.8378 1.16223,-3 3,-3 z m -1,1 v 3 h 3 v -1 l -1.9931,-0.01 L 11,1038.359 Z m -5,-3.027 v 13.0479 c -0.01968,0.6154 0.4091253,0.9006 1.003,0.9791 h 9.921084 c 0.617801,-0.069 1.062827,-0.4056 1.075916,-0.9215 v -13.1204 c -0.0072,-1.2851 -0.535117,-1.9752 -2.026178,-1.9581 H 6.9973822 c -1.4361889,0.022 -1.984877,0.5302 -1.9973822,1.973 z m 4,-0.973 h 4 c 3.47099,0 3,0.076 3,3 v 2.088 c -0.598554,0.2116 -0.999063,0.7771 -1,1.412 9.37e-4,0.6349 0.401446,1.2004 1,1.412 v 2.088 l -2,2 H 8 l -2,-2 v -2.088 c 0.5985545,-0.2116 0.9990629,-0.7771 1,-1.412 -9.371e-4,-0.6349 -0.4014455,-1.2004 -1,-1.412 v -2.088 c 0,-3.0103 -0.3270111,-3 3,-3 z m -2,13 h 4 v 1 H 7 Z m 6,0 h 2 v 1 h -2 z"
       fill="currentColor"
       sodipodi:nodetypes="ssssssssssccccccccccccccccsssccccccccccsscccccccccc" />
  </g>
</svg>
