<?xml version="1.0" encoding="UTF-8" standalone="no"?>
<svg
   width="16"
   height="16"
   version="1.1"
   id="svg3"
   sodipodi:docname="accessories-screenshot-symbolic.svg"
   inkscape:version="1.4 (unknown)"
   xmlns:inkscape="http://www.inkscape.org/namespaces/inkscape"
   xmlns:sodipodi="http://sodipodi.sourceforge.net/DTD/sodipodi-0.dtd"
   xmlns="http://www.w3.org/2000/svg"
   xmlns:svg="http://www.w3.org/2000/svg"
   xmlns:rdf="http://www.w3.org/1999/02/22-rdf-syntax-ns#"
   xmlns:cc="http://creativecommons.org/ns#"
   xmlns:dc="http://purl.org/dc/elements/1.1/">
  <defs
     id="defs3" />
  <sodipodi:namedview
     id="namedview3"
     pagecolor="#ffffff"
     bordercolor="#000000"
     borderopacity="0.25"
     inkscape:showpageshadow="2"
     inkscape:pageopacity="0.0"
     inkscape:pagecheckerboard="0"
     inkscape:deskcolor="#d1d1d1"
     inkscape:zoom="14.142136"
     inkscape:cx="7.7428193"
     inkscape:cy="14.03607"
     inkscape:window-width="1920"
     inkscape:window-height="998"
     inkscape:window-x="0"
     inkscape:window-y="0"
     inkscape:window-maximized="1"
     inkscape:current-layer="svg3" />
  <metadata
     id="metadata1">
    <rdf:RDF>
      <cc:Work
         rdf:about="">
        <dc:format>image/svg+xml</dc:format>
        <dc:type
           rdf:resource="http://purl.org/dc/dcmitype/StillImage" />
      </cc:Work>
    </rdf:RDF>
  </metadata>
  <g
     fill="#dedede"
     stroke-linecap="round"
     stroke-linejoin="round"
     id="g3"
     transform="matrix(0.85714286,0,0,0.85714286,1.1428571,1.1428571)">
    <path
       d="M 3,1 C 1.892,1 1,1.892 1,3 V 5 H 2 V 3 C 2,2.446 2.446,2 3,2 H 5 V 1 Z m 8,0 v 1 h 2 c 0.554,0 1,0.446 1,1 v 2 h 1 V 3 C 15,1.892 14.108,1 13,1 Z M 1,11 v 2 c 0,1.108 0.892,2 2,2 H 5 V 14 H 3 C 2.446,14 2,13.554 2,13 v -2 z m 13,0 v 2 c 0,0.554 -0.446,1 -1,1 h -2 v 1 h 2 c 1.108,0 2,-0.892 2,-2 v -2 z"
       id="path1" />
    <path
       d="M 5,5 C 3.892,5 3,5.892 3,7 v 3 c 0,1.108 0.892,2 2,2 h 6 c 1.108,0 2,-0.892 2,-2 V 7 C 13,5.892 12.108,5 11,5 Z m 0,1 h 6 c 0.554,0 1,0.446 1,1 v 3 c 0,0.554 -0.446,1 -1,1 H 5 C 4.446,11 4,10.554 4,10 V 7 C 4,6.446 4.446,6 5,6 Z"
       id="path2" />
    <path
       d="M 9.5,7 A 1.5,1.5 0 0 0 8,8.5 1.5,1.5 0 0 0 9.5,10 1.5,1.5 0 0 0 11,8.5 1.5,1.5 0 0 0 9.5,7 Z M 9.488281,8 A 0.5,0.5 0 0 1 9.5,8 0.5,0.5 0 0 1 10,8.5 0.5,0.5 0 0 1 9.5,9 0.5,0.5 0 0 1 9,8.5 0.5,0.5 0 0 1 9.48828,8 Z"
       id="path3" />
    <rect
       x="9"
       y="3"
       width="2"
       height="1"
       rx="0"
       ry="0"
       id="rect3" />
  </g>
</svg>
