<?xml version="1.0" encoding="UTF-8" standalone="no"?>
<svg
   width="16"
   height="16"
   version="1.1"
   id="svg1"
   sodipodi:docname="accessories-dictionary-symbolic.svg"
   inkscape:version="1.4 (unknown)"
   xmlns:inkscape="http://www.inkscape.org/namespaces/inkscape"
   xmlns:sodipodi="http://sodipodi.sourceforge.net/DTD/sodipodi-0.dtd"
   xmlns="http://www.w3.org/2000/svg"
   xmlns:svg="http://www.w3.org/2000/svg"
   xmlns:rdf="http://www.w3.org/1999/02/22-rdf-syntax-ns#"
   xmlns:cc="http://creativecommons.org/ns#"
   xmlns:dc="http://purl.org/dc/elements/1.1/">
  <defs
     id="defs1" />
  <sodipodi:namedview
     id="namedview1"
     pagecolor="#ffffff"
     bordercolor="#000000"
     borderopacity="0.25"
     inkscape:showpageshadow="2"
     inkscape:pageopacity="0.0"
     inkscape:pagecheckerboard="0"
     inkscape:deskcolor="#d1d1d1"
     inkscape:zoom="20"
     inkscape:cx="2.925"
     inkscape:cy="19.225"
     inkscape:window-width="1920"
     inkscape:window-height="998"
     inkscape:window-x="0"
     inkscape:window-y="0"
     inkscape:window-maximized="1"
     inkscape:current-layer="svg1" />
  <metadata
     id="metadata1">
    <rdf:RDF>
      <cc:Work
         rdf:about="">
        <dc:format>image/svg+xml</dc:format>
        <dc:type
           rdf:resource="http://purl.org/dc/dcmitype/StillImage" />
      </cc:Work>
    </rdf:RDF>
  </metadata>
  <path
     d="m 10.23741,2.0008139 c -0.132693,0 -0.2644831,0.00801 -0.4060214,0.025384 C 9.3271581,2.0955098 8.7260615,2.3292356 8.0449076,2.6844555 6.6825987,1.948022 5.6208833,1.9058544 4.7362675,2.1311176 3.9139817,2.3343381 3.2082708,2.6382678 2.2586361,2.6962986 c -7.038e-4,0.014242 -0.00864,0.026193 -0.00864,0.040617 V 13.13361 C 2.2500001,13.613588 2.6445385,14 3.1346162,14 H 12.865388 C 13.355463,14 13.75,13.613588 13.75,13.13361 V 2.7369113 c 0,-0.0066 -0.0037,-0.012067 -0.0039,-0.018616 C 12.700675,2.6736953 12.062786,2.3690984 11.30007,2.1480381 10.981594,2.0527347 10.62671,1.992158 10.237453,2.0008219 Z M 5.981966,2.8502852 c 0.4403701,0.032086 0.9387542,0.1900691 1.5756769,0.5279614 V 10.864388 C 6.5845663,10.318566 5.602908,10.274023 4.7448306,10.481955 4.1609845,10.62058 3.6387957,10.776743 3.1345653,10.906702 V 3.4205531 c 0.7076921,-0.121295 1.3010924,-0.3201583 1.8141691,-0.450117 0.2123083,-0.051984 0.4064369,-0.094358 0.6098989,-0.111686 0.1371154,-0.015164 0.2765133,-0.019153 0.4233062,-0.00847 z m 3.9461822,0.00847 c 0.2123078,-0.025985 0.3982178,-0.025985 0.5839868,0 0.176923,0.017334 0.3533,0.059493 0.539072,0.1201426 0.46884,0.1299588 1.053394,0.3472324 1.814166,0.4771911 v 7.4506141 c -0.504234,-0.12996 -1.026592,-0.29458 -1.601592,-0.433202 -0.866928,-0.207932 -1.8484094,-0.155537 -2.8214869,0.416282 V 3.4306688 C 9.0615258,3.1014393 9.5477989,2.9193591 9.9281834,2.8587117 Z m 0.1071178,8.3255098 c 0.327308,-0.0082 0.662083,0.0437 1.015893,0.130298 0.566149,0.138622 1.168401,0.371599 1.814169,0.544877 v 1.274204 H 3.1345558 v -1.265722 c 0.6369235,-0.173278 1.2480165,-0.406255 1.8141701,-0.544881 0.9553851,-0.233926 1.7678158,-0.259713 2.7851239,0.641342 l 0.3006282,0.2589 0.2919935,-0.267359 C 8.9457029,11.40144 9.486734,11.201632 10.035195,11.184297 Z"
     fill="#dedede"
     id="path1"
     style="stroke-width:0.875454" />
</svg>
