<?xml version="1.0" encoding="UTF-8" standalone="no"?>
<svg
   height="16"
   width="16"
   version="1.1"
   id="svg1"
   sodipodi:docname="accessories-calculator-symbolic.svg"
   inkscape:version="1.4 (unknown)"
   xmlns:inkscape="http://www.inkscape.org/namespaces/inkscape"
   xmlns:sodipodi="http://sodipodi.sourceforge.net/DTD/sodipodi-0.dtd"
   xmlns="http://www.w3.org/2000/svg"
   xmlns:svg="http://www.w3.org/2000/svg">
  <defs
     id="defs1" />
  <sodipodi:namedview
     id="namedview1"
     pagecolor="#ffffff"
     bordercolor="#000000"
     borderopacity="0.25"
     inkscape:showpageshadow="2"
     inkscape:pageopacity="0.0"
     inkscape:pagecheckerboard="0"
     inkscape:deskcolor="#d1d1d1"
     inkscape:zoom="48.4375"
     inkscape:cx="8"
     inkscape:cy="8"
     inkscape:window-width="1920"
     inkscape:window-height="998"
     inkscape:window-x="0"
     inkscape:window-y="0"
     inkscape:window-maximized="1"
     inkscape:current-layer="svg1" />
  <path
     d="m 2.428572,3.2857144 v 9.4285726 c 0,0 0,1.285713 1.2857144,1.285713 h 8.5714296 c 1.285712,0 1.285712,-1.285713 1.285712,-1.285713 V 3.2857144 c 0,0 0,-1.2857144 -1.285712,-1.2857144 H 3.7142864 C 2.428572,2 2.428572,3.2857144 2.428572,3.2857144 Z M 3.7142864,2.857143 h 8.5714296 c 0,0 0.428569,0 0.428569,0.4285714 V 5 c 0,0.4285713 -0.428569,0.4285713 -0.428569,0.4285713 H 3.7142864 C 3.285715,5.4285713 3.285715,5 3.285715,5 V 3.2857144 c 0,0 0,-0.4285714 0.4285714,-0.4285714 z M 3.4451433,6.2857144 h 1.3928574 c 0.094289,0 0.1602857,0.068578 0.1602857,0.1628569 v 1.3928574 c 0,0.085714 -0.066,0.1542857 -0.1611431,0.1542857 H 3.4442864 A 0.15514287,0.15514287 0 0 1 3.2840007,7.832857 V 6.44 c 0,-0.085713 0.066,-0.1542856 0.1611426,-0.1542856 z m 2.5714287,0 h 1.392857 c 0.094289,0 0.160286,0.068579 0.160286,0.1628569 v 1.3928574 c 0,0.085714 -0.066,0.1542857 -0.161143,0.1542857 H 6.015715 A 0.15514287,0.15514287 0 0 1 5.855429,7.832857 V 6.44 c 0,-0.085713 0.066,-0.1542856 0.161143,-0.1542856 z m 2.5714287,0 h 1.3928539 c 0.094297,0 0.1602954,0.068579 0.1602954,0.1628569 v 1.3928574 c 0,0.085714 -0.066,0.1542857 -0.1611547,0.1542857 H 8.5871433 A 0.15514287,0.15514287 0 0 1 8.4268576,7.832857 V 6.44 c 0,-0.085713 0.066,-0.1542856 0.1611431,-0.1542856 z m 2.5714293,0 h 1.392855 c 0.09435,0 0.160287,0.068579 0.160287,0.1628569 v 1.3928574 c 0,0.085714 -0.066,0.1542857 -0.161144,0.1542857 H 11.158572 A 0.15514287,0.15514287 0 0 1 10.998288,7.832857 V 6.44 c 0,-0.085713 0.066,-0.1542856 0.161142,-0.1542856 z M 3.4451433,8.857143 h 1.3928574 c 0.09429,0 0.1602857,0.06857 0.1602857,0.162857 v 1.392859 c 0,0.08573 -0.066,0.154281 -0.1611431,0.154281 H 3.4442864 A 0.15514287,0.15514287 0 0 1 3.2840007,10.404283 V 9.0114287 c 0,-0.085713 0.066,-0.1542857 0.1611426,-0.1542857 z m 2.5714287,0 h 1.392857 c 0.094289,0 0.160286,0.06857 0.160286,0.162857 v 1.392859 c 0,0.08573 -0.066,0.154281 -0.161143,0.154281 H 6.015715 A 0.15514287,0.15514287 0 0 1 5.855429,10.404283 V 9.0114287 c 0,-0.085713 0.066,-0.1542857 0.161143,-0.1542857 z m 2.5714287,0 h 1.3928539 c 0.094297,0 0.1602954,0.06857 0.1602954,0.162857 v 1.392859 c 0,0.08573 -0.066,0.154281 -0.1611547,0.154281 H 8.5871433 A 0.15514287,0.15514287 0 0 1 8.4268576,10.404283 V 9.0114287 c 0,-0.085713 0.066,-0.1542857 0.1611431,-0.1542857 z m 2.5714293,0 h 1.392855 c 0.09435,0 0.160287,0.06857 0.160287,0.162857 v 1.392859 c 0,0.08573 -0.066,0.154281 -0.161144,0.154281 H 11.158572 A 0.15514287,0.15514287 0 0 1 10.998288,10.404283 V 9.0114287 c 0,-0.085713 0.066,-0.1542857 0.161142,-0.1542857 z m -7.7142867,2.571432 h 1.3928574 c 0.09429,0 0.1602857,0.06859 0.1602857,0.16285 v 1.392862 c 0,0.0857 -0.066,0.154283 -0.1611431,0.154283 H 3.4442864 A 0.15514287,0.15514287 0 0 1 3.2840007,12.975713 v -1.392855 c 0,-0.08577 0.066,-0.154283 0.1611426,-0.154283 z m 2.5714287,0 h 1.392857 c 0.094289,0 0.160286,0.06859 0.160286,0.16285 v 1.392862 c 0,0.0857 -0.066,0.154283 -0.161143,0.154283 H 6.015715 A 0.15514287,0.15514287 0 0 1 5.855429,12.975713 v -1.392855 c 0,-0.08577 0.066,-0.154283 0.161143,-0.154283 z m 2.5714287,0 h 1.3928539 c 0.094297,0 0.1602954,0.06859 0.1602954,0.16285 v 1.392862 c 0,0.0857 -0.066,0.154283 -0.1611547,0.154283 H 8.5871433 A 0.15514287,0.15514287 0 0 1 8.4268576,12.975713 v -1.392855 c 0,-0.08577 0.066,-0.154283 0.1611431,-0.154283 z m 2.5714293,0 h 1.392855 c 0.09435,0 0.160287,0.06859 0.160287,0.16285 v 1.392862 c 0,0.0857 -0.066,0.154283 -0.161144,0.154283 h -1.392856 a 0.15514287,0.15514287 0 0 1 -0.160284,-0.162857 v -1.392855 c 0,-0.08577 0.066,-0.154283 0.161142,-0.154283 z"
     fill="#dedede"
     id="path1"
     style="stroke-width:0.857144" />
</svg>
