<?xml version="1.0" encoding="UTF-8" standalone="no"?>
<svg
   width="16"
   height="16"
   version="1.1"
   id="svg2"
   sodipodi:docname="accessories-text-editor-symbolic.svg"
   inkscape:version="1.4 (unknown)"
   xmlns:inkscape="http://www.inkscape.org/namespaces/inkscape"
   xmlns:sodipodi="http://sodipodi.sourceforge.net/DTD/sodipodi-0.dtd"
   xmlns="http://www.w3.org/2000/svg"
   xmlns:svg="http://www.w3.org/2000/svg"
   xmlns:rdf="http://www.w3.org/1999/02/22-rdf-syntax-ns#"
   xmlns:cc="http://creativecommons.org/ns#"
   xmlns:dc="http://purl.org/dc/elements/1.1/">
  <defs
     id="defs2" />
  <sodipodi:namedview
     id="namedview2"
     pagecolor="#ffffff"
     bordercolor="#000000"
     borderopacity="0.25"
     inkscape:showpageshadow="2"
     inkscape:pageopacity="0.0"
     inkscape:pagecheckerboard="0"
     inkscape:deskcolor="#d1d1d1"
     inkscape:zoom="10"
     inkscape:cx="14.75"
     inkscape:cy="19.45"
     inkscape:window-width="1920"
     inkscape:window-height="998"
     inkscape:window-x="0"
     inkscape:window-y="0"
     inkscape:window-maximized="1"
     inkscape:current-layer="svg2" />
  <metadata
     id="metadata1">
    <rdf:RDF>
      <cc:Work
         rdf:about="">
        <dc:format>image/svg+xml</dc:format>
        <dc:type
           rdf:resource="http://purl.org/dc/dcmitype/StillImage" />
      </cc:Work>
    </rdf:RDF>
  </metadata>
  <g
     id="g2"
     transform="translate(-6.2502806e-8,1)">
    <path
       d="M 3.726407,1 C 2.7699778,1 2,1.7645717 2,2.7142858 V 11.285717 C 2,12.235425 2.7699778,13 3.726407,13 h 6.905624 c 0.956432,0 1.726413,-0.764575 1.726413,-1.714283 V 6.9581717 l -0.863202,0.8571425 v 3.4704028 c 0,0.474858 -0.384995,0.857141 -0.863211,0.857141 H 3.726407 c -0.478215,0 -0.8632039,-0.382283 -0.8632039,-0.857141 V 2.7142858 c 0,-0.4748575 0.3849889,-0.8571433 0.8632039,-0.8571433 H 8.9477523 L 9.8109576,1 Z"
       fill="#dedede"
       id="path1"
       style="stroke-width:0.860167" />
    <path
       class="ColorScheme-Text"
       d="m 12.882406,1.5882575 c -0.676296,-0.67154608 -1.765252,-0.67154608 -2.441483,0 l 3.051851,3.0304283 c 0.676297,-0.6715458 0.676306,-1.7528575 0,-2.4243433 z M 9.8305533,2.1943517 3.726752,8.2552942 l -6e-7,3.0304318 H 6.7786079 L 12.882405,5.22478 Z m 0,1.2121708 L 11.66166,5.22478 6.7786084,10.073551 4.9474945,8.2552942 Z"
       fill="#dedede"
       id="path2"
       style="stroke-width:0.860167" />
  </g>
</svg>
