<?xml version="1.0" encoding="UTF-8" standalone="no"?>
<svg
   width="16"
   height="16"
   version="1.1"
   id="svg3"
   sodipodi:docname="address-book-app-symbolic.svg"
   inkscape:version="1.4 (unknown)"
   xmlns:inkscape="http://www.inkscape.org/namespaces/inkscape"
   xmlns:sodipodi="http://sodipodi.sourceforge.net/DTD/sodipodi-0.dtd"
   xmlns="http://www.w3.org/2000/svg"
   xmlns:svg="http://www.w3.org/2000/svg">
  <defs
     id="defs3" />
  <sodipodi:namedview
     id="namedview3"
     pagecolor="#ffffff"
     bordercolor="#000000"
     borderopacity="0.25"
     inkscape:showpageshadow="2"
     inkscape:pageopacity="0.0"
     inkscape:pagecheckerboard="0"
     inkscape:deskcolor="#d1d1d1"
     inkscape:zoom="20"
     inkscape:cx="6.425"
     inkscape:cy="6.075"
     inkscape:window-width="1920"
     inkscape:window-height="998"
     inkscape:window-x="0"
     inkscape:window-y="0"
     inkscape:window-maximized="1"
     inkscape:current-layer="svg3" />
  <g
     transform="matrix(0.76923077,0,0,0.75,2.2307692,2)"
     fill="#dedede"
     id="g3">
    <path
       d="M 4.994,0 C 3.736,0.015 2.815,-0.03 2.062,0.385 A 1.88,1.88 0 0 0 1.225,1.383 C 1.06,1.82 1,2.343 1,3 v 10 c 0,0.658 0.06,1.179 0.225,1.617 0.164,0.439 0.461,0.789 0.837,0.996 0.753,0.415 1.674,0.372 2.932,0.387 h 5.012 c 1.258,-0.015 2.179,0.03 2.932,-0.385 a 1.88,1.88 0 0 0 0.837,-0.998 C 13.94,14.179 14,13.657 14,13 V 3 C 14,2.342 13.94,1.821 13.775,1.383 A 1.875,1.875 0 0 0 12.937,0.387 C 12.185,-0.028 11.264,0.015 10.006,0 H 4.998 Z M 5,1 h 5 c 1.259,0.015 2.09,0.06 2.455,0.262 0.184,0.1 0.287,0.213 0.385,0.472 C 12.937,1.994 13,2.408 13,3 v 10 c 0,0.592 -0.063,1.006 -0.16,1.266 -0.098,0.26 -0.202,0.371 -0.385,0.472 C 12.089,14.94 11.258,14.985 10,15 H 5 C 3.741,14.985 2.91,14.94 2.545,14.738 2.361,14.638 2.258,14.525 2.16,14.266 2.063,14.006 2,13.592 2,13 V 3 C 2,2.408 2.063,1.994 2.16,1.734 2.258,1.474 2.363,1.363 2.547,1.262 2.913,1.06 3.74,1.015 5,1 Z"
       font-family="sans-serif"
       font-weight="400"
       overflow="visible"
       style="font-variant-ligatures:normal;font-variant-position:normal;font-variant-caps:normal;font-variant-numeric:normal;font-variant-alternates:normal;font-feature-settings:normal;text-indent:0;text-decoration-line:none;text-decoration-style:solid;text-decoration-color:#000000;text-transform:none;text-orientation:mixed;white-space:normal;shape-padding:0;isolation:auto;mix-blend-mode:normal"
       id="path1" />
    <path
       d="M 7,4 C 6.717,4 6.449,4.055 6.201,4.166 A 1.85,1.85 0 0 0 5.555,4.626 V 4.629 L 5.553,4.631 A 2.157,2.157 0 0 0 5.144,5.35 2.683,2.683 0 0 0 5,6.25 c 0,0.327 0.047,0.632 0.145,0.908 0.096,0.271 0.231,0.51 0.408,0.711 l 0.002,0.002 c 0.18,0.2 0.398,0.358 0.642,0.469 L 6.199,8.342 H 6.201 C 6.448,8.448 6.718,8.5 7.001,8.5 7.282,8.5 7.55,8.448 7.797,8.342 V 8.34 C 8.042,8.23 8.255,8.072 8.432,7.871 8.613,7.67 8.753,7.431 8.85,7.158 A 2.7,2.7 0 0 0 8.994,6.25 H 9 C 9,5.928 8.953,5.627 8.856,5.352 A 2.102,2.102 0 0 0 8.438,4.629 1.779,1.779 0 0 0 7.799,4.166 1.95,1.95 0 0 0 7,4 Z M 7,5 C 7.552,5 8,5.56 8,6.25 8,6.94 7.552,7.5 7,7.5 6.448,7.5 6,6.94 6,6.25 6,5.56 6.448,5 7,5 Z M 7,9 V 9.002 C 4.002,9.01 4,11 4,11 v 0.998 L 7,12 c 1.25,0 2.5,-0.003 3,-0.004 V 10.998 C 10,10.998 9.998,9.008 7,9 Z m 0,1.002 c 1.997,0.004 1.893,0.99 1.893,0.99 0,0.002 0,0.006 0.002,0.008 h -3.79 l 0.002,-0.006 c 0,0 -0.104,-0.986 1.893,-0.99 z"
       font-family="Ubuntu"
       font-weight="400"
       letter-spacing="0"
       overflow="visible"
       word-spacing="0"
       style="font-variant-ligatures:normal;font-variant-position:normal;font-variant-caps:normal;font-variant-numeric:normal;font-variant-alternates:normal;font-feature-settings:normal;text-indent:0;text-decoration-line:none;text-decoration-style:solid;text-decoration-color:#000000;text-transform:none;text-orientation:mixed;white-space:normal;shape-padding:0;isolation:auto;mix-blend-mode:normal"
       id="path2" />
    <path
       d="m 11,1 h 1 v 14 h -1 z"
       id="path3" />
  </g>
</svg>
