<?xml version="1.0" encoding="UTF-8" standalone="no"?>
<svg
   width="16"
   height="16"
   version="1.1"
   id="svg1"
   sodipodi:docname="amazon-store-symbolic.svg"
   inkscape:version="1.4 (unknown)"
   xmlns:inkscape="http://www.inkscape.org/namespaces/inkscape"
   xmlns:sodipodi="http://sodipodi.sourceforge.net/DTD/sodipodi-0.dtd"
   xmlns="http://www.w3.org/2000/svg"
   xmlns:svg="http://www.w3.org/2000/svg">
  <defs
     id="defs1" />
  <sodipodi:namedview
     id="namedview1"
     pagecolor="#ffffff"
     bordercolor="#000000"
     borderopacity="0.25"
     inkscape:showpageshadow="2"
     inkscape:pageopacity="0.0"
     inkscape:pagecheckerboard="0"
     inkscape:deskcolor="#d1d1d1"
     inkscape:zoom="48.4375"
     inkscape:cx="8.123871"
     inkscape:cy="8"
     inkscape:window-width="1920"
     inkscape:window-height="998"
     inkscape:window-x="0"
     inkscape:window-y="0"
     inkscape:window-maximized="1"
     inkscape:current-layer="svg1" />
  <path
     d="M 8.1841674,2.0000581 A 5.2321018,5.2310217 0 0 0 6.8360184,2.1890454 C 5.6679796,2.5081841 4.8298445,3.2266916 4.5739457,4.4720458 a 0.42352565,0.42343822 0 0 0 0.05974,0.3342932 0.41282605,0.41274083 0 0 0 0.2986972,0.1640266 l 0.7436216,0.075777 c 0.06955,0.00892 0.1364198,0.016045 0.2050758,0.021396 l 0.4796983,0.049921 c 0.1275035,0.01337 0.2451992,-0.00268 0.3379291,-0.071317 C 6.7914377,4.9774986 6.8413689,4.8705256 6.872576,4.742157 6.891301,4.6646 6.918941,4.5986338 6.947473,4.5326665 7.0089962,4.4194515 7.0785431,4.3142604 7.1632484,4.2233327 7.2550872,4.1359717 7.3683239,4.0655463 7.502069,4.0120593 l 0.00625,-0.00356 c 0.031206,-0.014264 0.066872,-0.021396 0.099863,-0.032983 a 1.3731149,1.3728314 0 0 1 0.6687232,-0.035659 c 0.044582,0.00892 0.090946,0.017824 0.1337449,0.033877 l 0.024075,0.00892 A 0.83189355,0.83172181 0 0 1 8.900155,4.4007388 0.92818984,0.92799822 0 0 1 8.967919,4.6423216 c 0.037448,0.2184049 0.033884,0.4510729 0.032989,0.6935471 -0.00803,0.014264 -0.00713,0.033877 -0.018725,0.046355 -0.2006146,0.03388 -0.4137152,0.061514 -0.6223571,0.08915 -0.6375184,0.06507 -1.2777108,0.1408431 -1.9045287,0.3325044 h -0.00181 C 5.8115321,6.0035548 5.243562,6.3342824 4.8334108,6.895895 4.7629719,6.9921716 4.7201735,7.0955801 4.6640006,7.1954223 4.6506258,7.2212729 4.634577,7.2453426 4.6212023,7.2720867 4.2886232,7.9166042 4.2279922,8.6181744 4.3822446,9.340248 c 0.1694104,0.784475 0.6437588,1.368374 1.4105633,1.642049 0.1596023,0.05614 0.318313,0.09092 0.4779151,0.121236 0.632168,0.123021 1.2679023,0.0606 1.8893703,-0.151545 0.4440333,-0.149764 0.7953367,-0.431461 1.1207826,-0.734554 0.048147,-0.03834 0.1016465,-0.07132 0.1480112,-0.111431 0.00892,0.0089 0.019619,0.02407 0.028531,0.03298 0.1979425,0.295072 0.422634,0.575877 0.7088499,0.808547 0.118586,0.09717 0.232717,0.16046 0.362003,0.161351 0.128396,0 0.243415,-0.06419 0.362002,-0.163135 0.367355,-0.309333 0.729357,-0.618666 1.095819,-0.927108 h 0.0018 c 0.09627,-0.082009 0.166722,-0.1738289 0.184553,-0.2870428 0.01783,-0.1123227 -0.02318,-0.2246452 -0.09453,-0.3325106 a 1.958026,1.9576218 0 0 0 -0.12033,-0.16046 c -0.01606,-0.020503 -0.02675,-0.041006 -0.04278,-0.06151 A 1.9972579,1.9968455 0 0 1 11.591988,8.6065855 l -0.0018,-0.00177 c -0.0027,-0.017828 -0.0089,-0.032092 -0.0099,-0.049031 a 7.6537772,7.6521971 0 0 1 -0.09094,-0.8566779 c 0.01337,-0.4305698 0.0071,-0.8575739 0.0071,-1.2819034 V 6.2995031 c -0.0018,-0.5081261 0.0018,-1.0171433 -0.0037,-1.5243777 C 11.486584,4.3445599 11.443781,3.9015097 11.243157,3.485203 10.895623,2.758681 10.263456,2.3878386 9.5394497,2.1845877 A 4.8736657,4.8726596 0 0 0 8.1859509,2.0000581 Z m 0.8167358,4.8922712 c 0.00356,0.1836385 0.00177,0.385106 -0.00713,0.5865734 0,0.040116 -0.00536,0.078446 -0.00713,0.1185628 -0.030326,0.4403756 -0.1185971,0.8834259 -0.356663,1.2212849 A 1.3927305,1.392443 0 0 1 8.3473373,9.1102542 C 8.2893813,9.1539352 8.2216174,9.1904832 8.1520699,9.225251 8.1101629,9.245754 8.0718249,9.269825 8.0254577,9.285871 A 0.9478058,0.94761014 0 0 1 7.6268968,9.3393561 C 7.5341673,9.332225 7.4557033,9.2930007 7.3754565,9.256451 A 0.87915007,0.87896858 0 0 1 7.1971298,9.1361062 C 7.1552236,9.1004479 7.1150991,9.0656814 7.0812174,9.0211092 A 0.83546006,0.83528758 0 0 1 6.9055657,8.4452335 1.090467,1.0902419 0 0 1 7.024153,7.6812618 1.2572024,1.2569429 0 0 1 7.1632478,7.4806855 c 0.014267,-0.016938 0.031206,-0.032983 0.047256,-0.049031 0.046365,-0.049921 0.093621,-0.099843 0.1480114,-0.1426321 l 0.018725,-0.013369 C 7.6126305,7.1071686 7.8917118,7.02783 8.1850591,6.9779087 8.4516573,6.9360103 8.7289553,6.903027 9.0000115,6.8923293 Z M 14.172374,10.6275 a 4.0480133,4.0471777 0 0 0 -0.255008,0.0087 c -0.499313,0.02677 -0.985255,0.138175 -1.41948,0.426112 h -0.0018 c -0.02764,0.01869 -0.06778,0.04458 -0.10432,0.0936 a 0.23093294,0.23088526 0 0 0 -0.02495,0.213058 0.22112497,0.22107932 0 0 0 0.164062,0.119454 c 0.05528,0.0071 0.09453,-0.0018 0.120369,-0.0037 h 0.0018 c 0.333469,-0.03565 0.659808,-0.07754 0.98347,-0.0749 h 0.0018 c 0.196157,0 0.378051,-0.0089 0.550136,0.03834 h 0.0018 v 0.0018 c 0.08024,0.02051 0.117692,0.04368 0.133746,0.06508 0.01783,0.02139 0.0294,0.05616 0.02854,0.135501 -0.0027,0.05349 -0.0071,0.10519 -0.01606,0.151547 v 0.0018 c -0.08024,0.440375 -0.25144,0.857574 -0.422636,1.284577 -0.01158,0.02584 -0.03033,0.06061 -0.03653,0.111432 -0.0071,0.05349 0.01337,0.134609 0.06955,0.180964 a 0.2273664,0.22731946 0 0 0 0.1917,0.04457 c 0.05439,-0.01514 0.09272,-0.04277 0.123045,-0.06508 h 0.0018 a 0.70439003,0.70424461 0 0 0 0.07847,-0.06597 c 0.606351,-0.593707 0.889891,-1.331827 0.907722,-2.16444 a 0.39766831,0.39758621 0 0 0 -0.07836,-0.25566 0.42976707,0.42967835 0 0 0 -0.222908,-0.14085 2.6534996,2.6529518 0 0 0 -0.775721,-0.106974 z M 1.0181136,10.893152 a 0.21131701,0.21127338 0 0 0 -0.0820304,0.0019 0.23717436,0.2371254 0 0 0 -0.14622778,0.09895 0.22825802,0.2282109 0 0 0 -0.036557,0.167595 0.28888907,0.28882943 0 0 0 0.0552812,0.115885 c 0.0329905,0.04546 0.0686558,0.07578 0.0980796,0.101625 v 0.0018 c 0.33525397,0.29685 0.69012387,0.567852 1.06104327,0.814784 1.8180396,1.213259 3.8340214,1.789134 6.07202,1.804294 h 0.00177 c 0.7320307,-0.0063 1.5202344,-0.09004 2.2968474,-0.267433 1.173387,-0.260308 2.285256,-0.685531 3.301716,-1.345198 0.06509,-0.04278 0.136419,-0.08379 0.204184,-0.140854 v -0.0018 h 0.0018 a 0.4520579,0.45196458 0 0 0 0.124809,-0.160477 0.31385481,0.31379002 0 0 0 -0.181003,-0.416306 0.43244198,0.4323527 0 0 0 -0.215772,-0.009 l -0.0018,0.0018 h -0.0037 A 1.4747609,1.4744565 0 0 0 13.316245,11.748077 13.814069,13.811217 0 0 1 8.5104219,12.74737 14.287527,14.284577 0 0 1 5.0598026,12.416643 14.078884,14.075978 0 0 1 1.4727632,11.110671 v -0.0019 C 1.3497443,11.046486 1.226699,10.978733 1.0947373,10.915441 h -0.00178 a 0.27194803,0.27189189 0 0 0 -0.074896,-0.02227 z m 11.6242204,0.355689 v 0.0037 h -0.0071 z m 1.494374,1.909482 0.0037,0.0018 -0.0055,0.0037 c 0,-0.0018 0,-0.0037 0.0018,-0.0055 z"
     color="#000000"
     fill="#dedede"
     font-family="sans-serif"
     font-weight="400"
     overflow="visible"
     solid-color="#000000"
     style="font-variant-ligatures:normal;font-variant-position:normal;font-variant-caps:normal;font-variant-numeric:normal;font-variant-alternates:normal;font-feature-settings:normal;text-indent:0;text-decoration-line:none;text-decoration-style:solid;text-decoration-color:#000000;text-transform:none;text-orientation:mixed;white-space:normal;shape-padding:0;isolation:auto;mix-blend-mode:normal;stroke-width:0.891539"
     id="path1" />
</svg>
