<?xml version="1.0" encoding="UTF-8" standalone="no"?>
<svg
   width="16"
   height="16"
   version="1.1"
   id="svg2"
   sodipodi:docname="application-x-executable-symbolic.svg"
   inkscape:version="1.4 (unknown)"
   xmlns:inkscape="http://www.inkscape.org/namespaces/inkscape"
   xmlns:sodipodi="http://sodipodi.sourceforge.net/DTD/sodipodi-0.dtd"
   xmlns="http://www.w3.org/2000/svg"
   xmlns:svg="http://www.w3.org/2000/svg">
  <defs
     id="defs2" />
  <sodipodi:namedview
     id="namedview2"
     pagecolor="#ffffff"
     bordercolor="#000000"
     borderopacity="0.25"
     inkscape:showpageshadow="2"
     inkscape:pageopacity="0.0"
     inkscape:pagecheckerboard="0"
     inkscape:deskcolor="#d1d1d1"
     inkscape:zoom="48.4375"
     inkscape:cx="8"
     inkscape:cy="8"
     inkscape:window-width="1920"
     inkscape:window-height="998"
     inkscape:window-x="0"
     inkscape:window-y="0"
     inkscape:window-maximized="1"
     inkscape:current-layer="svg2" />
  <g
     id="g2"
     transform="matrix(0.85714286,0,0,0.85714286,1.1428571,1.1428571)">
    <path
       d="M 3,1 C 1.892,1 1,1.892 1,3 v 10 c 0,1.108 0.892,2 2,2 h 10 c 1.108,0 2,-0.892 2,-2 V 3 C 15,1.892 14.108,1 13,1 Z m 0,1 h 10 c 0.554,0 1,0.446 1,1 v 10 c 0,0.554 -0.446,1 -1,1 H 3 C 2.446,14 2,13.554 2,13 V 3 C 2,2.446 2.446,2 3,2 Z"
       fill="#dedede"
       stroke-linecap="round"
       stroke-width="2"
       id="path1" />
    <path
       d="M 8,3 C 7.723,3 7.5,3.223 7.5,3.5 V 4.03125 A 4,4 0 0 0 6.4492,4.3125 L 6.18358,3.85352 C 6.04508,3.61363 5.73988,3.53143 5.49999,3.66993 5.2601,3.80843 5.1779,4.11363 5.3164,4.35352 L 5.58202,4.8125 A 4,4 0 0 0 4.81444,5.58203 L 4.3535,5.31641 C 4.11361,5.17791 3.80841,5.260115 3.66991,5.5 3.53141,5.739885 3.613615,6.04509 3.8535,6.18359 L 4.31248,6.44921 A 4,4 0 0 0 4.03123,7.50001 H 3.49998 c -0.277,0 -0.5,0.223 -0.5,0.5 0,0.277 0.223,0.5 0.5,0.5 h 0.53125 a 4,4 0 0 0 0.28125,1.0508 L 3.8535,9.81643 c -0.23989,0.1385 -0.32209,0.4437 -0.18359,0.68359 0.1385,0.23989 0.4437,0.32209 0.68359,0.18359 l 0.46094,-0.26562 a 4,4 0 0 0 0.76758,0.76953 L 5.3164,11.6465 c -0.1385,0.23989 -0.056295,0.54509 0.18359,0.68359 0.239885,0.1385 0.54509,0.0563 0.68359,-0.18359 L 6.4492,11.68556 A 4,4 0 0 0 7.5,11.96876 v 0.53125 c 0,0.277 0.223,0.5 0.5,0.5 0.277,0 0.5,-0.223 0.5,-0.5 v -0.53125 a 4,4 0 0 0 1.0508,-0.28125 l 0.26562,0.45898 c 0.1385,0.23989 0.4437,0.32209 0.68359,0.18359 0.23989,-0.1385 0.32209,-0.4437 0.18359,-0.68359 l -0.26562,-0.46094 a 4,4 0 0 0 0.76953,-0.76758 l 0.45898,0.26562 c 0.23989,0.1385 0.54509,0.05629 0.68359,-0.18359 0.1385,-0.239885 0.05629,-0.54509 -0.18359,-0.68359 L 11.68555,9.55079 a 4,4 0 0 0 0.2832,-1.0508 H 12.5 c 0.277,0 0.5,-0.223 0.5,-0.5 0,-0.277 -0.223,-0.5 -0.5,-0.5 H 11.96875 A 4,4 0 0 0 11.6875,6.44919 l 0.45898,-0.26562 c 0.23989,-0.1385 0.32209,-0.4437 0.18359,-0.68359 -0.1385,-0.23989 -0.4437,-0.32209 -0.68359,-0.18359 L 11.18554,5.58201 A 4,4 0 0 0 10.41796,4.81248 L 10.68358,4.3535 C 10.82208,4.11361 10.739875,3.80841 10.49999,3.66991 10.260105,3.53141 9.9549,3.613615 9.8164,3.8535 L 9.55078,4.31444 A 4,4 0 0 0 8.49998,4.03124 V 3.49999 c 0,-0.277 -0.223,-0.5 -0.5,-0.5 z M 7.947266,5 a 3,3 0 0 1 0.00195,0 3,3 0 0 1 0.050781,0 3,3 0 0 1 1.5,0.40234 3,3 0 0 1 1.0977,1.0977 3,3 0 0 1 0.12891,0.25195 L 8.7071102,7.29301 a 1,1 0 0 0 -0.70703,-0.29297 1,1 0 0 0 -0.25781,0.035156 l -1.4805,-1.4805 a 3,3 0 0 1 0.23828,-0.15234 3,3 0 0 1 1.4473,-0.40234 z m -2.3926,1.2617 1.4785,1.4785 A 1,1 0 0 0 6.999963,7.99997 1,1 0 0 0 7.292933,8.707 l -0.54297,2.0215 a 3,3 0 0 1 -0.25,-0.13086 3,3 0 0 1 -1.0977,-1.0977 3,3 0 0 1 -0.40234,-1.5 3,3 0 0 1 0.40234,-1.5 3,3 0 0 1 0.15234,-0.23828 z m 5.4316,1.457 a 3,3 0 0 1 0.01367,0.28125 3,3 0 0 1 -0.40234,1.5 3,3 0 0 1 -1.0977,1.0977 3,3 0 0 1 -1.5,0.40234 3,3 0 0 1 -0.28125,-0.01367 l 0.53906,-2.0215 a 1,1 0 0 0 0.70898,-0.70703 l 2.0195,-0.53906 z"
       fill="#dedede"
       stroke-linecap="round"
       stroke-width="2"
       id="path2" />
  </g>
</svg>
