<?xml version="1.0" encoding="UTF-8" standalone="no"?>
<svg
   width="16"
   height="16"
   version="1.1"
   id="svg1"
   sodipodi:docname="atom-symbolic.svg"
   inkscape:version="1.4 (unknown)"
   xmlns:inkscape="http://www.inkscape.org/namespaces/inkscape"
   xmlns:sodipodi="http://sodipodi.sourceforge.net/DTD/sodipodi-0.dtd"
   xmlns="http://www.w3.org/2000/svg"
   xmlns:svg="http://www.w3.org/2000/svg">
  <defs
     id="defs1" />
  <sodipodi:namedview
     id="namedview1"
     pagecolor="#ffffff"
     bordercolor="#000000"
     borderopacity="0.25"
     inkscape:showpageshadow="2"
     inkscape:pageopacity="0.0"
     inkscape:pagecheckerboard="0"
     inkscape:deskcolor="#d1d1d1"
     inkscape:zoom="48.4375"
     inkscape:cx="7.9896774"
     inkscape:cy="9.6516129"
     inkscape:window-width="1920"
     inkscape:window-height="998"
     inkscape:window-x="0"
     inkscape:window-y="0"
     inkscape:window-maximized="1"
     inkscape:current-layer="svg1" />
  <path
     d="m 5.7552825,2.0010256 c -0.159556,-0.00456 -0.3082975,0.00503 -0.4395938,0.049813 -0.5003629,0.1737071 -0.8351976,0.5803158 -0.9998159,1.1713756 -0.1494319,0.541492 -0.1382026,1.406095 0.00477,2.1837215 -2.1e-6,5.356e-4 -2.1e-6,0.00104 0,0.00169 0.00737,0.039454 0.013777,0.071037 0.020632,0.1060558 -0.024666,0.00625 -0.025387,0.00668 -0.058718,0.014459 C 3.2438135,5.7682429 2.4658179,6.1264841 1.976676,6.6255736 1.7607386,6.8442173 1.623592,7.0613964 1.5497819,7.3181317 c -0.065861,0.2261056 -0.066886,0.5072259 0,0.7327226 0.144955,0.4892498 0.5373573,0.9171583 1.1188514,1.2838402 5.283e-4,2.2e-6 0.00103,2.2e-6 0.00167,0 C 2.8680562,9.4583069 2.9988976,9.5365552 3.1432189,9.569299 3.2875401,9.602037 3.4567245,9.537892 3.546306,9.4471755 3.581794,9.4112405 3.618035,9.3711405 3.644695,9.3122017 3.67136,9.2532637 3.676429,9.1919132 3.676429,9.1434802 3.676429,9.0536712 3.655953,8.9425742 3.59232,8.8574568 3.5286236,8.7723288 3.4509175,8.7232872 3.3526183,8.6662241 3.3520917,8.6656854 3.3515833,8.6651641 3.351026,8.6646141 2.8027567,8.3519872 2.5131393,8.0443674 2.4432616,7.8178012 2.4083386,7.7045139 2.4142984,7.6106836 2.4654791,7.4996423 2.5166609,7.388601 2.6219883,7.2609572 2.7939845,7.1300644 3.1482708,6.8609063 3.6617642,6.6374331 4.3714264,6.4616115 c 0.099827,-0.024619 0.1329133,-0.029601 0.1840862,-0.040167 6.933e-4,0.00247 8.598e-4,0.00399 0.00167,0.00651 0.024588,0.08695 0.058027,0.1981007 0.09522,0.3181589 0.074371,0.2401081 0.1618477,0.512738 0.2253468,0.6845204 l 0.09356,0.2554237 -0.122196,0.2410294 c -0.6674858,1.3053824 -1.1001733,2.6311811 -1.153719,3.6411401 -0.043337,0.769546 0.092627,1.36562 0.4713313,1.75147 0.4086365,0.414352 1.0100536,0.497194 1.6901394,0.276381 0.2827436,-0.09235 0.7452021,-0.332786 1.0458048,-0.539902 0.102257,-0.0692 0.1681447,-0.114626 0.2237621,-0.165502 0.055622,-0.05096 0.102013,-0.12025 0.1237807,-0.178369 0.031854,-0.08501 0.03124,-0.224298 0,-0.31173 -0.062395,-0.174899 -0.2417188,-0.308516 -0.4268942,-0.308516 -0.05753,0 -0.1343189,0.01643 -0.1999549,0.04824 -0.065635,0.03174 -0.1298741,0.07456 -0.2269387,0.141409 -0.4130328,0.283835 -0.7965132,0.453149 -1.0870815,0.502946 -0.1959333,0.03409 -0.3232562,0.0063 -0.4221327,-0.06103 -0.098877,-0.06825 -0.1847851,-0.193319 -0.2443922,-0.408147 -0.013931,-0.05064 -0.036555,-0.282081 -0.03491,-0.514195 0.00173,-0.232109 0.01953,-0.485869 0.047603,-0.639525 5.319e-4,-5.35e-4 0.00103,-0.0013 0.00167,-0.0019 0.095359,-0.544116 0.2615707,-1.112771 0.5030382,-1.7144191 0.070817,-0.1767596 0.177001,-0.4183815 0.2681993,-0.6186377 0.00891,-0.019616 0.015182,-0.031081 0.023801,-0.049815 0.3219882,0.7012787 0.7529126,1.5021898 1.1981534,2.1724518 1.1403828,1.714286 2.3739634,2.839426 3.4452826,3.030539 0.05081,0.0059 0.08666,0.01015 0.130133,0.01448 0.414619,0.03155 0.81627,-0.06805 1.101381,-0.356723 5.37e-4,-5.24e-4 0.0013,-0.0013 0.002,-0.002 0.258511,-0.266303 0.421384,-0.633099 0.509413,-1.108766 3e-6,-5.37e-4 3e-6,-0.0013 0,-0.002 0.06292,-0.348129 0.05726,-1.095605 0.002,-1.516916 10e-7,-5.36e-4 10e-7,-0.0013 0,-0.0019 C 11.681108,9.8325865 11.261218,8.5006986 10.635335,7.1747354 10.583555,7.0646077 10.541363,6.9809703 10.462356,6.9079961 10.383868,6.8355108 10.267172,6.8055684 10.17829,6.8051572 9.9337745,6.8032049 9.7212419,7.002205 9.7212419,7.2534689 c 0,0.092408 0.021224,0.1311565 0.046026,0.1992522 0.024802,0.068097 0.058474,0.1485982 0.099981,0.2378129 0.7520331,1.6234552 1.1489081,3.195739 1.1092581,4.290274 -0.01231,0.327303 -0.05985,0.580009 -0.131719,0.755221 -0.0718,0.175211 -0.159618,0.269845 -0.269782,0.324586 -0.106097,0.05297 -0.255904,0.0612 -0.506243,-0.02093 h -0.0018 C 9.4962207,12.84318 8.7511163,12.209701 8.0294287,11.296404 7.3068154,10.381967 6.5993796,9.1933942 6.0457231,7.9075793 L 5.9758961,7.743679 6.0854006,7.5508518 C 6.2600453,7.2466465 6.7307672,6.5242733 6.9344109,6.2444693 v -0.00168 l 0.082522,-0.1108534 h 0.2761298 c 2.2674404,0 4.5248063,0.534787 5.6670553,1.2983202 0.21355,0.1430118 0.514743,0.4679247 0.563377,0.5640092 5.19e-4,0.00105 0.0013,0.00209 0.002,0.00314 0.0599,0.1140771 0.04599,0.062611 0.04599,0.220141 0,0.1540032 0.01199,0.1122836 -0.03335,0.1960354 -0.0013,0.00167 -0.0026,0.00312 -0.0039,0.00483 -0.106818,0.2078225 -0.46317,0.5029618 -0.936262,0.7038102 -0.124837,0.053459 -0.219611,0.099359 -0.299938,0.1815721 -0.08027,0.08222 -0.119019,0.2086889 -0.119019,0.3085167 0,0.2045179 0.142031,0.3839333 0.330091,0.4418853 5.27e-4,1e-6 0.0013,1e-6 0.002,0 0.04485,0.01311 0.113403,0.02581 0.177738,0.01609 0.06441,-0.0097 0.112439,-0.02949 0.179325,-0.05623 0.84633,-0.3387768 1.460923,-0.8610501 1.599705,-1.4815387 v -0.00168 c 0.0448,-0.1945354 0.04201,-0.4317478 -0.0038,-0.6218433 v -0.00165 C 14.388332,7.5778698 14.157643,7.2310314 13.879144,6.9771345 12.73478,5.9373103 10.441909,5.3340988 7.7391957,5.2369365 7.8630411,5.0930527 8.0586654,4.8782922 8.1962426,4.7372057 8.9737993,3.9369054 9.691213,3.4237478 10.283137,3.2187283 c 5.33e-4,2e-6 0.0011,2e-6 0.0018,0 0.200582,-0.071222 0.183397,-0.06909 0.390395,-0.06909 0.0966,0 0.151585,0.00261 0.177743,0.00651 0.02617,0.0039 0.0265,0.00419 0.05868,0.020891 0.0024,0.00109 0.0049,0.00213 0.0059,0.00314 0.05275,0.025254 0.173653,0.1434888 0.217418,0.2265665 0.09555,0.192399 0.149308,0.6322695 0.09048,1.0942878 -0.02152,0.1740442 -0.03969,0.3533788 -0.03969,0.4563493 0,0.05915 -0.0051,0.1110003 0.02216,0.184789 0.02572,0.071635 0.07787,0.1197208 0.11585,0.1526542 0.07305,0.067106 0.197178,0.1173021 0.290414,0.1173021 0.182542,0 0.358839,-0.079624 0.431654,-0.2715604 0.07023,-0.1835817 0.09338,-0.4408026 0.109645,-0.7343372 0.01623,-0.2935358 0.01601,-0.594541 -0.01901,-0.8066441 C 12.03886,3.0142654 11.770661,2.570199 11.335328,2.3590919 10.953297,2.172583 10.497043,2.1779636 10.010177,2.338202 9.5227431,2.4986308 8.9937877,2.8118532 8.4311121,3.2686057 7.8383566,3.750484 7.0835345,4.5439721 6.5505156,5.2353782 l 0.00477,-0.00796 -0.2205852,0.012858 c -0.250916,0.014672 -0.6455202,0.053908 -1.0982197,0.1076066 l -0.012698,-0.069091 v -0.00168 c -0.08797,-0.5189105 -0.093626,-0.5682074 -0.093626,-1.0652893 0,-0.4369501 0.00372,-0.4853009 0.042845,-0.650781 2.2e-6,-5.351e-4 2.2e-6,-0.00104 0,-0.00169 C 5.2658999,3.1555285 5.4308997,2.9699252 5.58879,2.935972 5.8590613,2.8782089 6.2648215,3.021089 6.8869662,3.4887346 7.0427364,3.6072193 7.2445525,3.6278367 7.4011429,3.5449815 7.5577329,3.4621315 7.655594,3.2713782 7.6312504,3.0757868 7.618124,2.9684725 7.5536866,2.8677484 7.4693785,2.7865547 7.3853066,2.7055835 7.2742176,2.6235018 7.109136,2.5117855 H 7.107486 C 6.819917,2.3158904 6.5040059,2.1546554 6.2252277,2.071504 6.0790051,2.0272034 5.9149395,2.005363 5.755489,2.0008019 Z m 0.09522,4.2035589 C 5.7576882,6.342076 5.6511819,6.5042981 5.5711967,6.6336116 5.5188837,6.4691765 5.480665,6.3400272 5.4553465,6.2463618 c 0.040117,-0.00536 0.073347,-0.010533 0.1206114,-0.016066 0.092709,-0.010853 0.1788616,-0.016665 0.2745446,-0.025711 z m 2.3994768,1.0428684 c -0.5111288,0 -0.9283942,0.4247406 -0.9283942,0.9415925 0,0.5168514 0.417688,0.9415926 0.9283942,0.9415926 0.5106901,0 0.9283947,-0.4245109 0.9283947,-0.9415926 0,-0.5170986 -0.4172413,-0.9415925 -0.9283947,-0.9415925 z"
     color="#000000"
     fill="#333333"
     stroke-linecap="round"
     stroke-linejoin="round"
     stroke-width="0.408423"
     style="-inkscape-stroke:none;fill:#f2f2f2;fill-opacity:1"
     id="path1" />
</svg>
