<?xml version="1.0" encoding="UTF-8" standalone="no"?>
<svg
   width="16"
   height="16"
   version="1.1"
   id="svg1"
   sodipodi:docname="builder-symbolic.svg"
   inkscape:version="1.4 (unknown)"
   xmlns:inkscape="http://www.inkscape.org/namespaces/inkscape"
   xmlns:sodipodi="http://sodipodi.sourceforge.net/DTD/sodipodi-0.dtd"
   xmlns="http://www.w3.org/2000/svg"
   xmlns:svg="http://www.w3.org/2000/svg">
  <defs
     id="defs1" />
  <sodipodi:namedview
     id="namedview1"
     pagecolor="#ffffff"
     bordercolor="#000000"
     borderopacity="0.25"
     inkscape:showpageshadow="2"
     inkscape:pageopacity="0.0"
     inkscape:pagecheckerboard="0"
     inkscape:deskcolor="#d1d1d1"
     inkscape:zoom="14.142136"
     inkscape:cx="9.5812969"
     inkscape:cy="16.298811"
     inkscape:window-width="1920"
     inkscape:window-height="998"
     inkscape:window-x="0"
     inkscape:window-y="0"
     inkscape:window-maximized="1"
     inkscape:current-layer="svg1" />
  <path
     d="M 9.125,2 C 8.3285,2 7.688,2.615 7.6355,3.4025 L 5.951,5.0825 C 5.765,5.0375 5.576,5 5.375,5 4.1285,5 3.125,6.005 3.125,7.25 c 0,0.6675 0.2925,1.26 0.75,1.665 v 2.835 h 3 V 8.915 C 7.3325,8.51 7.625,7.9175 7.625,7.25 c 0,-0.2025 -0.034501,-0.39 -0.08325,-0.5775 l 1.6844998,-1.68 C 9.323,4.985 9.4167511,4.97 9.5075,4.94 L 10.203501,5.6375 9.9845,5.855 A 0.3825,0.3825 0 0 0 9.875,6.125 v 1.5 C 9.875,7.8275 10.043,8 10.25,8 h 1.5 c 0.507,0 0.507,-0.75 0,-0.75 H 10.625 V 6.2825 L 11.905249,5 H 12.875 v 1.125 c 0,0.5055 0.75,0.5025 0.75,0 v -1.5 c 0,-0.21 -0.168,-0.375 -0.375,-0.375 h -1.5 A 0.3825,0.3825 0 0 0 11.484501,4.355 L 11.264,4.58 10.569501,3.8825 C 10.601752,3.7625 10.625,3.635 10.625,3.5 10.625,2.6675 9.956,2 9.125,2 Z m 0,0.75 a 0.75,0.75 0 1 1 0,1.5 0.75,0.75 0 0 1 0,-1.5 z m -3.75,3 a 1.5,1.5 0 1 1 0,3 1.5,1.5 0 0 1 0,-3 z m 0,0.75 a 0.75,0.75 0 1 0 0,1.5 0.75,0.75 0 0 0 0,-1.5 z m -2.25,6 c 0,0 -0.75,0 -0.75,0.75 V 14 h 6 v -0.75 c 0,0 0,-0.75 -0.75,-0.75 z"
     fill="#dedede"
     id="path1"
     style="stroke-width:0.75" />
</svg>
