<?xml version="1.0" encoding="UTF-8" standalone="no"?>
<svg
   width="16"
   height="16"
   version="1.1"
   id="svg2"
   sodipodi:docname="calendar-app-symbolic.svg"
   inkscape:version="1.4 (unknown)"
   xmlns:inkscape="http://www.inkscape.org/namespaces/inkscape"
   xmlns:sodipodi="http://sodipodi.sourceforge.net/DTD/sodipodi-0.dtd"
   xmlns="http://www.w3.org/2000/svg"
   xmlns:svg="http://www.w3.org/2000/svg">
  <defs
     id="defs2" />
  <sodipodi:namedview
     id="namedview2"
     pagecolor="#ffffff"
     bordercolor="#000000"
     borderopacity="0.25"
     inkscape:showpageshadow="2"
     inkscape:pageopacity="0.0"
     inkscape:pagecheckerboard="0"
     inkscape:deskcolor="#d1d1d1"
     inkscape:zoom="14.142136"
     inkscape:cx="3.7830213"
     inkscape:cy="11.702617"
     inkscape:window-width="1920"
     inkscape:window-height="998"
     inkscape:window-x="0"
     inkscape:window-y="0"
     inkscape:window-maximized="1"
     inkscape:current-layer="svg2" />
  <g
     fill="#dedede"
     id="g2"
     transform="matrix(0.75,0,0,0.75,2,2)">
    <path
       d="M 3.994,0 C 2.736,0.015 1.815,-0.03 1.063,0.385 A 1.88,1.88 0 0 0 0.225,1.383 C 0.06,1.82 0,2.343 0,3 v 10 c 0,0.658 0.06,1.179 0.225,1.617 0.164,0.439 0.461,0.789 0.838,0.996 0.752,0.415 1.673,0.372 2.931,0.387 h 8.012 c 1.258,-0.015 2.179,0.03 2.932,-0.385 a 1.88,1.88 0 0 0 0.838,-0.998 C 15.94,14.179 16,13.657 16,13 V 3 C 16,2.342 15.94,1.821 15.775,1.383 A 1.875,1.875 0 0 0 14.938,0.387 C 14.185,-0.028 13.264,0.015 12.006,0 H 3.998 Z M 4,1 h 8 c 1.259,0.015 2.09,0.06 2.455,0.262 0.184,0.1 0.287,0.213 0.385,0.472 C 14.937,1.994 15,2.408 15,3 V 4.998 H 14.469 C 14.209,4.998 14,5.221 14,5.498 v 5 c 0,0.277 0.214,0.548 0.469,0.5 H 15 V 13 c 0,0.592 -0.063,1.006 -0.16,1.266 -0.098,0.26 -0.202,0.371 -0.385,0.472 C 14.089,14.94 13.259,14.985 12,15 H 4 C 2.741,14.985 1.91,14.94 1.545,14.738 1.361,14.638 1.258,14.525 1.16,14.266 1.062,14.006 1,13.592 1,13 V 11 H 1.531 C 1.786,11.048 2,10.777 2,10.5 v -5 C 2,5.223 1.79,5 1.531,5 H 1 V 3 C 1,2.408 1.062,1.994 1.16,1.734 1.258,1.474 1.361,1.363 1.545,1.262 1.91,1.06 2.74,1.015 4,1 Z"
       id="path1" />
    <path
       d="m 4.5,5 a 0.5,0.5 0 1 0 0,1 h 1 V 5 H 5 Z m 1,0 V 6 C 5.776,6.018 6,6.223 6,6.5 v 1 C 6,7.777 5.777,8 5.5,8 V 9 H 6 C 6.554,9 7,8.554 7,8 V 6 A 0.983,0.983 0 0 0 6.195,5.04 0.501,0.501 0 0 0 6,5 Z M 5,8 C 4.446,8 4.109,8.457 4,9 v 2 c 0,0.554 0.446,1 1,1 H 5.5 V 11 A 0.499,0.499 0 0 1 5,10.5 v -1 C 5,9.223 5.223,9 5.5,9 V 8 Z m 0.5,3 v 1 h 1 a 0.5,0.5 0 1 0 0,-1 z M 9,5 C 8.446,5 8,5.446 8,6 V 8 C 8,8.186 8.465,8.35 8.553,8.5 8.465,8.65 8,8.814 8,9 v 2 c 0,0.554 0.446,1 1,1 h 2 c 0.554,0 1,-0.446 1,-1 V 9 C 12,8.814 11.535,8.65 11.447,8.5 11.535,8.35 12,8.186 12,8 V 6 C 12,5.446 11.554,5 11,5 Z m 0.5,1 h 1 C 10.777,6 11,6.223 11,6.5 v 1 C 11,7.777 10.777,8 10.5,8 h -1 A 0.499,0.499 0 0 1 9,7.5 v -1 C 9,6.223 9.223,6 9.5,6 Z m 0,3 h 1 C 10.777,9 11,9.223 11,9.5 v 1 c 0,0.277 -0.223,0.5 -0.5,0.5 h -1 A 0.499,0.499 0 0 1 9,10.5 v -1 C 9,9.223 9.223,9 9.5,9 Z"
       id="path2" />
  </g>
</svg>
