<?xml version="1.0" encoding="UTF-8" standalone="no"?>
<svg
   width="16"
   height="16"
   version="1.1"
   id="svg1"
   sodipodi:docname="camera-app-symbolic.svg"
   inkscape:version="1.4 (unknown)"
   xmlns:inkscape="http://www.inkscape.org/namespaces/inkscape"
   xmlns:sodipodi="http://sodipodi.sourceforge.net/DTD/sodipodi-0.dtd"
   xmlns="http://www.w3.org/2000/svg"
   xmlns:svg="http://www.w3.org/2000/svg">
  <defs
     id="defs1" />
  <sodipodi:namedview
     id="namedview1"
     pagecolor="#ffffff"
     bordercolor="#000000"
     borderopacity="0.25"
     inkscape:showpageshadow="2"
     inkscape:pageopacity="0.0"
     inkscape:pagecheckerboard="0"
     inkscape:deskcolor="#d1d1d1"
     inkscape:zoom="20"
     inkscape:cx="7.175"
     inkscape:cy="11.825"
     inkscape:window-width="1920"
     inkscape:window-height="998"
     inkscape:window-x="0"
     inkscape:window-y="0"
     inkscape:window-maximized="1"
     inkscape:current-layer="svg1" />
  <path
     d="M 3.3125004,2 V 2.923077 H 4.244375 C 3.0649997,2.936923 2.2015631,2.895385 1.4965627,3.278462 A 1.7625005,1.735385 0 0 0 0.71093751,4.199692 C 0.55624999,4.604923 0.5,5.085846 0.5,5.692308 v 5.538462 c 0,0.60738 0.05625,1.08831 0.21093751,1.49261 0.15374999,0.40524 0.43218759,0.72924 0.78562519,0.92124 0.7050004,0.384 1.568437,0.34153 2.7478123,0.35538 h 7.511248 c 1.179375,-0.0129 2.042818,0.0277 2.748749,-0.35538 a 1.7625005,1.735385 0 0 0 0.785627,-0.92124 C 15.443755,12.31908 15.5,11.83723 15.5,11.23077 V 5.692308 c 0,-0.607385 -0.05626,-1.087385 -0.210935,-1.492616 A 1.7625005,1.735385 0 0 0 14.504372,3.278462 C 13.798441,2.894462 12.934998,2.936923 11.755623,2.923077 H 5.1875006 V 2 Z m 0.9375001,1.846154 h 7.4999965 c 1.18032,0.01385 1.956562,0.055384 2.299689,0.241846 0.172505,0.09323 0.271875,0.196615 0.362814,0.435692 0.0909,0.24 0.149997,0.622154 0.149997,1.168616 v 5.538462 c 0,0.54646 -0.05904,0.92861 -0.149997,1.16861 -0.09191,0.24 -0.190309,0.34247 -0.362814,0.4357 -0.343127,0.18646 -1.119369,0.228 -2.299689,0.24184 H 4.2500005 C 3.0696879,13.06307 2.2906251,13.02153 1.9484378,12.83508 1.7768753,12.74278 1.6793753,12.63938 1.5874998,12.39938 1.4965626,12.15938 1.4375,11.77723 1.4375,11.23077 V 5.692308 c 0,-0.546462 0.059063,-0.928616 0.1499998,-1.168616 C 1.6793757,4.283692 1.7768753,4.181231 1.9484378,4.088 2.2915627,3.901538 3.0687503,3.86 4.2500005,3.846154 Z M 8,4.769231 A 3.7500005,3.692308 0 0 0 4.2500005,8.461538 3.7500005,3.692308 0 0 0 8,12.15385 3.7500005,3.692308 0 0 0 11.749997,8.461538 3.7500005,3.692308 0 0 0 8,4.769231 Z m 5.156252,0 A 0.46875006,0.4615385 0 0 0 12.6875,5.230769 0.46875006,0.4615385 0 0 0 13.156252,5.692308 0.46875006,0.4615385 0 0 0 13.625004,5.230769 0.46875006,0.4615385 0 0 0 13.156252,4.769231 Z M 8,5.692308 A 2.8125004,2.769231 0 0 1 10.812504,8.461538 2.8125004,2.769231 0 0 1 8,11.23077 2.8125004,2.769231 0 0 1 5.1875006,8.461538 2.8125004,2.769231 0 0 1 8,5.692308 Z M 7.9212508,6.619077 A 1.8750003,1.846154 0 0 0 6.1250008,8.461538 1.8750003,1.846154 0 0 0 8,10.307692 1.8750003,1.846154 0 0 0 9.8750003,8.461538 1.8750003,1.846154 0 0 0 8.0937503,6.620923 0.93750003,0.9230769 0 0 1 8.9375001,7.538462 0.93750003,0.9230769 0 0 1 8,8.461538 0.93750003,0.9230769 0 0 1 7.0624999,7.538462 0.93750003,0.9230769 0 0 1 7.9212508,6.619077 Z"
     color="#000000"
     fill="#dedede"
     font-family="sans-serif"
     font-weight="400"
     overflow="visible"
     solid-color="#000000"
     style="font-variant-ligatures:normal;font-variant-position:normal;font-variant-caps:normal;font-variant-numeric:normal;font-variant-alternates:normal;font-feature-settings:normal;text-indent:0;text-decoration-line:none;text-decoration-style:solid;text-decoration-color:#000000;text-transform:none;text-orientation:mixed;white-space:normal;shape-padding:0;isolation:auto;mix-blend-mode:normal;stroke-width:0.930264"
     id="path1" />
</svg>
