<?xml version="1.0" encoding="UTF-8" standalone="no"?>
<svg
   width="16"
   height="16"
   version="1.1"
   id="svg3"
   sodipodi:docname="cheese-symbolic.svg"
   inkscape:version="1.4 (unknown)"
   xmlns:inkscape="http://www.inkscape.org/namespaces/inkscape"
   xmlns:sodipodi="http://sodipodi.sourceforge.net/DTD/sodipodi-0.dtd"
   xmlns="http://www.w3.org/2000/svg"
   xmlns:svg="http://www.w3.org/2000/svg">
  <defs
     id="defs3" />
  <sodipodi:namedview
     id="namedview3"
     pagecolor="#ffffff"
     bordercolor="#000000"
     borderopacity="0.25"
     inkscape:showpageshadow="2"
     inkscape:pageopacity="0.0"
     inkscape:pagecheckerboard="0"
     inkscape:deskcolor="#d1d1d1"
     inkscape:zoom="17.125242"
     inkscape:cx="8.6130168"
     inkscape:cy="7.9122968"
     inkscape:window-width="1920"
     inkscape:window-height="998"
     inkscape:window-x="0"
     inkscape:window-y="0"
     inkscape:window-maximized="1"
     inkscape:current-layer="svg3" />
  <g
     fill="#dedede"
     stroke-linecap="round"
     stroke-linejoin="round"
     stroke-width="1.0016"
     id="g3"
     transform="matrix(0.75,0,0,0.75,1.625,2)">
    <path
       d="M 3,0 C 1.892,0 1,0.892 1,2 v 12 c 0,1.108 0.892,2 2,2 H 8 V 15 H 3 C 2.446,15 2,14.554 2,14 V 2 C 2,1.446 2.446,1 3,1 h 10 c 0.554,0 1,0.446 1,1 v 4 h 1 V 2 C 15,0.892 14.108,0 13,0 Z"
       id="path1" />
    <path
       d="M 12.5,7 A 3.5,3.5 0 0 0 9,10.5 3.5,3.5 0 0 0 12.5,14 3.5,3.5 0 0 0 16,10.5 3.5,3.5 0 0 0 12.5,7 Z m 0,1 A 2.5,2.5 0 0 1 15,10.5 2.5,2.5 0 0 1 12.5,13 2.5,2.5 0 0 1 10,10.5 2.5,2.5 0 0 1 12.5,8 Z"
       id="path2" />
    <circle
       cx="12.5"
       cy="10.5"
       r="1.5"
       id="circle2" />
    <path
       d="m 11,14 c -1.108,0 -2,0.892 -2,2 h 1 c 0,-0.554 0.446,-1 1,-1 h 3 c 0.554,0 1,0.446 1,1 h 1 c 0,-1.108 -0.892,-2 -2,-2 z"
       id="path3" />
  </g>
</svg>
