<?xml version="1.0" encoding="UTF-8" standalone="no"?>
<svg
   width="16"
   height="16"
   version="1.1"
   id="svg1"
   sodipodi:docname="clock-app-symbolic.svg"
   inkscape:version="1.4 (unknown)"
   xmlns:inkscape="http://www.inkscape.org/namespaces/inkscape"
   xmlns:sodipodi="http://sodipodi.sourceforge.net/DTD/sodipodi-0.dtd"
   xmlns="http://www.w3.org/2000/svg"
   xmlns:svg="http://www.w3.org/2000/svg">
  <defs
     id="defs1" />
  <sodipodi:namedview
     id="namedview1"
     pagecolor="#ffffff"
     bordercolor="#000000"
     borderopacity="0.25"
     inkscape:showpageshadow="2"
     inkscape:pageopacity="0.0"
     inkscape:pagecheckerboard="0"
     inkscape:deskcolor="#d1d1d1"
     inkscape:zoom="14.142136"
     inkscape:cx="8.3792154"
     inkscape:cy="5.7629203"
     inkscape:window-width="1920"
     inkscape:window-height="998"
     inkscape:window-x="0"
     inkscape:window-y="0"
     inkscape:window-maximized="1"
     inkscape:current-layer="svg1" />
  <path
     d="M 8,2 A 6.1215,6.1215 0 0 0 7.475,2.02625 C 7.385,2.036 7.295,2.0465 7.2057501,2.06 7.1015,2.07275 6.9972501,2.0885 6.8937501,2.10725 A 5.9775,5.9775 0 0 0 6.6162499,2.16875 C 6.5097499,2.19275 6.4047501,2.219 6.3012501,2.249 6.2187501,2.2745 6.1377501,2.3015 6.0575,2.32925 A 6,6 0 0 0 5.7327501,2.44925 5.9452501,5.9452501 0 0 0 5.4935,2.5565 C 5.3945,2.6015 5.2962501,2.64875 5.1995,2.699 A 6,6 0 0 0 2,8 6,6 0 0 0 5.0967501,13.25 h 0.013501 a 6,6 0 0 0 2.7547496,0.744 L 8,14 c 0.1755,-0.0016 0.3502499,-0.0098 0.525,-0.02624 0.09,-0.0091 0.18,-0.02024 0.2692501,-0.03376 0.1042499,-0.01272 0.2085,-0.02849 0.312,-0.04649 0.08775,-0.018 0.1762499,-0.03751 0.2632499,-0.05849 0.11625,-0.027 0.23175,-0.05623 0.34575,-0.09 0.06526,-0.02023 0.12975,-0.04128 0.193502,-0.06448 0.122248,-0.03976 0.242248,-0.084 0.361496,-0.131249 0.07352,-0.03072 0.146252,-0.06301 0.218252,-0.0975 A 6,6 0 0 0 13.25,10.904 V 10.89128 A 6,6 0 0 0 13.994,8.1357643 L 14,8 A 6.1215,6.1215 0 0 0 13.97375,7.4757499 6.027,6.027 0 0 0 13.94,7.2057501 5.994,5.994 0 0 0 13.8935,6.8944999 6.075,6.075 0 0 0 13.832,6.6162498 5.97,5.97 0 0 0 13.75101,6.30125 5.9895,5.9895 0 0 0 13.67077,6.0575 6,6 0 0 0 13.55077,5.73275 6.0532501,6.0532501 0 0 0 13.443519,5.4935 6.0187501,6.0187501 0 0 0 13.301018,5.1995 6,6 0 0 0 10.932519,2.7695 L 10.921245,2.768 A 6,6 0 0 0 9.2435,2.1335 6.021,6.021 0 0 0 8.726,2.04875 L 8.651,2.03675 H 8.64275 A 5.829,5.829 0 0 0 8.2632501,2.0135 5.472,5.472 0 0 0 8,2 Z M 8,2.75 A 5.25,5.25 0 0 1 13.25,8 5.25,5.25 0 0 1 8,13.25 5.25,5.25 0 0 1 2.75,8 5.25,5.25 0 0 1 8,2.75 Z m 2.6835,2.991 A 0.35175,0.35175 0 0 0 10.433,5.805499 l -2.52,1.5015 a 0.7515,0.7515 0 0 0 -0.5865,0.006 l -1.7595,-0.744 c -0.1545,-0.114 -0.3652499,-0.0705 -0.444,0.03525 l -0.0645,0.08475 c -0.0945,0.1275001 -0.0795,0.372 0.075,0.48675 L 6.881,7.9122501 A 0.75,0.75 0 0 0 7.25,8.64725 V 10.625 C 7.25,10.832751 7.406,11 7.6017499,11 h 0.046501 C 7.8432499,11 8,10.832751 8,10.625 V 8.6487501 A 0.75,0.75 0 0 0 8.3675,7.89875 L 10.866501,6.4122498 C 11.021,6.29825 11.036,6.0529999 10.941501,5.9255 l -0.0645,-0.08475 A 0.28275,0.28275 0 0 0 10.6835,5.741 Z"
     color="#000000"
     fill="#dedede"
     font-family="sans-serif"
     font-weight="400"
     overflow="visible"
     solid-color="#000000"
     style="font-variant-ligatures:normal;font-variant-position:normal;font-variant-caps:normal;font-variant-numeric:normal;font-variant-alternates:normal;font-feature-settings:normal;text-indent:0;text-decoration-line:none;text-decoration-style:solid;text-decoration-color:#000000;text-transform:none;text-orientation:mixed;white-space:normal;shape-padding:0;isolation:auto;mix-blend-mode:normal;stroke-width:0.75"
     id="path1" />
</svg>
