<?xml version="1.0" encoding="UTF-8" standalone="no"?>
<svg
   width="16"
   height="16"
   version="1"
   id="svg2"
   sodipodi:docname="com.github.bilelmoussaoui.Authenticator-symbolic.svg"
   inkscape:version="1.4 (unknown)"
   xmlns:inkscape="http://www.inkscape.org/namespaces/inkscape"
   xmlns:sodipodi="http://sodipodi.sourceforge.net/DTD/sodipodi-0.dtd"
   xmlns="http://www.w3.org/2000/svg"
   xmlns:svg="http://www.w3.org/2000/svg">
  <defs
     id="defs2" />
  <sodipodi:namedview
     id="namedview2"
     pagecolor="#ffffff"
     bordercolor="#000000"
     borderopacity="0.25"
     inkscape:showpageshadow="2"
     inkscape:pageopacity="0.0"
     inkscape:pagecheckerboard="0"
     inkscape:deskcolor="#d1d1d1"
     inkscape:zoom="24.21875"
     inkscape:cx="16.061935"
     inkscape:cy="10.384516"
     inkscape:window-width="1920"
     inkscape:window-height="998"
     inkscape:window-x="0"
     inkscape:window-y="0"
     inkscape:window-maximized="1"
     inkscape:current-layer="svg2" />
  <g
     id="g2"
     transform="matrix(0.75,0,0,0.75,2,2)">
    <path
       d="M 10.475,7.5254 9.4145,7.87892 8.68208,8.12111 c -0.7297,-0.26492 -1.5465,-0.083803 -2.0957,0.46484 -0.78076,0.781 -0.78076,2.0471 0,2.8281 0.781,0.78076 2.0471,0.78076 2.8281,0 0.54865,-0.54921 0.72976,-1.366 0.46484,-2.0957 l 0.24219,-0.73242 0.35352,-1.0605 z M 8.0004,9 a 1,1 0 0 1 1,1 1,1 0 0 1 -1,1 1,1 0 0 1 -1,-1 1,1 0 0 1 1,-1 z"
       fill="#dedede"
       id="path1" />
    <path
       d="M 8,0 C 6.338,0 5,1.338 5,3 V 4.8047 A 6,6 0 0 0 2,10 6,6 0 0 0 8,16 6,6 0 0 0 14,10 6,6 0 0 0 11,4.8047 V 3 C 11,1.338 9.662,0 8,0 Z m 0,1 c 1.108,0 2,0.892 2,2 V 4.3438 A 6,6 0 0 0 8,4.00005 6,6 0 0 0 6,4.3438 V 3 C 6,1.892 6.892,1 8,1 Z m 0,4 a 5,5 0 0 1 5,5 5,5 0 0 1 -5,5 5,5 0 0 1 -5,-5 5,5 0 0 1 5,-5 z"
       fill="#dedede"
       stroke-linecap="round"
       stroke-linejoin="round"
       stroke-width="1.0016"
       id="path2" />
  </g>
</svg>
