<?xml version="1.0" encoding="UTF-8" standalone="no"?>
<svg
   width="16"
   height="16"
   version="1.1"
   id="svg2"
   sodipodi:docname="configurator-app-symbolic.svg"
   inkscape:version="1.4 (unknown)"
   xmlns:inkscape="http://www.inkscape.org/namespaces/inkscape"
   xmlns:sodipodi="http://sodipodi.sourceforge.net/DTD/sodipodi-0.dtd"
   xmlns="http://www.w3.org/2000/svg"
   xmlns:svg="http://www.w3.org/2000/svg">
  <defs
     id="defs2" />
  <sodipodi:namedview
     id="namedview2"
     pagecolor="#ffffff"
     bordercolor="#000000"
     borderopacity="0.25"
     inkscape:showpageshadow="2"
     inkscape:pageopacity="0.0"
     inkscape:pagecheckerboard="0"
     inkscape:deskcolor="#d1d1d1"
     inkscape:zoom="17.125242"
     inkscape:cx="25.021544"
     inkscape:cy="10.656783"
     inkscape:window-width="1920"
     inkscape:window-height="998"
     inkscape:window-x="0"
     inkscape:window-y="0"
     inkscape:window-maximized="1"
     inkscape:current-layer="svg2" />
  <g
     transform="matrix(0.85524909,0,0,0.86430424,1.1447509,1.1616249)"
     color="#000000"
     fill="#dedede"
     font-family="sans-serif"
     font-weight="400"
     id="g2">
    <path
       d="m 13.969,0.97 -1.576,1.577 c 0.325,0.393 0.603,0.827 0.837,1.285 l 1.801,-1.8 z M 10.258,4.682 6.5,8.44 3.377,5.316 A 3.997,3.997 0 0 0 3,7 C 3,7.023 3.005,7.045 3.006,7.068 L 6.5,10.561 10.908,6.154 a 3.97,3.97 0 0 0 -0.65,-1.472 z"
       overflow="visible"
       solid-color="#000000"
       style="font-variant-ligatures:normal;font-variant-position:normal;font-variant-caps:normal;font-variant-numeric:normal;font-variant-alternates:normal;font-feature-settings:normal;text-indent:0;text-decoration-line:none;text-decoration-style:solid;text-decoration-color:#000000;text-transform:none;text-orientation:mixed;white-space:normal;shape-padding:0;isolation:auto;mix-blend-mode:normal"
       id="path1" />
    <path
       d="M 7,1 C 3.69,1 1,3.69 1,7 c 0,3.31 2.69,6 6,6 a 5.97,5.97 0 0 0 3.871,-1.422 l 3.275,3.276 0.708,-0.707 -3.276,-3.276 A 5.97,5.97 0 0 0 13,7.001 c 0,-3.31 -2.69,-6 -6,-6 z M 7,2 A 5,5 0 0 1 12,7 5,5 0 0 1 7,12 5,5 0 0 1 2,7 5,5 0 0 1 7,2 Z"
       overflow="visible"
       solid-color="#000000"
       style="font-variant-ligatures:none;font-variant-position:normal;font-variant-caps:normal;font-variant-numeric:normal;font-variant-alternates:normal;font-feature-settings:normal;text-indent:0;text-decoration-line:none;text-decoration-style:solid;text-decoration-color:#000000;text-transform:none;white-space:normal;shape-padding:0;isolation:auto;mix-blend-mode:normal"
       id="path2" />
  </g>
</svg>
