<?xml version="1.0" encoding="UTF-8" standalone="no"?>
<svg
   width="16"
   height="16"
   version="1.1"
   id="svg2"
   sodipodi:docname="deja-dup-symbolic.svg"
   inkscape:version="1.4 (unknown)"
   xmlns:inkscape="http://www.inkscape.org/namespaces/inkscape"
   xmlns:sodipodi="http://sodipodi.sourceforge.net/DTD/sodipodi-0.dtd"
   xmlns="http://www.w3.org/2000/svg"
   xmlns:svg="http://www.w3.org/2000/svg">
  <defs
     id="defs2" />
  <sodipodi:namedview
     id="namedview2"
     pagecolor="#ffffff"
     bordercolor="#000000"
     borderopacity="0.25"
     inkscape:showpageshadow="2"
     inkscape:pageopacity="0.0"
     inkscape:pagecheckerboard="0"
     inkscape:deskcolor="#d1d1d1"
     inkscape:zoom="20"
     inkscape:cx="7.525"
     inkscape:cy="11.125"
     inkscape:window-width="1920"
     inkscape:window-height="998"
     inkscape:window-x="0"
     inkscape:window-y="0"
     inkscape:window-maximized="1"
     inkscape:current-layer="svg2" />
  <g
     id="g2"
     transform="translate(1,1)">
    <path
       d="m 7,3.5714283 c 1.893515,0 3.428575,1.5350575 3.428575,3.4285717 -3.69e-4,1.2978858 -0.7335975,2.4843421 -1.894289,3.065142 L 7.7671425,8.533428 C 8.3477625,8.2428825 8.7144575,7.6492858 8.7142858,7 8.7142858,6.0532 7.9467742,5.2857142 7,5.2857142 6.0532258,5.2857142 5.2857142,6.0532258 5.2857142,7 c 6.71e-4,0.6488317 0.3675941,1.2416575 0.948,1.531714 L 5.4682858,10.061717 C 4.3077142,9.4821734 3.5735717,8.2972 3.5714283,7 3.5714283,5.1064858 5.1064858,3.5714283 7,3.5714283 Z"
       fill="#dedede"
       id="path1"
       style="stroke-width:0.857139" />
    <path
       d="M 2.7142858,1 C 1.7645717,1 1,1.7645717 1,2.7142858 V 11.285717 C 1,12.235425 1.7645717,13 2.7142858,13 H 11.285717 C 12.235425,13 13,12.235425 13,11.285717 V 2.7142858 C 13,1.7645717 12.235425,1 11.285717,1 Z m 0,0.8571425 h 8.5714312 c 0.474858,0 0.857141,0.3822858 0.857141,0.8571433 v 8.5714312 c 0,0.474858 -0.382283,0.857141 -0.857141,0.857141 H 2.7142858 c -0.4748575,0 -0.8571433,-0.382283 -0.8571433,-0.857141 V 2.7142858 c 0,-0.4748575 0.3822858,-0.8571433 0.8571433,-0.8571433 z"
       fill="#dedede"
       stroke-linecap="round"
       stroke-linejoin="round"
       stroke-width="0.858517"
       id="path2" />
  </g>
</svg>
