<?xml version="1.0" encoding="UTF-8" standalone="no"?>
<svg
   width="16"
   height="16"
   version="1.1"
   id="svg3"
   sodipodi:docname="disk-utility-app-symbolic.svg"
   inkscape:version="1.4 (unknown)"
   xmlns:inkscape="http://www.inkscape.org/namespaces/inkscape"
   xmlns:sodipodi="http://sodipodi.sourceforge.net/DTD/sodipodi-0.dtd"
   xmlns="http://www.w3.org/2000/svg"
   xmlns:svg="http://www.w3.org/2000/svg">
  <defs
     id="defs3" />
  <sodipodi:namedview
     id="namedview3"
     pagecolor="#ffffff"
     bordercolor="#000000"
     borderopacity="0.25"
     inkscape:showpageshadow="2"
     inkscape:pageopacity="0.0"
     inkscape:pagecheckerboard="0"
     inkscape:deskcolor="#d1d1d1"
     inkscape:zoom="20"
     inkscape:cx="8.475"
     inkscape:cy="14.375"
     inkscape:window-width="1920"
     inkscape:window-height="998"
     inkscape:window-x="0"
     inkscape:window-y="0"
     inkscape:window-maximized="1"
     inkscape:current-layer="svg3" />
  <g
     transform="matrix(0.74999905,0,0,0.74999905,2.0000076,2)"
     fill="#dedede"
     id="g3">
    <path
       d="M 8,5 A 3,3 0 0 0 5,8 3,3 0 0 0 8,11 3,3 0 0 0 11,8 3,3 0 0 0 8,5 Z M 8,6.5 A 1.5,1.5 0 0 1 9.5,8 1.5,1.5 0 0 1 8,9.5 1.5,1.5 0 0 1 6.5,8 1.5,1.5 0 0 1 8,6.5 Z"
       id="path1" />
    <path
       d="M 8,0 A 8,8 0 0 0 0,8 8,8 0 0 0 8,16 8,8 0 0 0 16,8 8,8 0 0 0 8,0 Z M 8,1 A 7,7 0 0 1 15,8 7,7 0 0 1 8,15 7,7 0 0 1 1,8 7,7 0 0 1 8,1 Z"
       id="path2" />
    <path
       d="m 12.503,11.001 c -0.011,0 -0.014,0.019 -0.021,0.028 l -9.85,2.999 c -0.986,0.5 -0.64,1.496 -0.158,1.814 0.596,0.368 1.263,-0.004 1.867,-0.139 L 12.7,11.94 c 0.333,-0.094 0.431,-0.712 0.077,-0.852 a 0.578,0.578 0 0 0 -0.274,-0.086 z"
       id="path3" />
  </g>
</svg>
