<?xml version="1.0" encoding="UTF-8" standalone="no"?>
<svg
   width="16"
   height="16"
   version="1.1"
   id="svg3"
   sodipodi:docname="disk-usage-app-symbolic.svg"
   inkscape:version="1.4 (unknown)"
   xmlns:inkscape="http://www.inkscape.org/namespaces/inkscape"
   xmlns:sodipodi="http://sodipodi.sourceforge.net/DTD/sodipodi-0.dtd"
   xmlns="http://www.w3.org/2000/svg"
   xmlns:svg="http://www.w3.org/2000/svg">
  <defs
     id="defs3" />
  <sodipodi:namedview
     id="namedview3"
     pagecolor="#ffffff"
     bordercolor="#000000"
     borderopacity="0.25"
     inkscape:showpageshadow="2"
     inkscape:pageopacity="0.0"
     inkscape:pagecheckerboard="0"
     inkscape:deskcolor="#d1d1d1"
     inkscape:zoom="14.142136"
     inkscape:cx="6.7175144"
     inkscape:cy="-4.9143921"
     inkscape:window-width="1920"
     inkscape:window-height="998"
     inkscape:window-x="0"
     inkscape:window-y="0"
     inkscape:window-maximized="1"
     inkscape:current-layer="svg3" />
  <g
     fill="#dedede"
     id="g3"
     transform="matrix(0.75,0,0,0.75,2,2)">
    <path
       d="M 8,0 A 8,8 0 0 0 0,8 8,8 0 0 0 8,16 8,8 0 0 0 16,8 8,8 0 0 0 8,0 Z M 8,1 A 7,7 0 0 1 15,8 7,7 0 0 1 8,15 7,7 0 0 1 1,8 7,7 0 0 1 8,1 Z"
       id="path1" />
    <path
       d="m 8,8 v 8 l 5.5,-2.5 z"
       opacity="0.5"
       id="path2" />
    <path
       d="m 8,8 5.5,5.5 2,-5.5 z"
       id="path3" />
  </g>
</svg>
