<?xml version="1.0" encoding="UTF-8" standalone="no"?>
<svg
   width="16"
   height="16"
   version="1.1"
   id="svg2"
   sodipodi:docname="documents-app-symbolic.svg"
   inkscape:version="1.4 (unknown)"
   xmlns:inkscape="http://www.inkscape.org/namespaces/inkscape"
   xmlns:sodipodi="http://sodipodi.sourceforge.net/DTD/sodipodi-0.dtd"
   xmlns="http://www.w3.org/2000/svg"
   xmlns:svg="http://www.w3.org/2000/svg">
  <defs
     id="defs2" />
  <sodipodi:namedview
     id="namedview2"
     pagecolor="#ffffff"
     bordercolor="#000000"
     borderopacity="0.25"
     inkscape:showpageshadow="2"
     inkscape:pageopacity="0.0"
     inkscape:pagecheckerboard="0"
     inkscape:deskcolor="#d1d1d1"
     inkscape:zoom="20"
     inkscape:cx="8.775"
     inkscape:cy="6.525"
     inkscape:window-width="1920"
     inkscape:window-height="998"
     inkscape:window-x="0"
     inkscape:window-y="0"
     inkscape:window-maximized="1"
     inkscape:current-layer="svg2" />
  <g
     fill="#dedede"
     id="g2"
     transform="matrix(0.75,0,0,0.75,2.375,2)">
    <path
       d="M 4.994,0 C 3.736,0.015 2.815,-0.03 2.062,0.385 A 1.88,1.88 0 0 0 1.225,1.383 C 1.06,1.82 1,2.343 1,3 v 10 c 0,0.658 0.06,1.179 0.225,1.617 0.164,0.439 0.461,0.789 0.837,0.996 0.753,0.415 1.674,0.372 2.932,0.387 h 5.012 c 1.258,-0.015 2.179,0.03 2.932,-0.385 a 1.88,1.88 0 0 0 0.837,-0.998 C 13.94,14.179 14,13.657 14,13 V 3 C 14,2.342 13.94,1.821 13.775,1.383 A 1.875,1.875 0 0 0 12.937,0.387 C 12.185,-0.028 11.264,0.015 10.006,0 H 4.998 Z M 5,1 h 5 c 1.259,0.015 2.09,0.06 2.455,0.262 0.184,0.1 0.287,0.213 0.385,0.472 C 12.937,1.994 13,2.408 13,3 v 10 c 0,0.592 -0.063,1.006 -0.16,1.266 -0.098,0.26 -0.202,0.371 -0.385,0.472 C 12.089,14.94 11.258,14.985 10,15 H 5 C 3.741,14.985 2.91,14.94 2.545,14.738 2.361,14.638 2.258,14.525 2.16,14.266 2.063,14.006 2,13.592 2,13 V 3 C 2,2.408 2.063,1.994 2.16,1.734 2.258,1.474 2.363,1.363 2.547,1.262 2.913,1.06 3.74,1.015 5,1 Z"
       color="#000000"
       font-family="sans-serif"
       font-weight="400"
       overflow="visible"
       solid-color="#000000"
       style="font-variant-ligatures:normal;font-variant-position:normal;font-variant-caps:normal;font-variant-numeric:normal;font-variant-alternates:normal;font-feature-settings:normal;text-indent:0;text-decoration-line:none;text-decoration-style:solid;text-decoration-color:#000000;text-transform:none;text-orientation:mixed;white-space:normal;shape-padding:0;isolation:auto;mix-blend-mode:normal"
       id="path1" />
    <path
       d="m 11,4 -8,8 c 0,0 1,1.5 2,2 0.943,0.471 2.204,-0.31 3,-1 C 8.563,12.512 9,11.745 9,11 9,10.255 7.757,9.232 8,9 8.227,8.783 9.255,10 10,10 10.745,10 11.512,9.563 12,9 12.69,8.204 13.471,6.943 13,6 12.5,5 11,4 11,4 Z m 0,2 c 0.471,0 1,0.529 1,1 0,0.5 -1.4,1.9 -1.9,1.9 -0.5,0 -1,-0.529 -1,-1 C 9.1,7.4 10.5,6 11,6 Z m -4.1,4.1 c 0.471,0 1,0.529 1,1 C 7.9,11.6 6.5,13 6,13 5.529,13 5,12.471 5,12 5,11.5 6.4,10.1 6.9,10.1 Z"
       id="path2" />
  </g>
</svg>
