<?xml version="1.0" encoding="UTF-8" standalone="no"?>
<svg
   width="16"
   height="16"
   version="1.1"
   id="svg4"
   sodipodi:docname="docviewer-app-symbolic.svg"
   inkscape:version="1.4 (unknown)"
   xmlns:inkscape="http://www.inkscape.org/namespaces/inkscape"
   xmlns:sodipodi="http://sodipodi.sourceforge.net/DTD/sodipodi-0.dtd"
   xmlns="http://www.w3.org/2000/svg"
   xmlns:svg="http://www.w3.org/2000/svg">
  <defs
     id="defs4" />
  <sodipodi:namedview
     id="namedview4"
     pagecolor="#ffffff"
     bordercolor="#000000"
     borderopacity="0.25"
     inkscape:showpageshadow="2"
     inkscape:pageopacity="0.0"
     inkscape:pagecheckerboard="0"
     inkscape:deskcolor="#d1d1d1"
     inkscape:zoom="20"
     inkscape:cx="-1.975"
     inkscape:cy="8.975"
     inkscape:window-width="1920"
     inkscape:window-height="998"
     inkscape:window-x="0"
     inkscape:window-y="0"
     inkscape:window-maximized="1"
     inkscape:current-layer="svg4" />
  <g
     transform="matrix(0.75795856,0,0,0.75032827,1.9920415,2)"
     fill="#dedede"
     id="g4">
    <path
       d="M 4.994,0 C 3.736,0.015 2.815,-0.03 2.063,0.385 A 1.88,1.88 0 0 0 1.225,1.383 C 1.06,1.82 1,2.343 1,3 v 10 c 0,0.658 0.06,1.178 0.225,1.617 0.164,0.439 0.461,0.789 0.838,0.996 0.68,0.376 1.534,0.371 2.615,0.38 A 6,6 0 0 1 3.486,14.941 C 3.056,14.903 2.734,14.842 2.545,14.738 2.362,14.637 2.258,14.525 2.16,14.266 2.063,14.006 2,13.592 2,13 V 3 C 2,2.408 2.063,1.994 2.16,1.734 2.258,1.474 2.362,1.363 2.545,1.262 2.91,1.06 3.74,1.015 5,1 h 5 c 1.259,0.015 2.09,0.06 2.455,0.262 0.184,0.1 0.287,0.213 0.385,0.472 C 12.937,1.994 13,2.408 13,3 v 1.535 a 6,6 0 0 1 1,1.154 V 3 C 14,2.342 13.94,1.821 13.775,1.383 A 1.875,1.875 0 0 0 12.938,0.387 C 12.185,-0.028 11.264,0.015 10.006,0 H 4.998 Z m 8.777,13.627 a 6,6 0 0 1 -0.449,0.523 l 0.082,0.084 c 0.153,-0.173 0.28,-0.377 0.367,-0.607 z"
       color="#000000"
       font-family="sans-serif"
       font-weight="400"
       overflow="visible"
       solid-color="#000000"
       style="font-variant-ligatures:normal;font-variant-position:normal;font-variant-caps:normal;font-variant-numeric:normal;font-variant-alternates:normal;font-feature-settings:normal;text-indent:0;text-decoration-line:none;text-decoration-style:solid;text-decoration-color:#000000;text-transform:none;text-orientation:mixed;white-space:normal;shape-padding:0;isolation:auto;mix-blend-mode:normal"
       id="path1" />
    <path
       d="M 6.857,8 C 6.593,8.293 6.39,8.63 6.266,9 h 5.617 a 2.978,2.978 0 0 0 -0.59,-1 z m -0.736,2 c -0.009,0.346 0.04,0.684 0.16,1 h 5.567 c 0.123,-0.317 0.194,-0.653 0.19,-1 z m 0.793,2 c 0.532,0.56 1.271,0.929 2.055,0.94 0.848,0.048 1.66,-0.336 2.238,-0.94 z"
       id="path2" />
    <path
       d="m 9,5 c -2.755,0 -5,2.245 -5,5 0,2.755 2.245,5 5,5 2.755,0 5,-2.245 5,-5 C 14,7.245 11.755,5 9,5 Z M 9,6.04 A 3.954,3.954 0 0 1 12.96,10 3.954,3.954 0 0 1 9,13.96 3.952,3.952 0 0 1 5.041,10 3.952,3.952 0 0 1 9,6.04 Z"
       color="#000000"
       font-family="sans-serif"
       font-weight="400"
       overflow="visible"
       solid-color="#000000"
       style="font-variant-ligatures:normal;font-variant-position:normal;font-variant-caps:normal;font-variant-numeric:normal;font-variant-alternates:normal;font-feature-settings:normal;text-indent:0;text-decoration-line:none;text-decoration-style:solid;text-decoration-color:#000000;text-transform:none;text-orientation:mixed;white-space:normal;shape-padding:0;isolation:auto;mix-blend-mode:normal"
       id="path3" />
    <path
       d="m 12.353,12.646 -0.707,0.708 2.5,2.5 0.707,-0.708 z"
       color="#000000"
       fill-rule="evenodd"
       font-family="sans-serif"
       font-weight="400"
       overflow="visible"
       solid-color="#000000"
       style="font-variant-ligatures:normal;font-variant-position:normal;font-variant-caps:normal;font-variant-numeric:normal;font-variant-alternates:normal;font-feature-settings:normal;text-indent:0;text-decoration-line:none;text-decoration-style:solid;text-decoration-color:#000000;text-transform:none;text-orientation:mixed;white-space:normal;shape-padding:0;isolation:auto;mix-blend-mode:normal"
       id="path4" />
  </g>
</svg>
