<?xml version="1.0" encoding="UTF-8" standalone="no"?>
<svg
   width="16"
   height="16"
   version="1.1"
   id="svg4"
   sodipodi:docname="ebook-reader-app-symbolic.svg"
   inkscape:version="1.4 (unknown)"
   xmlns:inkscape="http://www.inkscape.org/namespaces/inkscape"
   xmlns:sodipodi="http://sodipodi.sourceforge.net/DTD/sodipodi-0.dtd"
   xmlns="http://www.w3.org/2000/svg"
   xmlns:svg="http://www.w3.org/2000/svg">
  <defs
     id="defs4" />
  <sodipodi:namedview
     id="namedview4"
     pagecolor="#ffffff"
     bordercolor="#000000"
     borderopacity="0.25"
     inkscape:showpageshadow="2"
     inkscape:pageopacity="0.0"
     inkscape:pagecheckerboard="0"
     inkscape:deskcolor="#d1d1d1"
     inkscape:zoom="28.284271"
     inkscape:cx="4.7552931"
     inkscape:cy="8.7858018"
     inkscape:window-width="1920"
     inkscape:window-height="998"
     inkscape:window-x="0"
     inkscape:window-y="0"
     inkscape:window-maximized="1"
     inkscape:current-layer="svg4" />
  <g
     fill="#dedede"
     id="g4"
     transform="matrix(0.75,0,0,0.75,2.375,2)">
    <path
       d="M 4.994,0 C 3.736,0.015 2.815,-0.03 2.063,0.385 1.873,0.489 1.705,0.631 1.563,0.801 H 1.5 V 0.889 C 1.39,1.037 1.293,1.2 1.225,1.383 1.06,1.82 1,2.343 1,3 v 10 c 0,0.658 0.06,1.179 0.225,1.617 0.164,0.439 0.461,0.789 0.838,0.996 0.752,0.415 1.673,0.372 2.931,0.387 h 5.012 c 1.258,-0.015 2.179,0.03 2.932,-0.385 a 1.88,1.88 0 0 0 0.838,-0.998 C 13.94,14.179 14,13.657 14,13 V 3 C 14,2.342 13.94,1.821 13.775,1.383 A 1.992,1.992 0 0 0 13.5,0.89 V 0.8 h -0.063 a 1.774,1.774 0 0 0 -0.5,-0.414 C 12.185,-0.028 11.264,0.015 10.006,0 H 4.998 Z M 2,3 h 11 v 10 c 0,0.592 -0.063,1.006 -0.16,1.266 -0.098,0.26 -0.202,0.371 -0.385,0.472 C 12.089,14.94 11.259,14.985 10,15 H 5 C 3.741,14.985 2.91,14.94 2.545,14.738 2.361,14.638 2.258,14.525 2.16,14.266 2.063,14.006 2,13.592 2,13 Z"
       color="#000000"
       font-family="sans-serif"
       font-weight="400"
       overflow="visible"
       solid-color="#000000"
       style="font-variant-ligatures:normal;font-variant-position:normal;font-variant-caps:normal;font-variant-numeric:normal;font-variant-alternates:normal;font-feature-settings:normal;text-indent:0;text-decoration-line:none;text-decoration-style:solid;text-decoration-color:#000000;text-transform:none;text-orientation:mixed;white-space:normal;shape-padding:0;isolation:auto;mix-blend-mode:normal"
       id="path1" />
    <path
       d="M 5,5 H 6 L 4,10 H 3 Z"
       id="path2" />
    <path
       d="M 6,5 H 5 l 2,5 h 1 z"
       id="path3" />
    <path
       d="m 4.5,8.5 h 2 V 8 h -2 z M 3,9.5 H 4.5 V 10 H 3 Z m 3.5,0 H 8 V 10 H 6.5 Z"
       id="path4" />
  </g>
</svg>
