<?xml version="1.0" encoding="UTF-8" standalone="no"?>
<svg
   width="16"
   height="16"
   version="1.1"
   id="svg2"
   sodipodi:docname="error-app-symbolic.svg"
   inkscape:version="1.4 (unknown)"
   xmlns:inkscape="http://www.inkscape.org/namespaces/inkscape"
   xmlns:sodipodi="http://sodipodi.sourceforge.net/DTD/sodipodi-0.dtd"
   xmlns="http://www.w3.org/2000/svg"
   xmlns:svg="http://www.w3.org/2000/svg">
  <defs
     id="defs2" />
  <sodipodi:namedview
     id="namedview2"
     pagecolor="#ffffff"
     bordercolor="#000000"
     borderopacity="0.25"
     inkscape:showpageshadow="2"
     inkscape:pageopacity="0.0"
     inkscape:pagecheckerboard="0"
     inkscape:deskcolor="#d1d1d1"
     inkscape:zoom="28.284271"
     inkscape:cx="9.1393552"
     inkscape:cy="12.639534"
     inkscape:window-width="1920"
     inkscape:window-height="998"
     inkscape:window-x="0"
     inkscape:window-y="0"
     inkscape:window-maximized="1"
     inkscape:current-layer="svg2" />
  <g
     fill="#dedede"
     id="g2"
     transform="matrix(0.75,0,0,0.75,2,2)">
    <path
       d="M 8,0 A 8,8 0 0 0 0,8 8,8 0 0 0 8,16 8,8 0 0 0 16,8 8,8 0 0 0 8,0 Z M 8,1 A 7,7 0 0 1 15,8 7,7 0 0 1 8,15 7,7 0 0 1 1,8 7,7 0 0 1 8,1 Z"
       id="path1" />
    <path
       d="m 8.708,5.663 q 0,1.19 -0.085,2.167 Q 8.538,8.793 8.411,9.756 H 7.589 Q 7.462,8.793 7.377,7.83 7.292,6.853 7.292,5.663 V 3 h 1.416 z m 0.241,6.388 q 0,0.382 -0.255,0.666 Q 8.44,13 8,13 7.56,13 7.306,12.717 7.051,12.433 7.051,12.051 q 0,-0.382 0.255,-0.666 0.255,-0.283 0.694,-0.283 0.44,0 0.694,0.283 0.255,0.284 0.255,0.666 z"
       font-family="Ubuntu"
       font-weight="400"
       letter-spacing="0"
       word-spacing="0"
       id="path2" />
  </g>
</svg>
