<?xml version="1.0" encoding="UTF-8" standalone="no"?>
<svg
   width="16"
   height="16"
   version="1.1"
   id="svg3"
   sodipodi:docname="evince-symbolic.svg"
   inkscape:version="1.4 (unknown)"
   xmlns:inkscape="http://www.inkscape.org/namespaces/inkscape"
   xmlns:sodipodi="http://sodipodi.sourceforge.net/DTD/sodipodi-0.dtd"
   xmlns="http://www.w3.org/2000/svg"
   xmlns:svg="http://www.w3.org/2000/svg">
  <defs
     id="defs3" />
  <sodipodi:namedview
     id="namedview3"
     pagecolor="#ffffff"
     bordercolor="#000000"
     borderopacity="0.25"
     inkscape:showpageshadow="2"
     inkscape:pageopacity="0.0"
     inkscape:pagecheckerboard="0"
     inkscape:deskcolor="#d1d1d1"
     inkscape:zoom="14.142136"
     inkscape:cx="10.146982"
     inkscape:cy="15.09673"
     inkscape:window-width="1920"
     inkscape:window-height="998"
     inkscape:window-x="0"
     inkscape:window-y="0"
     inkscape:window-maximized="1"
     inkscape:current-layer="svg3" />
  <g
     fill="#dedede"
     id="g3"
     transform="matrix(0.78572212,0,0,0.79459674,0.92855576,1.2054033)">
    <path
       d="M 4,1 C 2.892,1 2,1.892 2,3 v 11.102 c 0,1.108 0.892,2 2,2 h 1.5996 c -0.57575,-0.29041 -1.0979,-0.62441 -1.5449,-1 H 4.000012 c -0.554,0 -1,-0.446 -1,-1 v -0.08398 c -0.26939,-0.32772 -0.51476,-0.65816 -0.71094,-0.98243 -0.3839,-0.63474 -0.3839,-1.4356 0,-2.0703 0.19618,-0.32426 0.44155,-0.65471 0.71094,-0.98242 v -6.9824 c 0,-0.554 0.446,-1 1,-1 h 8 c 0.554,0 1,0.446 1,1 v 4.707 c 0.35583,0.15495 0.68972,0.32774 1,0.51953 V 3.0004 c 0,-1.108 -0.892,-2 -2,-2 z"
       stroke-linecap="round"
       stroke-linejoin="round"
       stroke-width="0.97302"
       id="path1" />
    <path
       d="M 9.5,8 C 6.039,8 4.1433,9.8315 3.1445,11.4824 a 1.0001,1.0001 0 0 0 0,1.0352 C 4.14331,14.1685 6.0389,16 9.5,16 c 3.461,0 5.3567,-1.8315 6.3555,-3.4824 a 1.0001,1.0001 0 0 0 0,-1.0352 C 14.85669,9.8315 12.9611,8 9.5,8 Z m 0,1 c 3.1429,0 4.5925,1.5 5.5,3 -0.9075,1.5 -2.3571,3 -5.5,3 C 6.3571,15 4.9075,13.5 4,12 4.9075,10.5 6.3571,9 9.5,9 Z"
       color="#000000"
       color-rendering="auto"
       dominant-baseline="auto"
       image-rendering="auto"
       shape-rendering="auto"
       solid-color="#000000"
       stop-color="#000000"
       style="font-variant-ligatures:normal;font-variant-position:normal;font-variant-caps:normal;font-variant-numeric:normal;font-variant-alternates:normal;font-variant-east-asian:normal;font-feature-settings:normal;font-variation-settings:normal;text-indent:0;text-decoration-line:none;text-decoration-style:solid;text-decoration-color:#000000;text-transform:none;text-orientation:mixed;white-space:normal;shape-padding:0;shape-margin:0;inline-size:0;isolation:auto;mix-blend-mode:normal"
       id="path2" />
    <path
       d="M 9.4512,10 A 2,2 0 0 0 7.5,12 a 2,2 0 0 0 2,2 2,2 0 0 0 2,-2 2,2 0 0 0 -2,-2 2,2 0 0 0 -0.048828,0 z m 0.048828,1 a 1,1 0 0 1 1,1 1,1 0 0 1 -1,1 1,1 0 0 1 -1,-1 1,1 0 0 1 1,-1 z"
       id="path3" />
  </g>
</svg>
