<?xml version="1.0" encoding="UTF-8" standalone="no"?>
<svg
   height="16"
   width="16"
   version="1.1"
   id="svg1"
   sodipodi:docname="extensions-symbolic.svg"
   inkscape:version="1.4 (unknown)"
   xmlns:inkscape="http://www.inkscape.org/namespaces/inkscape"
   xmlns:sodipodi="http://sodipodi.sourceforge.net/DTD/sodipodi-0.dtd"
   xmlns="http://www.w3.org/2000/svg"
   xmlns:svg="http://www.w3.org/2000/svg">
  <defs
     id="defs1" />
  <sodipodi:namedview
     id="namedview1"
     pagecolor="#ffffff"
     bordercolor="#000000"
     borderopacity="0.25"
     inkscape:showpageshadow="2"
     inkscape:pageopacity="0.0"
     inkscape:pagecheckerboard="0"
     inkscape:deskcolor="#d1d1d1"
     inkscape:zoom="20"
     inkscape:cx="3.425"
     inkscape:cy="14.175"
     inkscape:window-width="1920"
     inkscape:window-height="998"
     inkscape:window-x="0"
     inkscape:window-y="0"
     inkscape:window-maximized="1"
     inkscape:current-layer="svg1" />
  <path
     d="M 6.8,2 C 5.3896002,2 5.2000002,2.8 5.2000002,3.2 c 0,0.3999998 0,0.8000002 0.1999996,1.2 H 2 v 4.4000002 c 0,0 0.8000002,-0.4000004 1.5999998,-0.4000004 C 4.0000002,8.3999998 4.4,8.8000002 4.4,9.2 4.4,9.5999998 4.0000002,10 3.5999998,10 2.8000002,10 2,9.5999998 2,9.5999998 V 14 h 4.4000002 c 0,0 -0.4000004,-0.8 -0.4000004,-1.600001 C 5.9999998,12.000001 6.4000002,11.6 6.8,11.6 c 0.3999998,0 0.8000002,0.400001 0.8000002,0.799999 C 7.6000002,13.2 7.1999998,14 7.1999998,14 H 11.6 v -3.400003 c 0.4,0.200006 0.8,0.200006 1.2,0.200006 0.4368,0 1.2,-0.186403 1.2,-1.600003 0,-1.4103998 -0.800002,-1.5999998 -1.2,-1.5999998 -0.4,0 -0.8,0 -1.2,0.1999996 V 4.4 H 8.2000002 C 8.3999998,4.0000002 8.3999998,3.5999998 8.3999998,3.2 8.3999998,2.7632 8.2136,2 6.8,2 Z m 0,0.8 c 0.3999998,0 0.8000002,0.4 0.8000002,0.7999998 0,0.8000002 -0.4000004,1.6000004 -0.4000004,1.6000004 h 0.4000004 v 0.024803 l 3.2000028,-0.00159 v 3.5768001 c 0,0 0.799997,-0.4000001 1.599997,-0.4000001 0.4,0 0.799998,0.4000001 0.799998,0.8 0,0.4 -0.399998,0.7999998 -0.799998,0.7999998 C 11.6,10 10.800003,9.5999998 10.800003,9.5999998 V 13.172 H 8.2112 c 0.1856002,-0.390401 0.1887998,-0.781601 0.1887998,-1.171999 0,-0.4368 -0.1863998,-1.199998 -1.5999998,-1.199998 -1.4103998,0 -1.5999998,0.799997 -1.5999998,1.199998 0,0.390398 0.0032,0.781598 0.1887998,1.171999 H 2.8184 v -2.563997 c 0.3944002,0.190397 0.7880002,0.192 1.1816002,0.192 0.4368,0 1.2,-0.186403 1.2,-1.600003 0,-1.4103998 -0.8000002,-1.5999998 -1.2,-1.5999998 -0.3936,0 -0.7872,0.00159 -1.1816002,0.192 v -2.5656 l 3.1815998,-0.00158 v -0.024803 h 0.4000004 c 0,0 -0.4000004,-0.8000002 -0.4000004,-1.5999999 C 5.9999998,3.2 6.4000002,2.8 6.8,2.8 Z"
     fill="#dedede"
     id="path1"
     style="stroke-width:0.800003" />
</svg>
