<?xml version="1.0" encoding="UTF-8" standalone="no"?>
<svg
   width="16"
   height="16"
   version="1"
   id="svg2"
   sodipodi:docname="file-roller-symbolic.svg"
   inkscape:version="1.4 (unknown)"
   xmlns:inkscape="http://www.inkscape.org/namespaces/inkscape"
   xmlns:sodipodi="http://sodipodi.sourceforge.net/DTD/sodipodi-0.dtd"
   xmlns="http://www.w3.org/2000/svg"
   xmlns:svg="http://www.w3.org/2000/svg">
  <defs
     id="defs2" />
  <sodipodi:namedview
     id="namedview2"
     pagecolor="#ffffff"
     bordercolor="#000000"
     borderopacity="0.25"
     inkscape:showpageshadow="2"
     inkscape:pageopacity="0.0"
     inkscape:pagecheckerboard="0"
     inkscape:deskcolor="#d1d1d1"
     inkscape:zoom="20"
     inkscape:cx="4.675"
     inkscape:cy="15.325"
     inkscape:window-width="1920"
     inkscape:window-height="998"
     inkscape:window-x="0"
     inkscape:window-y="0"
     inkscape:window-maximized="1"
     inkscape:current-layer="svg2" />
  <g
     id="g2"
     transform="translate(1.75,2)">
    <path
       d="M 6.25,0 V 0.75 H 7 V 1.5 H 6.25 V 2.25 H 7 V 3 H 6.25 v 0.75 c 0.8287507,0 1.5,0.675 1.5,1.5 v 3 c 0,0.825 -0.6712493,1.5 -1.5,1.5 -0.8287507,0 -1.5,-0.675 -1.5,-1.5 v -3 c 0,-0.825 0.6712493,-1.5 1.5,-1.5 C 5.836,3.75 5.5,3.375 5.5,3 H 6.25 V 2.25 H 5.5 V 1.5 H 6.25 V 0.75 H 5.5 V 0 Z m 0,4.5 C 5.836,4.5 5.5,4.8 5.5,5.25 5.5,5.625 5.836,6 6.25,6 6.664,6 7,5.625 7,5.25 7,4.8 6.664,4.5 6.25,4.5 Z m 0,2.25 C 5.836,6.75 5.5,7.05 5.5,7.5 V 8.25 C 5.5,8.625 5.836,9 6.25,9 6.664,9 7,8.625 7,8.25 V 7.5 C 7,7.05 6.664,6.75 6.25,6.75 Z"
       fill="#dedede"
       id="path1"
       style="stroke-width:0.75" />
    <path
       d="M 2.5,0 C 1.669,0 1,0.669 1,1.5 v 9 C 1,11.331 1.669,12 2.5,12 H 10 c 0.831,0 1.5,-0.669 1.5,-1.5 v -9 C 11.5,0.669 10.831,0 10,0 Z m 0,0.75 H 10 c 0.4155,0 0.75,0.3345 0.75,0.75 v 9 c 0,0.4155 -0.3345,0.75 -0.75,0.75 H 2.5 c -0.4155,0 -0.75,-0.3345 -0.75,-0.75 v -9 C 1.75,1.0845 2.0845,0.75 2.5,0.75 Z"
       fill="#dedede"
       stroke-linecap="round"
       stroke-linejoin="round"
       stroke-width="1.5"
       id="path2" />
  </g>
</svg>
