<?xml version="1.0" encoding="UTF-8" standalone="no"?>
<svg
   width="16"
   height="16"
   version="1.1"
   viewBox="0 0 16 16"
   id="svg1"
   sodipodi:docname="filemanager-app-symbolic.svg"
   inkscape:version="1.4 (unknown)"
   xmlns:inkscape="http://www.inkscape.org/namespaces/inkscape"
   xmlns:sodipodi="http://sodipodi.sourceforge.net/DTD/sodipodi-0.dtd"
   xmlns="http://www.w3.org/2000/svg"
   xmlns:svg="http://www.w3.org/2000/svg">
  <sodipodi:namedview
     id="namedview1"
     pagecolor="#ffffff"
     bordercolor="#000000"
     borderopacity="0.25"
     inkscape:showpageshadow="2"
     inkscape:pageopacity="0.0"
     inkscape:pagecheckerboard="0"
     inkscape:deskcolor="#d1d1d1"
     inkscape:zoom="14.142136"
     inkscape:cx="13.04612"
     inkscape:cy="8.0963727"
     inkscape:window-width="1920"
     inkscape:window-height="998"
     inkscape:window-x="0"
     inkscape:window-y="0"
     inkscape:window-maximized="1"
     inkscape:current-layer="svg1" />
  <defs
     id="defs1">
    <style
       id="current-color-scheme"
       type="text/css">.ColorScheme-Text { color:#dedede; } .ColorScheme-Text { color:#dedede; }</style>
  </defs>
  <path
     d="M 2.4500003,2 C 1.4251,2 0.6,2.823385 0.6,3.846154 V 12.15385 C 0.6,13.17662 1.4251,14 2.4500003,14 H 13.550004 C 14.574905,14 15.4,13.17662 15.4,12.15385 V 4.769231 C 15.4,3.746462 14.574905,2.923077 13.550004,2.923077 H 11.699997 6.4932674 C 5.9569063,2.901938 5.9338835,2.994049 5.5321001,2.593151 5.1308259,2.192711 4.9651033,2.000415 4.3000005,2 Z m 0,0.923077 h 1.8500002 c 0.2878224,-1.7e-6 0.4813047,1.273e-4 0.9231964,0.434492 0.4428617,0.435333 0.5908895,0.488585 0.9250001,0.488585 h 5.551851 1.849996 c 0.512456,0 0.925003,0.411692 0.925003,0.923077 V 5.692308 H 1.5250463 V 3.846154 c 0,-0.511385 0.4125496,-0.923077 0.9250001,-0.923077 z M 1.525,6.615385 h 12.949997 v 5.538465 c 0,0.51138 -0.412548,0.92307 -0.924993,0.92307 H 2.4500003 C 1.9375498,13.07692 1.525,12.66523 1.525,12.15385 Z"
     style="fill:currentColor;stroke-width:0.924042"
     class="ColorScheme-Text"
     id="path1" />
</svg>
