<?xml version="1.0" encoding="UTF-8" standalone="no"?>
<svg
   width="16"
   height="16"
   version="1.1"
   id="svg1"
   sodipodi:docname="firefox-symbolic.svg"
   inkscape:version="1.4 (unknown)"
   xmlns:inkscape="http://www.inkscape.org/namespaces/inkscape"
   xmlns:sodipodi="http://sodipodi.sourceforge.net/DTD/sodipodi-0.dtd"
   xmlns="http://www.w3.org/2000/svg"
   xmlns:svg="http://www.w3.org/2000/svg">
  <defs
     id="defs1" />
  <sodipodi:namedview
     id="namedview1"
     pagecolor="#ffffff"
     bordercolor="#000000"
     borderopacity="0.25"
     inkscape:showpageshadow="2"
     inkscape:pageopacity="0.0"
     inkscape:pagecheckerboard="0"
     inkscape:deskcolor="#d1d1d1"
     inkscape:zoom="34.250485"
     inkscape:cx="12.102019"
     inkscape:cy="9.7370885"
     inkscape:window-width="1920"
     inkscape:window-height="998"
     inkscape:window-x="0"
     inkscape:window-y="0"
     inkscape:window-maximized="1"
     inkscape:current-layer="svg1" />
  <path
     d="m 9.6433069,1.9999998 c -0.00543,0 -0.01071,0.00135 -0.016109,0.00147 H 9.4294431 L 9.2536615,2.1040239 C 8.0267673,2.8236771 7.218287,4.0900923 7.0799158,5.5060544 L 7.0579433,5.7258225 C 7.0277167,5.6974749 6.9892178,5.6598248 6.9612637,5.6349872 6.9225486,5.4143416 6.8936737,5.1889471 6.952474,4.971288 L 7.3743385,3.4124238 5.9109748,4.0951697 C 5.7707063,4.1606929 5.6758102,4.2917057 5.5433112,4.370614 L 5.6517057,3.2907881 4.5033344,3.7508334 C 4.3973777,3.7932451 4.2959877,3.8456656 4.2001169,3.9075976 l -0.00884,0.00582 -0.010256,0.00736 C 3.9612772,4.0724332 3.7556017,4.242737 3.5658575,4.4306472 3.3587423,4.6343697 3.1683517,4.8549558 2.9975134,5.0899518 2.5998657,5.632122 2.3168151,6.2489166 2.1640588,6.9037878 l -0.00586,0.024903 v 0.00152 c -7.253e-4,0.00334 -0.00222,0.01186 -0.00438,0.02198 -3.099e-4,0.00149 -0.00114,0.00146 -0.00147,0.00301 v 0.00152 l -0.00732,0.030774 v 0.00301 c -0.00488,0.022981 -0.00959,0.04516 -0.016113,0.077635 -0.01895,0.094353 -0.042188,0.2230832 -0.062988,0.3706206 v 0.00152 L 2.051269,7.5425731 c -0.016994,0.1046743 -0.027427,0.2131223 -0.038085,0.3545602 l -0.00293,0.029308 v 0.02051 c -0.0029,0.043312 -0.00561,0.091499 -0.00879,0.1538358 l -0.00146,0.019045 v 0.057141 c 0.054547,3.2585979 2.7530322,5.8710359 6.0101274,5.8223579 2.8746029,0.02954 5.3700239,-2.00686 5.9134539,-4.8319505 l 0.0061,-0.026366 0.02636,-0.2197684 v -0.00301 C 14.078873,7.9238468 13.943285,6.91326 13.561784,5.9866127 13.342139,5.4543515 12.925781,5.0496892 12.49102,4.6782966 L 12.4617,4.6416626 C 12.3672,4.5630246 12.33444,4.4293931 12.231747,4.3603659 L 11.969556,4.5977172 C 11.46807,4.0055056 10.957684,3.4833857 10.545792,2.8556698 L 10.438858,2.6871812 c -0.01194,-0.020129 -0.02082,-0.037724 -0.03369,-0.063 l -0.0089,-0.014652 c -0.0054,-0.00937 -0.0076,-0.018982 -0.01025,-0.029301 l 0.003,0.016116 C 10.33605,2.3643784 10.176362,2.164699 9.9554921,2.0659731 l -0.014662,-0.00586 -0.016137,-0.00733 C 9.8347443,2.0174639 9.7387383,2.0000426 9.6434678,2.0000426 Z M 9.6330559,2.751639 h 0.00441 c 0.00384,-0.00138 0.00786,-0.00138 0.011712,0 0.005,0.00201 0.00817,0.00651 0.00885,0.01172 0.018044,0.069899 0.0446,0.1373133 0.079106,0.2007232 0.016386,0.032155 0.034155,0.066775 0.057115,0.1054835 L 9.918769,3.2673558 c 0.826029,1.2587336 1.836698,1.8361897 2.427168,3.2701555 V 6.5272551 C 12.2514,5.9876195 12.071929,5.466409 11.81415,4.9830187 c 0.470437,0.3165435 0.836831,0.7650668 1.053208,1.2893387 0.333241,0.8082749 0.451827,1.6890129 0.344226,2.5566235 L 13.18671,9.0253078 C 12.710241,11.503613 10.527005,13.284294 8.0041404,13.252196 5.149335,13.297754 2.7975434,11.020905 2.7498447,8.1653488 v -0.026367 c 0.00329,-0.064312 0.00698,-0.1200743 0.010253,-0.1699511 v -0.014655 c 0.00984,-0.1305914 0.019761,-0.2147719 0.032226,-0.291557 l 0.016113,-0.118672 C 2.844521,7.288206 2.8948574,7.0797495 2.8948574,7.0738457 3.0244388,6.5180835 3.2651009,5.9943217 3.6023599,5.5340363 3.7498435,5.3307784 3.9139851,5.1401389 4.0930734,4.9641025 4.2515595,4.807106 4.4236123,4.66443 4.607223,4.5377537 c 0.055524,-0.035883 0.1143943,-0.066302 0.1757799,-0.090833 -0.043726,0.4332053 0.018093,0.8705356 0.1801679,1.2746354 0.3525075,-0.3989764 0.783281,-0.7211384 1.2655947,-0.94645 -0.1102477,0.4080006 -0.10517,0.8385798 0.014649,1.24388 0.05183,0.034133 0.092923,0.064188 0.136226,0.099626 0.080692,0.065622 0.1715437,0.1537266 0.3618065,0.3355155 0.4020275,0.2810241 0.8279804,0.5261538 1.2729448,0.7325544 -0.1392947,0.2552875 -0.3629991,0.4541871 -0.6327974,0.5626055 -1.4945633,0 -1.7358321,0.8761613 -1.7358321,0.8761613 0.1016742,0.7289847 0.56847,1.3555739 1.2377694,1.6614081 0.028859,0.01445 0.05918,0.02791 0.089349,0.04104 0.051172,0.0223 0.1026348,0.04169 0.1538059,0.06007 0.2203816,0.07707 0.450837,0.12149 0.684066,0.131862 C 10.139974,10.822207 11.132346,7.6539175 9.0470251,6.5728176 9.4913962,6.5162646 9.9412258,6.6218596 10.314117,6.8702282 9.8303295,6.0599961 8.9549264,5.5653543 8.0114504,5.5691796 c -0.062326,0 -0.1243629,0.00486 -0.1860331,0.00884 C 7.9408317,4.4007882 8.6128227,3.3499932 9.6330217,2.7517578 Z M 8.7893256,7.3330372 C 9.4006957,7.7180306 9.5401326,8.286464 9.3664588,8.8406658 9.1807031,9.4333808 8.7246403,9.8808842 7.9060193,9.775415 l -0.030765,-0.00452 -0.032222,-0.0016 C 7.6854556,9.762575 7.5293011,9.732761 7.3801526,9.681505 7.3431294,9.668211 7.3058782,9.653899 7.2717583,9.639012 7.2451279,9.627434 7.2274706,9.619791 7.2190244,9.615577 l -0.023437,-0.0117 C 6.8403431,9.4418954 6.6626587,9.086742 6.5393535,8.7249354 6.6585035,8.6307175 6.8383183,8.4993083 7.3815833,8.4993083 H 7.5265988 L 7.661364,8.4450975 C 8.0922428,8.2718162 8.4495942,7.9547028 8.6721139,7.5469569 Z"
     color="#000000"
     fill="#dedede"
     stroke-linecap="round"
     style="stroke-width:0.750064;-inkscape-stroke:none"
     id="path1" />
</svg>
