<?xml version="1.0" encoding="UTF-8" standalone="no"?>
<svg
   width="16"
   height="16"
   version="1.1"
   id="svg2"
   sodipodi:docname="fusion-icon-symbolic.svg"
   inkscape:version="1.4 (unknown)"
   xmlns:inkscape="http://www.inkscape.org/namespaces/inkscape"
   xmlns:sodipodi="http://sodipodi.sourceforge.net/DTD/sodipodi-0.dtd"
   xmlns="http://www.w3.org/2000/svg"
   xmlns:svg="http://www.w3.org/2000/svg">
  <defs
     id="defs2" />
  <sodipodi:namedview
     id="namedview2"
     pagecolor="#ffffff"
     bordercolor="#000000"
     borderopacity="0.25"
     inkscape:showpageshadow="2"
     inkscape:pageopacity="0.0"
     inkscape:pagecheckerboard="0"
     inkscape:deskcolor="#d1d1d1"
     inkscape:zoom="14.142136"
     inkscape:cx="2.4395184"
     inkscape:cy="5.9043416"
     inkscape:window-width="1920"
     inkscape:window-height="998"
     inkscape:window-x="0"
     inkscape:window-y="0"
     inkscape:window-maximized="1"
     inkscape:current-layer="svg2" />
  <g
     id="g2"
     transform="translate(1,1)">
    <path
       d="M 9.5714235,12.14286 7,7.935058 H 9.5714235 L 4.428572,4.428572 V 10.74022 L 6.035714,8.285714 7.642858,12.14286 Z"
       color="#000000"
       color-rendering="auto"
       dominant-baseline="auto"
       fill="#dedede"
       image-rendering="auto"
       shape-rendering="auto"
       solid-color="#000000"
       stop-color="#000000"
       style="font-variant-ligatures:normal;font-variant-position:normal;font-variant-caps:normal;font-variant-numeric:normal;font-variant-alternates:normal;font-variant-east-asian:normal;font-feature-settings:normal;font-variation-settings:normal;text-indent:0;text-decoration-line:none;text-decoration-style:solid;text-decoration-color:#000000;text-transform:none;text-orientation:mixed;white-space:normal;shape-padding:0;shape-margin:0;inline-size:0;isolation:auto;mix-blend-mode:normal;stroke-width:0.85714"
       id="path1" />
    <path
       d="M 2.714286,1 C 1.764572,1 1,1.764572 1,2.714286 V 11.28572 C 1,12.23542 1.764572,13 2.714286,13 H 11.28572 C 12.23542,13 13,12.23542 13,11.28572 V 2.714286 C 13,1.764572 12.23542,1 11.28572,1 Z m 0,0.857142 h 8.571434 c 0.47486,0 0.85714,0.382286 0.85714,0.857144 v 8.571434 c 0,0.47486 -0.38228,0.85714 -0.85714,0.85714 H 2.714286 c -0.474858,0 -0.857144,-0.38228 -0.857144,-0.85714 V 2.714286 c 0,-0.474858 0.382286,-0.857144 0.857144,-0.857144 z"
       fill="#dedede"
       stroke-linecap="round"
       stroke-linejoin="round"
       stroke-width="1.7142"
       id="path2" />
  </g>
</svg>
