<?xml version="1.0" encoding="UTF-8" standalone="no"?>
<svg
   width="16"
   height="16"
   version="1.1"
   id="svg5"
   sodipodi:docname="games-app-symbolic.svg"
   inkscape:version="1.4 (unknown)"
   xmlns:inkscape="http://www.inkscape.org/namespaces/inkscape"
   xmlns:sodipodi="http://sodipodi.sourceforge.net/DTD/sodipodi-0.dtd"
   xmlns="http://www.w3.org/2000/svg"
   xmlns:svg="http://www.w3.org/2000/svg">
  <defs
     id="defs5" />
  <sodipodi:namedview
     id="namedview5"
     pagecolor="#ffffff"
     bordercolor="#000000"
     borderopacity="0.25"
     inkscape:showpageshadow="2"
     inkscape:pageopacity="0.0"
     inkscape:pagecheckerboard="0"
     inkscape:deskcolor="#d1d1d1"
     inkscape:zoom="20"
     inkscape:cx="5.775"
     inkscape:cy="10.675"
     inkscape:window-width="1920"
     inkscape:window-height="998"
     inkscape:window-x="0"
     inkscape:window-y="0"
     inkscape:window-maximized="1"
     inkscape:current-layer="svg5" />
  <g
     transform="matrix(0.75,0,0,0.75,-486.622,-178)"
     fill="#dedede"
     id="g5">
    <path
       d="m 656.99,240 c -1.258,0.015 -2.179,-0.03 -2.932,0.385 a 1.88,1.88 0 0 0 -0.837,0.998 c -0.165,0.438 -0.225,0.96 -0.225,1.617 v 10 c 0,0.658 0.06,1.179 0.225,1.617 0.164,0.439 0.461,0.789 0.837,0.996 0.753,0.415 1.674,0.372 2.932,0.387 h 5.012 c 1.258,-0.015 2.179,0.03 2.932,-0.385 a 1.88,1.88 0 0 0 0.838,-0.998 c 0.164,-0.438 0.224,-0.96 0.224,-1.617 v -10 c 0,-0.658 -0.06,-1.179 -0.225,-1.617 a 1.875,1.875 0 0 0 -0.837,-0.996 c -0.753,-0.415 -1.674,-0.372 -2.932,-0.387 h -5.008 z m 0.006,1 h 5 c 1.259,0.015 2.09,0.06 2.455,0.262 0.184,0.1 0.287,0.213 0.385,0.472 0.097,0.26 0.16,0.674 0.16,1.266 v 10 c 0,0.592 -0.063,1.006 -0.16,1.266 -0.098,0.26 -0.202,0.371 -0.385,0.472 -0.366,0.202 -1.196,0.247 -2.455,0.262 h -5 c -1.259,-0.015 -2.09,-0.06 -2.455,-0.262 -0.183,-0.1 -0.287,-0.213 -0.385,-0.472 -0.097,-0.26 -0.16,-0.674 -0.16,-1.266 v -10 c 0,-0.592 0.063,-1.006 0.16,-1.266 0.098,-0.26 0.203,-0.371 0.387,-0.472 0.366,-0.202 1.194,-0.247 2.453,-0.262 z"
       color="#000000"
       font-family="sans-serif"
       font-weight="400"
       overflow="visible"
       solid-color="#000000"
       style="font-variant-ligatures:normal;font-variant-position:normal;font-variant-caps:normal;font-variant-numeric:normal;font-variant-alternates:normal;font-feature-settings:normal;text-indent:0;text-decoration-line:none;text-decoration-style:solid;text-decoration-color:#000000;text-transform:none;text-orientation:mixed;white-space:normal;shape-padding:0;isolation:auto;mix-blend-mode:normal"
       id="path1" />
    <path
       d="m 655.5,242 c -0.277,0 -0.5,0.223 -0.5,0.5 v 4 c 0,0.277 0.223,0.5 0.5,0.5 h 8 c 0.277,0 0.5,-0.223 0.5,-0.5 v -4 c 0,-0.277 -0.223,-0.5 -0.5,-0.5 z m 0.75,1 h 6.5 a 0.25,0.25 0 0 1 0.25,0.25 v 2.5 a 0.25,0.25 0 0 1 -0.25,0.25 h -6.5 A 0.25,0.25 0 0 1 656,245.75 v -2.5 a 0.25,0.25 0 0 1 0.25,-0.25 z"
       id="path2" />
    <rect
       x="656"
       y="248.5"
       width="1"
       height="4"
       rx="0.5"
       ry="0.5"
       id="rect2" />
    <rect
       x="654.5"
       y="250"
       width="4"
       height="1"
       rx="0.5"
       ry="0.5"
       id="rect3" />
    <rect
       x="662"
       y="249"
       width="2"
       height="2"
       rx="1"
       ry="1"
       id="rect4" />
    <rect
       x="660"
       y="251"
       width="2"
       height="2"
       rx="1"
       ry="1"
       id="rect5" />
  </g>
</svg>
