<?xml version="1.0" encoding="UTF-8" standalone="no"?>
<svg
   width="16"
   height="16.001"
   version="1.1"
   id="svg1"
   sodipodi:docname="gnome-mines-symbolic.svg"
   inkscape:version="1.4 (unknown)"
   xmlns:inkscape="http://www.inkscape.org/namespaces/inkscape"
   xmlns:sodipodi="http://sodipodi.sourceforge.net/DTD/sodipodi-0.dtd"
   xmlns="http://www.w3.org/2000/svg"
   xmlns:svg="http://www.w3.org/2000/svg">
  <defs
     id="defs1" />
  <sodipodi:namedview
     id="namedview1"
     pagecolor="#ffffff"
     bordercolor="#000000"
     borderopacity="0.25"
     inkscape:showpageshadow="2"
     inkscape:pageopacity="0.0"
     inkscape:pagecheckerboard="0"
     inkscape:deskcolor="#d1d1d1"
     inkscape:zoom="19.998751"
     inkscape:cx="7.6254763"
     inkscape:cy="8.7755482"
     inkscape:window-width="1920"
     inkscape:window-height="998"
     inkscape:window-x="0"
     inkscape:window-y="0"
     inkscape:window-maximized="1"
     inkscape:current-layer="svg1" />
  <path
     d="M 8.0005128,2.0009585 C 7.578218,1.9972091 7.4304523,2.0144564 7.3704459,2.5363731 L 7.3479439,2.719344 C 7.2961886,3.0567902 7.2864377,3.2105158 6.9729042,3.2930025 a 2.3184956,2.3178805 0 0 0 -0.077262,0.019497 4.4892254,4.4880344 0 0 0 -0.2707788,0.075736 c -0.012001,0.00374 -0.023253,0.00895 -0.035254,0.011998 -0.037501,0.010525 -0.060755,0.00748 -0.092263,0.011998 -0.6090655,0.209217 -1.1701249,0.5429137 -1.650176,0.980844 -0.029254,0.035994 -0.051007,0.070483 -0.097507,0.1117313 l 0.00907,-0.00148 c -0.06228,0.05999 -0.123034,0.1207286 -0.1815402,0.1844685 l 0.00307,-0.00894 C 4.3183726,4.9839827 4.1886089,4.9149939 3.8518233,4.7830152 L 3.6830553,4.7110267 C 3.5360398,4.6457867 3.4265282,4.6135418 3.3387691,4.6112923 3.1459989,4.6045431 3.06124,4.7440209 2.9187244,5.0027299 2.7034518,5.3739207 2.6411952,5.5126486 3.0537391,5.8253487 l 0.1462648,0.1117301 c 0.1432658,0.1184833 0.2415257,0.2009697 0.2895312,0.3014538 0.482301,-0.2519598 0.9976056,-0.4619265 1.4919076,-0.4874221 1.2023777,-0.063739 2.235987,0.5241661 3.2080899,1.0873265 0.9721032,0.56466 1.8917014,1.1083234 2.8330494,1.1623149 0.394542,0.022496 1.111617,-0.1394777 1.708684,-0.3239487 -0.015,-0.2024675 -0.0375,-0.4041854 -0.07652,-0.6036536 -0.01727,-0.037494 -0.03527,-0.068988 -0.04801,-0.1214806 l -0.01499,-0.064487 c 0,-0.00452 -0.003,-0.00894 -0.0047,-0.014997 a 4.8440129,4.8427278 0 0 0 -0.07504,-0.2759575 l -0.01123,-0.037491 c -0.08838,-0.32095 0.03762,-0.4056866 0.298657,-0.6224019 l 0.147127,-0.1109838 c 0.412545,-0.3134497 0.34954,-0.4514276 0.135018,-0.8226185 -0.142515,-0.258709 -0.228027,-0.398936 -0.420798,-0.392937 -0.08776,0.00298 -0.197268,0.035994 -0.345034,0.1012332 l -0.16652,0.071989 C 11.812416,4.9149936 11.682653,4.9847324 11.421626,4.6787812 l 0.0016,0.00905 A 4.7870071,4.7857372 0 0 0 11.243137,4.5033121 l 0.0082,0.00148 A 0.8400889,0.83986603 0 0 1 11.122343,4.3608324 4.7179996,4.716748 0 0 0 9.5006716,3.4122333 c -0.030003,-0.00452 -0.054007,-0.00226 -0.090011,-0.011998 L 9.3761553,3.3882373 9.3386567,3.3770292 A 4.5012267,4.5000325 0 0 0 9.0911278,3.3080052 L 9.0273723,3.2930027 C 8.7145882,3.2105158 8.7048373,3.0575401 8.6523317,2.719344 L 8.6305792,2.5363731 C 8.5720735,2.0144564 8.4235578,1.9964592 8.0005128,2.0009585 Z M 5.0189471,6.5002411 C 4.6259053,6.5212376 3.9253311,6.8414367 3.3462702,7.1818824 A 4.9430234,4.9417121 0 0 0 3.2630082,8.000002 c 0,0.1964686 0.016503,0.3921875 0.040505,0.5871564 C 3.8375714,8.2924553 4.4226333,8.0299972 4.9814422,8.000002 6.1838196,7.936262 7.217429,8.5241683 8.189532,9.0873288 c 0.972104,0.5646604 1.891702,1.1083222 2.833049,1.1623142 0.37879,0.021 1.054612,-0.131228 1.636675,-0.3067011 C 12.500239,9.8027156 12.43123,9.6954815 12.500989,9.440522 l 0.012,-0.035994 0.0098,-0.038246 a 4.8702656,4.8689735 0 0 0 0.06751,-0.2534594 l 0.01501,-0.064484 c 0.0098,-0.039744 0.02401,-0.061486 0.03673,-0.092239 0.03451,-0.1649735 0.06001,-0.332947 0.07727,-0.5009201 C 12.145456,8.625403 11.519141,8.7806282 10.979086,8.7498828 9.7872005,8.6823931 8.7753448,8.0449948 7.8129928,7.4870838 6.8506408,6.9291729 5.9497955,6.4522488 5.0189471,6.5009911 Z m 0,2.2496413 C 4.6544087,8.7693794 4.027342,9.0520845 3.4752832,9.3647843 c 0,7.5e-4 0,0.00226 0.00148,0.00374 0.00524,0.012745 0.00748,0.024745 0.011211,0.036745 a 0.50255324,0.50241991 0 0 1 0.010528,0.036745 C 3.5870193,9.7637182 3.4610078,9.8484539 3.1999781,10.064421 L 3.055983,10.175402 c -0.4125353,0.313457 -0.352529,0.453681 -0.1372562,0.824874 0.2070221,0.375688 0.292531,0.49792 0.7650815,0.289454 l 0.168015,-0.07126 c 0.3367856,-0.132727 0.4665493,-0.202466 0.7275771,0.103484 l -0.00148,-0.0072 c 0.059261,0.06375 0.1185105,0.123732 0.1800188,0.183721 l -0.00826,-0.0016 c 0.036003,0.03224 0.051755,0.05847 0.07801,0.08773 a 4.7202497,4.7189975 0 0 0 1.7049303,1.008589 c 0.021002,0.0047 0.036004,0.0037 0.0585,0.01052 l 0.035255,0.01052 0.036754,0.01052 a 4.4974766,4.4962835 0 0 0 0.2475257,0.06825 l 0.063008,0.01499 c 0.3127828,0.0825 0.3225334,0.236212 0.3750396,0.574412 l 0.022507,0.185965 c 0.058499,0.521152 0.2070207,0.53615 0.6293155,0.531649 0.4222948,0.0045 0.5700601,-0.01052 0.6300667,-0.532415 L 8.65308,13.282274 c 0.051006,-0.338198 0.061507,-0.491172 0.37504,-0.57441 a 2.2554891,2.2548907 0 0 0 0.077261,-0.0195 c 0.078755,-0.0195 0.1552664,-0.04048 0.2325247,-0.06375 0.012748,-0.0047 0.024751,-0.0073 0.036754,-0.01052 l 0.035255,-0.01051 c 0.039754,-0.01123 0.067503,-0.0098 0.1012631,-0.01499 a 4.7187496,4.7174977 0 0 0 1.6171672,-0.951632 c 0.03226,-0.04351 0.06528,-0.08924 0.123015,-0.140225 l -0.0091,0.0016 c 0.0623,-0.05995 0.121557,-0.12144 0.180063,-0.184432 l -0.0032,0.0083 c 0.261858,-0.305224 0.391622,-0.236236 0.728407,-0.103507 l 0.168768,0.07127 c 0.4718,0.208468 0.557309,0.08624 0.76508,-0.289453 0.112512,-0.19572 0.177769,-0.327699 0.15902,-0.454429 -0.08776,0.03 -0.146266,0.05399 -0.241527,0.08324 -0.637557,0.200199 -1.394387,0.406419 -2.019953,0.371173 C 9.7872005,10.932784 8.7745946,10.295385 7.8129928,9.7374747 6.8506408,9.1788142 5.9497955,8.7011401 5.0189471,8.7506321 Z"
     color="#000000"
     fill="#dedede"
     overflow="visible"
     id="path1"
     style="stroke-width:0.74998" />
</svg>
