<?xml version="1.0" encoding="UTF-8" standalone="no"?>
<svg
   width="16"
   height="16"
   enable-background="new"
   version="1.1"
   id="svg1"
   sodipodi:docname="gnome-power-manager-symbolic.svg"
   inkscape:version="1.4 (unknown)"
   xmlns:inkscape="http://www.inkscape.org/namespaces/inkscape"
   xmlns:sodipodi="http://sodipodi.sourceforge.net/DTD/sodipodi-0.dtd"
   xmlns="http://www.w3.org/2000/svg"
   xmlns:svg="http://www.w3.org/2000/svg">
  <sodipodi:namedview
     id="namedview1"
     pagecolor="#ffffff"
     bordercolor="#000000"
     borderopacity="0.25"
     inkscape:showpageshadow="2"
     inkscape:pageopacity="0.0"
     inkscape:pagecheckerboard="0"
     inkscape:deskcolor="#d1d1d1"
     inkscape:zoom="48.4375"
     inkscape:cx="7.9896774"
     inkscape:cy="9.7548387"
     inkscape:window-width="1920"
     inkscape:window-height="998"
     inkscape:window-x="0"
     inkscape:window-y="0"
     inkscape:window-maximized="1"
     inkscape:current-layer="svg1" />
  <defs
     id="defs1">
    <filter
       id="a"
       color-interpolation-filters="sRGB">
      <feBlend
         mode="darken"
         in2="BackgroundImage"
         id="feBlend1" />
    </filter>
  </defs>
  <path
     style="stroke-width:0.85714;marker:none"
     d="M 8.85714,2 V 2.8571421 H 5.428568 V 2 Z m 1.71428,1.714286 c 0.857139,0 0.857139,0.857142 0.857139,0.857142 V 8.054 c 0.978,0.1988581 1.714301,1.05 1.714301,2.088858 v 0.428566 H 12.285721 V 12.28572 H 11.428559 V 10.571424 H 10.57142 V 12.28572 H 9.7142806 V 10.571424 H 8.85714 v -0.428566 c 0,-1.038858 0.7362815,-1.8899999 1.71428,-2.0897161 V 4.571428 H 3.7142821 V 13.14286 H 11.428559 C 11.428559,14 10.57142,14 10.57142,14 H 3.7142821 C 2.85714,14 2.85714,13.14286 2.85714,13.14286 V 4.571428 c 0,0 0,-0.857142 0.8571421,-0.857142 H 5.428568 Z M 9.7142806,5.428572 V 7.625428 C 8.7542821,8.123428 7.9999981,8.99 7.9999981,10.142858 v 1.285723 H 8.85714 V 12.28572 H 4.571426 V 5.428572 h 1.714286 z"
     color="#000000"
     overflow="visible"
     fill="#dedede"
     enable-background="accumulate"
     id="path1" />
</svg>
