<?xml version="1.0" encoding="UTF-8" standalone="no"?>
<svg
   width="16"
   height="16"
   version="1.1"
   id="svg1"
   sodipodi:docname="gnome-mahjongg-symbolic.svg"
   inkscape:version="1.4 (unknown)"
   xmlns:inkscape="http://www.inkscape.org/namespaces/inkscape"
   xmlns:sodipodi="http://sodipodi.sourceforge.net/DTD/sodipodi-0.dtd"
   xmlns="http://www.w3.org/2000/svg"
   xmlns:svg="http://www.w3.org/2000/svg">
  <defs
     id="defs1" />
  <sodipodi:namedview
     id="namedview1"
     pagecolor="#ffffff"
     bordercolor="#000000"
     borderopacity="0.25"
     inkscape:showpageshadow="2"
     inkscape:pageopacity="0.0"
     inkscape:pagecheckerboard="0"
     inkscape:deskcolor="#d1d1d1"
     inkscape:zoom="20"
     inkscape:cx="5.075"
     inkscape:cy="5.475"
     inkscape:window-width="1920"
     inkscape:window-height="998"
     inkscape:window-x="0"
     inkscape:window-y="0"
     inkscape:window-maximized="1"
     inkscape:current-layer="svg1" />
  <path
     d="M 6.1205,2 C 5.177,2.01125 4.4862506,1.97825 3.9222494,2.29025 3.6302676,2.45621 3.4073294,2.7211851 3.2937494,3.0372497 3.17,3.3657494 3.125,3.7572506 3.125,4.25 v 7.5 c 0,0.493502 0.045,0.88425 0.1687494,1.212749 C 3.4167506,13.292 3.6395,13.555252 3.9222494,13.711252 4.4862506,14.022506 5.177,13.988748 6.1205,14 h 3.759 c 0.9435,-0.01125 1.634252,0.02251 2.199,-0.288748 0.292035,-0.166598 0.514943,-0.432048 0.6285,-0.748503 C 12.83,12.63425 12.875,12.242751 12.875,11.75 V 4.25 C 12.875,3.7565 12.83,3.3672506 12.707,3.0387497 12.593443,2.7222949 12.370535,2.45684 12.0785,2.29025 11.513752,1.979 10.823,2.01125 9.8795,2 H 6.122 Z M 6.125,2.75 h 3.75 c 0.944248,0.01125 1.565248,0.045 1.839752,0.1965 0.138,0.075 0.217496,0.1597494 0.290248,0.354 0.07351,0.195 0.12,0.5055 0.12,0.9495 v 7.5 c 0,0.444 -0.04648,0.754503 -0.12,0.949504 -0.07351,0.195001 -0.152248,0.279747 -0.290248,0.355496 C 11.440248,13.206506 10.819248,13.238748 9.875,13.25 H 6.125 C 5.1807506,13.238748 4.5575,13.205 4.2837506,13.053506 4.1465,12.978506 4.0685,12.893749 3.995,12.699504 3.9222494,12.504503 3.875,12.194 3.875,11.75 V 4.25 C 3.875,3.806 3.92225,3.4955 3.995,3.3005 4.0685,3.1055 4.1465,3.0222502 4.2837506,2.9465 4.5582506,2.795 5.1815,2.76125 6.125,2.75 Z M 5.564,4.373 c -0.5000025,0 -0.5000025,0.75 0,0.75 h 1.875 v 0.75 H 5.564 c -0.2077494,0 -0.375,0.1672506 -0.375,0.375 v 3 c 0,0.2077494 0.1672506,0.375 0.375,0.375 H 6.7827494 L 5.762,11.123 c -0.255,0.375 0.013499,0.75 0.2212506,0.75 0.3307494,0 0.5639988,-0.2025 0.6794988,-0.375 L 7.439,10.333248 V 11.498 c 0,0.500001 0.75,0.500001 0.75,0 V 10.333248 L 8.9652494,11.498 c 0.1155,0.1725 0.3487506,0.375 0.6795,0.375 C 9.8525,11.873 10.121,11.498 9.866,11.123 L 8.8452494,9.623 H 10.064 c 0.207752,0 0.375,-0.1672506 0.375,-0.375 v -3 c 0,-0.2077494 -0.167248,-0.375 -0.375,-0.375 H 8.189 v -0.75 h 1.875 c 0.500001,0 0.500001,-0.75 0,-0.75 h -2.25 z m 0.5625,2.25 H 7.439 v 0.75 H 6.1265 C 6.0229465,7.373 5.939,7.2890512 5.939,7.1855 V 6.8105 C 5.939,6.7069465 6.022953,6.623 6.1265,6.623 Z m 2.0625,0 h 1.3125 c 0.1035535,0 0.1875,0.083953 0.1875,0.1875 v 0.375 C 9.689,7.2890535 9.605047,7.373 9.5015,7.373 H 8.189 Z m -2.0625,1.5 H 7.439 v 0.75 H 6.1265 C 6.0229465,8.873 5.939,8.7890512 5.939,8.6855 V 8.3105 C 5.939,8.2069465 6.022953,8.123 6.1265,8.123 Z m 2.0625,0 h 1.3125 c 0.1035535,0 0.1875,0.083953 0.1875,0.1875 v 0.375 C 9.689,8.7890535 9.605047,8.873 9.5015,8.873 H 8.189 Z"
     fill="#dedede"
     id="path1"
     style="stroke-width:0.75" />
</svg>
