<?xml version="1.0" encoding="UTF-8" standalone="no"?>
<svg
   width="16"
   height="16"
   version="1.1"
   id="svg1"
   sodipodi:docname="google-chrome-symbolic.svg"
   inkscape:version="1.4 (unknown)"
   xmlns:inkscape="http://www.inkscape.org/namespaces/inkscape"
   xmlns:sodipodi="http://sodipodi.sourceforge.net/DTD/sodipodi-0.dtd"
   xmlns="http://www.w3.org/2000/svg"
   xmlns:svg="http://www.w3.org/2000/svg">
  <defs
     id="defs1" />
  <sodipodi:namedview
     id="namedview1"
     pagecolor="#ffffff"
     bordercolor="#000000"
     borderopacity="0.25"
     inkscape:showpageshadow="2"
     inkscape:pageopacity="0.0"
     inkscape:pagecheckerboard="0"
     inkscape:deskcolor="#d1d1d1"
     inkscape:zoom="14.142136"
     inkscape:cx="7.8135299"
     inkscape:cy="9.5105862"
     inkscape:window-width="1920"
     inkscape:window-height="998"
     inkscape:window-x="0"
     inkscape:window-y="0"
     inkscape:window-maximized="1"
     inkscape:current-layer="svg1" />
  <path
     d="M 8,2 A 6,6 0 0 0 2,8 6,6 0 0 0 8,14 6,6 0 0 0 14,8 6,6 0 0 0 8,2 Z M 8,2.75 A 5.25,5.25 0 0 1 12.306652,5 H 8 C 6.5717,5.0005279 5.3418508,6.008 5.0600745,7.4081745 L 3.6845745,5.0249 A 5.25,5.25 0 0 1 8,2.75 Z m 0,3 c 1.2426734,0 2.25,1.0073255 2.25,2.25 0,1.2426734 -1.0073266,2.25 -2.25,2.25 C 6.7573255,10.25 5.75,9.2426734 5.75,8 5.75,6.7573255 6.7573255,5.75 8,5.75 Z m 1.9790255,0 H 12.741723 A 5.25,5.25 0 0 1 13.25002,8 5.25,5.25 0 0 1 8.454148,13.214825 L 10.598697,9.5 h -0.0029 C 10.859902,9.0441755 10.999342,8.5268 11.000062,8 10.998713,7.1381745 10.626788,6.3185 9.979088,5.75 Z M 3.2539255,5.780761 5.4014,9.5000113 h 0.00446 c 0.535166,0.9270007 1.5238009,1.4986517 2.5942009,1.5000007 0.3263026,-2.04e-4 0.6503772,-0.05364 0.9594764,-0.158206 L 7.585527,13.21781 A 5.25,5.25 0 0 1 2.7500466,8.0000575 5.25,5.25 0 0 1 3.2539561,5.7808065 Z"
     fill="#dedede"
     id="path1"
     style="stroke-width:0.75" />
</svg>
