<?xml version="1.0" encoding="UTF-8" standalone="no"?>
<svg
   width="16"
   height="16"
   version="1.1"
   id="svg2"
   sodipodi:docname="help-faq-symbolic.svg"
   inkscape:version="1.4 (unknown)"
   xmlns:inkscape="http://www.inkscape.org/namespaces/inkscape"
   xmlns:sodipodi="http://sodipodi.sourceforge.net/DTD/sodipodi-0.dtd"
   xmlns="http://www.w3.org/2000/svg"
   xmlns:svg="http://www.w3.org/2000/svg">
  <defs
     id="defs2" />
  <sodipodi:namedview
     id="namedview2"
     pagecolor="#ffffff"
     bordercolor="#000000"
     borderopacity="0.25"
     inkscape:showpageshadow="2"
     inkscape:pageopacity="0.0"
     inkscape:pagecheckerboard="0"
     inkscape:deskcolor="#d1d1d1"
     inkscape:zoom="20"
     inkscape:cx="4.125"
     inkscape:cy="13.525"
     inkscape:window-width="1920"
     inkscape:window-height="998"
     inkscape:window-x="0"
     inkscape:window-y="0"
     inkscape:window-maximized="1"
     inkscape:current-layer="svg2" />
  <g
     id="g2"
     transform="translate(1.75,2)">
    <path
       d="M 5.5,0 C 4.669,0 4,0.669 4,1.5 V 2.25 H 2.5 C 1.669,2.25 1,2.919 1,3.75 V 10.5 C 1,11.331 1.669,12 2.5,12 H 7 c 0.831,0 1.5,-0.669 1.5,-1.5 V 9.75 H 10 c 0.831,0 1.5,-0.669 1.5,-1.5 V 4.8105745 3.75 L 7.75,0 H 7 Z m 0,0.75 H 7 v 3 0.75 h 3.75 V 8.25 C 10.75,8.6654996 10.415503,9 10,9 H 8.5 V 7.0605745 6 L 4.75,2.25 V 1.5 C 4.75,1.3961185 4.770746,1.2968112 4.80859,1.2070346 4.9221515,0.93766478 5.1883795,0.75 5.5000031,0.75 Z m 2.25,0.310545 2.689425,2.6894262 H 7.75 Z M 2.5,2.9999688 H 4 V 4.6405945 C 4.2361888,4.555448 4.4860373,4.4999688 4.75,4.4999688 V 3.3105455 l 2.6894255,2.6894257 h -0.58008 C 6.9444981,6.23616 6.9999712,6.486008 6.9999712,6.7499688 h 0.7499976 v 3.7500002 c 0,0.4155 -0.3345,0.750003 -0.7499976,0.750003 h -2.25 -0.75 -1.5 c -0.4155,0 -0.75,-0.334503 -0.75,-0.750003 V 3.7499712 c 0,-0.1038815 0.020746,-0.2031912 0.05859,-0.2929657 0.1135565,-0.269371 0.3797859,-0.4570367 0.6914114,-0.4570367 z"
       fill="#dedede"
       id="path1"
       style="stroke-width:0.75" />
    <path
       d="m 4.75,5.25 c 0.825,0 1.5,0.675 1.5,1.5 0,0.825 -0.675,1.5 -1.5,1.5 V 9 H 4 V 7.5 H 4.75 C 5.1625,7.5 5.5,7.1625 5.5,6.75 5.5,6.3375 5.1625,6 4.75,6 4.3375,6 4,6.3375 4,6.75 H 3.25 c 0,-0.825 0.675,-1.5 1.5,-1.5 z M 4,9.75 H 4.75 V 10.5 H 4 Z"
       fill="#dedede"
       id="path2"
       style="stroke-width:0.75" />
  </g>
</svg>
