<?xml version="1.0" encoding="UTF-8" standalone="no"?>
<svg
   width="16"
   height="16"
   version="1.1"
   id="svg2"
   sodipodi:docname="help-browser-symbolic.svg"
   inkscape:version="1.4 (unknown)"
   xmlns:inkscape="http://www.inkscape.org/namespaces/inkscape"
   xmlns:sodipodi="http://sodipodi.sourceforge.net/DTD/sodipodi-0.dtd"
   xmlns="http://www.w3.org/2000/svg"
   xmlns:svg="http://www.w3.org/2000/svg">
  <defs
     id="defs2" />
  <sodipodi:namedview
     id="namedview2"
     pagecolor="#ffffff"
     bordercolor="#000000"
     borderopacity="0.25"
     inkscape:showpageshadow="2"
     inkscape:pageopacity="0.0"
     inkscape:pagecheckerboard="0"
     inkscape:deskcolor="#d1d1d1"
     inkscape:zoom="20"
     inkscape:cx="7.85"
     inkscape:cy="8.275"
     inkscape:window-width="1920"
     inkscape:window-height="998"
     inkscape:window-x="0"
     inkscape:window-y="0"
     inkscape:window-maximized="1"
     inkscape:current-layer="svg2" />
  <g
     id="g2"
     transform="translate(2,2)">
    <path
       d="M 6,0 A 6,6 0 0 0 0,6 6,6 0 0 0 6,12 6,6 0 0 0 12,6 6,6 0 0 0 6,0 Z M 6,0.75 A 5.25,5.25 0 0 1 11.25,6 5.25,5.25 0 0 1 6,11.25 5.25,5.25 0 0 1 0.75,6 5.25,5.25 0 0 1 6,0.75 Z"
       fill="#dedede"
       id="path1"
       style="stroke-width:0.75" />
    <path
       d="M 6.5357243,9.75 H 5.4642757 V 8.6785513 H 6.5357243 Z M 7.6446746,5.5982243 7.16253,6.09108 C 6.7768136,6.4821536 6.5357464,6.80358 6.5357464,7.60713 H 5.4642979 V 7.3392757 c 0,-0.5892821 0.2410721,-1.125 0.6267821,-1.5160514 l 0.6642821,-0.675 C 6.95358,4.95537 7.0714357,4.6875064 7.0714357,4.3929 c 0,-0.5892821 -0.4821457,-1.07145 -1.0714514,-1.07145 -0.5892822,0 -1.0714486,0.4821457 -1.0714486,1.07145 H 3.8570843 c 0,-1.18395 0.9589514,-2.1428243 2.1428257,-2.1428243 1.18395,0 2.1428265,0.9589486 2.1428265,2.1428243 0,0.4714264 -0.1928565,0.9 -0.4982111,1.2053243 z"
       fill="#dedede"
       stroke-width="0.535717"
       id="path2" />
  </g>
</svg>
