<?xml version="1.0" encoding="UTF-8" standalone="no"?>
<svg
   width="16"
   height="16"
   version="1.1"
   id="svg3"
   sodipodi:docname="image-viewer-symbolic.svg"
   inkscape:version="1.4 (unknown)"
   xmlns:inkscape="http://www.inkscape.org/namespaces/inkscape"
   xmlns:sodipodi="http://sodipodi.sourceforge.net/DTD/sodipodi-0.dtd"
   xmlns="http://www.w3.org/2000/svg"
   xmlns:svg="http://www.w3.org/2000/svg">
  <defs
     id="defs3" />
  <sodipodi:namedview
     id="namedview3"
     pagecolor="#ffffff"
     bordercolor="#000000"
     borderopacity="0.25"
     inkscape:showpageshadow="2"
     inkscape:pageopacity="0.0"
     inkscape:pagecheckerboard="0"
     inkscape:deskcolor="#d1d1d1"
     inkscape:zoom="14.142136"
     inkscape:cx="12.197592"
     inkscape:cy="13.965359"
     inkscape:window-width="1920"
     inkscape:window-height="998"
     inkscape:window-x="0"
     inkscape:window-y="0"
     inkscape:window-maximized="1"
     inkscape:current-layer="svg3" />
  <g
     transform="matrix(0.865625,0,0,0.865625,1.075,0.27256563)"
     fill="#dedede"
     font-family="sans-serif"
     font-weight="400"
     id="g3">
    <path
       d="M 3.994,2 C 2.736,2.015 1.815,1.97 1.063,2.385 A 1.88,1.88 0 0 0 0.225,3.383 C 0.06,3.82 0,4.343 0,5 v 7 c 0,0.658 0.06,1.179 0.225,1.617 0.164,0.439 0.461,0.79 0.838,0.998 0.752,0.416 1.673,0.37 2.931,0.385 H 5.496 A 6.04,6.04 0 0 1 3.3,12 H 1 V 5 C 1,4.408 1.063,3.994 1.16,3.734 1.258,3.474 1.362,3.363 1.545,3.262 1.91,3.06 2.74,3.015 4,3 h 8 c 1.259,0.015 2.087,0.06 2.453,0.262 0.184,0.1 0.29,0.212 0.387,0.472 C 14.937,3.994 15,4.408 15,5 v 7 h -0.37 c -0.148,0.389 -0.326,0.765 -0.536,1.12 l 1.213,1.212 c 0.2,-0.194 0.363,-0.434 0.468,-0.715 C 15.94,13.179 16,12.657 16,12 V 5 C 16,4.342 15.94,3.821 15.775,3.383 A 1.88,1.88 0 0 0 14.938,2.385 C 14.185,1.969 13.264,2.015 12.006,2 H 3.998 Z M 6.695,12 A 2.932,2.932 0 0 0 9,13.105 c 0.946,0 1.766,-0.432 2.305,-1.105 H 6.959 Z"
       overflow="visible"
       style="font-variant-ligatures:normal;font-variant-position:normal;font-variant-caps:normal;font-variant-numeric:normal;font-variant-alternates:normal;font-feature-settings:normal;text-indent:0;text-decoration-line:none;text-decoration-style:solid;text-decoration-color:#000000;text-transform:none;text-orientation:mixed;white-space:normal;shape-padding:0;isolation:auto;mix-blend-mode:normal"
       id="path1" />
    <path
       d="m 9,5 c -2.755,0 -5,2.245 -5,5 0,2.755 2.245,5 5,5 2.755,0 5,-2.245 5,-5 C 14,7.245 11.755,5 9,5 Z M 9,6.04 A 3.954,3.954 0 0 1 12.96,10 3.954,3.954 0 0 1 9,13.96 3.952,3.952 0 0 1 5.041,10 3.952,3.952 0 0 1 9,6.04 Z"
       overflow="visible"
       style="font-variant-ligatures:normal;font-variant-position:normal;font-variant-caps:normal;font-variant-numeric:normal;font-variant-alternates:normal;font-feature-settings:normal;text-indent:0;text-decoration-line:none;text-decoration-style:solid;text-decoration-color:#000000;text-transform:none;text-orientation:mixed;white-space:normal;shape-padding:0;isolation:auto;mix-blend-mode:normal"
       id="path2" />
    <path
       d="m 12.353,12.646 -0.707,0.708 2.5,2.5 0.707,-0.708 z"
       fill-rule="evenodd"
       overflow="visible"
       style="font-variant-ligatures:normal;font-variant-position:normal;font-variant-caps:normal;font-variant-numeric:normal;font-variant-alternates:normal;font-feature-settings:normal;text-indent:0;text-decoration-line:none;text-decoration-style:solid;text-decoration-color:#000000;text-transform:none;text-orientation:mixed;white-space:normal;shape-padding:0;isolation:auto;mix-blend-mode:normal"
       id="path3" />
  </g>
</svg>
