<?xml version="1.0" encoding="UTF-8" standalone="no"?>
<svg
   width="16"
   height="16"
   version="1.1"
   id="svg3"
   sodipodi:docname="inkscape-symbolic.svg"
   inkscape:version="1.4 (unknown)"
   xmlns:inkscape="http://www.inkscape.org/namespaces/inkscape"
   xmlns:sodipodi="http://sodipodi.sourceforge.net/DTD/sodipodi-0.dtd"
   xmlns="http://www.w3.org/2000/svg"
   xmlns:svg="http://www.w3.org/2000/svg">
  <defs
     id="defs3" />
  <sodipodi:namedview
     id="namedview3"
     pagecolor="#ffffff"
     bordercolor="#000000"
     borderopacity="0.25"
     inkscape:showpageshadow="2"
     inkscape:pageopacity="0.0"
     inkscape:pagecheckerboard="0"
     inkscape:deskcolor="#d1d1d1"
     inkscape:zoom="14.142136"
     inkscape:cx="11.349064"
     inkscape:cy="4.3487067"
     inkscape:window-width="1920"
     inkscape:window-height="998"
     inkscape:window-x="0"
     inkscape:window-y="0"
     inkscape:window-maximized="1"
     inkscape:current-layer="svg3" />
  <g
     id="g3"
     transform="translate(2.0020445,2.0039683)"
     style="fill:#f2f2f2;fill-opacity:1">
    <path
       d="m 9.7988594,9.0803825 c 0,0.2165299 1.6553636,0.3402645 1.5639236,-0.051548 C 11.230772,8.3689267 9.9816516,8.4204828 9.7988594,9.0803825 Z M 1.9241118,10.12939 C 2.2998632,10.459348 2.8685715,10.057206 3.0513588,9.5932188 2.685763,9.1086107 1.3350993,9.6241375 1.9241118,10.12939 Z m 7.672236,-0.5953392 c -0.467152,0.4330523 0.081235,0.8867692 0.5382382,0.5877282 0.121869,-0.08248 -0.01017,-0.4846166 -0.5382382,-0.5877282 z"
       fill="#333333"
       stroke-width="0.774924"
       id="path1"
       style="fill:#f2f2f2;fill-opacity:1" />
    <path
       id="icecap"
       class="full-specularity"
       d="m 6.6602135,2.2481716 1.6553561,1.7116136 c 0.1523343,0.1546603 0.1523343,0.474304 0.06092,0.5671048 L 7.5539255,3.8463599 7.3914347,4.8464884 6.7110211,4.4752935 5.6041011,5.1867573 5.2385055,3.6916626 4.6494848,4.9908551 3.1769916,4.9805461 c -0.2843511,0 -0.243728,-0.2990194 0.050777,-0.598038 0.5788573,-0.6495962 1.7061339,-1.7528489 2.0615817,-2.134382 0.3655954,-0.381511 1.0053644,-0.3711948 1.3710122,0 z"
       fill="#333333"
       stroke-width="0.102324"
       style="fill:#f2f2f2;fill-opacity:1" />
    <path
       d="m 3.9892929,7.3687691 c 0.091396,0 3.1278496,0.4124457 1.9600247,0.7320893 C 5.5024773,8.2245928 3.4510592,7.3687691 3.9892929,7.3687691 Z"
       fill="#333333"
       stroke-width="0.774924"
       id="path2"
       style="fill:#f2f2f2;fill-opacity:1" />
    <path
       d="m 5.9368668,-0.00392172 c -0.441073,3.7305e-4 -0.8782309,0.16460881 -1.2012761,0.49932947 v 0.001468 L 0.60155246,4.7960748 c -0.4259596,0.4325145 -0.660252,0.8163718 -0.5918327,1.232917 0.03421045,0.2082728 0.15442739,0.3826727 0.29152111,0.503723 C 0.43833459,6.6537646 0.59468203,6.7354545 0.75829748,6.8050735 1.0855431,6.944319 1.4551142,7.0336038 1.7969637,7.1286835 1.949883,7.1712212 2.0314511,7.2204492 2.1617347,7.2663247 1.9840705,7.353862 1.7946761,7.4401404 1.6255704,7.5796854 1.5402977,7.6500446 1.443594,7.7375845 1.395575,7.9062287 c -0.047722,0.1676065 0.02807,0.3906049 0.1377014,0.503721 0.1787815,0.1858391 0.3836645,0.266705 0.626995,0.364614 0.2439981,0.098171 0.5213363,0.1897304 0.7940012,0.2796827 0.2726641,0.089941 0.5410089,0.1785923 0.7515477,0.2621108 0.1530618,0.060696 0.2121058,0.101753 0.269552,0.1361788 -0.029315,0.036297 -0.040349,0.053501 -0.090823,0.1068931 -0.091644,0.096885 -0.2070656,0.2028238 -0.2944538,0.3851132 -0.043692,0.091135 -0.079723,0.2129877 -0.064455,0.3485027 0.015139,0.134402 0.084636,0.262809 0.1728634,0.355817 0.3177054,0.3398 0.7167007,0.315772 0.9346346,0.367551 0.1091099,0.02588 0.1740111,0.05563 0.2124141,0.08932 0.0384,0.03376 0.075987,0.07743 0.1025463,0.22844 0.052224,0.298872 0.3073618,0.522191 0.553745,0.600363 0.2463832,0.07817 0.5030793,0.07285 0.7661736,0.03368 0.5261659,-0.07847 1.0805187,-0.299923 1.4796178,-0.635508 l 0.00159,-0.0018 0.00301,-0.0018 c 0.082082,-0.07082 0.1631925,-0.1583 0.2021427,-0.301593 C 7.993351,10.884343 7.943921,10.708815 7.875274,10.616174 7.7938481,10.506364 7.7359379,10.498733 7.668704,10.463977 7.9545389,10.246693 8.2211351,10.095659 8.5066567,10.01883 8.6875684,9.970165 8.8869755,9.9189198 9.0853035,9.7918648 9.2828139,9.6653343 9.4569886,9.4558631 9.562874,9.1841796 v -0.00147 C 9.6210247,9.0338296 9.6067494,8.8518787 9.5496941,8.7258805 9.4924688,8.5996618 9.4117965,8.515799 9.3314003,8.4449189 9.1706053,8.3031623 8.9921765,8.2069503 8.8347867,8.1183785 8.8333368,8.1176289 8.8331568,8.1176903 8.8317369,8.1167893 9.0316808,8.0229435 9.2012605,7.9322789 9.4924,7.8298001 9.9391832,7.6726139 10.440247,7.5077502 10.881199,7.298338 c 0.44089,-0.2094199 0.85265,-0.4529744 1.04009,-0.8947178 0.09373,-0.2208527 0.103227,-0.4885257 0.01903,-0.736541 -0.08385,-0.2467111 -0.244948,-0.4775355 -0.477636,-0.7144401 l -0.0033,-0.00301 -4.290798,-4.45881855 -0.00583,-0.005854 C 6.8229855,0.15927603 6.378057,-0.00434315 5.9369539,-0.0039684 Z m 0.00583,0.75556928 c 0.2518973,3.7313e-4 0.5095833,0.0912487 0.7017156,0.27528994 l 4.2790986,4.4470483 0.0018,0.0015 c 0.182307,0.1851134 0.271362,0.3351778 0.304706,0.4334287 0.03332,0.098258 0.02763,0.1404304 0.0018,0.2020725 C 11.17956,6.234271 10.937021,6.4426711 10.559415,6.6220269 10.181506,6.8013593 9.699408,6.9623468 9.2436024,7.1227949 8.7877413,7.2832407 8.3645198,7.4298337 8.0422996,7.6601924 l -0.00161,0.00157 C 7.9307135,7.7406791 7.8038636,7.912334 7.8164859,8.1024928 7.8291104,8.2926542 7.9289424,8.3964299 8.0039983,8.4671058 8.1541063,8.6084577 8.311721,8.6843464 8.4669203,8.7716811 8.6104205,8.8524288 8.7351078,8.9321447 8.8067826,8.9898649 8.7675252,9.0575618 8.7315839,9.1286653 8.6808011,9.1611877 8.6070046,9.20847 8.4859979,9.248986 8.3116354,9.2959029 7.9629177,9.3897369 7.4214053,9.5319204 6.9067977,10.060246 l -0.0015,0.0018 h -0.00149 c -0.077883,0.08126 -0.1515095,0.185397 -0.1728633,0.329465 -0.021354,0.144072 0.036774,0.297242 0.104009,0.383649 0.05553,0.07139 0.094155,0.07045 0.1450291,0.105423 -0.2559237,0.145184 -0.5411292,0.304981 -0.8233273,0.347038 -0.1900995,0.02829 -0.353715,0.0162 -0.4277599,-0.0067 -0.074044,-0.02346 -0.039467,0.0029 -0.042481,-0.01468 C 5.6375983,10.928088 5.5137537,10.695539 5.3406354,10.543495 5.167508,10.391369 4.9704783,10.326252 4.805925,10.287164 4.5387957,10.223706 4.4282985,10.19591 4.3517939,10.165625 c 0.028364,-0.03429 0.034464,-0.04509 0.077643,-0.09075 0.091644,-0.096872 0.2085359,-0.2042979 0.2959164,-0.3865779 0.043692,-0.091146 0.078252,-0.2115309 0.06299,-0.3470394 -0.015255,-0.1355899 -0.085047,-0.267129 -0.174318,-0.3602861 l -0.0015,-0.00165 -0.003,-0.00165 C 4.4297307,8.7953709 4.2259503,8.7158175 3.9826349,8.6192868 3.739319,8.5227498 3.4622667,8.4323138 3.1901346,8.342533 2.9179719,8.2527531 2.6513601,8.1633807 2.4415495,8.0789592 2.3825519,8.0552258 2.3858412,8.0503108 2.3375404,8.0262509 2.3988406,7.9928192 2.4261804,7.9705034 2.497218,7.9354638 2.6722488,7.84912 2.8525077,7.7716879 3.017271,7.6440617 3.0996562,7.5802505 3.2085104,7.5046666 3.248728,7.3043407 3.2688385,7.2041778 3.2477595,7.0765227 3.1974557,6.9880481 3.1471512,6.8995736 3.0830736,6.8461107 3.0231297,6.8064733 l -0.00299,-0.003 C 2.7153249,6.6071524 2.3535173,6.5057073 1.9976642,6.4067218 1.641812,6.3077361 1.2902413,6.2169897 1.0513289,6.1153276 0.93186916,6.064495 0.84310087,6.0102765 0.79789523,5.9703611 0.75268781,5.9304445 0.75305538,5.9198032 0.75101748,5.9073963 0.74694151,5.8825826 0.77744625,5.6860261 1.1348323,5.3231384 l 0.0015,-0.003 4.1398842,-4.303541 C 5.4452367,0.84150616 5.6908471,0.75124716 5.9427354,0.75162205 Z"
       color="#000000"
       fill="#333333"
       style="stroke-width:0.749881;-inkscape-stroke:none;fill:#f2f2f2;fill-opacity:1"
       id="path3" />
  </g>
</svg>
