<?xml version="1.0" encoding="UTF-8" standalone="no"?>
<svg
   width="16"
   height="16"
   version="1.1"
   id="svg2"
   sodipodi:docname="internet-chat-symbolic.svg"
   inkscape:version="1.4 (unknown)"
   xmlns:inkscape="http://www.inkscape.org/namespaces/inkscape"
   xmlns:sodipodi="http://sodipodi.sourceforge.net/DTD/sodipodi-0.dtd"
   xmlns="http://www.w3.org/2000/svg"
   xmlns:svg="http://www.w3.org/2000/svg">
  <defs
     id="defs2" />
  <sodipodi:namedview
     id="namedview2"
     pagecolor="#ffffff"
     bordercolor="#000000"
     borderopacity="0.25"
     inkscape:showpageshadow="2"
     inkscape:pageopacity="0.0"
     inkscape:pagecheckerboard="0"
     inkscape:deskcolor="#d1d1d1"
     inkscape:zoom="20"
     inkscape:cx="8.025"
     inkscape:cy="12.925"
     inkscape:window-width="1920"
     inkscape:window-height="998"
     inkscape:window-x="0"
     inkscape:window-y="0"
     inkscape:window-maximized="1"
     inkscape:current-layer="svg2" />
  <g
     id="g2"
     transform="translate(2.0000265,2.00003)">
    <path
       d="M 7.4999892,3.7499874 A 4.4999935,3.7499946 0 0 0 2.9999954,7.4999816 4.4999935,3.7499946 0 0 0 7.4999892,11.249977 4.4999935,3.7499946 0 0 0 8.3891145,11.175269 C 8.838571,11.532837 9.5051139,11.886536 10.499984,11.99997 10.112672,11.535588 9.9202489,11.101469 9.8261516,10.709443 A 4.4999935,3.7499946 0 0 0 11.999947,7.4999723 4.4999935,3.7499946 0 0 0 7.4999591,3.7499777 Z m 0,0.7499991 A 3.7499946,2.9999954 0 0 1 11.249981,7.4999816 3.7499946,2.9999954 0 0 1 7.4999892,10.499977 3.7499946,2.9999954 0 0 1 3.7499946,7.4999816 3.7499946,2.9999954 0 0 1 7.4999892,4.4999865 Z"
       fill="#dedede"
       id="path1"
       style="stroke-width:0.749998" />
    <path
       d="M 4.4999935,-7.5000325e-6 A 4.4999935,3.7499946 0 0 0 0,3.7499874 4.4999935,3.7499946 0 0 0 2.1737966,6.9594578 C 2.079702,7.3514519 1.8872822,7.7855816 1.4999682,8.2499811 1.8351278,8.2117626 2.1213048,8.1403475 2.3861668,8.0566225 A 5.2499925,4.124994 0 0 1 2.2499365,7.1249746 5.2499925,4.124994 0 0 1 2.3773762,6.2226509 3.7499946,2.9999954 0 0 1 0.74995391,3.7499794 3.7499946,2.9999954 0 0 1 4.4999483,0.74998391 3.7499946,2.9999954 0 0 1 8.1400681,3.0307311 5.2499925,4.124994 0 0 1 8.9427939,3.1596401 4.4999935,3.7499946 0 0 0 4.4999483,-3e-5 Z"
       fill="#dedede"
       id="path2"
       style="stroke-width:0.749998" />
  </g>
</svg>
