<?xml version="1.0" encoding="UTF-8" standalone="no"?>
<svg
   width="16"
   height="16"
   version="1.1"
   id="svg2"
   sodipodi:docname="internet-news-reader-symbolic.svg"
   inkscape:version="1.4 (unknown)"
   xmlns:inkscape="http://www.inkscape.org/namespaces/inkscape"
   xmlns:sodipodi="http://sodipodi.sourceforge.net/DTD/sodipodi-0.dtd"
   xmlns="http://www.w3.org/2000/svg"
   xmlns:svg="http://www.w3.org/2000/svg">
  <defs
     id="defs2" />
  <sodipodi:namedview
     id="namedview2"
     pagecolor="#ffffff"
     bordercolor="#000000"
     borderopacity="0.25"
     inkscape:showpageshadow="2"
     inkscape:pageopacity="0.0"
     inkscape:pagecheckerboard="0"
     inkscape:deskcolor="#d1d1d1"
     inkscape:zoom="14.142136"
     inkscape:cx="5.4093669"
     inkscape:cy="13.470384"
     inkscape:window-width="1920"
     inkscape:window-height="998"
     inkscape:window-x="0"
     inkscape:window-y="0"
     inkscape:window-maximized="1"
     inkscape:current-layer="svg2" />
  <g
     id="g2"
     transform="translate(1,1)">
    <path
       d="m 3.5714283,3.5911425 h 0.5708575 c 3.4718567,0 6.2862892,2.8144292 6.2862892,6.286283 V 10.448283 H 9.2851419 V 9.8774255 c 0,-2.8403113 -2.3025419,-5.1428538 -5.1428561,-5.1428538 -0.312,0 -0.5708575,0.015425 -0.5708575,0 z m 0,2.286 h 0.5708575 c 2.2095425,4.736e-4 4.0006284,1.7916 4.0011425,4.0011411 V 10.449142 H 7 V 9.8782836 C 7,8.3000283 5.7205425,7.0205717 4.1422858,7.0205717 H 3.5714283 Z M 4.7148575,8.164 c 1.0180283,7.637e-4 1.5266567,1.2318836 0.8064167,1.951025 -0.7202825,0.719206 -1.9506,0.208661 -1.9498284,-0.8093359 0,-0.6308574 0.5125717,-1.1417149 1.1434284,-1.1417149 z"
       color="#000000"
       fill="#dedede"
       style="font-variation-settings:normal;stroke-width:0.857142"
       id="path1" />
    <path
       d="M 2.7142858,1 C 1.7645717,1 1,1.7645717 1,2.7142858 V 11.285717 C 1,12.235425 1.7645717,13 2.7142858,13 H 11.285717 C 12.235425,13 13,12.235425 13,11.285717 V 2.7142858 C 13,1.7645717 12.235425,1 11.285717,1 Z m 0,0.8571425 h 8.5714312 c 0.474858,0 0.857141,0.3822858 0.857141,0.8571433 v 8.5714312 c 0,0.474858 -0.382283,0.857141 -0.857141,0.857141 H 2.7142858 c -0.4748575,0 -0.8571433,-0.382283 -0.8571433,-0.857141 V 2.7142858 c 0,-0.4748575 0.3822858,-0.8571433 0.8571433,-0.8571433 z"
       fill="#dedede"
       stroke-linecap="round"
       stroke-linejoin="round"
       stroke-width="0.858517"
       id="path2" />
  </g>
</svg>
