<?xml version="1.0" encoding="UTF-8" standalone="no"?>
<svg
   width="16"
   height="16"
   version="1.1"
   id="svg1"
   sodipodi:docname="io.github.seadve.Kooha-symbolic.svg"
   inkscape:version="1.4 (unknown)"
   xmlns:inkscape="http://www.inkscape.org/namespaces/inkscape"
   xmlns:sodipodi="http://sodipodi.sourceforge.net/DTD/sodipodi-0.dtd"
   xmlns="http://www.w3.org/2000/svg"
   xmlns:svg="http://www.w3.org/2000/svg">
  <defs
     id="defs1" />
  <sodipodi:namedview
     id="namedview1"
     pagecolor="#ffffff"
     bordercolor="#000000"
     borderopacity="0.25"
     inkscape:showpageshadow="2"
     inkscape:pageopacity="0.0"
     inkscape:pagecheckerboard="0"
     inkscape:deskcolor="#d1d1d1"
     inkscape:zoom="24.21875"
     inkscape:cx="7.6180645"
     inkscape:cy="7.5354839"
     inkscape:window-width="1920"
     inkscape:window-height="998"
     inkscape:window-x="0"
     inkscape:window-y="0"
     inkscape:window-maximized="1"
     inkscape:current-layer="svg1" />
  <path
     d="m 3.4999825,2 c -0.831,0 -1.5,0.669 -1.5,1.5 V 5 h 0.75 V 3.5 c 0,-0.4155 0.3345,-0.75 0.75,-0.75 h 1.5 V 2 Z m 7.5000005,0 v 0.75 h 1.5 c 0.415505,0 0.75,0.3345 0.75,0.75 V 5 h 0.75 V 3.5 c 0,-0.831 -0.669,-1.5 -1.5,-1.5 z M 6.4999825,5 c -0.831,0 -1.5,0.669 -1.5,1.5 v 3 c 0,0.831 0.669,1.5 1.5,1.5 h 4.5000005 c 0.831,0 1.5,-0.669 1.5,-1.5 v -3 c 0,-0.831 -0.669,-1.5 -1.5,-1.5 z m -1.5,3 -1.5,-1.5 v 3 z M 8.7104576,5.75 a 2.25,2.25 0 0 1 0.00147,0 2.25,2.25 0 0 1 0.038086,0 A 2.25,2.25 0 0 1 11.000018,8 2.25,2.25 0 0 1 8.7500136,10.25 2.25,2.25 0 0 1 6.5000136,8 2.25,2.25 0 0 1 8.7104886,5.75 Z m 0.00295,0.75 a 1.5,1.5 0 0 0 -1.4634,1.5 1.5,1.5 0 0 0 1.5,1.5 A 1.5,1.5 0 0 0 10.250011,8 1.5,1.5 0 0 0 8.7500076,6.5 1.5,1.5 0 0 0 8.7133856,6.5 Z M 2.0000112,11 v 1.5 c 0,0.831 0.669,1.5 1.5,1.5 h 1.5 v -0.75 h -1.5 c -0.4155,0 -0.75,-0.334505 -0.75,-0.75 V 11 Z m 11.2500038,0 v 1.5 c 0,0.415495 -0.334504,0.75 -0.749999,0.75 H 11.000018 V 14 h 1.500002 c 0.830997,0 1.499997,-0.669 1.499997,-1.5 V 11 Z"
     fill="#dedede"
     id="path1"
     style="stroke-width:0.75" />
</svg>
