<?xml version="1.0" encoding="UTF-8" standalone="no"?>
<svg
   height="16"
   width="16"
   version="1.1"
   id="svg12"
   sodipodi:docname="jockey-symbolic.svg"
   inkscape:version="1.4 (unknown)"
   xmlns:inkscape="http://www.inkscape.org/namespaces/inkscape"
   xmlns:sodipodi="http://sodipodi.sourceforge.net/DTD/sodipodi-0.dtd"
   xmlns="http://www.w3.org/2000/svg"
   xmlns:svg="http://www.w3.org/2000/svg">
  <defs
     id="defs12" />
  <sodipodi:namedview
     id="namedview12"
     pagecolor="#ffffff"
     bordercolor="#000000"
     borderopacity="0.25"
     inkscape:showpageshadow="2"
     inkscape:pageopacity="0.0"
     inkscape:pagecheckerboard="0"
     inkscape:deskcolor="#d1d1d1"
     inkscape:zoom="20"
     inkscape:cx="9.6"
     inkscape:cy="11.225"
     inkscape:window-width="1920"
     inkscape:window-height="998"
     inkscape:window-x="0"
     inkscape:window-y="0"
     inkscape:window-maximized="1"
     inkscape:current-layer="svg12" />
  <g
     id="g12"
     transform="translate(2.0000002,2.0000002)">
    <path
       d="m 3.3750008,3.0000007 c -0.2077506,0 -0.3750001,0.1672495 -0.3750001,0.3750001 v 5.250001 c 0,0.2077516 0.1672495,0.3750001 0.3750001,0.3750001 h 5.250001 c 0.2077516,0 0.3750001,-0.1672485 0.3750001,-0.3750001 v -5.250001 c 0,-0.2077506 -0.1672485,-0.3750001 -0.3750001,-0.3750001 z M 3.7500009,3.7500009 H 8.2500016 V 8.2500016 H 3.7500009 Z"
       fill="#dedede"
       id="path1"
       style="stroke-width:0.75" />
    <rect
       width="1.4999998"
       height="2.2500014"
       x="2.9999995"
       rx="0.37499994"
       ry="0.37499994"
       fill="#dedede"
       id="rect1"
       y="0"
       style="stroke-width:0.75" />
    <rect
       width="1.4999998"
       height="2.2500014"
       x="5.2500029"
       rx="0.37499994"
       ry="0.37499994"
       fill="#dedede"
       id="rect2"
       y="0"
       style="stroke-width:0.75" />
    <rect
       width="1.4999998"
       height="2.2500014"
       x="7.5000014"
       rx="0.37499994"
       ry="0.37499994"
       fill="#dedede"
       id="rect3"
       y="0"
       style="stroke-width:0.75" />
    <rect
       width="1.4999998"
       height="2.2500014"
       x="2.9999995"
       y="9.7499981"
       rx="0.37499994"
       ry="0.37499994"
       fill="#dedede"
       id="rect4"
       style="stroke-width:0.75" />
    <rect
       width="1.4999998"
       height="2.2500014"
       x="5.2500029"
       y="9.7499981"
       rx="0.37499994"
       ry="0.37499994"
       fill="#dedede"
       id="rect5"
       style="stroke-width:0.75" />
    <rect
       width="1.4999998"
       height="2.2500014"
       x="7.5000014"
       y="9.7499981"
       rx="0.37499994"
       ry="0.37499994"
       fill="#dedede"
       id="rect6"
       style="stroke-width:0.75" />
    <rect
       width="1.4999998"
       height="2.2500014"
       x="-4.5000029"
       y="9.7499981"
       rx="0.37499994"
       ry="0.37499994"
       transform="rotate(-90)"
       fill="#dedede"
       id="rect7"
       style="stroke-width:0.75" />
    <rect
       width="1.4999998"
       height="2.2500014"
       x="-6.7500038"
       y="9.7499981"
       rx="0.37499994"
       ry="0.37499994"
       transform="rotate(-90)"
       fill="#dedede"
       id="rect8"
       style="stroke-width:0.75" />
    <rect
       width="1.4999998"
       height="2.2500014"
       x="-9.0000057"
       y="9.7499981"
       rx="0.37499994"
       ry="0.37499994"
       transform="rotate(-90)"
       fill="#dedede"
       id="rect9"
       style="stroke-width:0.75" />
    <rect
       width="1.4999998"
       height="2.2500014"
       x="-4.5000029"
       rx="0.37499994"
       ry="0.37499994"
       transform="rotate(-90)"
       fill="#dedede"
       id="rect10"
       y="0"
       style="stroke-width:0.75" />
    <rect
       width="1.4999998"
       height="2.2500014"
       x="-6.7500038"
       rx="0.37499994"
       ry="0.37499994"
       transform="rotate(-90)"
       fill="#dedede"
       id="rect11"
       y="0"
       style="stroke-width:0.75" />
    <rect
       width="1.4999998"
       height="2.2500014"
       x="-9.0000057"
       rx="0.37499994"
       ry="0.37499994"
       transform="rotate(-90)"
       fill="#dedede"
       id="rect12"
       y="0"
       style="stroke-width:0.75" />
    <path
       d="m 3.0000007,1.5000003 c -0.8310001,0 -1.5000004,0.6690003 -1.5000004,1.5000004 v 6.0000012 c 0,0.8310005 0.6690003,1.5000001 1.5000004,1.5000001 h 6.0000012 c 0.8310005,0 1.5000001,-0.6689996 1.5000001,-1.5000001 V 3.0000007 c 0,-0.8310001 -0.6689996,-1.5000004 -1.5000001,-1.5000004 z m 0.3750001,0.7500003 h 5.250001 c 0.6232489,0 1.1250005,0.5017496 1.1250005,1.1250002 v 5.250001 c 0,0.6232489 -0.5017516,1.1250005 -1.1250005,1.1250005 h -5.250001 c -0.6232506,0 -1.1250002,-0.5017516 -1.1250002,-1.1250005 v -5.250001 c 0,-0.6232506 0.5017496,-1.1250002 1.1250002,-1.1250002 z"
       fill="#dedede"
       id="path12"
       style="stroke-width:0.75" />
  </g>
</svg>
