<?xml version="1.0" encoding="UTF-8" standalone="no"?>
<svg
   width="16"
   height="16"
   version="1.1"
   id="svg3"
   sodipodi:docname="libreoffice-writer-symbolic.svg"
   inkscape:version="1.4 (unknown)"
   xmlns:inkscape="http://www.inkscape.org/namespaces/inkscape"
   xmlns:sodipodi="http://sodipodi.sourceforge.net/DTD/sodipodi-0.dtd"
   xmlns="http://www.w3.org/2000/svg"
   xmlns:svg="http://www.w3.org/2000/svg"
   xmlns:rdf="http://www.w3.org/1999/02/22-rdf-syntax-ns#"
   xmlns:cc="http://creativecommons.org/ns#"
   xmlns:dc="http://purl.org/dc/elements/1.1/">
  <defs
     id="defs3" />
  <sodipodi:namedview
     id="namedview3"
     pagecolor="#ffffff"
     bordercolor="#000000"
     borderopacity="0.25"
     inkscape:showpageshadow="2"
     inkscape:pageopacity="0.0"
     inkscape:pagecheckerboard="0"
     inkscape:deskcolor="#d1d1d1"
     inkscape:zoom="28.284271"
     inkscape:cx="4.7199378"
     inkscape:cy="10.588924"
     inkscape:window-width="1920"
     inkscape:window-height="998"
     inkscape:window-x="0"
     inkscape:window-y="0"
     inkscape:window-maximized="1"
     inkscape:current-layer="svg3" />
  <metadata
     id="metadata1">
    <rdf:RDF>
      <cc:Work
         rdf:about="">
        <dc:format>image/svg+xml</dc:format>
        <dc:type
           rdf:resource="http://purl.org/dc/dcmitype/StillImage" />
      </cc:Work>
    </rdf:RDF>
  </metadata>
  <g
     fill="#dedede"
     id="g3"
     transform="matrix(0.75,0,0,0.75,2,2)">
    <path
       d="m 5,11 h 3 v 1 H 5 Z M 5,9 h 6 v 1 H 5 Z M 5,7 h 5 V 8 H 5 Z M 5,5 H 8 V 6 H 5 Z"
       id="path1" />
    <path
       d="m 10.826,0 4.1738,4.1738 V 1 c 0,-0.554 -0.446,-1 -1,-1 z"
       style="paint-order:stroke fill markers"
       id="path2" />
    <path
       d="M 3,0 C 1.9093,0 1,0.9093 1,2 v 12 c 0,1.0907 0.9093,2 2,2 h 10 c 1.0907,0 2,-0.9093 2,-2 V 6 A 1.0001,1.0001 0 0 0 14.70703,5.29297 l -5,-5 A 1.0001,1.0001 0 0 0 9,0 Z m 0,1 h 6 l 5,5 v 8 c 0,0.554 -0.446,1 -1,1 H 3 C 2.446,15 2,14.554 2,14 V 2 C 2,1.446 2.446,1 3,1 Z"
       color="#000000"
       color-rendering="auto"
       dominant-baseline="auto"
       image-rendering="auto"
       shape-rendering="auto"
       solid-color="#000000"
       style="font-variant-ligatures:normal;font-variant-position:normal;font-variant-caps:normal;font-variant-numeric:normal;font-variant-alternates:normal;font-feature-settings:normal;text-indent:0;text-decoration-line:none;text-decoration-style:solid;text-decoration-color:#000000;text-transform:none;text-orientation:mixed;white-space:normal;shape-padding:0;isolation:auto;mix-blend-mode:normal;paint-order:stroke fill markers"
       id="path3" />
  </g>
</svg>
