<?xml version="1.0" encoding="UTF-8" standalone="no"?>
<svg
   width="16"
   height="16"
   version="1.1"
   id="svg4"
   sodipodi:docname="log-viewer-app-symbolic.svg"
   inkscape:version="1.4 (unknown)"
   xmlns:inkscape="http://www.inkscape.org/namespaces/inkscape"
   xmlns:sodipodi="http://sodipodi.sourceforge.net/DTD/sodipodi-0.dtd"
   xmlns="http://www.w3.org/2000/svg"
   xmlns:svg="http://www.w3.org/2000/svg">
  <defs
     id="defs4" />
  <sodipodi:namedview
     id="namedview4"
     pagecolor="#ffffff"
     bordercolor="#000000"
     borderopacity="0.25"
     inkscape:showpageshadow="2"
     inkscape:pageopacity="0.0"
     inkscape:pagecheckerboard="0"
     inkscape:deskcolor="#d1d1d1"
     inkscape:zoom="20"
     inkscape:cx="1.275"
     inkscape:cy="11.725"
     inkscape:window-width="1920"
     inkscape:window-height="998"
     inkscape:window-x="0"
     inkscape:window-y="0"
     inkscape:window-maximized="1"
     inkscape:current-layer="svg4" />
  <g
     transform="matrix(0.75795856,0,0,0.75032827,1.9920415,2)"
     fill="#dedede"
     id="g4">
    <path
       d="M 4.994,0 C 3.736,0.015 2.815,-0.03 2.063,0.385 1.67361,0.60712 1.37641,0.96106 1.225,1.383 1.06,1.82 1,2.343 1,3 v 10 c 0,0.658 0.06,1.178 0.225,1.617 0.164,0.439 0.461,0.789 0.838,0.996 0.68,0.376 1.534,0.371 2.615,0.38 C 4.23576,15.69676 3.83491,15.34299 3.486,14.941 3.056,14.903 2.734,14.842 2.545,14.738 2.362,14.637 2.258,14.525 2.16,14.266 2.063,14.006 2,13.592 2,13 V 3 C 2,2.408 2.063,1.994 2.16,1.734 2.258,1.474 2.362,1.363 2.545,1.262 2.91,1.06 3.74,1.015 5,1 h 5 c 1.259,0.015 2.09,0.06 2.455,0.262 0.184,0.1 0.287,0.213 0.385,0.472 C 12.937,1.994 13,2.408 13,3 v 1.535 c 0.38112,0.34051 0.71718,0.72831 1,1.154 V 3 C 14,2.342 13.94,1.821 13.775,1.383 13.62382,0.96174 13.32693,0.60846 12.938,0.387 12.185,-0.028 11.264,0.015 10.006,0 H 4.998 Z M 3.25,2 C 3.11193,2 3,2.11193 3,2.25 v 0.5 C 3,2.889 3.112,3 3.25,3 h 0.5 C 3.88807,3 4,2.88807 4,2.75 V 2.25 C 4,2.11193 3.88807,2 3.75,2 Z m 8,0 C 11.11193,2 11,2.11193 11,2.25 v 0.5 C 11,2.889 11.112,3 11.25,3 h 0.5 C 11.88807,3 12,2.88807 12,2.75 V 2.25 C 12,2.11193 11.88807,2 11.75,2 Z m -8,2 C 3.11193,4 3,4.11193 3,4.25 v 0.5 C 3,4.889 3.112,5 3.25,5 h 0.5 C 3.88807,5 4,4.88807 4,4.75 V 4.25 C 4,4.11193 3.88807,4 3.75,4 Z m 8,0 C 11.11193,4 11,4.11193 11,4.25 v 0.5 C 11,4.889 11.112,5 11.25,5 h 0.5 C 11.88807,5 12,4.88807 12,4.75 V 4.25 C 12,4.11193 11.88807,4 11.75,4 Z m -8,2 C 3.11193,6 3,6.11193 3,6.25 v 0.5 C 3,6.889 3.112,7 3.25,7 h 0.5 C 3.88807,7 4,6.88807 4,6.75 V 6.25 C 4,6.11193 3.88807,6 3.75,6 Z"
       color="#000000"
       font-family="sans-serif"
       font-weight="400"
       overflow="visible"
       solid-color="#000000"
       style="font-variant-ligatures:normal;font-variant-position:normal;font-variant-caps:normal;font-variant-numeric:normal;font-variant-alternates:normal;font-feature-settings:normal;text-indent:0;text-decoration-line:none;text-decoration-style:solid;text-decoration-color:#000000;text-transform:none;text-orientation:mixed;white-space:normal;shape-padding:0;isolation:auto;mix-blend-mode:normal"
       id="path1" />
    <path
       d="M 6.857,8 C 6.593,8.293 6.39,8.63 6.266,9 h 5.617 a 2.978,2.978 0 0 0 -0.59,-1 z m -0.736,2 c -0.009,0.346 0.04,0.684 0.16,1 h 5.567 c 0.123,-0.317 0.194,-0.653 0.19,-1 z m 0.793,2 c 0.532,0.56 1.271,0.929 2.055,0.94 0.848,0.048 1.66,-0.336 2.238,-0.94 z"
       id="path2" />
    <path
       d="m 9,5 c -2.755,0 -5,2.245 -5,5 0,2.755 2.245,5 5,5 2.755,0 5,-2.245 5,-5 C 14,7.245 11.755,5 9,5 Z M 9,6.04 A 3.954,3.954 0 0 1 12.96,10 3.954,3.954 0 0 1 9,13.96 3.952,3.952 0 0 1 5.041,10 3.952,3.952 0 0 1 9,6.04 Z"
       color="#000000"
       font-family="sans-serif"
       font-weight="400"
       overflow="visible"
       solid-color="#000000"
       style="font-variant-ligatures:normal;font-variant-position:normal;font-variant-caps:normal;font-variant-numeric:normal;font-variant-alternates:normal;font-feature-settings:normal;text-indent:0;text-decoration-line:none;text-decoration-style:solid;text-decoration-color:#000000;text-transform:none;text-orientation:mixed;white-space:normal;shape-padding:0;isolation:auto;mix-blend-mode:normal"
       id="path3" />
    <path
       d="m 12.353,12.646 -0.707,0.708 2.5,2.5 0.707,-0.708 z"
       color="#000000"
       fill-rule="evenodd"
       font-family="sans-serif"
       font-weight="400"
       overflow="visible"
       solid-color="#000000"
       style="font-variant-ligatures:normal;font-variant-position:normal;font-variant-caps:normal;font-variant-numeric:normal;font-variant-alternates:normal;font-feature-settings:normal;text-indent:0;text-decoration-line:none;text-decoration-style:solid;text-decoration-color:#000000;text-transform:none;text-orientation:mixed;white-space:normal;shape-padding:0;isolation:auto;mix-blend-mode:normal"
       id="path4" />
  </g>
</svg>
