<?xml version="1.0" encoding="UTF-8" standalone="no"?>
<svg
   width="16"
   height="16"
   version="1.1"
   id="svg3"
   sodipodi:docname="mail-app-symbolic.svg"
   inkscape:version="1.4 (unknown)"
   xmlns:inkscape="http://www.inkscape.org/namespaces/inkscape"
   xmlns:sodipodi="http://sodipodi.sourceforge.net/DTD/sodipodi-0.dtd"
   xmlns="http://www.w3.org/2000/svg"
   xmlns:svg="http://www.w3.org/2000/svg">
  <defs
     id="defs3" />
  <sodipodi:namedview
     id="namedview3"
     pagecolor="#ffffff"
     bordercolor="#000000"
     borderopacity="0.25"
     inkscape:showpageshadow="2"
     inkscape:pageopacity="0.0"
     inkscape:pagecheckerboard="0"
     inkscape:deskcolor="#d1d1d1"
     inkscape:zoom="28.284271"
     inkscape:cx="6.3462834"
     inkscape:cy="13.558773"
     inkscape:window-width="1920"
     inkscape:window-height="998"
     inkscape:window-x="0"
     inkscape:window-y="0"
     inkscape:window-maximized="1"
     inkscape:current-layer="svg3" />
  <g
     fill="#dedede"
     font-weight="400"
     id="g3"
     transform="matrix(0.9375,0,0,0.92307692,0.5,0.15384618)">
    <path
       d="M 0.388,5.892 0,6.488 7,11.5 l -2,2 c 0,0 2.724,-1.23 4,-2 2.46,-1.486 7,-5.034 7,-5.034 L 15.612,5.892 7.999,10.486 Z"
       font-family="Ubuntu"
       font-size="15px"
       letter-spacing="0"
       text-anchor="middle"
       word-spacing="0"
       id="path1" />
    <path
       d="M 3.994,2 C 2.736,2.014 1.815,1.969 1.063,2.384 A 1.88,1.88 0 0 0 0.225,3.382 C 0.06,3.821 0,4.342 0,5 v 7 c 0,0.658 0.06,1.179 0.225,1.617 0.164,0.439 0.461,0.789 0.838,0.996 0.752,0.415 1.673,0.372 2.931,0.387 h 8.012 c 1.258,-0.014 2.179,0.03 2.932,-0.385 a 1.88,1.88 0 0 0 0.838,-0.998 C 15.94,13.179 16,12.657 16,12 V 5 C 16,4.342 15.94,3.82 15.775,3.382 A 1.875,1.875 0 0 0 14.938,2.386 C 14.185,1.971 13.264,2.015 12.006,2 H 3.998 Z M 4,3 h 8 c 1.259,0.015 2.09,0.06 2.455,0.261 0.184,0.101 0.287,0.213 0.385,0.473 C 14.937,3.994 15,4.407 15,5 v 7 c 0,0.592 -0.063,1.006 -0.16,1.266 -0.098,0.26 -0.202,0.371 -0.385,0.472 C 14.089,13.94 13.259,13.985 12,14 H 4 C 2.741,13.985 1.91,13.94 1.545,13.738 1.361,13.638 1.258,13.525 1.16,13.266 1.062,13.006 1,12.592 1,12 V 5 C 1,4.407 1.062,3.994 1.16,3.734 1.258,3.474 1.361,3.362 1.545,3.261 1.91,3.06 2.74,3.014 4,3 Z"
       color="#000000"
       font-family="sans-serif"
       overflow="visible"
       solid-color="#000000"
       style="font-variant-ligatures:normal;font-variant-position:normal;font-variant-caps:normal;font-variant-numeric:normal;font-variant-alternates:normal;font-feature-settings:normal;text-indent:0;text-decoration-line:none;text-decoration-style:solid;text-decoration-color:#000000;text-transform:none;text-orientation:mixed;white-space:normal;shape-padding:0;isolation:auto;mix-blend-mode:normal"
       id="path2" />
    <path
       d="M 4.994,4 C 4.364,4.006 3.888,4.008 3.488,4.054 3.089,4.1 2.725,4.194 2.451,4.468 2.177,4.741 2.081,5.108 2.039,5.505 1.997,5.902 2,6.875 2,7.5 H 3 C 3,6.874 3.001,5.912 3.033,5.61 3.065,5.31 3.123,5.213 3.158,5.177 3.194,5.141 3.296,5.083 3.602,5.048 3.906,5.013 4.372,5.006 5,4.999 h 5 c 0.627,0.008 2.092,0.014 2.396,0.049 0.306,0.035 0.41,0.093 0.446,0.129 0.035,0.036 0.092,0.132 0.125,0.434 C 12.999,5.911 13,6.874 13,7.5 h 1 C 14,6.876 14.003,5.902 13.96,5.505 13.918,5.108 13.823,4.741 13.549,4.468 13.275,4.195 12.911,4.1 12.511,4.054 12.112,4.008 10.635,4.007 10.006,3.999 H 4.998 Z"
       color="#000000"
       font-family="sans-serif"
       overflow="visible"
       solid-color="#000000"
       style="font-variant-ligatures:normal;font-variant-position:normal;font-variant-caps:normal;font-variant-numeric:normal;font-variant-alternates:normal;font-feature-settings:normal;text-indent:0;text-decoration-line:none;text-decoration-style:solid;text-decoration-color:#000000;text-transform:none;text-orientation:mixed;white-space:normal;shape-padding:0;isolation:auto;mix-blend-mode:normal"
       id="path3" />
  </g>
</svg>
