<?xml version="1.0" encoding="UTF-8" standalone="no"?>
<svg
   width="16"
   height="16"
   version="1.1"
   id="svg1"
   sodipodi:docname="maps-app-symbolic.svg"
   inkscape:version="1.4 (unknown)"
   xmlns:inkscape="http://www.inkscape.org/namespaces/inkscape"
   xmlns:sodipodi="http://sodipodi.sourceforge.net/DTD/sodipodi-0.dtd"
   xmlns="http://www.w3.org/2000/svg"
   xmlns:svg="http://www.w3.org/2000/svg">
  <defs
     id="defs1" />
  <sodipodi:namedview
     id="namedview1"
     pagecolor="#ffffff"
     bordercolor="#000000"
     borderopacity="0.25"
     inkscape:showpageshadow="2"
     inkscape:pageopacity="0.0"
     inkscape:pagecheckerboard="0"
     inkscape:deskcolor="#d1d1d1"
     inkscape:zoom="28.284271"
     inkscape:cx="6.4169941"
     inkscape:cy="7.4069435"
     inkscape:window-width="1920"
     inkscape:window-height="998"
     inkscape:window-x="0"
     inkscape:window-y="0"
     inkscape:window-maximized="1"
     inkscape:current-layer="svg1" />
  <path
     d="M 8.0000014,2 A 3.2500014,3.2498311 0 0 0 4.75,5.2498311 3.2500014,3.2498311 0 0 0 4.9563751,6.3832099 3.2500014,3.2498311 0 0 1 4.9011252,6.2272175 C 5.4958753,8.0129998 6.6935005,11.412323 8.0000014,14 9.3065008,11.412323 10.504122,8.0121862 11.098873,6.2272175 A 3.2500014,3.2498311 0 0 0 11.25,5.2498311 3.2500014,3.2498311 0 0 0 8.0000014,2 Z m 0,0.8124574 A 2.4375014,2.4373737 0 0 1 10.437505,5.2498311 2.4375014,2.4373737 0 0 1 8.0000014,7.6872032 2.4375014,2.4373737 0 0 1 5.5625,5.2498311 2.4375014,2.4373737 0 0 1 8.0000014,2.8124574 Z"
     color="#000000"
     fill="#dedede"
     overflow="visible"
     id="path1"
     style="stroke-width:0.812481" />
</svg>
