<?xml version="1.0" encoding="UTF-8" standalone="no"?>
<svg
   height="16"
   width="16"
   version="1.1"
   id="svg2"
   sodipodi:docname="messaging-app-symbolic.svg"
   inkscape:version="1.4 (unknown)"
   xmlns:inkscape="http://www.inkscape.org/namespaces/inkscape"
   xmlns:sodipodi="http://sodipodi.sourceforge.net/DTD/sodipodi-0.dtd"
   xmlns="http://www.w3.org/2000/svg"
   xmlns:svg="http://www.w3.org/2000/svg">
  <defs
     id="defs2" />
  <sodipodi:namedview
     id="namedview2"
     pagecolor="#ffffff"
     bordercolor="#000000"
     borderopacity="0.25"
     inkscape:showpageshadow="2"
     inkscape:pageopacity="0.0"
     inkscape:pagecheckerboard="0"
     inkscape:deskcolor="#d1d1d1"
     inkscape:zoom="20"
     inkscape:cx="8"
     inkscape:cy="11.875"
     inkscape:window-width="1920"
     inkscape:window-height="998"
     inkscape:window-x="0"
     inkscape:window-y="0"
     inkscape:window-maximized="1"
     inkscape:current-layer="svg2" />
  <g
     transform="matrix(0.79999998,0,0,0.79999998,-503.99999,-206.79999)"
     fill="#dedede"
     id="g2">
    <path
       d="m 634,261 c -1.108,0 -2,0.892 -2,2 v 8 c 0,1.108 0.892,2 2,2 h 1.522 l 2.478,3 2,-3 h 6 c 1.108,0 2,-0.892 2,-2 v -8 c 0,-1.108 -0.892,-2 -2,-2 z m 0,1 h 12 c 0.554,0 1,0.446 1,1 v 8 c 0,0.554 -0.446,1 -1,1 h -6.434 L 638,274.4 636.034,272 H 634 c -0.554,0 -1,-0.446 -1,-1 v -8 c 0,-0.554 0.446,-1 1,-1 z m -0.7,11 c 0.153,0.017 0.322,0.021 0.524,0 z"
       style="line-height:125%;-inkscape-font-specification:Ubuntu;text-align:center"
       font-weight="400"
       font-size="15px"
       font-family="Ubuntu"
       letter-spacing="0"
       word-spacing="0"
       text-anchor="middle"
       id="path1" />
    <rect
       height="1"
       rx="0.25"
       ry="0.25"
       width="10"
       x="635"
       y="264"
       id="rect1" />
    <rect
       height="1"
       rx="0.25"
       ry="0.25"
       width="7"
       x="635"
       y="266"
       id="rect2" />
  </g>
</svg>
