<?xml version="1.0" encoding="UTF-8" standalone="no"?>
<svg
   width="16"
   height="16"
   version="1.1"
   id="svg1"
   sodipodi:docname="multimedia-equalizer-symbolic.svg"
   inkscape:version="1.4 (unknown)"
   xmlns:inkscape="http://www.inkscape.org/namespaces/inkscape"
   xmlns:sodipodi="http://sodipodi.sourceforge.net/DTD/sodipodi-0.dtd"
   xmlns="http://www.w3.org/2000/svg"
   xmlns:svg="http://www.w3.org/2000/svg">
  <defs
     id="defs1" />
  <sodipodi:namedview
     id="namedview1"
     pagecolor="#ffffff"
     bordercolor="#000000"
     borderopacity="0.25"
     inkscape:showpageshadow="2"
     inkscape:pageopacity="0.0"
     inkscape:pagecheckerboard="0"
     inkscape:deskcolor="#d1d1d1"
     inkscape:zoom="20"
     inkscape:cx="8.025"
     inkscape:cy="12.925"
     inkscape:window-width="1920"
     inkscape:window-height="998"
     inkscape:window-x="0"
     inkscape:window-y="0"
     inkscape:window-maximized="1"
     inkscape:current-layer="svg1" />
  <path
     d="M 11.25,2 C 10.992788,2 10.785712,2.205846 10.785712,2.461538 V 2.923077 H 1.9642852 C 1.7070712,2.923077 1.5,3.128923 1.5,3.384615 c 0,0.255693 0.2070712,0.461539 0.4642852,0.461539 h 8.8214268 v 0.461538 c 0,0.255693 0.207076,0.461539 0.464288,0.461539 0.257212,0 0.464288,-0.205846 0.464288,-0.461539 V 2.461538 C 11.714288,2.205846 11.507212,2 11.25,2 Z m 1.392852,0.923077 v 0.923077 h 1.39286 C 14.292924,3.846154 14.5,3.640308 14.5,3.384615 14.5,3.128923 14.292924,2.923077 14.035712,2.923077 Z M 4.749999,6.615385 c -0.2572139,0 -0.4642852,0.205846 -0.4642852,0.461538 V 7.538462 H 1.9642852 C 1.7070712,7.538462 1.5,7.744308 1.5,8 c 0,0.255692 0.2070712,0.461538 0.4642852,0.461538 h 2.3214286 v 0.461539 c 0,0.255692 0.2070713,0.461538 0.4642852,0.461538 0.2572149,0 0.4642862,-0.205846 0.4642862,-0.461538 V 7.076923 c 0,-0.255692 -0.2070713,-0.461538 -0.4642862,-0.461538 z M 6.1428564,7.538462 V 8.461538 H 14.035712 C 14.292924,8.461538 14.5,8.255692 14.5,8 14.5,7.744308 14.292924,7.538462 14.035712,7.538462 Z m 2.3214278,3.692308 c -0.257214,0 -0.4642862,0.20585 -0.4642862,0.46154 v 0.46154 H 1.9642852 C 1.7070712,12.15385 1.5,12.35969 1.5,12.61538 c 0,0.2557 0.2070712,0.46121 0.4642852,0.46154 H 7.999998 v 0.46154 c 0,0.25569 0.2070722,0.46154 0.4642862,0.46154 0.2572138,0 0.464285,-0.20585 0.464285,-0.46154 v -1.84615 c 0,-0.25569 -0.2070712,-0.46154 -0.464285,-0.46154 z m 1.3928564,0.92308 v 0.92307 h 4.1785714 c 0.257212,0 0.464288,-0.20584 0.464288,-0.46154 0,-0.25569 -0.207076,-0.46201 -0.464288,-0.46153 z"
     fill="#dedede"
     stroke-linecap="round"
     stroke-linejoin="round"
     stroke-width="0.927297"
     id="path1" />
</svg>
