<?xml version="1.0" encoding="UTF-8" standalone="no"?>
<svg
   height="16"
   width="16"
   version="1.1"
   id="svg1"
   sodipodi:docname="multimedia-audio-player-symbolic.svg"
   inkscape:version="1.4 (unknown)"
   xmlns:inkscape="http://www.inkscape.org/namespaces/inkscape"
   xmlns:sodipodi="http://sodipodi.sourceforge.net/DTD/sodipodi-0.dtd"
   xmlns="http://www.w3.org/2000/svg"
   xmlns:svg="http://www.w3.org/2000/svg">
  <defs
     id="defs1" />
  <sodipodi:namedview
     id="namedview1"
     pagecolor="#ffffff"
     bordercolor="#000000"
     borderopacity="0.25"
     inkscape:showpageshadow="2"
     inkscape:pageopacity="0.0"
     inkscape:pagecheckerboard="0"
     inkscape:deskcolor="#d1d1d1"
     inkscape:zoom="20"
     inkscape:cx="0.025"
     inkscape:cy="6.475"
     inkscape:window-width="1920"
     inkscape:window-height="998"
     inkscape:window-x="0"
     inkscape:window-y="0"
     inkscape:window-maximized="1"
     inkscape:current-layer="svg1" />
  <g
     transform="matrix(0.85416667,0,0,0.85714286,-949.52084,-34.003429)"
     id="g1">
    <path
       color="#000000"
       d="m 1121,42.004 c -3.315,0 -6,2.685 -6,6 v 5 h 1 v -5 c 0,-2.779 2.222,-5 5,-5 2.779,0 5,2.221 5,5 v 5 h 1 v -5 c 0,-3.315 -2.684,-6 -6,-6 z m -4,8 v 6 h 1 c 0,0 1,0 1,-1 v -4 c 0,-1 -1,-1 -1,-1 z m 7,0 c 0,0 -1,0 -1,1 v 4 c 0,1 1,1 1,1 h 1 v -6 z"
       fill="#dedede"
       id="path1" />
  </g>
</svg>
