<?xml version="1.0" encoding="UTF-8" standalone="no"?>
<svg
   width="16"
   height="16"
   version="1.1"
   viewBox="0 0 16 16"
   id="svg1"
   sodipodi:docname="multimedia-photo-viewer-symbolic.svg"
   inkscape:version="1.4 (unknown)"
   xmlns:inkscape="http://www.inkscape.org/namespaces/inkscape"
   xmlns:sodipodi="http://sodipodi.sourceforge.net/DTD/sodipodi-0.dtd"
   xmlns="http://www.w3.org/2000/svg"
   xmlns:svg="http://www.w3.org/2000/svg">
  <sodipodi:namedview
     id="namedview1"
     pagecolor="#ffffff"
     bordercolor="#000000"
     borderopacity="0.25"
     inkscape:showpageshadow="2"
     inkscape:pageopacity="0.0"
     inkscape:pagecheckerboard="0"
     inkscape:deskcolor="#d1d1d1"
     inkscape:zoom="48.4375"
     inkscape:cx="8"
     inkscape:cy="8"
     inkscape:window-width="1920"
     inkscape:window-height="998"
     inkscape:window-x="0"
     inkscape:window-y="0"
     inkscape:window-maximized="1"
     inkscape:current-layer="svg1" />
  <defs
     id="defs1">
    <style
       id="current-color-scheme"
       type="text/css">.ColorScheme-Text { color:#dedede; } .ColorScheme-Text { color:#dedede; }</style>
  </defs>
  <path
     d="M 2.4500003,2 C 1.4251,2 0.6,2.823385 0.6,3.846154 V 12.15385 C 0.6,13.17662 1.4251,14 2.4500003,14 H 13.550004 C 14.574905,14 15.4,13.17662 15.4,12.15385 V 3.846154 C 15.4,2.823385 14.574905,2 13.550004,2 Z m 0,0.923077 H 13.550004 c 0.512445,0 0.924993,0.411692 0.924993,0.923077 V 12.15385 L 9.8500003,7.538462 6.6315549,11.23077 4.3000005,9.384615 1.525,12.15385 V 3.846154 c 0,-0.511385 0.4125498,-0.923077 0.9250003,-0.923077 z M 4.7625,4.769231 c -0.7662971,0 -1.3874996,0.619911 -1.3874996,1.384615 0,0.764705 0.6212025,1.384616 1.3874996,1.384616 0.7662982,0 1.3875008,-0.619911 1.3875008,-1.384616 0,-0.764704 -0.6212026,-1.384615 -1.3875008,-1.384615 z"
     style="fill:currentColor;stroke-width:0.924042"
     class="ColorScheme-Text"
     id="path1" />
</svg>
