<?xml version="1.0" encoding="UTF-8" standalone="no"?>
<svg
   width="16"
   height="16"
   version="1.1"
   id="svg3"
   sodipodi:docname="multimedia-photo-manager-symbolic.svg"
   inkscape:version="1.4 (unknown)"
   xmlns:inkscape="http://www.inkscape.org/namespaces/inkscape"
   xmlns:sodipodi="http://sodipodi.sourceforge.net/DTD/sodipodi-0.dtd"
   xmlns="http://www.w3.org/2000/svg"
   xmlns:svg="http://www.w3.org/2000/svg"
   xmlns:rdf="http://www.w3.org/1999/02/22-rdf-syntax-ns#"
   xmlns:cc="http://creativecommons.org/ns#"
   xmlns:dc="http://purl.org/dc/elements/1.1/">
  <sodipodi:namedview
     id="namedview3"
     pagecolor="#ffffff"
     bordercolor="#000000"
     borderopacity="0.25"
     inkscape:showpageshadow="2"
     inkscape:pageopacity="0.0"
     inkscape:pagecheckerboard="0"
     inkscape:deskcolor="#d1d1d1"
     inkscape:zoom="20"
     inkscape:cx="2.575"
     inkscape:cy="15.125"
     inkscape:window-width="1920"
     inkscape:window-height="998"
     inkscape:window-x="0"
     inkscape:window-y="0"
     inkscape:window-maximized="1"
     inkscape:current-layer="svg3" />
  <metadata
     id="metadata1">
    <rdf:RDF>
      <cc:Work
         rdf:about="">
        <dc:format>image/svg+xml</dc:format>
        <dc:type
           rdf:resource="http://purl.org/dc/dcmitype/StillImage" />
      </cc:Work>
    </rdf:RDF>
  </metadata>
  <defs
     id="defs1">
    <style
       id="current-color-scheme"
       type="text/css">.ColorScheme-Text { color:#dedede; } .ColorScheme-Highlight { color:#5294e2; }</style>
  </defs>
  <g
     fill="#dedede"
     stroke-linecap="round"
     stroke-linejoin="round"
     id="g3"
     transform="matrix(0.925,0,0,0.92307692,0.6,0.15384618)">
    <path
       d="M 10.5,6 A 3.5,3.5 0 0 0 7,9.5 3.5,3.5 0 0 0 10.5,13 3.5,3.5 0 0 0 14,9.5 3.5,3.5 0 0 0 10.5,6 Z m 0,1 A 2.5,2.5 0 0 1 13,9.5 2.5,2.5 0 0 1 10.5,12 2.5,2.5 0 0 1 8,9.5 2.5,2.5 0 0 1 10.5,7 Z"
       stroke-width="1.4"
       id="path1" />
    <path
       d="M 2,4 C 0.892,4 0,4.892 0,6 v 7 c 0,1.108 0.892,2 2,2 h 12 c 1.108,0 2,-0.892 2,-2 V 6 C 16,4.892 15.108,4 14,4 Z m 0,1 h 12 c 0.554,0 1,0.446 1,1 v 7 c 0,0.554 -0.446,1 -1,1 H 2 C 1.446,14 1,13.554 1,13 V 6 C 1,5.446 1.446,5 2,5 Z"
       id="path2" />
    <rect
       x="7"
       y="2"
       width="6"
       height="1"
       rx="0"
       ry="0"
       id="rect2" />
    <rect
       x="2"
       y="6"
       width="2"
       height="1"
       rx="0"
       ry="0"
       id="rect3" />
  </g>
</svg>
