<?xml version="1.0" encoding="UTF-8" standalone="no"?>
<svg
   height="16"
   width="16"
   version="1.1"
   id="svg1"
   sodipodi:docname="music-app-symbolic.svg"
   inkscape:version="1.4 (unknown)"
   xmlns:inkscape="http://www.inkscape.org/namespaces/inkscape"
   xmlns:sodipodi="http://sodipodi.sourceforge.net/DTD/sodipodi-0.dtd"
   xmlns="http://www.w3.org/2000/svg"
   xmlns:svg="http://www.w3.org/2000/svg">
  <defs
     id="defs1" />
  <sodipodi:namedview
     id="namedview1"
     pagecolor="#ffffff"
     bordercolor="#000000"
     borderopacity="0.25"
     inkscape:showpageshadow="2"
     inkscape:pageopacity="0.0"
     inkscape:pagecheckerboard="0"
     inkscape:deskcolor="#d1d1d1"
     inkscape:zoom="34.250485"
     inkscape:cx="12.233404"
     inkscape:cy="8.7444018"
     inkscape:window-width="1920"
     inkscape:window-height="998"
     inkscape:window-x="0"
     inkscape:window-y="0"
     inkscape:window-maximized="1"
     inkscape:current-layer="svg1" />
  <path
     d="m 12.604032,2.0013122 a 2.2824968,2.2512071 0 0 0 -0.333383,0.012832 L 6.4078719,2.9163916 C 5.7467856,2.9821557 5.6752287,3.2869145 5.6809206,3.6662595 v 7.6350155 c -0.3358287,-0.218143 -0.6960519,-0.372927 -1.174994,-0.372927 -0.6179902,0 -0.9863442,0.232579 -1.209146,0.540549 -0.222802,0.307164 -0.296798,0.693722 -0.296798,0.992873 0,0.360896 0.1260375,0.745055 0.3968143,1.038587 C 3.6683875,13.793889 4.0847179,14 4.6831919,14 c 0.6765364,0 1.1514133,-0.186061 1.420564,-0.55017 0.2114175,-0.286313 0.3293234,-0.669671 0.3716071,-1.141245 0.00568,-0.05776 0.00812,-0.117089 0.012198,-0.177242 0.00323,-0.04813 0.00243,-0.08181 0.00323,-0.137941 h 0.00323 V 5.8156132 C 6.5119545,5.3183748 6.9689415,5.2453931 6.9689415,5.2453931 L 11.729094,4.5123669 C 12.18608,4.3744231 12.18608,4.9318116 12.18608,4.9318116 v 5.5674694 c -0.335829,-0.218144 -0.696052,-0.37293 -1.174997,-0.37293 -0.617991,0 -0.985531,0.232578 -1.2083316,0.540547 -0.223615,0.307163 -0.297611,0.693728 -0.297611,0.992873 0,0.360895 0.1260373,0.745053 0.397627,1.038585 0.2707786,0.293532 0.6871086,0.499644 1.2863926,0.499644 0.675727,0 1.1506,-0.186062 1.419751,-0.550168 0.211423,-0.286314 0.32933,-0.669667 0.371609,-1.141246 0.0063,-0.05775 0.0081,-0.11709 0.0122,-0.177241 0.0034,-0.04813 0.0026,-0.08181 0.0034,-0.137941 h 0.0034 V 2.7158922 c 0.0094,-0.5501704 -0.114141,-0.695332 -0.395488,-0.71458 z"
     style="line-height:normal;font-variant-ligatures:normal;font-variant-position:normal;font-variant-caps:normal;font-variant-numeric:normal;font-variant-alternates:normal;font-feature-settings:normal;text-indent:0;text-align:start;text-decoration-line:none;text-decoration-style:solid;text-decoration-color:#000000;text-transform:none;text-orientation:mixed;white-space:normal;shape-padding:0;isolation:auto;mix-blend-mode:normal;solid-color:#000000;solid-opacity:1;stroke-width:0.807552"
     color="#000000"
     font-weight="400"
     font-family="sans-serif"
     overflow="visible"
     fill="#dedede"
     fill-rule="evenodd"
     id="path1" />
</svg>
