<?xml version="1.0" encoding="UTF-8" standalone="no"?>
<svg
   width="16"
   height="16"
   version="1.1"
   id="svg2"
   sodipodi:docname="notes-app-symbolic.svg"
   inkscape:version="1.4 (unknown)"
   xmlns:inkscape="http://www.inkscape.org/namespaces/inkscape"
   xmlns:sodipodi="http://sodipodi.sourceforge.net/DTD/sodipodi-0.dtd"
   xmlns="http://www.w3.org/2000/svg"
   xmlns:svg="http://www.w3.org/2000/svg">
  <defs
     id="defs2" />
  <sodipodi:namedview
     id="namedview2"
     pagecolor="#ffffff"
     bordercolor="#000000"
     borderopacity="0.25"
     inkscape:showpageshadow="2"
     inkscape:pageopacity="0.0"
     inkscape:pagecheckerboard="0"
     inkscape:deskcolor="#d1d1d1"
     inkscape:zoom="48.4375"
     inkscape:cx="7.9896774"
     inkscape:cy="8"
     inkscape:window-width="1920"
     inkscape:window-height="998"
     inkscape:window-x="0"
     inkscape:window-y="0"
     inkscape:window-maximized="1"
     inkscape:current-layer="svg2" />
  <g
     fill="#dedede"
     id="g2"
     transform="matrix(0.8,0,0,0.8,2,2)">
    <path
       d="M 4.994,0 C 3.736,0.015 2.815,-0.03 2.063,0.385 1.873,0.489 1.705,0.631 1.563,0.801 L 1.5,0.889 C 1.39,1.037 1.293,1.2 1.225,1.383 1.06,1.82 1,2.343 1,3 v 9 c 0,0.658 0.06,1.179 0.225,1.617 0.164,0.439 0.461,0.789 0.838,0.996 0.752,0.415 1.673,0.372 2.931,0.387 h 5.012 c 1.258,-0.014 2.179,0.03 2.932,-0.385 0.38938,-0.22212 0.68659,-0.57606 0.838,-0.998 C 13.94,13.179 14,12.657 14,12 V 3 C 14,2.342 13.94,1.821 13.775,1.383 13.707201,1.20645 13.6146,1.04045 13.5,0.89 L 13.438,0.8 C 13.29822,0.63242 13.12871,0.49207 12.938,0.386 12.185,-0.028 11.264,0.015 10.006,0 H 4.998 Z M 2,3 h 11 v 9 c 0,0.592 -0.063,1.006 -0.16,1.266 -0.098,0.26 -0.202,0.371 -0.385,0.472 C 12.089,13.94 11.259,13.985 10,14 H 5 C 3.741,13.985 2.91,13.94 2.545,13.738 2.361,13.638 2.258,13.525 2.16,13.266 2.062,13.006 2,12.592 2,12 Z"
       color="#000000"
       font-family="sans-serif"
       font-weight="400"
       overflow="visible"
       solid-color="#000000"
       style="font-variant-ligatures:normal;font-variant-position:normal;font-variant-caps:normal;font-variant-numeric:normal;font-variant-alternates:normal;font-feature-settings:normal;text-indent:0;text-decoration-line:none;text-decoration-style:solid;text-decoration-color:#000000;text-transform:none;text-orientation:mixed;white-space:normal;shape-padding:0;isolation:auto;mix-blend-mode:normal"
       id="path1" />
    <path
       d="m 5,4 h 7 V 5 H 5 Z m 0,2 h 7 V 7 H 5 Z m 0,2 h 7 V 9 H 5 Z m 0,2 h 4 v 1 H 5 Z M 3,3 H 4 V 14 H 3 Z"
       id="path2" />
  </g>
</svg>
