<?xml version="1.0" encoding="UTF-8" standalone="no"?>
<svg
   height="16"
   width="16"
   version="1.1"
   id="svg1"
   sodipodi:docname="office-calendar-symbolic.svg"
   inkscape:version="1.4 (unknown)"
   xmlns:inkscape="http://www.inkscape.org/namespaces/inkscape"
   xmlns:sodipodi="http://sodipodi.sourceforge.net/DTD/sodipodi-0.dtd"
   xmlns="http://www.w3.org/2000/svg"
   xmlns:svg="http://www.w3.org/2000/svg">
  <defs
     id="defs1" />
  <sodipodi:namedview
     id="namedview1"
     pagecolor="#ffffff"
     bordercolor="#000000"
     borderopacity="0.25"
     inkscape:showpageshadow="2"
     inkscape:pageopacity="0.0"
     inkscape:pagecheckerboard="0"
     inkscape:deskcolor="#d1d1d1"
     inkscape:zoom="48.4375"
     inkscape:cx="7.9896774"
     inkscape:cy="8"
     inkscape:window-width="1920"
     inkscape:window-height="998"
     inkscape:window-x="0"
     inkscape:window-y="0"
     inkscape:window-maximized="1"
     inkscape:current-layer="svg1" />
  <path
     color="#dedede"
     d="m 5.7083328,2.0009027 c -0.2539166,0 -0.4583332,0.2095226 -0.4583332,0.4615038 V 2.9239102 H 6.166666 V 2.4624065 c 0,-0.255673 -0.2044164,-0.4615038 -0.4583332,-0.4615038 z M 6.166666,2.9239102 V 3.385414 a 0.45833329,0.46150378 0 1 1 -0.9166664,0 V 2.9239102 h -1.375 C 3.1132497,2.9239102 2.5,3.5414023 2.5,4.3084214 v 8.3070676 c 0,0.767018 0.6132497,1.384513 1.3749996,1.384513 h 8.2499994 c 0.76175,0 1.375001,-0.617495 1.375001,-1.384513 V 4.3084214 C 13.5,3.5414023 12.886749,2.9239102 12.124999,2.9239102 H 10.749997 V 3.385414 a 0.45833328,0.46150377 0 1 1 -0.9166648,0 V 2.9239102 Z m 3.6666662,0 H 10.749997 V 2.4624065 a 0.45833328,0.46150377 0 1 0 -0.9166648,0 z M 3.8749996,6.6159403 h 8.2499994 c 0.253916,0 0.458334,0.2058307 0.458334,0.4615036 v 5.5380451 c 0,0.255673 -0.204418,0.461503 -0.458334,0.461503 H 3.8749996 A 0.45741659,0.46058074 0 0 1 3.4166666,12.615489 V 7.0774439 c 0,-0.2556729 0.2044165,-0.4615036 0.458333,-0.4615036 z"
     fill="#dedede"
     overflow="visible"
     style="isolation:auto;mix-blend-mode:normal;stroke-width:0.919832;marker:none"
     id="path1" />
</svg>
