<?xml version="1.0" encoding="UTF-8" standalone="no"?>
<svg
   width="16"
   height="16"
   version="1.1"
   id="svg1"
   sodipodi:docname="org.gnome.Lollypop-tag-list-symbolic.svg"
   inkscape:version="1.4 (unknown)"
   xmlns:inkscape="http://www.inkscape.org/namespaces/inkscape"
   xmlns:sodipodi="http://sodipodi.sourceforge.net/DTD/sodipodi-0.dtd"
   xmlns="http://www.w3.org/2000/svg"
   xmlns:svg="http://www.w3.org/2000/svg">
  <defs
     id="defs1" />
  <sodipodi:namedview
     id="namedview1"
     pagecolor="#ffffff"
     bordercolor="#000000"
     borderopacity="0.25"
     inkscape:showpageshadow="2"
     inkscape:pageopacity="0.0"
     inkscape:pagecheckerboard="0"
     inkscape:deskcolor="#d1d1d1"
     inkscape:zoom="48.4375"
     inkscape:cx="7.9896774"
     inkscape:cy="8"
     inkscape:window-width="1920"
     inkscape:window-height="998"
     inkscape:window-x="0"
     inkscape:window-y="0"
     inkscape:window-maximized="1"
     inkscape:current-layer="svg1" />
  <path
     d="M 5.3704147,1.9995005 C 4.4268844,2.0107509 3.7361117,1.9784998 3.1720941,2.2897598 A 1.4062948,1.4062948 0 0 0 2.5435739,3.0367838 C 2.41982,3.3645445 2.3748185,3.7568068 2.3748185,4.2495727 v 3.0000955 h 0.0075 C 2.361318,7.498676 2.4048194,7.7581845 2.5173231,8.0041926 2.6695779,8.339453 2.9253361,8.6627133 3.2898478,9.0279751 l 4.0576297,4.0561309 c 0.3645122,0.36601 0.6885221,0.621017 1.0230327,0.774021 0.3352605,0.152264 0.6967725,0.183005 1.0215332,0.08929 C 9.8315569,13.819913 10.21557,13.497398 10.62508,13.111141 V 12.02359 c -0.6720194,0.65477 -1.1475344,1.080029 -1.4527945,1.167785 -0.1582548,0.045 -0.2775086,0.042 -0.4762646,-0.04873 C 8.4972643,13.052613 8.2325061,12.858359 7.9032454,12.529106 L 3.845616,8.4714577 C 3.5163553,8.1421969 3.3220989,7.8789386 3.2320958,7.6801822 3.1510934,7.5024268 3.1248425,7.2496682 3.1248425,7.2496682 V 4.2495727 c 0,-0.444014 0.047252,-0.7545247 0.120004,-0.9495305 C 3.3183486,3.1050363 3.396351,3.0217834 3.5336052,2.9460308 3.8073644,2.7945257 4.4298844,2.7607749 5.3749148,2.7495246 h 2.2500714 c 0,0 0.2512585,0.026251 0.429014,0.1072533 0.1987563,0.090003 0.4635147,0.2857594 0.7927755,0.6150201 l 3.0293463,3.0278464 h 1.111535 L 9.4032931,2.9145299 C 9.0380313,2.5507681 8.714771,2.29501 8.3795106,2.1420051 A 1.5112985,1.5112985 0 0 0 7.6249862,2.0055007 v -0.006 H 5.3719148 Z M 4.6398914,3.4995481 a 0.75002402,0.75002402 0 0 0 -0.052503,0.0015 A 0.75002402,0.75002402 0 0 0 3.8763666,4.2878232 0.75002402,0.75002402 0 0 0 4.6631418,4.9980965 0.75002402,0.75002402 0 0 0 5.3734153,4.2113211 0.75002402,0.75002402 0 0 0 4.6398914,3.4995481 Z M 12.50014,7.9996924 c -0.207757,0 -0.375011,0.167256 -0.375011,0.3750121 v 0.7500238 c 0,0.2077567 0.167254,0.3750124 0.375011,0.3750124 h 0.750032 c 0.207748,0 0.37501,-0.1672557 0.37501,-0.3750124 V 8.3747045 c 0,-0.2077561 -0.167262,-0.3750121 -0.37501,-0.3750121 z m 0,2.2500696 c -0.207757,0 -0.375011,0.167259 -0.375011,0.375016 v 0.750023 c 0,0.207759 0.167254,0.37501 0.375011,0.37501 h 0.750032 c 0.207748,0 0.37501,-0.167251 0.37501,-0.37501 v -0.750023 c 0,-0.207757 -0.167262,-0.375016 -0.37501,-0.375016 z m 0,2.250072 c -0.207757,0 -0.375011,0.167261 -0.375011,0.37502 v 0.75002 c 0,0.207758 0.167254,0.37501 0.375011,0.37501 h 0.750032 c 0.207748,0 0.37501,-0.167252 0.37501,-0.37501 v -0.75002 c 0,-0.207759 -0.167262,-0.37502 -0.37501,-0.37502 z"
     color="#000000"
     fill="#dedede"
     font-family="sans-serif"
     font-weight="400"
     overflow="visible"
     solid-color="#000000"
     style="font-variant-ligatures:normal;font-variant-position:normal;font-variant-caps:normal;font-variant-numeric:normal;font-variant-alternates:normal;font-feature-settings:normal;text-indent:0;text-decoration-line:none;text-decoration-style:solid;text-decoration-color:#000000;text-transform:none;text-orientation:mixed;white-space:normal;shape-padding:0;isolation:auto;mix-blend-mode:normal;stroke-width:0.75002"
     id="path1" />
</svg>
