<?xml version="1.0" encoding="UTF-8" standalone="no"?>
<svg
   width="16px"
   height="16px"
   version="1.1"
   id="svg1"
   sodipodi:docname="org.gnome.Settings-multitasking-symbolic.svg"
   inkscape:version="1.4 (unknown)"
   xmlns:inkscape="http://www.inkscape.org/namespaces/inkscape"
   xmlns:sodipodi="http://sodipodi.sourceforge.net/DTD/sodipodi-0.dtd"
   xmlns="http://www.w3.org/2000/svg"
   xmlns:svg="http://www.w3.org/2000/svg">
  <defs
     id="defs1" />
  <sodipodi:namedview
     id="namedview1"
     pagecolor="#ffffff"
     bordercolor="#000000"
     borderopacity="0.25"
     inkscape:showpageshadow="2"
     inkscape:pageopacity="0.0"
     inkscape:pagecheckerboard="0"
     inkscape:deskcolor="#d1d1d1"
     inkscape:zoom="48.4375"
     inkscape:cx="7.9896774"
     inkscape:cy="8"
     inkscape:window-width="1920"
     inkscape:window-height="998"
     inkscape:window-x="0"
     inkscape:window-y="0"
     inkscape:window-maximized="1"
     inkscape:current-layer="svg1" />
  <path
     d="M 4.575002,2 C 4.1006384,2 3.7187505,2.382286 3.7187505,2.857142 V 3.714286 H 2.0062503 C 1.5318877,3.714286 1.15,4.096572 1.15,4.571428 v 6.857152 c 0,0.47484 0.3818877,0.85714 0.8562503,0.85714 h 1.7125002 v 0.85714 C 3.7187505,13.61772 4.1006384,14 4.575002,14 h 6.850008 c 0.474366,0 0.856247,-0.38228 0.856247,-0.85714 v -0.85714 h 1.712495 c 0.474366,0 0.856248,-0.3823 0.856248,-0.85714 V 4.571428 c 0,-0.474856 -0.381882,-0.857142 -0.856248,-0.857142 H 12.281257 V 2.857142 C 12.281257,2.382286 11.899376,2 11.42501,2 Z m 0,0.857142 H 11.42501 V 13.14286 H 4.575002 Z M 2.0062503,4.571428 H 3.7187505 V 11.42858 H 2.0062503 Z m 10.2750067,0 h 1.712495 v 6.857152 h -1.712495 z"
     fill="#dedede"
     id="path1"
     style="stroke-width:0.856694" />
</svg>
