<?xml version="1.0" encoding="UTF-8" standalone="no"?>
<svg
   width="16"
   height="16"
   version="1.1"
   id="svg1"
   sodipodi:docname="org.gnome.Lollypop-artists-list-symbolic.svg"
   inkscape:version="1.4 (unknown)"
   xmlns:inkscape="http://www.inkscape.org/namespaces/inkscape"
   xmlns:sodipodi="http://sodipodi.sourceforge.net/DTD/sodipodi-0.dtd"
   xmlns="http://www.w3.org/2000/svg"
   xmlns:svg="http://www.w3.org/2000/svg">
  <defs
     id="defs1" />
  <sodipodi:namedview
     id="namedview1"
     pagecolor="#ffffff"
     bordercolor="#000000"
     borderopacity="0.25"
     inkscape:showpageshadow="2"
     inkscape:pageopacity="0.0"
     inkscape:pagecheckerboard="0"
     inkscape:deskcolor="#d1d1d1"
     inkscape:zoom="48.4375"
     inkscape:cx="7.9896774"
     inkscape:cy="8"
     inkscape:window-width="1920"
     inkscape:window-height="998"
     inkscape:window-x="0"
     inkscape:window-y="0"
     inkscape:window-maximized="1"
     inkscape:current-layer="svg1" />
  <path
     d="m 7.9999999,2.0000922 c -0.4231978,0 -0.8255956,0.0784 -1.1951934,0.2359986 -0.367998,0.1503995 -0.6943961,0.3703981 -0.9655947,0.6559966 l -0.00158,0.00322 -0.00158,0.00158 C 5.5720132,3.1840855 5.3672142,3.5288838 5.223215,3.9208814 A 3.6407797,3.6407797 0 0 0 5.0080166,5.2000743 c 0,0.4639974 0.069599,0.8975951 0.2159987,1.2895928 0.1439993,0.3855977 0.3487982,0.7263962 0.6127965,1.0127942 l 0.00322,0.00322 c 0.2703953,0.2847951 0.5943933,0.508794 0.9607915,0.6655929 l 0.00638,0.00322 c 0.3679982,0.1511927 0.7703959,0.2255923 1.1927936,0.2255923 0.4223976,0 0.8223951,-0.0744 1.1919932,-0.2247988 v -0.00158 A 2.7759846,2.7759846 0 0 0 10.14399,7.506449 c 0.272,-0.2863996 0.479998,-0.6287976 0.624798,-1.0159956 0.147197,-0.3919978 0.216797,-0.8247955 0.216797,-1.2903928 h 0.0061 c 0,-0.4583975 -0.0696,-0.8871949 -0.215998,-1.2783929 A 2.9535836,2.9535836 0 0 0 10.151989,2.8952871 2.6655851,2.6655851 0 0 0 9.1951929,2.2360908 3.0247831,3.0247831 0 0 0 7.9999999,2.0000922 Z m 0,0.7999955 c 0.3247982,0 0.6159962,0.058401 0.8815946,0.1719989 l 0.00802,0.00322 0.00802,0.00158 c 0.26397,0.1079997 0.4855688,0.2607984 0.6695678,0.4607977 v 0.00802 c 0.1919958,0.2023938 0.3447955,0.4511926 0.4551947,0.751991 v 0.00398 c 0.103999,0.2807985 0.155198,0.6023966 0.159197,0.9615946 v 0.036802 c 0,0.3855978 -0.0576,0.7199958 -0.165599,1.0095945 v 0.00158 A 2.1663878,2.1663878 0 0 1 9.559991,6.9560565 l -0.00802,0.00322 v 0.00321 C 9.365592,7.1648633 9.1407934,7.3224626 8.8735949,7.4376617 a 2.315187,2.315187 0 0 1 -0.873595,0.1623994 c -0.3279981,0 -0.6215967,-0.057599 -0.8879954,-0.165599 h -0.0024 C 6.849606,7.3224626 6.6296075,7.1648633 6.4392085,6.9688645 l -0.0408,-0.056001 -0.00638,-0.0048 A 2.2383873,2.2383873 0 0 1 5.9736112,6.2112687 2.8759838,2.8759838 0 0 1 5.807212,5.2000743 c 0,-0.3767978 0.056798,-0.7087962 0.1663992,-0.9999944 l 0.00158,-0.00158 v -0.00322 C 6.0856133,3.8944815 6.2344124,3.648083 6.4184113,3.4464841 l 0.0096,-0.00802 C 6.6200076,3.2384855 6.8440062,3.084086 7.1080047,2.9760867 l 0.0048,-0.00322 0.00638,-0.00158 c 0.264014,-0.1119995 0.5560122,-0.171199 0.8808107,-0.171199 z m 4.3999751,4.7999734 c -0.2216,0 -0.399997,0.1783987 -0.399997,0.3999977 v 0.7999953 c 0,0.2215989 0.178397,0.3999979 0.399997,0.3999979 h 0.799995 c 0.221601,0 0.399999,-0.178399 0.399999,-0.3999979 V 8.0000588 c 0,-0.221599 -0.178398,-0.3999977 -0.399999,-0.3999977 z m 0,2.3999849 c -0.2216,0 -0.399997,0.178402 -0.399997,0.399999 v 0.799995 c 0,0.221602 0.178397,0.399996 0.399997,0.399996 h 0.799995 c 0.221601,0 0.399999,-0.178394 0.399999,-0.399996 v -0.799995 c 0,-0.221597 -0.178398,-0.399999 -0.399999,-0.399999 z m -4.3759753,0.01998 c -2.3055872,0 -3.5439804,0.212799 -4.463175,0.906395 -0.4599973,0.347213 -0.763196,0.820011 -0.9343946,1.370409 -0.1711994,0.550405 -0.2247993,0.969602 -0.2263991,1.701598 l 0.7999954,0.0015 c 0.00159,-0.691977 0.057599,-1.039976 0.1903992,-1.467174 0.1327989,-0.427185 0.3295979,-0.722384 0.6535963,-0.967183 0.6479964,-0.487997 1.7295903,-0.746397 3.9791775,-0.746397 0.6159969,0 1.125594,0.024 1.5767913,0.0624 v -0.811056 a 21.971076,21.971076 0 0 0 -1.575991,-0.0504 z m 4.3759753,2.379989 c -0.2216,0 -0.399997,0.178397 -0.399997,0.399994 v 0.8 C 11.999978,13.821603 12.178375,14 12.399975,14 h 0.799995 c 0.221601,0 0.399999,-0.178397 0.399999,-0.399993 v -0.799984 c 0,-0.221598 -0.178398,-0.399996 -0.399999,-0.399996 z"
     fill="#dedede"
     id="path1"
     style="stroke-width:0.799996" />
</svg>
