<?xml version="1.0" encoding="UTF-8" standalone="no"?>
<svg
   width="16"
   height="16"
   version="1.1"
   id="svg1"
   sodipodi:docname="org.gnome.Lollypop-unplayed-albums-symbolic.svg"
   inkscape:version="1.4 (unknown)"
   xmlns:inkscape="http://www.inkscape.org/namespaces/inkscape"
   xmlns:sodipodi="http://sodipodi.sourceforge.net/DTD/sodipodi-0.dtd"
   xmlns="http://www.w3.org/2000/svg"
   xmlns:svg="http://www.w3.org/2000/svg">
  <defs
     id="defs1" />
  <sodipodi:namedview
     id="namedview1"
     pagecolor="#ffffff"
     bordercolor="#000000"
     borderopacity="0.25"
     inkscape:showpageshadow="2"
     inkscape:pageopacity="0.0"
     inkscape:pagecheckerboard="0"
     inkscape:deskcolor="#d1d1d1"
     inkscape:zoom="48.4375"
     inkscape:cx="7.9896774"
     inkscape:cy="8"
     inkscape:window-width="1920"
     inkscape:window-height="998"
     inkscape:window-x="0"
     inkscape:window-y="0"
     inkscape:window-maximized="1"
     inkscape:current-layer="svg1" />
  <path
     d="m 8.1042543,2.0009479 a 5.2502432,5.2502432 0 0 0 -0.3697672,0.006 h -0.00449 a 5.2502432,5.2502432 0 0 0 -4.9742186,4.9862312 5.2502432,5.2502432 0 0 0 0.0015,0.525024 5.2502432,5.2502432 0 0 0 0.048002,0.4815222 H 3.5687945 A 4.5002082,4.5002082 0 0 1 3.5057915,7.479952 4.5002082,4.5002082 0 0 1 7.7697389,2.7554829 h 0.00298 a 4.5002082,4.5002082 0 0 1 4.7215311,4.2654478 4.5002082,4.5002082 0 0 1 -0.06,0.9787949 h 0.756034 A 5.2502432,5.2502432 0 0 0 13.242744,6.9834289 5.2502432,5.2502432 0 0 0 8.1050044,2.0009479 Z M 7.9999995,4.9995868 A 2.250104,2.250104 0 0 0 5.749895,7.2496913 2.250104,2.250104 0 0 0 5.8819016,7.9997256 h 1.281809 A 1.1250522,1.1250522 0 0 1 6.8749473,7.2496913 1.1250522,1.1250522 0 0 1 7.9999995,6.124639 1.1250522,1.1250522 0 0 1 9.1250513,7.2496913 1.1250522,1.1250522 0 0 1 8.8362883,7.9997256 H 10.119595 A 2.250104,2.250104 0 0 0 10.250105,7.2496913 2.250104,2.250104 0 0 0 7.9999995,4.9995868 Z m -6.000278,3.7501739 v 2.2546063 c 0.011251,0.943543 -0.022501,1.634324 0.2887634,2.199101 0.1552572,0.282011 0.4200194,0.504771 0.748535,0.627781 C 3.3655349,13.954999 3.7570526,14 4.2498255,14 h 7.5003475 c 0.493527,0 0.884294,-0.045 1.212811,-0.168751 0.329262,-0.123009 0.591772,-0.34577 0.747032,-0.628532 0.311265,-0.564026 0.279017,-1.254807 0.290263,-2.19835 V 8.7497607 Z m 0.732784,0.7620352 H 13.23449 c -0.0187,0.9832971 0.0039,1.9463391 -0.05024,2.9048841 -0.01953,0.466523 -0.444023,0.819789 -0.900791,0.792036 -2.7053765,0.05471 -5.4400035,0.039 -8.1461288,0.018 -0.4875225,0.03 -1.1648035,-0.06601 -1.2863093,-0.639028 -0.1222649,-0.67878 -0.072763,-1.380062 -0.104264,-2.068593 L 2.7317554,9.5117959 Z m 3.7674242,0.7380311 v 0.750038 H 9.500069 v -0.750038 z"
     fill="#dedede"
     id="path1"
     style="stroke-width:0.750036" />
</svg>
