<?xml version="1.0" encoding="UTF-8" standalone="no"?>
<svg
   width="16"
   height="16"
   version="1.1"
   id="svg1"
   sodipodi:docname="org.gnome.Fractal-symbolic.svg"
   inkscape:version="1.4 (unknown)"
   xmlns:inkscape="http://www.inkscape.org/namespaces/inkscape"
   xmlns:sodipodi="http://sodipodi.sourceforge.net/DTD/sodipodi-0.dtd"
   xmlns="http://www.w3.org/2000/svg"
   xmlns:svg="http://www.w3.org/2000/svg">
  <defs
     id="defs1" />
  <sodipodi:namedview
     id="namedview1"
     pagecolor="#ffffff"
     bordercolor="#000000"
     borderopacity="0.25"
     inkscape:showpageshadow="2"
     inkscape:pageopacity="0.0"
     inkscape:pagecheckerboard="0"
     inkscape:deskcolor="#d1d1d1"
     inkscape:zoom="48.4375"
     inkscape:cx="7.9896774"
     inkscape:cy="8"
     inkscape:window-width="1920"
     inkscape:window-height="998"
     inkscape:window-x="0"
     inkscape:window-y="0"
     inkscape:window-maximized="1"
     inkscape:current-layer="svg1" />
  <path
     d="M 2.862501,2 C 1.9137753,2 1.15,2.764572 1.15,3.714286 v 6.857138 c 0,0.949716 0.7637753,1.714296 1.712501,1.714296 H 4.2321594 L 5.9446604,14 7.6571594,12.28572 h 5.4803456 c 0.948731,0 1.712495,-0.76458 1.712495,-1.714296 V 3.714286 C 14.85,2.764572 14.086236,2 13.137505,2 Z m 3.2510973,0.857142 h 7.0239067 c 0.474366,0 0.856247,0.382286 0.856247,0.857144 v 6.857138 c 0,0.474856 -0.381881,0.857156 -0.856247,0.857156 H 11.950143 C 13.396016,9.5786 13.650151,6.919486 11.985262,5.055286 11.231767,4.211 10.117094,3.707086 9.0168141,3.695942 8.1999516,3.6882278 7.0478664,3.952272 6.3962596,4.551414 5.3773217,5.488272 5.0765212,7.166642 6.0852019,8.227786 6.4405455,8.600642 7.1502058,8.829242 7.8394873,8.845528 8.7813616,8.7940996 9.3961507,8.188168 9.4817755,7.414186 9.4843433,6.264758 8.5608774,6.234158 8.143884,6.583828 7.9786283,6.762972 7.9351556,7.072854 8.1355212,7.243426 c 0.1053189,0.090858 0.2871094,0.113306 0.3812972,-0.00663 0.047091,-0.05914 0.060132,-0.1587344 -0.00836,-0.2075915 -0.031686,-0.021426 -0.082241,-0.02596 -0.1053614,0.01004 -0.00599,0.01372 -0.00881,0.035774 0.00836,0.045194 0.00679,0.0034 0.020072,0.00349 0.020072,-0.00331 v -0.00506 c -0.00941,-0.0026 0,-0.00581 0,-0.00662 0.00599,-0.0026 0.015046,0.00412 0.015046,0.010039 0.0042,0.018 -0.013838,0.035082 -0.030105,0.038502 C 8.373655,7.1273795 8.344756,7.0878525 8.336201,7.0509945 8.3216466,6.9686475 8.4013306,6.9063419 8.4766783,6.8969136 8.6282344,6.8797706 8.7406692,7.0242419 8.7509445,7.1630985 8.771494,7.4253845 8.5208004,7.6123362 8.279338,7.6234785 7.8512133,7.6423275 7.3831852,7.2343534 7.3746241,6.8366388 7.3626365,6.1689248 7.7761535,5.4501248 8.6255202,5.4286958 10.20359,5.4089818 10.592751,6.6831248 10.568776,7.6268388 10.531957,9.0891092 9.6655217,10.504683 7.4598207,10.57154 5.382556,10.484966 3.6074642,8.2630802 3.7187762,6.2942232 3.7998037,4.8537942 4.8449164,3.6688802 6.1136239,2.8572512 Z"
     fill="#dedede"
     stroke-linecap="round"
     stroke-width="1.71331"
     id="path1" />
</svg>
