<?xml version="1.0" encoding="UTF-8" standalone="no"?>
<svg
   width="16"
   height="16"
   version="1.1"
   viewBox="0 0 16 16"
   id="svg4"
   sodipodi:docname="org.gnome.Lollypop-spotify-symbolic.svg"
   inkscape:version="1.4 (unknown)"
   xmlns:inkscape="http://www.inkscape.org/namespaces/inkscape"
   xmlns:sodipodi="http://sodipodi.sourceforge.net/DTD/sodipodi-0.dtd"
   xmlns="http://www.w3.org/2000/svg"
   xmlns:svg="http://www.w3.org/2000/svg">
  <defs
     id="defs4" />
  <sodipodi:namedview
     id="namedview4"
     pagecolor="#ffffff"
     bordercolor="#000000"
     borderopacity="0.25"
     inkscape:showpageshadow="2"
     inkscape:pageopacity="0.0"
     inkscape:pagecheckerboard="0"
     inkscape:deskcolor="#d1d1d1"
     inkscape:zoom="24.21875"
     inkscape:cx="18.415484"
     inkscape:cy="9.8064516"
     inkscape:window-width="1920"
     inkscape:window-height="998"
     inkscape:window-x="0"
     inkscape:window-y="0"
     inkscape:window-maximized="1"
     inkscape:current-layer="svg4" />
  <g
     id="g4"
     transform="matrix(0.75,0,0,0.75,2,2)">
    <path
       d="M 12.612,6.1426 C 10.839,5.25835 8.9321,4.8106 6.9398,4.8106 c -1.0372,0 -2.07,0.12601 -3.0724,0.37464 -0.33188,0.082121 -0.53325,0.48264 -0.45113,0.81338 0.082121,0.33075 0.41736,0.53325 0.74924,0.45113 0.9045,-0.22388 1.8383,-0.33751 2.7754,-0.33751 1.7977,0 3.519,0.40388 5.1187,1.2015 0.08775,0.043892 0.18226,0.065236 0.2745,0.065236 0.22838,0 0.4455,-0.19012 0.55577,-0.40724 0.15189,-0.30491 0.02814,-0.67728 -0.27787,-0.82917 z"
       fill="#dedede"
       stroke-width="0.035397"
       id="path1" />
    <path
       d="m 6.9403,10.043 c -0.83586,0 -1.6616,0.12262 -2.4547,0.36901 -0.24526,0.07313 -0.38137,0.59286 -0.30601,0.83926 0.07536,0.24413 0.33524,0.3825 0.58051,0.30487 0.70312,-0.21826 1.4377,-0.32848 2.1802,-0.32848 1.2397,0 2.4671,0.31386 3.5482,0.91239 l 0.22388,0.05738 c 0.16424,0 0.32289,-0.08775 0.40501,-0.24187 0.12261,-0.22389 0.04389,-0.76726 -0.18226,-0.88988 -1.2173,-0.66833 -2.5988,-1.0227 -3.9949,-1.0227 z"
       fill="#dedede"
       stroke-width="0.035397"
       id="path2" />
    <path
       d="M 11.745,8.6851 C 10.2713,7.9201 8.6108,7.514 6.9413,7.514 6.0098,7.514 5.0828,7.63775 4.1884,7.88188 3.90041,7.960638 3.73054,8.45226 3.80926,8.74025 3.888018,9.02824 4.185,9.19701 4.47412,9.11939 c 0.801,-0.21826 1.6324,-0.32962 2.4671,-0.32962 1.5187,0 2.9655,0.35213 4.3065,1.0485 0.07876,0.041627 0.16424,0.063006 0.24863,0.063006 0.19688,0 0.38476,-0.30374 0.4815,-0.48826 0.13504,-0.26434 0.03154,-0.59173 -0.23284,-0.72786 z"
       fill="#dedede"
       stroke-width="0.035397"
       id="path3" />
    <path
       d="M 8,0 A 8,8 0 0 0 0,8 8,8 0 0 0 8,16 8,8 0 0 0 16,8 8,8 0 0 0 8,0 Z M 8,1 A 7,7 0 0 1 15,8 7,7 0 0 1 8,15 7,7 0 0 1 1,8 7,7 0 0 1 8,1 Z"
       fill="#dedede"
       stroke-linecap="round"
       stroke-linejoin="round"
       stroke-width="2"
       style="paint-order:stroke fill markers"
       id="path4" />
  </g>
</svg>
