<?xml version="1.0" encoding="UTF-8" standalone="no"?>
<svg
   width="16"
   height="16"
   version="1.1"
   id="svg1"
   sodipodi:docname="org.gnome.Lollypop-suggestions-symbolic.svg"
   inkscape:version="1.4 (unknown)"
   xmlns:inkscape="http://www.inkscape.org/namespaces/inkscape"
   xmlns:sodipodi="http://sodipodi.sourceforge.net/DTD/sodipodi-0.dtd"
   xmlns="http://www.w3.org/2000/svg"
   xmlns:svg="http://www.w3.org/2000/svg">
  <defs
     id="defs1" />
  <sodipodi:namedview
     id="namedview1"
     pagecolor="#ffffff"
     bordercolor="#000000"
     borderopacity="0.25"
     inkscape:showpageshadow="2"
     inkscape:pageopacity="0.0"
     inkscape:pagecheckerboard="0"
     inkscape:deskcolor="#d1d1d1"
     inkscape:zoom="48.4375"
     inkscape:cx="7.9896774"
     inkscape:cy="8"
     inkscape:window-width="1920"
     inkscape:window-height="998"
     inkscape:window-x="0"
     inkscape:window-y="0"
     inkscape:window-maximized="1"
     inkscape:current-layer="svg1" />
  <path
     d="M 8,2 A 4.5,4.5 0 0 0 3.5,6.5 4.5007501,4.5007501 0 0 0 5,9.8472487 V 10.811 c 0,0.312 0.020249,0.5775 0.111,0.836249 0.0915,0.258751 0.2917501,0.505502 0.5332499,0.637502 0.4845,0.263249 0.9495002,0.21075 1.6057501,0.21075 h 1.5 c 0.6562501,0 1.1212484,0.05249 1.605,-0.21075 0.242248,-0.132 0.442501,-0.378751 0.534,-0.637502 C 10.979751,11.3885 11,11.122249 11,10.811 V 9.8487513 A 4.5,4.5 0 0 0 12.5,6.5 4.5,4.5 0 0 0 8,2 Z M 8,2.75 A 3.75,3.75 0 0 1 11.75,6.5 3.7485,3.7485 0 0 1 10.994,8.75 H 11 L 10.25,9.5 v 1.309501 c 0,0.18225 -0.03,0.358499 -0.123,0.515999 A 0.8025,0.8025 0 0 1 9.724249,11.651751 C 9.4212501,11.765 9.125,11.7455 8.75,11.7455 h -1.5 c -0.375,0 -0.6727499,0.01951 -0.975,-0.09375 A 0.79875,0.79875 0 0 1 5.873,11.3255 C 5.7792501,11.168 5.774,10.990249 5.75,10.809501 V 9.5 L 5,8.75 H 5.006 A 3.75,3.75 0 0 1 4.25,6.5 3.75,3.75 0 0 1 8,2.75 Z M 5.75,13.25 V 14 h 4.5 v -0.75 z"
     color="#000000"
     fill="#dedede"
     overflow="visible"
     id="path1"
     style="stroke-width:0.75" />
</svg>
