<?xml version="1.0" encoding="UTF-8" standalone="no"?>
<svg
   width="16"
   height="16"
   version="1.1"
   id="svg1"
   sodipodi:docname="org.gnome.Lollypop-tag-symbolic.svg"
   inkscape:version="1.4 (unknown)"
   xmlns:inkscape="http://www.inkscape.org/namespaces/inkscape"
   xmlns:sodipodi="http://sodipodi.sourceforge.net/DTD/sodipodi-0.dtd"
   xmlns="http://www.w3.org/2000/svg"
   xmlns:svg="http://www.w3.org/2000/svg">
  <defs
     id="defs1" />
  <sodipodi:namedview
     id="namedview1"
     pagecolor="#ffffff"
     bordercolor="#000000"
     borderopacity="0.25"
     inkscape:showpageshadow="2"
     inkscape:pageopacity="0.0"
     inkscape:pagecheckerboard="0"
     inkscape:deskcolor="#d1d1d1"
     inkscape:zoom="48.4375"
     inkscape:cx="7.9896774"
     inkscape:cy="8"
     inkscape:window-width="1920"
     inkscape:window-height="998"
     inkscape:window-x="0"
     inkscape:window-y="0"
     inkscape:window-maximized="1"
     inkscape:current-layer="svg1" />
  <g
     id="g1"
     transform="matrix(0.75002454,0,0,0.75002454,1.99981,1.9995)">
    <path
       d="M 3.9948,0 C 2.7368,0.015 1.8158,-0.028 1.0638,0.387 A 1.875,1.875 0 0 0 0.2258,1.383 C 0.0608,1.82 8e-4,2.343 8e-4,3 v 4 h 0.01 c -0.028,0.332 0.03,0.678 0.18,1.006 0.203,0.447 0.544,0.878 1.03,1.365 l 5.41,5.408 c 0.486,0.488 0.918,0.828 1.364,1.032 0.447,0.203 0.929,0.244 1.362,0.119 0.865,-0.25 1.514,-0.966 2.457,-1.887 l 0.002,-0.004 2.228,-2.227 V 11.81 c 0.921,-0.943 1.635,-1.591 1.885,-2.457 A 1.966,1.966 0 0 0 15.8118,7.994 C 15.6088,7.547 15.2678,7.116 14.7808,6.629 L 9.3708,1.22 C 8.8848,0.733 8.4538,0.392 8.0068,0.189 A 2.015,2.015 0 0 0 7.0008,0.007 V 0 h -3.004 z m 0.006,1 h 3 c 0,0 0.335,0.035 0.572,0.143 0.265,0.12 0.618,0.381 1.057,0.82 l 5.41,5.408 c 0.439,0.439 0.698,0.792 0.818,1.057 0.12,0.265 0.126,0.424 0.065,0.635 -0.122,0.42 -0.704,1.07 -1.625,2.013 l -0.004,0.004 -2.219,2.217 c -0.943,0.921 -1.59,1.503 -2.012,1.625 -0.21,0.06 -0.37,0.056 -0.634,-0.064 -0.265,-0.12 -0.618,-0.38 -1.057,-0.819 l -5.41,-5.41 C 1.5228,8.19 1.2638,7.839 1.1438,7.574 1.0358,7.337 1.0008,7 1.0008,7 V 3 c 0,-0.592 0.063,-1.006 0.16,-1.266 0.098,-0.26 0.202,-0.371 0.385,-0.472 C 1.9108,1.06 2.7408,1.015 4.0008,1 Z m -1.05,1.002 a 1,1 0 0 0 -0.948,1.049 1,1 0 0 0 1.049,0.947 1,1 0 0 0 0.947,-1.049 1,1 0 0 0 -1.049,-0.947 z"
       color="#000000"
       fill="#dedede"
       font-family="sans-serif"
       font-weight="400"
       overflow="visible"
       solid-color="#000000"
       style="font-variant-ligatures:normal;font-variant-position:normal;font-variant-caps:normal;font-variant-numeric:normal;font-variant-alternates:normal;font-feature-settings:normal;text-indent:0;text-decoration-line:none;text-decoration-style:solid;text-decoration-color:#000000;text-transform:none;text-orientation:mixed;white-space:normal;shape-padding:0;isolation:auto;mix-blend-mode:normal"
       id="path1" />
  </g>
</svg>
