<?xml version="1.0" encoding="UTF-8" standalone="no"?>
<svg
   width="16"
   height="16"
   version="1.1"
   id="svg2"
   sodipodi:docname="org.gnome.Lollypop-symbolic.svg"
   inkscape:version="1.4 (unknown)"
   xmlns:inkscape="http://www.inkscape.org/namespaces/inkscape"
   xmlns:sodipodi="http://sodipodi.sourceforge.net/DTD/sodipodi-0.dtd"
   xmlns="http://www.w3.org/2000/svg"
   xmlns:svg="http://www.w3.org/2000/svg">
  <defs
     id="defs2" />
  <sodipodi:namedview
     id="namedview2"
     pagecolor="#ffffff"
     bordercolor="#000000"
     borderopacity="0.25"
     inkscape:showpageshadow="2"
     inkscape:pageopacity="0.0"
     inkscape:pagecheckerboard="0"
     inkscape:deskcolor="#d1d1d1"
     inkscape:zoom="24.21875"
     inkscape:cx="7.9277419"
     inkscape:cy="7.5354839"
     inkscape:window-width="1920"
     inkscape:window-height="998"
     inkscape:window-x="0"
     inkscape:window-y="0"
     inkscape:window-maximized="1"
     inkscape:current-layer="svg2" />
  <g
     id="g2"
     transform="matrix(0.75,0,0,0.75,2.000272,2)">
    <path
       d="M 5.7949,0.3125 A 8,8 0 0 0 2.7207,2.002 0.5,0.5 0 0 1 2.84765,2.26958 C 2.881444,2.50135 2.96,2.7619 3.0664,3.03325 A 7,7 0 0 1 5.3047,1.54105 C 5.43071,1.11428 5.58119,0.69648 5.79493,0.31255 Z m 4.7598,0.11328 a 0.5,0.5 0 0 1 -0.16992,0.25 C 10.20115,0.82141 10.01752,1.01873 9.83595,1.24609 a 7,7 0 0 1 2.4023,1.1836 c 0.4174,-0.10219 0.83986,-0.18026 1.2637,-0.19336 h 0.03516 a 8,8 0 0 0 -2.9824,-1.8105 z M 7.9981,0.499999 a 7.504,7.504 0 0 0 -1.1816,0.11914 c -0.10379,0.16461 -0.19002,0.34788 -0.27148,0.5332 a 7,7 0 0 1 1.3613,-0.15234 7,7 0 0 1 0.09375,0 7,7 0 0 1 0.8125,0.048828 9.026,9.026 0 0 1 0.30664,-0.39648 c -0.372,-0.058 -0.73919,-0.15034 -1.1172,-0.15234 H 7.9981 Z m 5.5352,2.7363 c -0.11903,0.00375 -0.24075,0.030861 -0.36133,0.048828 a 7,7 0 0 1 1.2559,1.9453 9.208,9.208 0 0 1 0.40039,0.054687 c -0.29,-0.722 -0.5928,-1.442 -1.0918,-2.043 -0.068,-10e-4 -0.13512,-0.00786 -0.20312,-0.00586 z m -11.303,0.21289 c -0.495,0.634 -0.98117,1.2812 -1.2012,1.9102 0.088081,0.1625 0.20049,0.31801 0.31445,0.47266 a 7,7 0 0 1 1.041,-2.0117 9.204,9.204 0 0 1 -0.1543,-0.37109 z m -1.9863,2.6328 a 8,8 0 0 0 -0.23828,1.6445 8,8 0 0 0 -0.0058594,0.21484 8,8 0 0 0 0,0.023438 8,8 0 0 0 0,0.035156 8,8 0 0 0 0.0039062,0.23828 8,8 0 0 0 0.16016,1.3359 0.5,0.5 0 0 1 0.29492,0.023437 c 0.21928,0.087121 0.48509,0.14765 0.77539,0.19141 a 7,7 0 0 1 -0.23438,-1.7891 7,7 0 0 1 0.056641,-0.89258 c -0.30401,-0.31941 -0.58729,-0.65526 -0.8125,-1.0254 z m 14.523,0.13086 a 7,7 0 0 1 0.23242,1.7871 7,7 0 0 1 -0.05664,0.88672 c 0.30438,0.31837 0.58911,0.65437 0.81445,1.0254 a 8,8 0 0 0 0.22461,-1.4082 8,8 0 0 0 0.01758,-0.45508 8,8 0 0 0 0,-0.019531 8,8 0 0 0 0,-0.029297 8,8 0 0 0 -0.0039,-0.23828 8,8 0 0 0 -0.16211,-1.3398 0.5,0.5 0 0 1 -0.27539,-0.015625 C 15.30873,6.317562 15.04192,6.257546 14.767,6.212896 Z m -0.10938,3.9434 a 7,7 0 0 1 -1.043,2.0234 9.227,9.227 0 0 1 0.15234,0.36523 c 0.469,-0.6 0.93022,-1.2069 1.1992,-1.9219 -0.08736,-0.1604 -0.19605,-0.31441 -0.30859,-0.4668 z m -13.48,0.56836 c 0.284,0.706 0.58241,1.408 1.0664,1.998 0.1823,0.0045 0.37034,-0.014 0.55859,-0.03516 a 7,7 0 0 1 -1.2285,-1.9121 9.229,9.229 0 0 1 -0.39648,-0.05078 z m 11.756,2.2402 a 7,7 0 0 1 -2.2324,1.4922 c -0.12426,0.42611 -0.27379,0.84338 -0.48438,1.2266 a 8,8 0 0 0 3.0645,-1.6875 0.5,0.5 0 0 1 -0.12695,-0.26562 c -0.03386,-0.23222 -0.11373,-0.4937 -0.2207,-0.76562 z m -9.1719,0.60547 c -0.42947,0.10504 -0.86328,0.18386 -1.2988,0.19336 a 8,8 0 0 0 2.9844,1.8105 0.5,0.5 0 0 1 0.16992,-0.25 c 0.18315,-0.14514 0.36596,-0.34383 0.54688,-0.57031 a 7,7 0 0 1 -2.4023,-1.1836 z m 5.7012,1.2754 a 7,7 0 0 1 -1.4629,0.1543 7,7 0 0 1 -0.81055,-0.04687 9.02,9.02 0 0 1 -0.30664,0.39453 c 0.373,0.058 0.74014,0.15034 1.1191,0.15234 0.4,-0.002 0.79741,-0.05509 1.1914,-0.12109 0.10293,-0.16494 0.18877,-0.34729 0.26953,-0.5332 z"
       fill="#dedede"
       opacity="0.35"
       id="path1" />
    <path
       d="M 8,0 A 7.98,7.98 0 0 0 6.482,0.152 C 5.705,1.252 5.429,2.828 5.462,4.195 A 4.579,4.579 0 0 1 8.068,3.428 C 8.531,2.22 9.245,0.94 10.074,0.283 A 8,8 0 0 0 8,0 Z M 2.354,2.342 C 1.43,3.266 0.752,4.372 0.437,5.389 1.002,6.597 2.227,7.639 3.426,8.293 A 4.578,4.578 0 0 1 4.074,5.654 C 3.26,4.65 2.506,3.39 2.354,2.342 Z m 11.164,0.394 c -1.2,0.038 -2.477,0.54 -3.498,1.166 a 4.579,4.579 0 0 1 1.964,1.868 c 1.137,-0.186 2.554,-0.258 3.743,0.166 A 8,8 0 0 0 14.025,2.75 H 14.023 A 4.293,4.293 0 0 0 13.518,2.736 Z M 6.305,5.01 C 6.145,5.026 6,5.178 6,5.328 v 5.344 c 0,0.252 0.258,0.41 0.465,0.283 l 4.38,-2.672 a 0.336,0.336 0 0 0 0,-0.566 L 6.465,5.045 A 0.265,0.265 0 0 0 6.305,5.01 Z m 6.258,2.69 a 4.579,4.579 0 0 1 0.01,0.303 4.579,4.579 0 0 1 -0.65,2.342 c 0.817,1.005 1.572,2.264 1.725,3.312 a 8,8 0 0 0 1.91,-3.064 C 14.993,9.38 13.765,8.354 12.563,7.7 Z m -12.29,2.363 a 8,8 0 0 0 1.702,3.187 8,8 0 0 0 0.002,0 c 1.328,0.115 2.825,-0.432 3.99,-1.143 A 4.579,4.579 0 0 1 3.998,10.23 C 2.721,10.433 1.256,10.453 0.273,10.062 Z m 10.264,1.746 a 4.579,4.579 0 0 1 -2.543,0.775 4.579,4.579 0 0 1 -0.066,0 c -0.462,1.204 -1.174,2.478 -2,3.133 A 8,8 0 0 0 8,16 8,8 0 0 0 9.53,15.846 c 0.766,-1.095 1.041,-2.67 1.007,-4.037 z"
       fill="#dedede"
       id="path2" />
  </g>
</svg>
