<?xml version="1.0" encoding="UTF-8" standalone="no"?>
<svg
   width="16"
   height="16"
   version="1.1"
   id="svg3"
   sodipodi:docname="org.gnome.Polari-symbolic.svg"
   inkscape:version="1.4 (unknown)"
   xmlns:inkscape="http://www.inkscape.org/namespaces/inkscape"
   xmlns:sodipodi="http://sodipodi.sourceforge.net/DTD/sodipodi-0.dtd"
   xmlns="http://www.w3.org/2000/svg"
   xmlns:svg="http://www.w3.org/2000/svg"
   xmlns:rdf="http://www.w3.org/1999/02/22-rdf-syntax-ns#"
   xmlns:cc="http://creativecommons.org/ns#"
   xmlns:dc="http://purl.org/dc/elements/1.1/">
  <defs
     id="defs3" />
  <sodipodi:namedview
     id="namedview3"
     pagecolor="#ffffff"
     bordercolor="#000000"
     borderopacity="0.25"
     inkscape:showpageshadow="2"
     inkscape:pageopacity="0.0"
     inkscape:pagecheckerboard="0"
     inkscape:deskcolor="#d1d1d1"
     inkscape:zoom="48.4375"
     inkscape:cx="7.9896774"
     inkscape:cy="8"
     inkscape:window-width="1920"
     inkscape:window-height="998"
     inkscape:window-x="0"
     inkscape:window-y="0"
     inkscape:window-maximized="1"
     inkscape:current-layer="svg3" />
  <title
     id="title1">Gnome Symbolic Icon Theme</title>
  <g
     transform="matrix(0.85714286,0,0,0.85714286,-275.71433,108.28571)"
     fill="#dedede"
     id="g3">
    <path
       transform="translate(323,-125)"
       d="M 13,3 V 8.5625 C 13,9.07819 12.9478,9.671 12.5625,10.1875 12.17718,10.704 11.4678,11.0259 10.5,11 H 6.4375 l -1.0312,1 h 4.5938 l 3,3 v -3 c 1.108,0 2,-0.89199 2,-2 V 5 c 0,-1.108 -0.89199,-2 -2,-2 z"
       color="#000000"
       opacity="0.5"
       id="path1" />
    <path
       d="m 328,-122 h 1 v 1 h 1 v -1 h 1 v 1 h 1 v 1 h -1 v 1 h 1 v 1 h -1 v 1 h -1 v -1 h -1 v 1 h -1 v -1 h -1 v -1 h 1 v -1 h -1 v -1 h 1 z m 1,2 v 1 h 1 v -1 z"
       color="#000000"
       id="path2" />
    <path
       transform="translate(323,-125)"
       d="M 3,1 C 1.9093,1 1,1.90929 1,3 V 8 C 1,8.70349 1.43877,9.2228 2,9.5801 V 12 a 1.0001,1.0001 0 0 0 1.707,0.70703 l 2.707,-2.707 h 3.5859 c 1.0907,0 2,-0.90929 2,-2 v -5 c 0,-1.0907 -0.90929,-2 -2,-2 h -7 z m 0,1 h 7 c 0.55399,0 1,0.44601 1,1 v 5 c 0,0.55399 -0.44601,1 -1,1 H 6 L 3,12 V 9 C 2.44601,9 2,8.55399 2,8 V 3 C 2,2.44601 2.44601,2 3,2 Z"
       color="#000000"
       stroke-linecap="round"
       stroke-linejoin="round"
       style="-inkscape-stroke:none;paint-order:fill markers stroke"
       id="path3" />
  </g>
  <metadata
     id="metadata3">
    <rdf:RDF>
      <cc:Work
         rdf:about="">
        <dc:title>Gnome Symbolic Icon Theme</dc:title>
      </cc:Work>
    </rdf:RDF>
  </metadata>
</svg>
