<?xml version="1.0" encoding="UTF-8" standalone="no"?>
<svg
   width="16"
   height="16"
   version="1.1"
   id="svg3"
   sodipodi:docname="packages-app-symbolic.svg"
   inkscape:version="1.4 (unknown)"
   xmlns:inkscape="http://www.inkscape.org/namespaces/inkscape"
   xmlns:sodipodi="http://sodipodi.sourceforge.net/DTD/sodipodi-0.dtd"
   xmlns="http://www.w3.org/2000/svg"
   xmlns:svg="http://www.w3.org/2000/svg">
  <defs
     id="defs3" />
  <sodipodi:namedview
     id="namedview3"
     pagecolor="#ffffff"
     bordercolor="#000000"
     borderopacity="0.25"
     inkscape:showpageshadow="2"
     inkscape:pageopacity="0.0"
     inkscape:pagecheckerboard="0"
     inkscape:deskcolor="#d1d1d1"
     inkscape:zoom="48.4375"
     inkscape:cx="7.9896774"
     inkscape:cy="8"
     inkscape:window-width="1920"
     inkscape:window-height="998"
     inkscape:window-x="0"
     inkscape:window-y="0"
     inkscape:window-maximized="1"
     inkscape:current-layer="svg3" />
  <g
     transform="matrix(0.8,0,0,0.8,-391.5968,-222)"
     fill="#dedede"
     id="g3">
    <path
       d="m 496.99,280 c -1.258,0.015 -2.179,-0.03 -2.932,0.385 a 1.88,1.88 0 0 0 -0.837,0.998 c -0.165,0.438 -0.225,0.96 -0.225,1.617 v 9 c 0,0.658 0.06,1.179 0.225,1.617 0.164,0.439 0.461,0.789 0.837,0.996 0.753,0.415 1.674,0.372 2.932,0.387 h 5.012 c 1.258,-0.015 2.179,0.03 2.932,-0.385 a 1.88,1.88 0 0 0 0.838,-0.998 c 0.164,-0.438 0.224,-0.96 0.224,-1.617 v -9 c 0,-0.658 -0.06,-1.179 -0.225,-1.617 a 1.875,1.875 0 0 0 -0.837,-0.996 c -0.753,-0.415 -1.674,-0.372 -2.932,-0.387 h -5.008 z m 0.006,1 h 5 c 1.259,0.015 2.09,0.06 2.455,0.262 0.184,0.1 0.287,0.213 0.385,0.472 0.097,0.26 0.16,0.674 0.16,1.266 v 9 c 0,0.592 -0.063,1.006 -0.16,1.266 -0.098,0.26 -0.202,0.371 -0.385,0.472 -0.366,0.202 -1.196,0.247 -2.455,0.262 h -5 c -1.259,-0.015 -2.09,-0.06 -2.455,-0.262 -0.184,-0.1 -0.287,-0.213 -0.385,-0.472 -0.097,-0.26 -0.16,-0.674 -0.16,-1.266 v -9 c 0,-0.592 0.063,-1.006 0.16,-1.266 0.098,-0.26 0.203,-0.371 0.387,-0.472 0.366,-0.202 1.194,-0.247 2.453,-0.262 z"
       font-family="sans-serif"
       font-weight="400"
       overflow="visible"
       style="font-variant-ligatures:normal;font-variant-position:normal;font-variant-caps:normal;font-variant-numeric:normal;font-variant-alternates:normal;font-feature-settings:normal;text-indent:0;text-decoration-line:none;text-decoration-style:solid;text-decoration-color:#000000;text-transform:none;text-orientation:mixed;white-space:normal;shape-padding:0;isolation:auto;mix-blend-mode:normal"
       id="path1" />
    <path
       d="m 495.33,290 c -0.185,0 -0.334,0.112 -0.334,0.25 v 2.5 c 0,0.139 0.149,0.25 0.334,0.25 h 2.333 c 0.184,0 0.333,-0.112 0.333,-0.25 v -2.5 c 0,-0.139 -0.149,-0.25 -0.333,-0.25 z"
       opacity="0.5"
       id="path2" />
    <rect
       x="501"
       y="292"
       width="3"
       height="1"
       rx="0.25"
       ry="0.25"
       opacity="0.5"
       id="rect2" />
    <rect
       x="501"
       y="290"
       width="3"
       height="1"
       rx="0.25"
       ry="0.25"
       opacity="0.5"
       id="rect3" />
    <path
       d="m 498.94,281 h 1.063 v 13 h -1.063 z"
       id="path3" />
  </g>
</svg>
