<?xml version="1.0" encoding="UTF-8" standalone="no"?>
<svg
   width="16"
   height="16"
   version="1.1"
   id="svg2"
   sodipodi:docname="password-manager-symbolic.svg"
   inkscape:version="1.4 (unknown)"
   xmlns:inkscape="http://www.inkscape.org/namespaces/inkscape"
   xmlns:sodipodi="http://sodipodi.sourceforge.net/DTD/sodipodi-0.dtd"
   xmlns="http://www.w3.org/2000/svg"
   xmlns:svg="http://www.w3.org/2000/svg">
  <defs
     id="defs2" />
  <sodipodi:namedview
     id="namedview2"
     pagecolor="#ffffff"
     bordercolor="#000000"
     borderopacity="0.25"
     inkscape:showpageshadow="2"
     inkscape:pageopacity="0.0"
     inkscape:pagecheckerboard="0"
     inkscape:deskcolor="#d1d1d1"
     inkscape:zoom="48.4375"
     inkscape:cx="7.9896774"
     inkscape:cy="8"
     inkscape:window-width="1920"
     inkscape:window-height="998"
     inkscape:window-x="0"
     inkscape:window-y="0"
     inkscape:window-maximized="1"
     inkscape:current-layer="svg2" />
  <path
     d="M 8,2 A 6,6 0 0 0 2,8 6,6 0 0 0 8,14 6,6 0 0 0 14,8 6,6 0 0 0 8,2 Z M 7.9296872,2.75 A 5.25,5.25 0 0 1 8,2.75 5.25,5.25 0 0 1 13.25,8 5.25,5.25 0 0 1 8,13.25 5.25,5.25 0 0 1 2.75,8 5.25,5.25 0 0 1 7.92965,2.75 Z"
     fill="#dedede"
     stroke-linecap="round"
     stroke-linejoin="round"
     stroke-width="0.858476"
     id="path1" />
  <path
     d="M 7.25,4.25 C 6.8345,4.25 6.5,4.5845 6.5,5 V 5.75 L 8,6.5 6.5,7.25 V 11 c 0,0.4155 0.3345,0.75 0.75,0.75 h 1.5 C 9.1655,11.75 9.5,11.4155 9.5,11 V 10.25 L 8,9.5 9.5,8.75 V 5 C 9.5,4.5845 9.1655,4.25 8.75,4.25 Z"
     fill="#dedede"
     stroke-linecap="round"
     stroke-linejoin="round"
     stroke-width="0.7512"
     id="path2" />
</svg>
