<?xml version="1.0" encoding="UTF-8" standalone="no"?>
<svg
   width="16"
   height="16"
   version="1.1"
   id="svg3"
   sodipodi:docname="podcasts-app-symbolic.svg"
   inkscape:version="1.4 (unknown)"
   xmlns:inkscape="http://www.inkscape.org/namespaces/inkscape"
   xmlns:sodipodi="http://sodipodi.sourceforge.net/DTD/sodipodi-0.dtd"
   xmlns="http://www.w3.org/2000/svg"
   xmlns:svg="http://www.w3.org/2000/svg">
  <defs
     id="defs3" />
  <sodipodi:namedview
     id="namedview3"
     pagecolor="#ffffff"
     bordercolor="#000000"
     borderopacity="0.25"
     inkscape:showpageshadow="2"
     inkscape:pageopacity="0.0"
     inkscape:pagecheckerboard="0"
     inkscape:deskcolor="#d1d1d1"
     inkscape:zoom="34.250485"
     inkscape:cx="4.1459267"
     inkscape:cy="8.6568118"
     inkscape:window-width="1920"
     inkscape:window-height="998"
     inkscape:window-x="0"
     inkscape:window-y="0"
     inkscape:window-maximized="1"
     inkscape:current-layer="svg3" />
  <g
     fill="#dedede"
     id="g3"
     transform="matrix(0.79936011,0,0,0.79936011,2.0047992,1.2102383)">
    <path
       d="M 7.5,0.988 A 7.48,7.48 0 0 0 2.195,3.184 c -2.926,2.925 -2.926,7.683 0,10.609 l 0.707,-0.707 a 6.494,6.494 0 0 1 0,-9.195 6.494,6.494 0 0 1 9.196,0 6.494,6.494 0 0 1 0,9.195 l 0.707,0.707 c 2.926,-2.926 2.926,-7.684 0,-10.61 A 7.48,7.48 0 0 0 7.5,0.989 Z"
       color="#000000"
       font-family="sans-serif"
       font-weight="400"
       overflow="visible"
       solid-color="#000000"
       style="font-variant-ligatures:normal;font-variant-position:normal;font-variant-caps:normal;font-variant-numeric:normal;font-variant-alternates:normal;font-feature-settings:normal;text-indent:0;text-decoration-line:none;text-decoration-style:solid;text-decoration-color:#000000;text-transform:none;text-orientation:mixed;white-space:normal;shape-padding:0;isolation:auto;mix-blend-mode:normal"
       id="path1" />
    <path
       d="m 7.5,3.992 a 4.51,4.51 0 0 0 -3.184,1.305 4.45,4.45 0 0 0 0,6.32 l 0.705,-0.71 a 3.43,3.43 0 0 1 0,-4.9 3.523,3.523 0 0 1 4.958,0 3.43,3.43 0 0 1 0,4.9 l 0.705,0.71 a 4.45,4.45 0 0 0 0,-6.32 A 4.51,4.51 0 0 0 7.5,3.992 Z"
       color="#000000"
       font-family="sans-serif"
       font-weight="400"
       overflow="visible"
       solid-color="#000000"
       style="font-variant-ligatures:normal;font-variant-position:normal;font-variant-caps:normal;font-variant-numeric:normal;font-variant-alternates:normal;font-feature-settings:normal;text-indent:0;text-decoration-line:none;text-decoration-style:solid;text-decoration-color:#000000;text-transform:none;text-orientation:mixed;white-space:normal;shape-padding:0;isolation:auto;mix-blend-mode:normal"
       id="path2" />
    <path
       d="M 7.5,7 A 1.5,1.5 0 0 0 6,8.5 1.5,1.5 0 0 0 7,9.912 V 16 H 8 V 9.912 A 1.5,1.5 0 0 0 9,8.5 1.5,1.5 0 0 0 7.5,7 Z"
       id="path3" />
  </g>
</svg>
