<?xml version="1.0" encoding="UTF-8" standalone="no"?>
<svg
   width="16"
   height="16"
   version="1.1"
   id="svg2"
   sodipodi:docname="power-statistics-symbolic.svg"
   inkscape:version="1.4 (unknown)"
   xmlns:inkscape="http://www.inkscape.org/namespaces/inkscape"
   xmlns:sodipodi="http://sodipodi.sourceforge.net/DTD/sodipodi-0.dtd"
   xmlns="http://www.w3.org/2000/svg"
   xmlns:svg="http://www.w3.org/2000/svg">
  <defs
     id="defs2" />
  <sodipodi:namedview
     id="namedview2"
     pagecolor="#ffffff"
     bordercolor="#000000"
     borderopacity="0.25"
     inkscape:showpageshadow="2"
     inkscape:pageopacity="0.0"
     inkscape:pagecheckerboard="0"
     inkscape:deskcolor="#d1d1d1"
     inkscape:zoom="48.4375"
     inkscape:cx="7.9896774"
     inkscape:cy="8.0206452"
     inkscape:window-width="1920"
     inkscape:window-height="998"
     inkscape:window-x="0"
     inkscape:window-y="0"
     inkscape:window-maximized="1"
     inkscape:current-layer="svg2" />
  <g
     transform="matrix(0.91875,0,0,0.92307692,-506.49632,-258.30769)"
     fill="#dedede"
     id="g2">
    <path
       d="m 555.99,282 c -1.258,0.015 -2.179,-0.03 -2.932,0.385 a 1.88,1.88 0 0 0 -0.837,0.998 c -0.165,0.438 -0.225,0.96 -0.225,1.617 v 7 c 0,0.658 0.06,1.179 0.225,1.617 0.164,0.439 0.461,0.789 0.837,0.996 0.753,0.415 1.674,0.372 2.932,0.387 h 8.012 c 1.258,-0.015 2.179,0.03 2.932,-0.385 a 1.88,1.88 0 0 0 0.838,-0.998 c 0.164,-0.438 0.224,-0.96 0.224,-1.617 v -7 c 0,-0.658 -0.06,-1.179 -0.225,-1.617 a 1.875,1.875 0 0 0 -0.837,-0.996 c -0.753,-0.415 -1.674,-0.372 -2.932,-0.387 h -8.008 z m 0.006,1 h 8 c 1.259,0.015 2.09,0.06 2.455,0.262 0.184,0.1 0.287,0.213 0.385,0.472 0.097,0.26 0.16,0.674 0.16,1.266 v 7 c 0,0.592 -0.063,1.006 -0.16,1.266 -0.098,0.26 -0.202,0.371 -0.385,0.472 -0.366,0.202 -1.196,0.247 -2.455,0.262 h -8 c -1.259,-0.015 -2.09,-0.06 -2.455,-0.262 -0.183,-0.1 -0.287,-0.213 -0.385,-0.472 -0.097,-0.26 -0.16,-0.674 -0.16,-1.266 v -7 c 0,-0.592 0.063,-1.006 0.16,-1.266 0.098,-0.26 0.203,-0.371 0.387,-0.472 0.366,-0.202 1.194,-0.247 2.453,-0.262 z"
       color="#000000"
       font-family="sans-serif"
       font-weight="400"
       overflow="visible"
       solid-color="#000000"
       style="font-variant-ligatures:normal;font-variant-position:normal;font-variant-caps:normal;font-variant-numeric:normal;font-variant-alternates:normal;font-feature-settings:normal;text-indent:0;text-decoration-line:none;text-decoration-style:solid;text-decoration-color:#000000;text-transform:none;text-orientation:mixed;white-space:normal;shape-padding:0;isolation:auto;mix-blend-mode:normal"
       id="path1" />
    <path
       d="m 564.43,285 a 1.53,1.53 0 0 0 -1.057,0.44 c -0.273,0.265 -0.461,0.602 -0.61,0.974 -0.296,0.743 -0.443,1.6 -0.573,2.484 -0.13,0.882 -0.239,1.749 -0.397,2.34 -0.079,0.297 -0.175,0.519 -0.248,0.624 -0.072,0.104 -0.063,0.086 -0.091,0.086 -0.045,0 -0.088,-0.01 -0.181,-0.1 a 1.938,1.938 0 0 1 -0.328,-0.492 c -0.23,-0.458 -0.448,-1.135 -0.647,-1.823 -0.198,-0.689 -0.382,-1.566 -0.59,-2.13 -0.36,-0.608 -0.52,-0.995 -1.597,-1.27 -0.832,0.018 -1.293,0.437 -1.657,1.892 -0.064,0.353 -0.127,1.69 -0.193,1.882 -0.02,0.06 -0.03,0.069 -0.043,0.093 l -2.222,0.5 2.337,0.552 c 0.236,0.056 0.475,-0.14 0.606,-0.296 a 1.46,1.46 0 0 0 0.259,-0.487 c -0.083,-2.557 0.7,-4.108 1.58,-2.486 0.178,0.48 0.362,1.351 0.565,2.056 0.204,0.705 0.424,1.423 0.72,2.01 0.147,0.294 0.315,0.56 0.535,0.773 0.221,0.214 0.521,0.378 0.856,0.378 0.372,0 0.704,-0.238 0.896,-0.516 0.193,-0.277 0.308,-0.6 0.404,-0.96 0.192,-0.719 0.295,-1.6 0.422,-2.466 0.128,-0.865 0.28,-1.667 0.507,-2.235 0.113,-0.284 0.244,-0.491 0.365,-0.608 0.12,-0.117 0.237,-0.206 0.404,-0.207 L 565.996,286 v -1 z"
       color="#000000"
       font-family="sans-serif"
       font-weight="400"
       overflow="visible"
       solid-color="#000000"
       style="font-variant-ligatures:normal;font-variant-position:normal;font-variant-caps:normal;font-variant-numeric:normal;font-variant-alternates:normal;font-feature-settings:normal;text-indent:0;text-decoration-line:none;text-decoration-style:solid;text-decoration-color:#000000;text-transform:none;text-orientation:mixed;white-space:normal;shape-padding:0;isolation:auto;mix-blend-mode:normal"
       id="path2" />
    <circle
       cx="566"
       cy="285.5"
       r="0.5"
       id="circle2" />
  </g>
</svg>
