<?xml version="1.0" encoding="UTF-8" standalone="no"?>
<svg
   width="16"
   height="16"
   version="1.1"
   id="svg3"
   sodipodi:docname="preferences-desktop-locale-symbolic.svg"
   inkscape:version="1.4 (unknown)"
   xmlns:inkscape="http://www.inkscape.org/namespaces/inkscape"
   xmlns:sodipodi="http://sodipodi.sourceforge.net/DTD/sodipodi-0.dtd"
   xmlns="http://www.w3.org/2000/svg"
   xmlns:svg="http://www.w3.org/2000/svg">
  <defs
     id="defs3" />
  <sodipodi:namedview
     id="namedview3"
     pagecolor="#ffffff"
     bordercolor="#000000"
     borderopacity="0.25"
     inkscape:showpageshadow="2"
     inkscape:pageopacity="0.0"
     inkscape:pagecheckerboard="0"
     inkscape:deskcolor="#d1d1d1"
     inkscape:zoom="24.21875"
     inkscape:cx="9.1251613"
     inkscape:cy="4.8103226"
     inkscape:window-width="1920"
     inkscape:window-height="998"
     inkscape:window-x="0"
     inkscape:window-y="0"
     inkscape:window-maximized="1"
     inkscape:current-layer="svg3" />
  <g
     fill="#dedede"
     id="g3"
     transform="matrix(0.75,0,0,0.75,2,2)">
    <path
       d="M 7,0 C 5.892,0 5,0.892 5,2 v 7 c 0,1.108 0.892,2 2,2 h 7 c 1.108,0 2,-0.892 2,-2 V 2 C 16,0.892 15.108,0 14,0 Z m 0,1 h 7 c 0.554,0 1,0.446 1,1 v 7 c 0,0.554 -0.446,1 -1,1 H 7 C 6.446,10 6,9.554 6,9 V 2 C 6,1.446 6.446,1 7,1 Z"
       stroke-linecap="round"
       stroke-linejoin="round"
       stroke-width="1.0016"
       id="path1" />
    <g
       aria-label="A"
       id="g2">
      <path
         d="M 12.181,9 11.70416,7.3406 H 9.30086 L 8.81925,9 h -1.4925 l 2.265,-7 h 1.8072 l 2.2745,7 z M 11.36084,6.1008 10.91261,4.5749 Q 10.884,4.489069 10.82678,4.29356 10.76956,4.09806 10.7028,3.8644 10.64081,3.62598 10.58359,3.38756 10.52637,3.14914 10.50253,2.98225 10.48346,3.08715 10.45008,3.23021 10.42147,3.37326 10.37855,3.53539 10.3404,3.69275 10.29749,3.85487 10.25458,4.01699 10.21643,4.16005 10.17828,4.30311 10.1449,4.41277 10.11629,4.52244 10.10198,4.5749 L 9.65852,6.1008 Z"
         fill="#dedede"
         stroke-width="0.24414"
         id="path2" />
    </g>
    <path
       d="M 2,5 C 0.892,5 0,5.892 0,7 v 7 c 0,1.108 0.892,2 2,2 h 7 c 1.108,0 2,-0.892 2,-2 v -2 h -1 v 2 c 0,0.554 -0.446,1 -1,1 H 2 C 1.446,15 1,14.554 1,14 V 7 C 1,6.446 1.446,6 2,6 H 3 V 5 Z m 0.11133,2.7227 v 5.0156 h 0.45312 v -0.74609 h 1.123 v -1.0996 C 3.50749,10.67271 3.34641,10.43584 3.23433,10.16995 v 1.291 H 2.56441 v -3.207 H 2.99996 V 7.7227 H 2.11129 Z m 2.2871,3.8086 c -0.2619,0.79515 -0.59351,1.6615 -0.85547,2.1992 l 0.5,0.26953 C 4.3066,13.36175 4.61047,12.52553 4.85546,11.77343 4.69467,11.70732 4.54362,11.62302 4.39843,11.53124 Z m 1.0566,0.41406 c -0.059049,0.35177 -0.11882,0.73737 -0.17383,1.0078 h 2.5312 c -0.038462,0.23077 -0.092759,0.37792 -0.1543,0.43945 -0.076923,0.09231 -0.15427,0.10742 -0.27734,0.10742 -0.13846,0 -0.49222,-0.0083 -0.86914,-0.03906 0.084615,0.13846 0.13879,0.33822 0.14648,0.48437 0.36154,0.01538 0.72188,0.02319 0.92188,0.0078 0.22308,-0.02308 0.36935,-0.08479 0.50781,-0.26172 0.1,-0.12308 0.16905,-0.33828 0.23828,-0.73828 H 8.76552 V 12.46876 H 8.38857 C 8.403508,12.34328 8.414637,12.14805 8.427632,12.00001 H 7.935442 C 7.922446,12.14769 7.911317,12.34926 7.89638,12.46876 H 5.88078 C 5.901868,12.32717 5.929789,12.15178 5.953046,11.9961 5.782776,11.9935 5.617106,11.97496 5.454996,11.94532 Z m 1.4062,0.05469 c 0.16757,0.15351 0.31455,0.30677 0.4043,0.43164 L 7.57217,12.13091 C 7.541865,12.09212 7.482785,12.04269 7.44326,12.00005 Z"
       opacity="0.35"
       id="path3" />
  </g>
</svg>
