<?xml version="1.0" encoding="UTF-8" standalone="no"?>
<svg
   width="16"
   height="16"
   version="1.1"
   id="svg1"
   sodipodi:docname="preferences-system-network-proxy-symbolic.svg"
   inkscape:version="1.4 (unknown)"
   xmlns:inkscape="http://www.inkscape.org/namespaces/inkscape"
   xmlns:sodipodi="http://sodipodi.sourceforge.net/DTD/sodipodi-0.dtd"
   xmlns="http://www.w3.org/2000/svg"
   xmlns:svg="http://www.w3.org/2000/svg">
  <defs
     id="defs1" />
  <sodipodi:namedview
     id="namedview1"
     pagecolor="#ffffff"
     bordercolor="#000000"
     borderopacity="0.25"
     inkscape:showpageshadow="2"
     inkscape:pageopacity="0.0"
     inkscape:pagecheckerboard="0"
     inkscape:deskcolor="#d1d1d1"
     inkscape:zoom="48.4375"
     inkscape:cx="7.9896774"
     inkscape:cy="8"
     inkscape:window-width="1920"
     inkscape:window-height="998"
     inkscape:window-x="0"
     inkscape:window-y="0"
     inkscape:window-maximized="1"
     inkscape:current-layer="svg1" />
  <g
     id="g1"
     transform="translate(1.375,1.25)">
    <path
       d="M 10.765633,0.75 V 1.7844825 H 4.9687519 c 0,0 -1.6562506,0 -1.6562506,1.6551725 V 9.2327544 H 2.4843752 V 8.198275 L 0,10.47414 2.4843752,12.75 v -1.034475 h 5.7968779 c 0,0 1.6562411,0 1.6562411,-1.655175 V 4.267242 H 10.765633 V 5.301725 L 13.25,3.0258625 Z M 4.9687519,2.61207 h 3.3125012 c 0.4587826,0 0.8281254,0.3691025 0.8281254,0.827585 v 6.620695 c 0,0.458475 -0.3693428,0.827575 -0.8281254,0.827575 H 4.9687519 c -0.4587812,0 -0.8281266,-0.3691 -0.8281266,-0.827575 V 3.439655 c 0,-0.4584825 0.3693454,-0.827585 0.8281266,-0.827585 z"
       fill="#dedede"
       id="path1"
       style="stroke-width:0.827852" />
    <rect
       x="5.7968745"
       y="3.4396567"
       width="1.6562504"
       height="1.6551722"
       rx="0"
       fill="#dedede"
       stroke-linecap="round"
       stroke-linejoin="round"
       stroke-width="0.82917"
       id="rect1" />
  </g>
</svg>
