<?xml version="1.0" encoding="UTF-8" standalone="no"?>
<svg
   width="16"
   height="16"
   version="1.1"
   id="svg1"
   sodipodi:docname="preferences-desktop-font-symbolic.svg"
   inkscape:version="1.4 (unknown)"
   xmlns:inkscape="http://www.inkscape.org/namespaces/inkscape"
   xmlns:sodipodi="http://sodipodi.sourceforge.net/DTD/sodipodi-0.dtd"
   xmlns="http://www.w3.org/2000/svg"
   xmlns:svg="http://www.w3.org/2000/svg">
  <defs
     id="defs1" />
  <sodipodi:namedview
     id="namedview1"
     pagecolor="#ffffff"
     bordercolor="#000000"
     borderopacity="0.25"
     inkscape:showpageshadow="2"
     inkscape:pageopacity="0.0"
     inkscape:pagecheckerboard="0"
     inkscape:deskcolor="#d1d1d1"
     inkscape:zoom="48.4375"
     inkscape:cx="7.9896774"
     inkscape:cy="8"
     inkscape:window-width="1920"
     inkscape:window-height="998"
     inkscape:window-x="0"
     inkscape:window-y="0"
     inkscape:window-maximized="1"
     inkscape:current-layer="svg1" />
  <path
     d="m 9.0843457,2 v 11.987553 h 1.0928333 v -0.0128 h 2.177178 c 1.809237,0 3.265774,-1.456535 3.265774,-3.265772 0,-1.809237 -1.456536,-3.2657705 -3.265773,-3.2657705 H 10.177179 V 2.0003054 H 9.0843457 Z M 1.4684598,4.1771808 v 1.092835 h 2.1771808 v -0.0043 c 1.2061578,0 2.1771797,0.9710224 2.1771797,2.1771804 H 3.6456406 c -1.8092372,4.84e-5 -3.2657711,1.4565823 -3.2657711,3.2658218 0,1.809238 1.4565339,3.265764 3.2657711,3.265764 H 5.8228203 V 14 H 6.9156564 V 7.4429855 h -0.0043 c 4.31e-5,-1.8092372 -1.4564908,-3.26577 -3.265727,-3.26577 H 1.4684526 Z m 2.1771808,4.3543604 h 2.1771797 v 2.1771828 2.177179 H 3.6456406 c -1.2061588,0 -2.1771808,-0.971024 -2.1771808,-2.177179 0,-1.2061599 0.971022,-2.1771828 2.1771808,-2.1771828 z m 6.5315384,0 h 2.177178 c 1.206165,0 2.177189,0.9710229 2.177189,2.1771828 0,1.206155 -0.971024,2.177179 -2.177189,2.177179 h -2.177178 z"
     fill="#dedede"
     stroke-linecap="round"
     stroke-linejoin="round"
     stroke-width="1.0097"
     id="path1" />
</svg>
