<?xml version="1.0" encoding="UTF-8" standalone="no"?>
<svg
   width="16"
   height="16"
   version="1.1"
   id="svg2"
   sodipodi:docname="preferences-system-devices-symbolic.svg"
   inkscape:version="1.4 (unknown)"
   xmlns:inkscape="http://www.inkscape.org/namespaces/inkscape"
   xmlns:sodipodi="http://sodipodi.sourceforge.net/DTD/sodipodi-0.dtd"
   xmlns="http://www.w3.org/2000/svg"
   xmlns:svg="http://www.w3.org/2000/svg">
  <sodipodi:namedview
     id="namedview2"
     pagecolor="#ffffff"
     bordercolor="#000000"
     borderopacity="0.25"
     inkscape:showpageshadow="2"
     inkscape:pageopacity="0.0"
     inkscape:pagecheckerboard="0"
     inkscape:deskcolor="#d1d1d1"
     inkscape:zoom="48.4375"
     inkscape:cx="7.9896774"
     inkscape:cy="8"
     inkscape:window-width="1920"
     inkscape:window-height="998"
     inkscape:window-x="0"
     inkscape:window-y="0"
     inkscape:window-maximized="1"
     inkscape:current-layer="svg2" />
  <defs
     id="defs1">
    <filter
       id="a"
       color-interpolation-filters="sRGB"
       x="0"
       y="0"
       width="1"
       height="1">
      <feBlend
         mode="darken"
         in2="BackgroundImage"
         id="feBlend1" />
    </filter>
  </defs>
  <g
     id="g2">
    <path
       style="marker:none"
       d="M3 2v4H2C1 6 1 7 1 7v5h2v2h3v-1H4v-1h2V6H4V3h7v2h1V2zm0 6h1v1H3z"
       color="#000"
       overflow="visible"
       fill="#dedede"
       filter="url(#a)"
       enable-background="accumulate"
       id="path1" />
    <path
       d="M8.002 6A.999.999 0 0 0 7 7v4c0 .554.447 1 1.002 1H14a.999.999 0 0 0 1.002-1V7c0-.554-.447-1-1.002-1zM8 7h6.002v4H8z"
       fill="#dedede"
       paint-order="markers stroke fill"
       id="path2" />
    <rect
       width="4"
       height="1"
       x="9"
       y="13"
       rx="0"
       ry="0"
       fill="#dedede"
       paint-order="markers stroke fill"
       id="rect2" />
  </g>
</svg>
