<?xml version="1.0" encoding="UTF-8" standalone="no"?>
<svg
   width="16.034"
   height="16"
   version="1.1"
   id="svg2"
   sodipodi:docname="preferences-color-symbolic.svg"
   inkscape:version="1.4 (unknown)"
   xmlns:inkscape="http://www.inkscape.org/namespaces/inkscape"
   xmlns:sodipodi="http://sodipodi.sourceforge.net/DTD/sodipodi-0.dtd"
   xmlns="http://www.w3.org/2000/svg"
   xmlns:svg="http://www.w3.org/2000/svg">
  <defs
     id="defs2" />
  <sodipodi:namedview
     id="namedview2"
     pagecolor="#ffffff"
     bordercolor="#000000"
     borderopacity="0.25"
     inkscape:showpageshadow="2"
     inkscape:pageopacity="0.0"
     inkscape:pagecheckerboard="0"
     inkscape:deskcolor="#d1d1d1"
     inkscape:zoom="24.21875"
     inkscape:cx="18.126452"
     inkscape:cy="9.4348387"
     inkscape:window-width="1920"
     inkscape:window-height="998"
     inkscape:window-x="0"
     inkscape:window-y="0"
     inkscape:window-maximized="1"
     inkscape:current-layer="svg2" />
  <g
     transform="matrix(0.75,0,0,0.75155007,-696.983,-343.71303)"
     fill="#dedede"
     id="g2">
    <path
       d="m 940,460 c -2.756,0 -5,2.244 -5,5 0,0.459 0.083,0.894 0.2,1.316 -1.867,0.727 -3.2,2.532 -3.2,4.65 0,2.756 2.244,5 5,5 a 4.95,4.95 0 0 0 3,-1.027 4.95,4.95 0 0 0 3,1.028 c 2.756,0 5,-2.245 5,-5 0,-2.119 -1.332,-3.924 -3.197,-4.65 0.116,-0.423 0.197,-0.859 0.197,-1.317 0,-2.756 -2.244,-5 -5,-5 z m 0,1 c 2.215,0 4,1.785 4,4 0,0.364 -0.062,0.71 -0.152,1.045 a 4.977,4.977 0 0 0 -0.848,-0.078 4.95,4.95 0 0 0 -3,1.027 4.95,4.95 0 0 0 -3,-1.027 c -0.289,0 -0.57,0.029 -0.846,0.076 A 3.986,3.986 0 0 1 936,465 c 0,-2.215 1.785,-4 4,-4 z m -3,5.967 c 0.844,0 1.625,0.261 2.27,0.705 -0.281,0.317 -0.518,0.67 -0.711,1.05 a 3.977,3.977 0 0 1 -2,-1.712 c 0.147,-0.017 0.29,-0.043 0.441,-0.043 z m 6,0 c 0.151,0 0.295,0.027 0.441,0.043 a 3.974,3.974 0 0 1 -1.998,1.713 5,5 0 0 0 -0.713,-1.05 3.981,3.981 0 0 1 2.27,-0.706 z m -7.441,0.277 a 5.006,5.006 0 0 0 2.64,2.406 4.947,4.947 0 0 0 -0.199,1.317 c 0,1.267 0.49,2.412 1.27,3.295 a 3.988,3.988 0 0 1 -2.27,0.705 c -2.215,0 -4,-1.785 -4,-4 a 3.985,3.985 0 0 1 2.559,-3.723 z m 8.884,0 a 3.983,3.983 0 0 1 2.557,3.723 c 0,2.215 -1.785,4 -4,4 a 3.981,3.981 0 0 1 -2.27,-0.707 c 0.78,-0.882 1.27,-2.027 1.27,-3.293 a 4.93,4.93 0 0 0 -0.197,-1.317 5.01,5.01 0 0 0 2.64,-2.406 z m -3.595,2.678 c 0.09,0.335 0.152,0.68 0.152,1.045 a 3.968,3.968 0 0 1 -1,2.625 3.968,3.968 0 0 1 -1,-2.625 c 0,-0.364 0.064,-0.709 0.154,-1.043 0.276,0.047 0.557,0.076 0.846,0.076 0.29,0 0.571,-0.03 0.848,-0.078 z"
       font-family="sans-serif"
       font-weight="400"
       overflow="visible"
       style="font-variant-ligatures:normal;font-variant-position:normal;font-variant-caps:normal;font-variant-numeric:normal;font-variant-alternates:normal;font-feature-settings:normal;text-indent:0;text-decoration-line:none;text-decoration-style:solid;text-decoration-color:#000000;text-transform:none;text-orientation:mixed;shape-padding:0;isolation:auto;mix-blend-mode:normal"
       id="path1" />
    <circle
       transform="scale(-1,1)"
       cx="-943"
       cy="470.97"
       r="4.5"
       opacity="0.3"
       overflow="visible"
       id="circle1" />
    <circle
       transform="scale(-1,1)"
       cx="-937"
       cy="470.97"
       r="4.5"
       opacity="0.15"
       overflow="visible"
       id="circle2" />
  </g>
</svg>
