<?xml version="1.0" encoding="UTF-8" standalone="no"?>
<svg
   width="16"
   height="16"
   version="1.1"
   id="svg1"
   sodipodi:docname="preferences-desktop-sharing-symbolic.svg"
   inkscape:version="1.4 (unknown)"
   xmlns:inkscape="http://www.inkscape.org/namespaces/inkscape"
   xmlns:sodipodi="http://sodipodi.sourceforge.net/DTD/sodipodi-0.dtd"
   xmlns="http://www.w3.org/2000/svg"
   xmlns:svg="http://www.w3.org/2000/svg">
  <defs
     id="defs1" />
  <sodipodi:namedview
     id="namedview1"
     pagecolor="#ffffff"
     bordercolor="#000000"
     borderopacity="0.25"
     inkscape:showpageshadow="2"
     inkscape:pageopacity="0.0"
     inkscape:pagecheckerboard="0"
     inkscape:deskcolor="#d1d1d1"
     inkscape:zoom="34.250485"
     inkscape:cx="12.145814"
     inkscape:cy="8.6276151"
     inkscape:window-width="1920"
     inkscape:window-height="998"
     inkscape:window-x="0"
     inkscape:window-y="0"
     inkscape:window-maximized="1"
     inkscape:current-layer="svg1" />
  <path
     d="M 13.600003,3.9999994 C 13.600003,2.9 12.700003,2 11.599991,2 A 2.0064,2.0064 0 0 0 9.599997,3.9999994 c 0,1.1000012 0.9,2.0000012 1.999994,2.0000012 1.100012,0 2.000012,-0.9 2.000012,-2.0000012 z m 0,8.0000066 c 0,-1.100008 -0.9,-2.0000066 -2.000012,-2.0000066 A 2.0064,2.0064 0 0 0 9.599997,12.000006 c 0,1.099994 0.9,1.999994 1.999994,1.999994 1.100012,0 2.000012,-0.9 2.000012,-1.999994 z M 12.799991,3.9999994 c 0,0.6672 -0.5328,1.2 -1.2,1.2 -0.667197,0 -1.199996,-0.5328 -1.199996,-1.2 0,-0.6672 0.532799,-1.1999995 1.199996,-1.1999995 0.6672,0 1.2,0.5327995 1.2,1.1999995 z m 0,8.0000066 c 0,0.6672 -0.5328,1.2 -1.2,1.2 -0.667197,0 -1.199996,-0.5328 -1.199996,-1.2 0,-0.667204 0.532799,-1.200004 1.199996,-1.200004 0.6672,0 1.2,0.5328 1.2,1.200004 z M 9.3871964,5.6880006 A 2.796,2.796 0 0 1 8.9919976,4.9904 L 5.9095964,6.7047994 A 1.9896,1.9896 0 0 0 4.3999964,6.0000006 2.0064,2.0064 0 0 0 2.399997,8 c 0,1.0999994 0.9,1.9999994 1.9999994,1.9999994 0.6040006,0 1.1416006,-0.2775988 1.5096,-0.7039994 l 3.0824012,1.7136 c 0.097599,-0.252798 0.2319988,-0.4848 0.3951988,-0.696798 L 6.2991976,8.5968006 C 6.357597,8.408 6.3999976,8.2088 6.3999976,8 c 0,-0.2088 -0.041594,-0.4072006 -0.1016012,-0.5968006 z M 5.5999964,8 c 0,0.6672 -0.5328,1.2 -1.2,1.2 -0.6672,0 -1.2,-0.5328 -1.2,-1.2 0,-0.6672 0.5328,-1.2 1.2,-1.2 0.6672,0 1.2,0.5328 1.2,1.2 z"
     color="#000000"
     fill="#dedede"
     font-family="sans-serif"
     font-weight="400"
     overflow="visible"
     style="font-variant-ligatures:normal;font-variant-position:normal;font-variant-caps:normal;font-variant-numeric:normal;font-variant-alternates:normal;font-feature-settings:normal;text-indent:0;text-decoration-line:none;text-decoration-style:solid;text-decoration-color:#000000;text-transform:none;text-orientation:mixed;shape-padding:0;isolation:auto;mix-blend-mode:normal;stroke-width:0.799994"
     white-space="normal"
     id="path1" />
</svg>
