<?xml version="1.0" encoding="UTF-8" standalone="no"?>
<svg
   width="16"
   height="16"
   version="1.1"
   id="svg4"
   sodipodi:docname="preferences-desktop-remote-desktop-symbolic.svg"
   inkscape:version="1.4 (unknown)"
   xmlns:inkscape="http://www.inkscape.org/namespaces/inkscape"
   xmlns:sodipodi="http://sodipodi.sourceforge.net/DTD/sodipodi-0.dtd"
   xmlns="http://www.w3.org/2000/svg"
   xmlns:svg="http://www.w3.org/2000/svg">
  <defs
     id="defs4" />
  <sodipodi:namedview
     id="namedview4"
     pagecolor="#ffffff"
     bordercolor="#000000"
     borderopacity="0.25"
     inkscape:showpageshadow="2"
     inkscape:pageopacity="0.0"
     inkscape:pagecheckerboard="0"
     inkscape:deskcolor="#d1d1d1"
     inkscape:zoom="48.4375"
     inkscape:cx="7.9896774"
     inkscape:cy="8"
     inkscape:window-width="1920"
     inkscape:window-height="998"
     inkscape:window-x="0"
     inkscape:window-y="0"
     inkscape:window-maximized="1"
     inkscape:current-layer="svg4" />
  <g
     id="g4"
     transform="translate(0.6)">
    <path
       d="m 8.7875006,3.846154 c -0.2562256,0 -0.4625005,0.205846 -0.4625005,0.461538 v 1.846154 a 0.46157504,0.4606154 0 0 0 0.4625005,0.461539 h 1.8499954 c 0.256233,0 0.462501,-0.205847 0.462501,-0.461539 V 4.307692 c 0,-0.255692 -0.206268,-0.461538 -0.462501,-0.461538 z M 9.2500003,4.769231 H 10.175004 V 5.692308 H 9.2500003 Z"
       fill="#dedede"
       id="path1"
       style="stroke-width:0.924042" />
    <path
       d="m 4.1625,13.07692 h 6.474996 c 0.256233,0 0.462501,0.20585 0.462501,0.46154 0,0.25569 -0.206268,0.46154 -0.462501,0.46154 H 4.1625 c -0.2562247,0 -0.4624995,-0.20585 -0.4624995,-0.46154 0,-0.25569 0.2062748,-0.46154 0.4624995,-0.46154 z"
       fill="#dedede"
       id="path2"
       style="stroke-width:0.924042" />
    <path
       d="M 1.8500003,2 C 0.82510003,2 0,2.823385 0,3.846154 v 6.461536 c 0,1.02277 0.82510003,1.84616 1.8500003,1.84616 H 12.950004 C 13.974905,12.15385 14.8,11.33046 14.8,10.30769 V 3.846154 C 14.8,2.823385 13.974905,2 12.950004,2 Z m 0,0.923077 H 12.950004 c 0.512445,0 0.924993,0.411692 0.924993,0.923077 v 6.461536 c 0,0.51139 -0.412548,0.92308 -0.924993,0.92308 H 1.8500003 c -0.5124505,0 -0.92500027,-0.41169 -0.92500027,-0.92308 V 3.846154 c 0,-0.511385 0.41254977,-0.923077 0.92500027,-0.923077 z"
       fill="#dedede"
       id="path3"
       style="stroke-width:0.924042" />
    <path
       d="m 3.7000005,5.692308 c -0.5124504,0 -0.9250001,0.411692 -0.9250001,0.923077 v 2.76923 c 0,0.511385 0.4125497,0.923075 0.9250001,0.923075 H 6.4749999 C 6.9874503,10.30769 7.4,9.896 7.4,9.384615 V 6.615385 C 7.4,6.104 6.9874503,5.692308 6.4749999,5.692308 Z m 0,0.923077 h 2.7749994 v 2.76923 H 3.7000005 Z"
       fill="#dedede"
       id="path4"
       style="stroke-width:0.924042" />
  </g>
</svg>
