<?xml version="1.0" encoding="UTF-8" standalone="no"?>
<svg
   width="16"
   height="16"
   version="1"
   id="svg2"
   sodipodi:docname="preferences-desktop-default-applications-symbolic.svg"
   inkscape:version="1.4 (unknown)"
   xmlns:inkscape="http://www.inkscape.org/namespaces/inkscape"
   xmlns:sodipodi="http://sodipodi.sourceforge.net/DTD/sodipodi-0.dtd"
   xmlns="http://www.w3.org/2000/svg"
   xmlns:svg="http://www.w3.org/2000/svg">
  <defs
     id="defs2" />
  <sodipodi:namedview
     id="namedview2"
     pagecolor="#ffffff"
     bordercolor="#000000"
     borderopacity="0.25"
     inkscape:showpageshadow="2"
     inkscape:pageopacity="0.0"
     inkscape:pagecheckerboard="0"
     inkscape:deskcolor="#d1d1d1"
     inkscape:zoom="34.250485"
     inkscape:cx="12.52537"
     inkscape:cy="7.7809118"
     inkscape:window-width="1920"
     inkscape:window-height="998"
     inkscape:window-x="0"
     inkscape:window-y="0"
     inkscape:window-maximized="1"
     inkscape:current-layer="svg2" />
  <g
     id="g2"
     transform="translate(2,2)">
    <path
       d="M 6,2.2503 6.99375,4.9584 9.75,5.1146468 7.6062748,6.9459222 8.3169,9.7496476 6,8.1727748 3.6831,9.7496476 4.3937246,6.9459222 2.25,5.1146468 5.00625,4.9584 Z"
       fill="#dedede"
       stroke-width="0.625002"
       id="path1" />
    <path
       d="M 6,0 A 6,6 0 0 0 0,6 6,6 0 0 0 6,12 6,6 0 0 0 12,6 6,6 0 0 0 6,0 Z M 5.9296872,0.75 A 5.25,5.25 0 0 1 6,0.75 5.25,5.25 0 0 1 11.25,6 5.25,5.25 0 0 1 6,11.25 5.25,5.25 0 0 1 0.75,6 5.25,5.25 0 0 1 5.92965,0.75 Z"
       fill="#dedede"
       stroke-linecap="round"
       stroke-linejoin="round"
       stroke-width="0.858476"
       id="path2" />
  </g>
</svg>
