<?xml version="1.0" encoding="UTF-8" standalone="no"?>
<svg
   width="16"
   height="16"
   version="1.1"
   id="svg4"
   sodipodi:docname="preferences-desktop-screensaver-symbolic.svg"
   inkscape:version="1.4 (unknown)"
   xmlns:inkscape="http://www.inkscape.org/namespaces/inkscape"
   xmlns:sodipodi="http://sodipodi.sourceforge.net/DTD/sodipodi-0.dtd"
   xmlns="http://www.w3.org/2000/svg"
   xmlns:svg="http://www.w3.org/2000/svg">
  <defs
     id="defs4" />
  <sodipodi:namedview
     id="namedview4"
     pagecolor="#ffffff"
     bordercolor="#000000"
     borderopacity="0.25"
     inkscape:showpageshadow="2"
     inkscape:pageopacity="0.0"
     inkscape:pagecheckerboard="0"
     inkscape:deskcolor="#d1d1d1"
     inkscape:zoom="48.4375"
     inkscape:cx="7.9896774"
     inkscape:cy="8"
     inkscape:window-width="1920"
     inkscape:window-height="998"
     inkscape:window-x="0"
     inkscape:window-y="0"
     inkscape:window-maximized="1"
     inkscape:current-layer="svg4" />
  <g
     fill="#dedede"
     id="g4"
     transform="matrix(0.925,0,0,0.92307692,0.6,0.15384618)">
    <path
       d="M 10.48,5.83 C 10.8,6.22 11,6.72 11,7.26 11,8.51 9.99,9.52 8.74,9.52 8.2,9.52 7.7,9.32 7.31,9 a 2.637,2.637 0 0 0 2.56,2.02 c 1.45,0 2.63,-1.18 2.63,-2.63 0,-1.24 -0.86,-2.29 -2.02,-2.56 z M 5.5,8.64 5,7.14 3.5,6.64 5,6.14 5.5,4.64 6,6.14 7.5,6.64 6,7.14 Z"
       id="path1" />
    <path
       d="M 8,4.5 A 0.5,0.5 0 0 1 7.5,5 0.5,0.5 0 0 1 7,4.5 0.5,0.5 0 0 1 7.5,4 0.5,0.5 0 0 1 8,4.5 Z m 5,0 A 0.5,0.5 0 0 1 12.5,5 0.5,0.5 0 0 1 12,4.5 0.5,0.5 0 0 1 12.5,4 0.5,0.5 0 0 1 13,4.5 Z m -4,2 A 0.5,0.5 0 0 1 8.5,7 0.5,0.5 0 0 1 8,6.5 0.5,0.5 0 0 1 8.5,6 0.5,0.5 0 0 1 9,6.5 Z m -4,3 A 0.5,0.5 0 0 1 4.5,10 0.5,0.5 0 0 1 4,9.5 0.5,0.5 0 0 1 4.5,9 0.5,0.5 0 0 1 5,9.5 Z"
       id="path2" />
    <path
       d="m 4.5,14 h 7 c 0.277,0 0.5,0.223 0.5,0.5 0,0.277 -0.223,0.5 -0.5,0.5 h -7 C 4.223,15 4,14.777 4,14.5 4,14.223 4.223,14 4.5,14 Z"
       id="path3" />
    <path
       d="M 2,2 C 0.892,2 0,2.892 0,4 v 7 c 0,1.108 0.892,2 2,2 h 12 c 1.108,0 2,-0.892 2,-2 V 4 C 16,2.892 15.108,2 14,2 Z m 0,1 h 12 c 0.554,0 1,0.446 1,1 v 7 c 0,0.554 -0.446,1 -1,1 H 2 C 1.446,12 1,11.554 1,11 V 4 C 1,3.446 1.446,3 2,3 Z"
       id="path4" />
  </g>
</svg>
