<?xml version="1.0" encoding="UTF-8" standalone="no"?>
<svg
   width="16"
   height="16"
   version="1.1"
   id="svg2"
   sodipodi:docname="preferences-desktop-display-symbolic.svg"
   inkscape:version="1.4 (unknown)"
   xmlns:inkscape="http://www.inkscape.org/namespaces/inkscape"
   xmlns:sodipodi="http://sodipodi.sourceforge.net/DTD/sodipodi-0.dtd"
   xmlns="http://www.w3.org/2000/svg"
   xmlns:svg="http://www.w3.org/2000/svg">
  <defs
     id="defs2" />
  <sodipodi:namedview
     id="namedview2"
     pagecolor="#ffffff"
     bordercolor="#000000"
     borderopacity="0.25"
     inkscape:showpageshadow="2"
     inkscape:pageopacity="0.0"
     inkscape:pagecheckerboard="0"
     inkscape:deskcolor="#d1d1d1"
     inkscape:zoom="48.4375"
     inkscape:cx="7.9896774"
     inkscape:cy="8"
     inkscape:window-width="1920"
     inkscape:window-height="998"
     inkscape:window-x="0"
     inkscape:window-y="0"
     inkscape:window-maximized="1"
     inkscape:current-layer="svg2" />
  <g
     id="g2"
     transform="matrix(0.85625,0,0,0.85625,1.15,1.15)">
    <path
       d="M 6.5,3 8,5 H 7 v 3 h 5 V 7 L 14,8.5 12,10 V 9 H 7 v 2 H 8 L 6.5,13 5,11 H 6 V 9 H 4 v 1 L 2,8.5 4,7 V 8 H 6 V 5 H 5 Z"
       color="#000000"
       fill="#dedede"
       overflow="visible"
       id="path1" />
    <path
       d="M 3,1 C 1.338,1 0,2.338 0,4 v 8 c 0,1.662 1.338,3 3,3 h 10 c 1.662,0 3,-1.338 3,-3 V 4 C 16,2.338 14.662,1 13,1 Z m 0,1 h 10 c 1.108,0 2,0.892 2,2 v 8 c 0,1.108 -0.892,2 -2,2 H 3 C 1.892,14 1,13.108 1,12 V 4 C 1,2.892 1.892,2 3,2 Z"
       fill="#dedede"
       stroke-linecap="round"
       stroke-linejoin="round"
       stroke-width="1.0016"
       id="path2" />
  </g>
</svg>
