<?xml version="1.0" encoding="UTF-8" standalone="no"?>
<svg
   width="16"
   height="16"
   version="1.1"
   id="svg2"
   sodipodi:docname="preferences-system-details-symbolic.svg"
   inkscape:version="1.4 (unknown)"
   xmlns:inkscape="http://www.inkscape.org/namespaces/inkscape"
   xmlns:sodipodi="http://sodipodi.sourceforge.net/DTD/sodipodi-0.dtd"
   xmlns="http://www.w3.org/2000/svg"
   xmlns:svg="http://www.w3.org/2000/svg">
  <defs
     id="defs2" />
  <sodipodi:namedview
     id="namedview2"
     pagecolor="#ffffff"
     bordercolor="#000000"
     borderopacity="0.25"
     inkscape:showpageshadow="2"
     inkscape:pageopacity="0.0"
     inkscape:pagecheckerboard="0"
     inkscape:deskcolor="#d1d1d1"
     inkscape:zoom="48.4375"
     inkscape:cx="7.9896774"
     inkscape:cy="8"
     inkscape:window-width="1920"
     inkscape:window-height="998"
     inkscape:window-x="0"
     inkscape:window-y="0"
     inkscape:window-maximized="1"
     inkscape:current-layer="svg2" />
  <g
     id="g2"
     transform="translate(0,0.236129)">
    <path
       d="M 7.142858,4.335299 H 8.857142 V 6.049585 H 7.142858 Z m 0,2.57143 h 1.714284 v 4.285722 H 7.142858 Z"
       fill="#dedede"
       id="path1"
       style="stroke-width:0.85714" />
    <path
       d="M 3.714286,1.763871 C 2.764572,1.763871 2,2.528443 2,3.478157 v 8.571434 c 0,0.9497 0.764572,1.71428 1.714286,1.71428 h 8.571434 c 0.9497,0 1.71428,-0.76458 1.71428,-1.71428 V 3.478157 C 14,2.528443 13.23542,1.763871 12.28572,1.763871 Z m 0,0.857142 h 8.571434 c 0.47486,0 0.85714,0.382286 0.85714,0.857144 v 8.571434 c 0,0.47486 -0.38228,0.85714 -0.85714,0.85714 H 3.714286 c -0.474858,0 -0.857144,-0.38228 -0.857144,-0.85714 V 3.478157 c 0,-0.474858 0.382286,-0.857144 0.857144,-0.857144 z"
       fill="#dedede"
       id="path2"
       style="stroke-width:0.85714" />
  </g>
</svg>
