<?xml version="1.0" encoding="UTF-8" standalone="no"?>
<svg
   width="16"
   height="16"
   version="1.1"
   viewBox="0 0 16 16"
   id="svg2"
   sodipodi:docname="preferences-desktop-keyboard-shortcuts-symbolic.svg"
   inkscape:version="1.4 (unknown)"
   xmlns:inkscape="http://www.inkscape.org/namespaces/inkscape"
   xmlns:sodipodi="http://sodipodi.sourceforge.net/DTD/sodipodi-0.dtd"
   xmlns="http://www.w3.org/2000/svg"
   xmlns:svg="http://www.w3.org/2000/svg">
  <defs
     id="defs2" />
  <sodipodi:namedview
     id="namedview2"
     pagecolor="#ffffff"
     bordercolor="#000000"
     borderopacity="0.25"
     inkscape:showpageshadow="2"
     inkscape:pageopacity="0.0"
     inkscape:pagecheckerboard="0"
     inkscape:deskcolor="#d1d1d1"
     inkscape:zoom="48.4375"
     inkscape:cx="7.9896774"
     inkscape:cy="8"
     inkscape:window-width="1920"
     inkscape:window-height="998"
     inkscape:window-x="0"
     inkscape:window-y="0"
     inkscape:window-maximized="1"
     inkscape:current-layer="svg2" />
  <g
     id="g2"
     transform="translate(0,-0.5)">
    <path
       d="m 1,3.5 c -0.554,0 -1,0.446 -1,1 v 7 c 0,0.554 0.446,1 1,1 h 9.3379 a 3.5,3.5 0 0 1 -0.30078,-1 h -9.0371 v -7 h 13 v 3.0352 a 3.5,3.5 0 0 1 1,0.30273 v -3.3379 c 0,-0.554 -0.446,-1 -1,-1 h -13 z m 1,2 v 1 h 1 v -1 z m 2,0 v 1 h 1 v -1 z m 2,0 v 1 h 1 v -1 z m 2,0 v 1 h 1 v -1 z m 2,0 v 1 h 1 v -1 z m 2,0 v 1 h 1 v -1 z m -10,2 v 1 h 2 v -1 z m 3,0 v 1 h 1 v -1 z m 2,0 v 1 h 1 v -1 z m 2,0 v 1 h 1 v -1 z m 2,0 v 1 h 0.05078 a 3.5,3.5 0 0 1 1.9492,-0.96289 V 7.500001 h -2 z m -9,2 v 1 h 2 v -1 z m 3,0 v 1 h 5 v -1 z"
       fill="#dedede"
       style="paint-order:stroke fill markers"
       id="path1" />
    <path
       d="M 13.5,8.5 A 2.5,2.5 0 0 0 11,11 2.5,2.5 0 0 0 13.5,13.5 2.5,2.5 0 0 0 16,11 2.5,2.5 0 0 0 13.5,8.5 Z m 0,1 A 1.5,1.5 0 0 1 15,11 1.5,1.5 0 0 1 13.5,12.5 1.5,1.5 0 0 1 12,11 1.5,1.5 0 0 1 13.5,9.5 Z"
       fill="#dedede"
       stroke-linecap="round"
       stroke-linejoin="round"
       stroke-width="1.25"
       style="paint-order:stroke fill markers"
       id="path2" />
    <circle
       cx="13.5"
       cy="11"
       r="0.5"
       fill="#dedede"
       stroke-linecap="round"
       stroke-linejoin="round"
       stroke-width="1.5"
       style="paint-order:stroke fill markers"
       id="circle2" />
  </g>
</svg>
