<?xml version="1.0" encoding="UTF-8" standalone="no"?>
<svg
   width="16"
   height="16"
   version="1.1"
   id="svg1"
   sodipodi:docname="gnome-control-center-symbolic.svg"
   inkscape:version="1.4 (unknown)"
   xmlns:inkscape="http://www.inkscape.org/namespaces/inkscape"
   xmlns:sodipodi="http://sodipodi.sourceforge.net/DTD/sodipodi-0.dtd"
   xmlns="http://www.w3.org/2000/svg"
   xmlns:svg="http://www.w3.org/2000/svg">
  <defs
     id="defs1" />
  <sodipodi:namedview
     id="namedview1"
     pagecolor="#ffffff"
     bordercolor="#000000"
     borderopacity="0.25"
     inkscape:showpageshadow="2"
     inkscape:pageopacity="0.0"
     inkscape:pagecheckerboard="0"
     inkscape:deskcolor="#d1d1d1"
     inkscape:zoom="28.284271"
     inkscape:cx="7.2301669"
     inkscape:cy="8.7150911"
     inkscape:window-width="1920"
     inkscape:window-height="998"
     inkscape:window-x="0"
     inkscape:window-y="0"
     inkscape:window-maximized="1"
     inkscape:current-layer="svg1" />
  <path
     d="M 7.6301021,2.000048 C 7.2325645,2.0000402 6.8504439,2.1572852 6.5700321,2.4380322 6.2913142,2.7170392 6.1348935,3.0963434 6.1348333,3.4897552 6.1289146,3.900582 5.801636,4.2229163 5.3894043,4.2236436 5.2668057,4.2221244 5.1478736,4.1878575 5.0424162,4.1254989 a 0.3764294,0.37503679 0 0 0 -0.00585,-0.00299 C 4.3227077,3.71505 3.4020913,3.9631195 2.9913725,4.6733534 L 2.6032223,5.309097 a 0.3764294,0.37503679 0 0 0 -0.0044,0.00734 C 2.1885746,6.0257775 2.433967,6.9424182 3.1442859,7.3540172 a 0.3764294,0.37503679 0 0 0 0.0015,0.0015 c 0.2317504,0.1332881 0.3734465,0.3779601 0.3734465,0.644532 0,0.2666544 -0.1416588,0.5111914 -0.3734481,0.644534 C 2.435565,9.0538728 2.1887499,9.9697261 2.5988212,10.677725 a 0.3764294,0.37503679 0 0 0 0,0.0016 l 0.3675613,0.631306 c 0,0 0.0015,0.0016 0.0015,0.0016 0.1935332,0.346763 0.5181712,0.603465 0.9013079,0.711913 0.3838141,0.108726 0.7958429,0.05958 1.1438544,-0.134768 a 0.3764294,0.37503679 0 0 0 0.00436,-0.0032 c 0.1698213,-0.09873 0.3717481,-0.12536 0.5616453,-0.07473 a 0.3764294,0.37503679 0 0 0 0.0015,0 c 0.1899347,0.05066 0.3508121,0.174234 0.4484333,0.344236 a 0.3764294,0.37503679 0 0 0 0.00301,0.006 c 0.062871,0.105567 0.097228,0.224462 0.098511,0.347169 C 6.1323844,13.328153 6.8072719,14 7.6302,14 h 0.7365943 c 0.821362,0 1.4957815,-0.669992 1.4996971,-1.4883 a 0.3764294,0.37503679 0 0 0 0,-0.0033 c -10e-4,-0.197437 0.077482,-0.386242 0.2176076,-0.525901 0.139318,-0.138801 0.327971,-0.215399 0.524893,-0.215331 0.124569,0.0045 0.247472,0.03823 0.355809,0.09961 0.711754,0.407386 1.63233,0.162272 2.045158,-0.54484 l 0.383746,-0.63867 a 0.3764294,0.37503679 0 0 0 0.0033,-0.0046 C 13.596865,10.33681 13.652064,9.9297413 13.549553,9.5468003 13.446985,9.1639923 13.195802,8.8362356 12.851095,8.6386635 12.679772,8.5404735 12.555064,8.3792611 12.504109,8.1889568 12.453179,7.9987347 12.479599,7.7965951 12.579079,7.6264577 a 0.3764294,0.37503679 0 0 0 0.0017,-0.003 c 0.06422,-0.1115931 0.156973,-0.2040827 0.269073,-0.2680579 a 0.3764294,0.37503679 0 0 0 0.0033,-0.0015 c 0.676506,-0.3944135 0.922316,-1.2458342 0.5848,-1.9393583 a 0.3764294,0.37503679 0 0 0 -0.03978,-0.098134 L 13.031977,4.683612 C 12.621203,3.9734382 11.70064,3.7253463 10.986774,4.1328355 a 0.3764294,0.37503679 0 0 0 -0.0046,0.00299 C 10.81244,4.2354835 10.610153,4.2642606 10.419201,4.2148733 10.22831,4.1654941 10.064687,4.0416313 9.9648811,3.8721014 a 0.3764294,0.37503679 0 0 0 0,-0.0015 C 9.9021044,3.7651584 9.8677175,3.6461639 9.8664156,3.523464 V 3.538113 C 9.8780956,3.1344554 9.7254949,2.7422137 9.4429752,2.4526392 9.1604706,2.1631173 8.7719964,1.9998351 8.3667204,2.0000001 H 7.6301067 Z m 0,0.7499986 h 0.736614 c 0.2020769,-8.48e-5 0.3957302,0.081165 0.5366514,0.2255845 0.1409062,0.1443974 0.2160716,0.3392395 0.2102526,0.5405241 a 0.3764294,0.37503679 0 0 0 0,0.014649 c 0.00272,0.2536569 0.073395,0.5022743 0.2028978,0.7207035 0.2007448,0.3410094 0.5289424,0.5891165 0.9130511,0.6884762 0.38239,0.098894 0.789671,0.043243 1.130681,-0.1552721 0.361433,-0.2063247 0.810974,-0.085657 1.018893,0.2739217 l 0.352868,0.6093741 a 0.3764294,0.37503679 0 0 0 0.01323,0.026363 c 0.205214,0.3582292 0.08532,0.8039231 -0.272003,1.0121979 -0.226014,0.1296297 -0.413843,0.3167469 -0.544009,0.541994 v 0.0015 c -0.199599,0.3421171 -0.255293,0.7499362 -0.152907,1.1323455 0.102494,0.3827843 0.353584,0.7091238 0.698382,0.9067483 0.171303,0.098196 0.296054,0.2609242 0.346987,0.4511688 0.05066,0.1892541 0.02332,0.3899929 -0.07502,0.5595669 -5.08e-4,9.37e-4 5.09e-4,0.0021 0,0.003 l -0.38521,0.638673 a 0.3764294,0.37503679 0 0 0 -0.0033,0.0046 c -0.209018,0.35823 -0.65837,0.477907 -1.018797,0.271011 a 0.3764294,0.37503679 0 0 0 -0.0016,-0.0016 c -0.217717,-0.124237 -0.463289,-0.192578 -0.714267,-0.199251 a 0.3764294,0.37503679 0 0 0 -0.0071,0 c -0.398859,-0.002 -0.7824619,0.155553 -1.0645295,0.43652 -0.2818945,0.280928 -0.4400546,0.661746 -0.4381424,1.059072 -0.00355,0.412814 -0.3321054,0.738284 -0.7469041,0.738284 H 7.6301314 c -0.4173128,0 -0.7483723,-0.328469 -0.7483723,-0.744142 a 0.3764294,0.37503679 0 0 0 0,-0.005 C 6.8790955,12.248399 6.8092001,12.000314 6.6803112,11.782281 6.4830219,11.439855 6.1575256,11.188553 5.7746374,11.086477 5.3931493,10.98471 4.9857957,11.039201 4.6439566,11.235893 4.4703571,11.332853 4.2663603,11.356028 4.0749573,11.301809 3.8835547,11.247631 3.7215106,11.120732 3.6250489,10.947317 a 0.3764294,0.37503679 0 0 0 -0.003,-0.007 L 3.2515957,10.304249 C 3.0447233,9.9470915 3.1638363,9.50145 3.5221312,9.2949753 3.9857629,9.0282685 4.2719714,8.5334266 4.2719714,8.0000278 c 0,-0.5329939 -0.2867202,-1.026673 -0.7498402,-1.2934477 v -0.0015 C 3.1634449,6.4964957 3.0441362,6.0501717 3.2515957,5.6914173 L 3.6397461,5.0556736 a 0.3764294,0.37503679 0 0 0 0.00436,-0.00734 C 3.8520798,4.6887913 4.3016725,4.5666467 4.6630465,4.7729563 4.8815116,4.9008156 5.1300581,4.9710233 5.3834826,4.9736409 a 0.3764294,0.37503679 0 0 0 0.00436,0 c 0.8159803,9.9e-5 1.4879901,-0.6608014 1.4997334,-1.4735973 a 0.3764294,0.37503679 0 0 0 0,-0.00734 C 6.8866474,3.2958609 6.9643459,3.1078287 7.1037239,2.9683065 7.2430716,2.8288069 7.4325472,2.7500419 7.6300851,2.7500419 Z m 0.369037,2.9999943 c -1.2427704,0 -2.2583507,1.0118231 -2.2583507,2.2499959 0,1.2381726 1.0155803,2.2499962 2.2583507,2.2499962 1.2427705,0 2.2583499,-1.0118236 2.2583499,-2.2499962 0,-1.2381728 -1.0155794,-2.2499959 -2.2583499,-2.2499959 z m 0,0.7499986 c 0.8359664,0 1.5055671,0.6671312 1.5055671,1.4999973 0,0.8328659 -0.6696086,1.4999972 -1.5055671,1.4999972 -0.8359584,0 -1.5055669,-0.6671313 -1.5055669,-1.4999972 0,-0.8328661 0.6696085,-1.4999973 1.5055669,-1.4999973 z"
     clip-rule="evenodd"
     color="#000000"
     color-rendering="auto"
     dominant-baseline="auto"
     fill="#dedede"
     fill-rule="evenodd"
     image-rendering="auto"
     shape-rendering="auto"
     solid-color="#000000"
     stop-color="#000000"
     style="font-variant-ligatures:normal;font-variant-position:normal;font-variant-caps:normal;font-variant-numeric:normal;font-variant-alternates:normal;font-variant-east-asian:normal;font-feature-settings:normal;font-variation-settings:normal;text-indent:0;text-decoration-line:none;text-decoration-style:solid;text-decoration-color:#000000;text-transform:none;text-orientation:mixed;white-space:normal;shape-padding:0;shape-margin:0;inline-size:0;isolation:auto;mix-blend-mode:normal;stroke-width:0.751391"
     id="path1" />
</svg>
