<?xml version="1.0" encoding="UTF-8" standalone="no"?>
<svg
   height="16"
   width="16"
   version="1.1"
   id="svg1"
   sodipodi:docname="preferences-system-parental-control-symbolic.svg"
   inkscape:version="1.4 (unknown)"
   xmlns:inkscape="http://www.inkscape.org/namespaces/inkscape"
   xmlns:sodipodi="http://sodipodi.sourceforge.net/DTD/sodipodi-0.dtd"
   xmlns="http://www.w3.org/2000/svg"
   xmlns:svg="http://www.w3.org/2000/svg">
  <defs
     id="defs1" />
  <sodipodi:namedview
     id="namedview1"
     pagecolor="#ffffff"
     bordercolor="#000000"
     borderopacity="0.25"
     inkscape:showpageshadow="2"
     inkscape:pageopacity="0.0"
     inkscape:pagecheckerboard="0"
     inkscape:deskcolor="#d1d1d1"
     inkscape:zoom="48.4375"
     inkscape:cx="7.9896774"
     inkscape:cy="8"
     inkscape:window-width="1920"
     inkscape:window-height="998"
     inkscape:window-x="0"
     inkscape:window-y="0"
     inkscape:window-maximized="1"
     inkscape:current-layer="svg1" />
  <path
     d="M 5.6163199,2 C 5.1360426,2 4.7493928,2.3822858 4.7493928,2.8571425 v 0.8571433 c 0,0.4748567 0.3866498,0.8571425 0.8669271,0.8571425 h 0.866928 c 0.4802773,0 0.8669271,-0.3822858 0.8669271,-0.8571425 V 2.8571425 C 7.350175,2.3822858 6.9635252,2 6.4832479,2 Z M 5.2071298,5.4285717 4.7493928,5.7568575 3.0614844,9.0945717 C 2.771064,9.6174283 3.5903106,10.020285 3.8365179,9.4768575 L 4.7493928,7.6717142 5.0788251,6.7074283 4.7493928,9.7142858 V 14 h 0.8669271 v -3.428574 h 0.866928 V 14 H 7.350175 V 9.7142858 L 6.8924371,6.704 7.350175,7.6725717 8.2630499,9.4768575 a 0.43346376,0.42857142 0 0 0 0.1941917,0.192 L 9.9509574,10.407716 V 14 H 11.684809 V 11.177425 L 12.244847,11.732 c 0.409193,0.42 1.038579,-0.202283 0.613786,-0.606858 L 11.684809,9.9654269 V 9.7142858 H 10.485852 L 8.97393,8.966 7.350175,5.7568575 6.7493943,5.4285717 Z m 4.7438276,1.7142858 v 1.714285 h 1.7338516 v -1.714285 z"
     fill="#dedede"
     id="path1"
     style="stroke-width:0.86202" />
</svg>
