<?xml version="1.0" encoding="UTF-8" standalone="no"?>
<svg
   width="16"
   height="16"
   version="1.1"
   id="svg4"
   sodipodi:docname="preferences-ubuntu-panel-symbolic.svg"
   inkscape:version="1.4 (unknown)"
   xmlns:inkscape="http://www.inkscape.org/namespaces/inkscape"
   xmlns:sodipodi="http://sodipodi.sourceforge.net/DTD/sodipodi-0.dtd"
   xmlns="http://www.w3.org/2000/svg"
   xmlns:svg="http://www.w3.org/2000/svg">
  <defs
     id="defs4" />
  <sodipodi:namedview
     id="namedview4"
     pagecolor="#ffffff"
     bordercolor="#000000"
     borderopacity="0.25"
     inkscape:showpageshadow="2"
     inkscape:pageopacity="0.0"
     inkscape:pagecheckerboard="0"
     inkscape:deskcolor="#d1d1d1"
     inkscape:zoom="48.4375"
     inkscape:cx="7.9896774"
     inkscape:cy="8"
     inkscape:window-width="1920"
     inkscape:window-height="998"
     inkscape:window-x="0"
     inkscape:window-y="0"
     inkscape:window-maximized="1"
     inkscape:current-layer="svg4" />
  <g
     fill="#dedede"
     id="g4"
     transform="matrix(0.925,0,0,0.92307692,0.6,0.15384618)">
    <g
       fill-rule="evenodd"
       id="g3">
      <rect
         x="2"
         y="9"
         width="2"
         height="2"
         rx="0"
         ry="0"
         style="paint-order:fill markers stroke"
         id="rect1" />
      <rect
         x="2"
         y="6"
         width="2"
         height="2"
         rx="0"
         ry="0"
         style="paint-order:fill markers stroke"
         id="rect2" />
      <rect
         x="2"
         y="4"
         width="2"
         height="1"
         rx="0"
         ry="0"
         stroke-width="0.70711"
         style="paint-order:fill markers stroke"
         id="rect3" />
    </g>
    <path
       d="m 4.5,14 h 7 c 0.277,0 0.5,0.223 0.5,0.5 0,0.277 -0.223,0.5 -0.5,0.5 h -7 C 4.223,15 4,14.777 4,14.5 4,14.223 4.223,14 4.5,14 Z"
       id="path3" />
    <path
       d="M 2,2 C 0.892,2 0,2.892 0,4 v 7 c 0,1.108 0.892,2 2,2 h 12 c 1.108,0 2,-0.892 2,-2 V 4 C 16,2.892 15.108,2 14,2 Z m 0,1 h 12 c 0.554,0 1,0.446 1,1 v 7 c 0,0.554 -0.446,1 -1,1 H 2 C 1.446,12 1,11.554 1,11 V 4 C 1,3.446 1.446,3 2,3 Z"
       id="path4" />
  </g>
</svg>
