<?xml version="1.0" encoding="UTF-8" standalone="no"?>
<svg
   width="16"
   height="16"
   version="1"
   id="svg2"
   sodipodi:docname="rhythmbox-symbolic.svg"
   inkscape:version="1.4 (unknown)"
   xmlns:inkscape="http://www.inkscape.org/namespaces/inkscape"
   xmlns:sodipodi="http://sodipodi.sourceforge.net/DTD/sodipodi-0.dtd"
   xmlns="http://www.w3.org/2000/svg"
   xmlns:svg="http://www.w3.org/2000/svg">
  <defs
     id="defs2" />
  <sodipodi:namedview
     id="namedview2"
     pagecolor="#ffffff"
     bordercolor="#000000"
     borderopacity="0.25"
     inkscape:showpageshadow="2"
     inkscape:pageopacity="0.0"
     inkscape:pagecheckerboard="0"
     inkscape:deskcolor="#d1d1d1"
     inkscape:zoom="24.21875"
     inkscape:cx="7.7625806"
     inkscape:cy="7.9483871"
     inkscape:window-width="1920"
     inkscape:window-height="998"
     inkscape:window-x="0"
     inkscape:window-y="0"
     inkscape:window-maximized="1"
     inkscape:current-layer="svg2" />
  <g
     id="g2"
     transform="matrix(0.75043456,0,0,0.75,2.3495655,2)">
    <path
       d="m 7.5,13 c 4.6667,0 4.6667,-7 0,-7 -4.6667,0 -4.6667,7 0,7 z m 0,-2 C 5.4993,10.999333 5.5003,7.9983 7.501,7.999 9.5017,7.9997 9.5007,11.0007 7.5,11 Z M 5,5 C 6.3333,5 6.3333,3 5,3 3.6667,3 3.6667,5 5,5 Z m 5,0 c 1.3333,0 1.3333,-2 0,-2 -1.3333,0 -1.3333,2 0,2 z"
       fill="#dedede"
       id="path1" />
    <path
       d="M 3,0 C 1.892,0 1,0.892 1,2 v 12 c 0,1.108 0.892,2 2,2 h 9.0591 c 1.108,0 2,-0.892 2,-2 V 2 c 0,-1.108 -0.892,-2 -2,-2 z m 0,1 h 9.0591 c 0.554,0 1,0.446 1,1 v 12 c 0,0.554 -0.446,1 -1,1 H 3 C 2.446,15 2,14.554 2,14 V 2 C 2,1.446 2.446,1 3,1 Z"
       fill="#dedede"
       id="path2" />
  </g>
</svg>
