<?xml version="1.0" encoding="UTF-8" standalone="no"?>
<svg
   width="16"
   height="16"
   version="1.1"
   id="svg5"
   sodipodi:docname="scanner-symbolic.svg"
   inkscape:version="1.4 (unknown)"
   xmlns:inkscape="http://www.inkscape.org/namespaces/inkscape"
   xmlns:sodipodi="http://sodipodi.sourceforge.net/DTD/sodipodi-0.dtd"
   xmlns="http://www.w3.org/2000/svg"
   xmlns:svg="http://www.w3.org/2000/svg">
  <defs
     id="defs5" />
  <sodipodi:namedview
     id="namedview5"
     pagecolor="#ffffff"
     bordercolor="#000000"
     borderopacity="0.25"
     inkscape:showpageshadow="2"
     inkscape:pageopacity="0.0"
     inkscape:pagecheckerboard="0"
     inkscape:deskcolor="#d1d1d1"
     inkscape:zoom="24.21875"
     inkscape:cx="8.0103226"
     inkscape:cy="5.9664516"
     inkscape:window-width="1920"
     inkscape:window-height="998"
     inkscape:window-x="0"
     inkscape:window-y="0"
     inkscape:window-maximized="1"
     inkscape:current-layer="svg5" />
  <g
     fill="#dedede"
     id="g5"
     transform="matrix(0.75,0,0,0.75,2.375,2)">
    <path
       d="M 5,2 H 6 L 4,7 H 3 Z"
       id="path1" />
    <path
       d="M 6,2 H 5 l 2,5 h 1 z"
       id="path2" />
    <path
       d="m 4.5,5.5 h 2 V 5 h -2 z M 3,6.5 H 4.5 V 7 H 3 Z m 3.5,0 H 8 V 7 H 6.5 Z"
       id="path3" />
    <path
       d="m 3,10 h 9 v 1 H 3 Z m 0,2 h 9 v 1 H 3 Z"
       opacity="0.5"
       id="path4" />
    <path
       d="M 4.994,0 C 3.736,0.015 2.815,-0.03 2.063,0.385 A 1.88,1.88 0 0 0 1.225,1.383 C 1.06,1.82 1,2.343 1,3 v 10 c 0,0.658 0.06,1.179 0.225,1.617 0.164,0.439 0.461,0.789 0.838,0.996 0.752,0.415 1.673,0.372 2.931,0.387 h 5.012 c 1.258,-0.015 2.179,0.03 2.932,-0.385 a 1.88,1.88 0 0 0 0.838,-0.998 C 13.94,14.179 14,13.657 14,13 V 3 C 14,2.342 13.94,1.821 13.775,1.383 A 1.875,1.875 0 0 0 12.938,0.387 C 12.185,-0.028 11.264,0.015 10.006,0 H 4.998 Z M 5,1 h 5 c 1.259,0.015 2.09,0.06 2.455,0.262 0.184,0.1 0.287,0.213 0.385,0.472 C 12.937,1.994 13,2.408 13,3 V 8 H 2 V 3 C 2,2.408 2.063,1.994 2.16,1.734 2.258,1.474 2.362,1.363 2.545,1.262 2.91,1.06 3.74,1.015 5,1 Z M 2,9 h 11 v 4 c 0,0.592 -0.062,1.006 -0.16,1.266 -0.098,0.26 -0.201,0.371 -0.385,0.472 C 12.089,14.94 11.259,14.985 10,15 H 5 C 3.741,14.985 2.91,14.94 2.545,14.738 2.361,14.638 2.258,14.525 2.16,14.266 2.062,14.006 2,13.592 2,13 Z"
       id="path5" />
  </g>
</svg>
