<?xml version="1.0" encoding="UTF-8" standalone="no"?>
<svg
   height="16"
   width="16"
   version="1.1"
   id="svg2"
   sodipodi:docname="screenshot-app-symbolic.svg"
   inkscape:version="1.4 (unknown)"
   xmlns:inkscape="http://www.inkscape.org/namespaces/inkscape"
   xmlns:sodipodi="http://sodipodi.sourceforge.net/DTD/sodipodi-0.dtd"
   xmlns="http://www.w3.org/2000/svg"
   xmlns:svg="http://www.w3.org/2000/svg">
  <defs
     id="defs2" />
  <sodipodi:namedview
     id="namedview2"
     pagecolor="#ffffff"
     bordercolor="#000000"
     borderopacity="0.25"
     inkscape:showpageshadow="2"
     inkscape:pageopacity="0.0"
     inkscape:pagecheckerboard="0"
     inkscape:deskcolor="#d1d1d1"
     inkscape:zoom="48.4375"
     inkscape:cx="7.9896774"
     inkscape:cy="8"
     inkscape:window-width="1920"
     inkscape:window-height="998"
     inkscape:window-x="0"
     inkscape:window-y="0"
     inkscape:window-maximized="1"
     inkscape:current-layer="svg2" />
  <g
     fill="#dedede"
     id="g2"
     transform="matrix(0.92307692,0,0,0.92307692,0.15384618,0.15384618)">
    <path
       d="m 11,12 h 5 v 1 h -5 z"
       id="path1" />
    <path
       d="m 13,10 h 1 v 5 h -1 z m 0,-2 h 1 V 9 H 13 Z M 1,8 H 2 V 9 H 1 Z M 13,4 h 1 V 5 H 13 Z M 1,4 H 2 V 5 H 1 Z M 13,2 h 1 V 3 H 13 Z M 1,2 H 2 V 3 H 1 Z m 0,8 h 1 v 1 H 1 Z m 0,2 h 1 v 1 H 1 Z m 2,0 h 1 v 1 H 3 Z m 2,0 h 1 v 1 H 5 Z m 2,0 h 1 v 1 H 7 Z M 3,2 H 4 V 3 H 3 Z M 5,2 H 6 V 3 H 5 Z M 7,2 H 8 V 3 H 7 Z m 4,0 h 1 V 3 H 11 Z M 9,12 h 1 v 1 H 9 Z M 9,2 h 1 V 3 H 9 Z m 4,4 h 1 V 7 H 13 Z M 1,6 H 2 V 7 H 1 Z"
       id="path2" />
  </g>
</svg>
