<?xml version="1.0" encoding="UTF-8" standalone="no"?>
<svg
   width="16"
   height="16"
   version="1.1"
   id="svg2"
   sodipodi:docname="session-properties-symbolic.svg"
   inkscape:version="1.4 (unknown)"
   xmlns:inkscape="http://www.inkscape.org/namespaces/inkscape"
   xmlns:sodipodi="http://sodipodi.sourceforge.net/DTD/sodipodi-0.dtd"
   xmlns="http://www.w3.org/2000/svg"
   xmlns:svg="http://www.w3.org/2000/svg">
  <defs
     id="defs2" />
  <sodipodi:namedview
     id="namedview2"
     pagecolor="#ffffff"
     bordercolor="#000000"
     borderopacity="0.25"
     inkscape:showpageshadow="2"
     inkscape:pageopacity="0.0"
     inkscape:pagecheckerboard="0"
     inkscape:deskcolor="#d1d1d1"
     inkscape:zoom="48.4375"
     inkscape:cx="7.9896774"
     inkscape:cy="8"
     inkscape:window-width="1920"
     inkscape:window-height="998"
     inkscape:window-x="0"
     inkscape:window-y="0"
     inkscape:window-maximized="1"
     inkscape:current-layer="svg2" />
  <g
     color="#000000"
     fill="#dedede"
     font-family="sans-serif"
     font-weight="400"
     id="g2"
     transform="matrix(0.92307692,0,0,0.92307692,0.61536388,1.0769231)">
    <path
       d="M 3.994,10 C 2.736,9.985 1.815,10.03 1.063,9.615 A 1.88,1.88 0 0 1 0.225,8.617 C 0.06,8.18 0,7.657 0,7 V 4 C 0,3.342 0.06,2.821 0.225,2.383 A 1.88,1.88 0 0 1 1.063,1.385 C 1.815,0.969 2.736,1.015 3.994,1 h 4.012 c 1.258,0.015 2.179,-0.03 2.932,0.385 0.376,0.207 0.673,0.56 0.838,0.998 C 11.94,2.821 12,3.343 12,4 v 3 c 0,0.658 -0.06,1.179 -0.225,1.617 A 1.88,1.88 0 0 1 10.938,9.615 C 10.185,10.031 9.264,9.985 8.006,10 H 3.998 Z M 4,9 H 8 C 9.259,8.985 10.087,8.94 10.453,8.738 10.637,8.638 10.743,8.526 10.84,8.266 10.937,8.006 11,7.592 11,7 V 4 C 11,3.408 10.937,2.994 10.84,2.734 10.742,2.474 10.639,2.363 10.455,2.262 10.09,2.06 9.26,2.015 8,2 H 4 C 2.741,2.015 1.91,2.06 1.545,2.262 1.361,2.362 1.258,2.474 1.16,2.734 1.062,2.994 1,3.408 1,4 V 7 C 1,7.592 1.062,8.006 1.16,8.266 1.258,8.526 1.361,8.637 1.545,8.738 1.91,8.94 2.74,8.985 4,9 Z"
       overflow="visible"
       solid-color="#000000"
       style="font-variant-ligatures:normal;font-variant-position:normal;font-variant-caps:normal;font-variant-numeric:normal;font-variant-alternates:normal;font-feature-settings:normal;text-indent:0;text-decoration-line:none;text-decoration-style:solid;text-decoration-color:#000000;text-transform:none;text-orientation:mixed;white-space:normal;shape-padding:0;isolation:auto;mix-blend-mode:normal"
       id="path1" />
    <path
       d="m 13,5 v 1 h 1 v 0.004 c 0.113,0.006 0.312,0.004 0.398,0.014 0.306,0.035 0.408,0.093 0.444,0.129 0.036,0.035 0.093,0.133 0.125,0.435 C 14.999,6.884 15,7.348 15,7.977 v 3.011 c 0,0.595 -0.063,1.009 -0.16,1.27 -0.098,0.26 -0.203,0.373 -0.387,0.475 -0.366,0.202 -1.194,0.248 -2.453,0.263 H 7 C 6.042,12.996 5.503,12.854 5.277,12.703 5.052,12.553 5,12.411 5,11.993 V 11 H 4 v 1 c 0.002,0.583 0.2,1.19 0.723,1.54 C 5.247,13.89 5.958,14 7,14 h 5.006 c 1.258,-0.015 2.179,0.03 2.932,-0.387 0.376,-0.208 0.673,-0.561 0.838,-1.002 C 15.94,12.171 16,11.649 16,10.988 V 7.977 C 16,7.35 16.003,6.876 15.96,6.477 15.918,6.077 15.823,5.71 15.549,5.436 15.275,5.161 14.911,5.066 14.512,5.02 14.376,5.004 14.157,5.007 14,5 Z"
       opacity="0.5"
       overflow="visible"
       solid-color="#000000"
       style="font-variant-ligatures:normal;font-variant-position:normal;font-variant-caps:normal;font-variant-numeric:normal;font-variant-alternates:normal;font-feature-settings:normal;text-indent:0;text-decoration-line:none;text-decoration-style:solid;text-decoration-color:#000000;text-transform:none;text-orientation:mixed;white-space:normal;shape-padding:0;isolation:auto;mix-blend-mode:normal"
       id="path2" />
  </g>
</svg>
