<?xml version="1.0" encoding="UTF-8" standalone="no"?>
<svg
   width="16"
   height="16"
   version="1.1"
   id="svg1"
   sodipodi:docname="setroubleshoot_icon-symbolic.svg"
   inkscape:version="1.4 (unknown)"
   xmlns:inkscape="http://www.inkscape.org/namespaces/inkscape"
   xmlns:sodipodi="http://sodipodi.sourceforge.net/DTD/sodipodi-0.dtd"
   xmlns="http://www.w3.org/2000/svg"
   xmlns:svg="http://www.w3.org/2000/svg">
  <defs
     id="defs1" />
  <sodipodi:namedview
     id="namedview1"
     pagecolor="#ffffff"
     bordercolor="#000000"
     borderopacity="0.25"
     inkscape:showpageshadow="2"
     inkscape:pageopacity="0.0"
     inkscape:pagecheckerboard="0"
     inkscape:deskcolor="#d1d1d1"
     inkscape:zoom="48.4375"
     inkscape:cx="7.9896774"
     inkscape:cy="8"
     inkscape:window-width="1920"
     inkscape:window-height="998"
     inkscape:window-x="0"
     inkscape:window-y="0"
     inkscape:window-maximized="1"
     inkscape:current-layer="svg1" />
  <path
     d="m 8.5,2 v 5 h 1 v 4 l 3,-5 h -1 L 13,2 Z m -4,1 v 1 h 2 V 5 H 5 L 2.5,7.5 V 9 h -1 V 7 h -1 v 6 h 1 v -2 h 1 v 1 c 0,1 1,1 1,1 h 2 l 1,1 h 5 c 0,0 1,0 1,-1 v -2 h 1 v 2 h 2 V 6 h -2 v 2 h -1 l -2,3.275 V 12 h -3 l -1,-1 h -2 V 8.5 L 6,7 H 7.5 V 3 Z"
     fill="#dedede"
     id="path1" />
</svg>
