<?xml version="1.0" encoding="UTF-8" standalone="no"?>
<svg
   width="16"
   height="16"
   version="1.1"
   id="svg1"
   sodipodi:docname="software-store-symbolic.svg"
   inkscape:version="1.4 (unknown)"
   xmlns:inkscape="http://www.inkscape.org/namespaces/inkscape"
   xmlns:sodipodi="http://sodipodi.sourceforge.net/DTD/sodipodi-0.dtd"
   xmlns="http://www.w3.org/2000/svg"
   xmlns:svg="http://www.w3.org/2000/svg">
  <defs
     id="defs1" />
  <sodipodi:namedview
     id="namedview1"
     pagecolor="#ffffff"
     bordercolor="#000000"
     borderopacity="0.25"
     inkscape:showpageshadow="2"
     inkscape:pageopacity="0.0"
     inkscape:pagecheckerboard="0"
     inkscape:deskcolor="#d1d1d1"
     inkscape:zoom="48.4375"
     inkscape:cx="7.9896774"
     inkscape:cy="8"
     inkscape:window-width="1920"
     inkscape:window-height="998"
     inkscape:window-x="0"
     inkscape:window-y="0"
     inkscape:window-maximized="1"
     inkscape:current-layer="svg1" />
  <path
     d="m 6.8498269,1.9999999 c -0.1846852,0 -0.2262429,0.00804 -0.3479405,0.06784 -0.1763548,0.086582 -0.3253644,0.2357875 -0.4036682,0.4041686 -0.083186,0.1788367 -0.098246,0.4524257 -0.034219,0.6206711 0.024332,0.063931 0.247017,0.4663231 0.4948507,0.8942258 0.2478329,0.4278937 0.4511759,0.7940586 0.4518979,0.8137027 7.419e-4,0.01964 -0.6101217,1.0945762 -1.3574885,2.3887388 l -1.3587636,2.3530358 -2.467026,0.013558 -0.1394975,0.065069 c -0.1817096,0.084764 -0.3404687,0.2427997 -0.4224621,0.4205489 -0.055559,0.120421 -0.065554,0.17219 -0.06566,0.339703 0,0.16788 0.00961,0.218599 0.06503,0.337113 0.1101886,0.236017 0.3280669,0.417975 0.5683434,0.474594 0.048609,0.0116 1.8345227,0.02158 4.0302209,0.02292 l 3.9429236,0.0023 0.044314,-0.04903 c 0.037318,-0.0414 0.044071,-0.08435 0.043011,-0.273241 C 9.8904603,10.322895 9.5599202,9.7758927 9.1076308,9.594753 9.0231054,9.560896 8.8426613,9.5547929 7.615243,9.544397 L 6.2189928,9.5326157 6.6175269,8.8467821 C 9.0973882,4.5797441 9.898197,3.1911442 9.9361078,3.0927117 9.9711062,3.0020062 9.9788961,2.9356013 9.9714277,2.7904686 9.9544878,2.4613899 9.7908815,2.211474 9.4983797,2.067854 9.3767325,2.0081281 9.3350475,2.0000136 9.1509149,2.0000136 c -0.1819052,0 -0.2283419,0.00879 -0.3554887,0.067517 -0.2016343,0.093114 -0.3235788,0.2364198 -0.572678,0.6731279 -0.1141079,0.2000194 -0.2146996,0.3636829 -0.2235569,0.3636829 -0.00879,0 -0.1090155,-0.163332 -0.2226385,-0.3629519 C 7.5262634,2.3015962 7.4223225,2.1786144 7.2144237,2.0762635 7.07405,2.0071566 7.0398282,2.0000219 6.8497967,2.0000219 Z m 2.3900987,3.267409 C 9.1906756,5.2658889 9.0631372,5.3912235 8.9746075,5.5281877 8.6678077,6.0028501 8.5455318,6.9793495 8.716234,7.5915377 8.748652,7.707804 9.1511744,8.421901 10.46567,10.695061 c 0.939023,1.624056 1.743147,2.992342 1.786839,3.041048 0.234984,0.260974 0.623539,0.337579 0.955933,0.188407 0.314011,-0.140926 0.510014,-0.475214 0.480912,-0.820261 -0.0068,-0.08471 -0.03411,-0.201152 -0.05985,-0.258693 -0.02579,-0.05755 -0.244194,-0.444626 -0.485415,-0.860222 l -0.438548,-0.755588 1.46706,-0.02323 0.139493,-0.06516 c 0.181712,-0.08474 0.340471,-0.242819 0.422466,-0.42057 0.05559,-0.120429 0.0655,-0.172118 0.06559,-0.339632 0,-0.167849 -0.0094,-0.21862 -0.06495,-0.337113 C 14.650533,9.8624507 14.492379,9.7036075 14.31463,9.6214611 L 14.172609,9.5559377 11.730489,9.5423793 10.498803,7.4054179 C 9.8213595,6.2299255 9.2547925,5.2677831 9.2398321,5.2674428 Z M 3.4222729,11.601621 c -0.1318897,2.78e-4 -0.243481,0.01178 -0.2900623,0.03557 -0.049853,0.02562 -0.1388093,0.157314 -0.3449995,0.511051 -0.4145059,0.711066 -0.4458294,0.782125 -0.4452597,1.00983 8.499e-4,0.360589 0.1970611,0.645255 0.5401227,0.783689 0.1565827,0.06315 0.4818703,0.04921 0.6427883,-0.02763 0.2147162,-0.102452 0.3149255,-0.235787 0.7682776,-1.021982 l 0.4223262,-0.732314 -0.037379,-0.06652 C 4.5786776,11.916325 4.281348,11.740551 3.9366797,11.654996 3.7949806,11.61981 3.5918416,11.601332 3.4222619,11.60161 Z"
     fill="#dedede"
     stroke-width="1.36007"
     id="path1" />
</svg>
