<?xml version="1.0" encoding="UTF-8" standalone="no"?>
<svg
   width="16"
   height="16"
   version="1.1"
   id="svg2"
   sodipodi:docname="sparkleshare-symbolic.svg"
   inkscape:version="1.4 (unknown)"
   xmlns:inkscape="http://www.inkscape.org/namespaces/inkscape"
   xmlns:sodipodi="http://sodipodi.sourceforge.net/DTD/sodipodi-0.dtd"
   xmlns="http://www.w3.org/2000/svg"
   xmlns:svg="http://www.w3.org/2000/svg">
  <defs
     id="defs2" />
  <sodipodi:namedview
     id="namedview2"
     pagecolor="#ffffff"
     bordercolor="#000000"
     borderopacity="0.25"
     inkscape:showpageshadow="2"
     inkscape:pageopacity="0.0"
     inkscape:pagecheckerboard="0"
     inkscape:deskcolor="#d1d1d1"
     inkscape:zoom="48.4375"
     inkscape:cx="7.9896774"
     inkscape:cy="8"
     inkscape:window-width="1920"
     inkscape:window-height="998"
     inkscape:window-x="0"
     inkscape:window-y="0"
     inkscape:window-maximized="1"
     inkscape:current-layer="svg2" />
  <g
     id="g2"
     transform="matrix(0.92307692,0,0,0.92307692,0.61538464,0.15384618)">
    <path
       d="m 10.626,7.93 c 0.736,0 0.199,1.63 0.795,2.06 0.599,0.43 1.979,-0.58 2.209,0.12 0.22,0.7 -1.49,0.69 -1.719,1.39 -0.228,0.7 1.169,1.7 0.569,2.13 -0.597,0.44 -1.118,-1.2 -1.854,-1.2 -0.737,0 -1.258,1.64 -1.854,1.2 C 8.176,13.2 9.568,12.2 9.341,11.5 9.113,10.8 7.398,10.81 7.626,10.11 7.853,9.41 9.235,10.42 9.831,9.99 10.426,9.56 9.89,7.93 10.626,7.93 Z"
       fill="#dedede"
       id="path1" />
    <path
       class="ColorScheme-Text"
       d="M 2,2 C 0.892,2 0,2.892 0,4 v 9 c 0,1.108 0.892,2 2,2 h 12 c 1.108,0 2,-0.892 2,-2 V 5 C 16,3.892 15.108,3 14,3 H 6.3711 C 5.79125,2.9771 5.76636,3.076886 5.332,2.64258 4.89819,2.20877 4.71903,2.00045 4,2 Z m 0,1 h 2 c 0.31116,-1.7e-6 0.52033,1.383e-4 0.99805,0.4707 C 5.47682,3.94231 5.63685,4 5.99805,4 h 8.002 c 0.554,0 1,0.446 1,1 v 1 h -14 V 4 c 0,-0.554 0.446,-1 1,-1 z M 1,7 h 14 v 6 c 0,0.554 -0.446,1 -1,1 H 2 C 1.446,14 1,13.554 1,13 Z"
       color="#dedede"
       fill="currentColor"
       id="path2" />
  </g>
</svg>
