<?xml version="1.0" encoding="UTF-8" standalone="no"?>
<svg
   width="16"
   height="16"
   version="1.1"
   id="svg8"
   sodipodi:docname="speedometer-symbolic.svg"
   inkscape:version="1.4 (unknown)"
   xmlns:inkscape="http://www.inkscape.org/namespaces/inkscape"
   xmlns:sodipodi="http://sodipodi.sourceforge.net/DTD/sodipodi-0.dtd"
   xmlns="http://www.w3.org/2000/svg"
   xmlns:svg="http://www.w3.org/2000/svg">
  <defs
     id="defs8" />
  <sodipodi:namedview
     id="namedview8"
     pagecolor="#ffffff"
     bordercolor="#000000"
     borderopacity="0.25"
     inkscape:showpageshadow="2"
     inkscape:pageopacity="0.0"
     inkscape:pagecheckerboard="0"
     inkscape:deskcolor="#d1d1d1"
     inkscape:zoom="24.21875"
     inkscape:cx="8.6709677"
     inkscape:cy="14.430968"
     inkscape:window-width="1920"
     inkscape:window-height="998"
     inkscape:window-x="0"
     inkscape:window-y="0"
     inkscape:window-maximized="1"
     inkscape:current-layer="svg8" />
  <g
     id="g8"
     transform="matrix(0.8270244,0,0,0.8270244,1.38378,1.1729756)">
    <path
       d="m 5.1777,5.6719 c -0.12781,0 -0.25558,0.04855 -0.35352,0.14648 -0.19587,0.19587 -0.19587,0.51116 0,0.70703 l 2.4746,2.4746 h 1.4141 L 5.53128,5.81841 C 5.433346,5.720476 5.30557,5.67193 5.17776,5.67193 Z"
       fill="#dedede"
       id="path1" />
    <path
       d="m 8,1 a 8,8 0 0 0 -8,8 8,8 0 0 0 3.3496,6.5098 l 0.58203,-0.81445 a 7,7 0 0 1 -2.9316,-5.6953 7,7 0 0 1 6.9062,-7 7,7 0 0 1 0.09375,0 7,7 0 0 1 7,7 7,7 0 0 1 -2.9316,5.6973 l 0.58008,0.8125 a 8,8 0 0 0 3.3516,-6.5098 8,8 0 0 0 -8,-8 z"
       fill="#dedede"
       id="path2" />
    <circle
       cx="8"
       cy="9"
       r="1"
       fill="#dedede"
       id="circle2" />
    <rect
       x="7.5054998"
       y="1.5261"
       width="1"
       height="1.4739"
       rx="0"
       ry="0"
       fill="#dedede"
       id="rect2" />
    <rect
       transform="rotate(45)"
       x="11.525"
       y="-6.7707"
       width="1"
       height="1.4739"
       rx="0"
       ry="0"
       fill="#dedede"
       id="rect3" />
    <rect
       transform="rotate(45)"
       x="11.525"
       y="6.7031999"
       width="1"
       height="1.4739"
       rx="0"
       ry="0"
       fill="#dedede"
       id="rect4" />
    <rect
       transform="rotate(90)"
       x="8.5"
       y="-15.479"
       width="1"
       height="1.4739"
       rx="0"
       ry="0"
       fill="#dedede"
       id="rect5" />
    <rect
       transform="rotate(90)"
       x="8.5"
       y="-2.0055001"
       width="1"
       height="1.4739"
       rx="0"
       ry="0"
       fill="#dedede"
       id="rect6" />
    <rect
       transform="rotate(135)"
       x="0.20321999"
       y="-19.499001"
       width="1"
       height="1.4739"
       rx="0"
       ry="0"
       fill="#dedede"
       id="rect7" />
    <rect
       transform="rotate(135)"
       x="0.20321999"
       y="-6.0247002"
       width="1"
       height="1.4739"
       rx="0"
       ry="0"
       fill="#dedede"
       id="rect8" />
  </g>
</svg>
