<?xml version="1.0" encoding="UTF-8" standalone="no"?>
<svg
   width="16"
   height="16"
   version="1.1"
   id="svg1"
   sodipodi:docname="sudoku-app-symbolic.svg"
   inkscape:version="1.4 (unknown)"
   xmlns:inkscape="http://www.inkscape.org/namespaces/inkscape"
   xmlns:sodipodi="http://sodipodi.sourceforge.net/DTD/sodipodi-0.dtd"
   xmlns="http://www.w3.org/2000/svg"
   xmlns:svg="http://www.w3.org/2000/svg">
  <defs
     id="defs1" />
  <sodipodi:namedview
     id="namedview1"
     pagecolor="#ffffff"
     bordercolor="#000000"
     borderopacity="0.25"
     inkscape:showpageshadow="2"
     inkscape:pageopacity="0.0"
     inkscape:pagecheckerboard="0"
     inkscape:deskcolor="#d1d1d1"
     inkscape:zoom="48.4375"
     inkscape:cx="7.9896774"
     inkscape:cy="8"
     inkscape:window-width="1920"
     inkscape:window-height="998"
     inkscape:window-x="0"
     inkscape:window-y="0"
     inkscape:window-maximized="1"
     inkscape:current-layer="svg1" />
  <path
     d="m 5.8570878,1.9998452 c -0.2374347,0 -0.4285823,0.1911479 -0.4285823,0.4285824 V 5.4285051 H 2.4284281 a 0.42858256,0.42858256 0 1 0 0,0.857165 H 5.4285055 V 9.7143297 H 2.4284281 a 0.42858259,0.42858259 0 1 0 0,0.8571633 h 3.0000774 v 3.000079 a 0.42858252,0.42858252 0 1 0 0.8571649,0 v -3.000079 h 3.4286597 v 3.000079 a 0.42858259,0.42858259 0 1 0 0.8571649,0 v -3.000079 h 3.000077 a 0.42858259,0.42858259 0 1 0 0,-0.8571633 H 10.571495 V 6.2856701 h 3.000077 a 0.42858256,0.42858256 0 1 0 0,-0.857165 H 10.571495 V 2.4284276 a 0.42858259,0.42858259 0 1 0 -0.8571649,0 V 5.4285051 H 6.2856704 V 2.4284276 c 0,-0.2374345 -0.1911481,-0.4285824 -0.4285826,-0.4285824 z M 6.2856704,6.2856701 H 9.7143301 V 9.7143297 H 6.2856704 Z"
     fill="#dedede"
     id="path1"
     style="stroke-width:0.857165" />
</svg>
