<?xml version="1.0" encoding="UTF-8" standalone="no"?>
<svg
   height="16"
   width="16"
   version="1.1"
   id="svg1"
   sodipodi:docname="system-help-symbolic.svg"
   inkscape:version="1.4 (unknown)"
   xmlns:inkscape="http://www.inkscape.org/namespaces/inkscape"
   xmlns:sodipodi="http://sodipodi.sourceforge.net/DTD/sodipodi-0.dtd"
   xmlns="http://www.w3.org/2000/svg"
   xmlns:svg="http://www.w3.org/2000/svg">
  <defs
     id="defs1" />
  <sodipodi:namedview
     id="namedview1"
     pagecolor="#ffffff"
     bordercolor="#000000"
     borderopacity="0.25"
     inkscape:showpageshadow="2"
     inkscape:pageopacity="0.0"
     inkscape:pagecheckerboard="0"
     inkscape:deskcolor="#d1d1d1"
     inkscape:zoom="24.21875"
     inkscape:cx="18.043871"
     inkscape:cy="8.32"
     inkscape:window-width="1920"
     inkscape:window-height="998"
     inkscape:window-x="0"
     inkscape:window-y="0"
     inkscape:window-maximized="1"
     inkscape:current-layer="svg1" />
  <g
     id="g1"
     transform="matrix(0.75,0,0,0.75,2,2)">
    <path
       color="#bebebe"
       d="M 8,0 C 3.576,0 0,3.576 0,8 c 0,4.424 3.576,8 8,8 4.424,0 8,-3.576 8,-8 C 16,3.576 12.424,0 8,0 Z m 0,1 c 3.87,0 7,3.13 7,7 0,3.87 -3.13,7 -7,7 C 4.13,15 1,11.87 1,8 1,4.13 4.13,1 8,1 Z M 8.063,3 C 6.811,2.976 5.499,3.47 5.093,4.438 c -0.234,0.538 -0.006,1.5 0.782,1.5 0.46,0 0.653,-0.315 0.688,-0.594 C 6.589,5.132 6.519,4.956 6.469,4.781 6.412,4.582 6.642,4.188 6.906,4.031 7.127,3.9 7.372,3.852 7.406,3.844 8.201,3.648 8.982,4.099 9.313,4.625 9.643,5.151 9.273,5.942 8.75,6.719 8.227,7.495 7.685,8.376 7.688,9.312 7.688,9.669 7.634,9.793 7.656,9.938 7.674,10.053 8.059,10.054 8.344,10 8.319,9.093 8.508,8.186 9.344,7.562 10.227,6.857 11.09,5.978 11,4.937 10.98,3.934 9.822,3.144 8.594,3.031 A 4.39,4.39 0 0 0 8.063,3 Z m -0.344,8.219 c -0.603,0.148 -0.962,0.914 -0.563,1.406 0.408,0.621 1.554,0.453 1.75,-0.25 0.204,-0.547 -0.307,-1.165 -0.937,-1.156 -0.095,-0.005 -0.164,-0.021 -0.25,0 z"
       fill="#dedede"
       overflow="visible"
       style="text-indent:0;text-transform:none;marker:none"
       id="path1" />
  </g>
</svg>
