<?xml version="1.0" encoding="UTF-8" standalone="no"?>
<svg
   width="16"
   height="16"
   version="1.1"
   id="svg1"
   sodipodi:docname="system-users-symbolic.svg"
   inkscape:version="1.4 (unknown)"
   xmlns:inkscape="http://www.inkscape.org/namespaces/inkscape"
   xmlns:sodipodi="http://sodipodi.sourceforge.net/DTD/sodipodi-0.dtd"
   xmlns="http://www.w3.org/2000/svg"
   xmlns:svg="http://www.w3.org/2000/svg">
  <defs
     id="defs1" />
  <sodipodi:namedview
     id="namedview1"
     pagecolor="#ffffff"
     bordercolor="#000000"
     borderopacity="0.25"
     inkscape:showpageshadow="2"
     inkscape:pageopacity="0.0"
     inkscape:pagecheckerboard="0"
     inkscape:deskcolor="#d1d1d1"
     inkscape:zoom="48.4375"
     inkscape:cx="7.9896774"
     inkscape:cy="8"
     inkscape:window-width="1920"
     inkscape:window-height="998"
     inkscape:window-x="0"
     inkscape:window-y="0"
     inkscape:window-maximized="1"
     inkscape:current-layer="svg1" />
  <g
     transform="matrix(0.85714078,0,0,0.85714078,1.9074433,0.81745426)"
     fill="#dedede"
     stroke-linecap="square"
     style="paint-order:stroke fill markers"
     aria-label=""
     id="g1">
    <path
       transform="translate(-0.89198,0.37964)"
       d="M 3,1 C 1.892,1 1,1.892 1,3 v 10 c 0,1.108 0.892,2 2,2 h 1 a 4,4 0 0 1 0.29492,-1.5078 c 0.00706,-0.0178 0.01,-0.03707 0.017578,-0.05469 0.00736,-0.0173 0.01784,-0.03169 0.025391,-0.04883 a 4,4 0 0 1 0.29297,-0.54297 c 0.038423,-0.06088 0.07969,-0.11942 0.12109,-0.17773 A 4,4 0 0 1 5.076169,12.2715 C 5.081509,12.2658 5.086418,12.25963 5.091794,12.25392 5.118167,12.22593 5.136819,12.19131 5.16406,12.16408 5.195908,12.13223 5.234744,12.10881 5.26758,12.07814 A 4,4 0 0 1 5.6582,11.75783 c 0.063812,-0.0458 0.1285,-0.09064 0.19531,-0.13281 A 4,4 0 0 1 6.33984,11.36135 C 6.37131,11.34692 6.397668,11.32629 6.429684,11.31252 6.461248,11.29909 6.495495,11.29384 6.52734,11.28127 a 4,4 0 0 1 0.60352,-0.18555 c 0.035699,-0.0077 0.071405,-0.01477 0.10742,-0.02148 A 4,4 0 0 1 8,11.000024 a 4,4 0 0 1 0.72656,0.06836 c 0.076913,0.01304 0.1514,0.03153 0.22656,0.04883 a 4,4 0 0 1 0.40039,0.11914 c 0.073665,0.02566 0.15278,0.03824 0.22461,0.06836 0.48959,0.20311 0.91412,0.48439 1.2734,0.84375 0.35936,0.35939 0.64064,0.78392 0.84375,1.2734 0.02696,0.06428 0.03942,0.13451 0.06055,0.20117 a 4,4 0 0 1 0.24414,1.377 h 1 c 1.108,0 2,-0.892 2,-2 v -10 c 0,-1.108 -0.892,-2 -2,-2 h -10 z m 0,1 h 10 c 0.554,0 1,0.446 1,1 v 10 c 0,0.554 -0.446,1 -1,1 h -0.09375 c -0.07812,-0.39579 -0.20053,-0.77346 -0.36719,-1.1328 -0.16666,-0.36458 -0.37241,-0.70055 -0.61719,-1.0078 -0.23958,-0.30728 -0.51564,-0.58074 -0.82812,-0.82031 -0.31246,-0.24478 -0.6537,-0.45053 -1.0234,-0.61719 0.29687,-0.17708 0.56512,-0.39064 0.80469,-0.64062 0.23958,-0.24999 0.44272,-0.52345 0.60938,-0.82031 0.16666,-0.29685 0.29427,-0.60939 0.38281,-0.9375 0.08854,-0.3333 0.13281,-0.67454 0.13281,-1.0234 0,-0.55207 -0.10418,-1.0703 -0.3125,-1.5547 C 11.47922,4.95578 11.19274,4.53125 10.82816,4.17197 10.46877,3.8074 10.04424,3.52093 9.55476,3.31259 9.0704,3.10427 8.55216,3.00009 8.00006,3.00009 7.448,3.00009 6.92716,3.10427 6.43756,3.31259 5.95318,3.52091 5.52865,3.80739 5.16416,4.17197 4.8048,4.53135 4.52092,4.95588 4.3126,5.44537 4.10428,5.92973 4.00205,6.44797 4.00205,7.00007 c 0,0.34891 0.042318,0.69015 0.13086,1.0234 0.088541,0.33333 0.21616,0.65106 0.38281,0.95312 0.17187,0.29686 0.37762,0.57032 0.61719,0.82031 0.23957,0.24478 0.51043,0.45574 0.8125,0.63281 -0.36975,0.16145 -0.71099,0.3646 -1.0234,0.60937 -0.31248,0.24478 -0.59115,0.52084 -0.83594,0.82813 -0.24479,0.30728 -0.45313,0.64325 -0.625,1.0078 -0.16666,0.35935 -0.28906,0.73439 -0.36719,1.125 H 3.00013 c -0.554,0 -1,-0.446 -1,-1 v -10 c 0,-0.554 0.446,-1 1,-1 z m 5,2 c 0.41147,0 0.79945,0.080732 1.1641,0.24219 0.36457,0.15624 0.6823,0.3698 0.95313,0.64062 0.27082,0.27083 0.48438,0.58856 0.64062,0.95312 0.16145,0.36457 0.24219,0.75256 0.24219,1.1641 0,0.41147 -0.08074,0.79945 -0.24219,1.1641 -0.15624,0.36457 -0.3698,0.6823 -0.64062,0.95312 C 9.8464,9.38807 9.52867,9.60424 9.1641,9.76569 8.79951,9.92193 8.41152,10.00007 8,10.00007 7.58853,10.00007 7.20055,9.921941 6.8359,9.76569 6.47133,9.60424 6.1536,9.38808 5.88278,9.11725 5.61196,8.84642 5.3958,8.52869 5.23434,8.16413 5.07809,7.79956 4.99996,7.41157 4.99996,7.00003 4.99996,6.58856 5.078085,6.20058 5.23434,5.83593 5.39579,5.47136 5.61195,5.15363 5.88278,4.88281 6.15361,4.61199 6.47134,4.39843 6.8359,4.24219 7.20049,4.08074 7.58848,4 8,4 Z"
       id="path1" />
  </g>
</svg>
