<?xml version="1.0" encoding="UTF-8" standalone="no"?>
<svg
   width="16"
   height="16"
   version="1.1"
   id="svg2"
   sodipodi:docname="system-software-install-symbolic.svg"
   inkscape:version="1.4 (unknown)"
   xmlns:inkscape="http://www.inkscape.org/namespaces/inkscape"
   xmlns:sodipodi="http://sodipodi.sourceforge.net/DTD/sodipodi-0.dtd"
   xmlns="http://www.w3.org/2000/svg"
   xmlns:svg="http://www.w3.org/2000/svg">
  <sodipodi:namedview
     id="namedview2"
     pagecolor="#ffffff"
     bordercolor="#000000"
     borderopacity="0.25"
     inkscape:showpageshadow="2"
     inkscape:pageopacity="0.0"
     inkscape:pagecheckerboard="0"
     inkscape:deskcolor="#d1d1d1"
     inkscape:zoom="48.4375"
     inkscape:cx="7.9896774"
     inkscape:cy="8"
     inkscape:window-width="1920"
     inkscape:window-height="998"
     inkscape:window-x="0"
     inkscape:window-y="0"
     inkscape:window-maximized="1"
     inkscape:current-layer="svg2" />
  <defs
     id="defs1">
    <style
       id="current-color-scheme"
       type="text/css">.ColorScheme-Text { color:#dedede; }</style>
  </defs>
  <g
     id="g2"
     transform="matrix(0.85714117,0,0,0.85714117,1.1429001,1.1428824)">
    <path
       d="M 2,2 C 1.446,2 1,2.446 1,3 v 11 c 0,0.554 0.446,1 1,1 h 11 c 0.554,0 1,-0.446 1,-1 V 8 H 8 V 2 Z M 2,3 H 7 V 8 H 2 Z m 0,6 h 5 v 5 H 2 Z m 6,0 h 5 v 5 H 8 Z"
       fill="#dedede"
       stroke-linecap="round"
       stroke-linejoin="round"
       stroke-width="1.5"
       style="paint-order:stroke fill markers"
       id="path1" />
    <path
       d="m 11.718,1.2518 c -0.33578,-0.33577 -0.8768,-0.33577 -1.2126,0 L 7.4753,4.2819 c -0.33577,0.33577 -0.33577,0.8768 0,1.2126 l 3.0301,3.0301 c 0.33578,0.33577 0.8768,0.33577 1.2126,0 l 3.0301,-3.0301 c 0.33578,-0.33577 0.33577,-0.8768 0,-1.2126 z m -0.60629,0.80792 2.8284,2.8284 -2.8284,2.8284 -2.8284,-2.8284 z"
       fill="#dedede"
       stroke-linecap="round"
       stroke-linejoin="round"
       stroke-width="1.2857"
       style="paint-order:stroke fill markers"
       id="path2" />
  </g>
</svg>
