<?xml version="1.0" encoding="UTF-8" standalone="no"?>
<svg
   width="16"
   height="16"
   version="1.1"
   viewBox="0 0 16 16"
   id="svg1"
   sodipodi:docname="system-file-manager-symbolic.svg"
   inkscape:version="1.4 (unknown)"
   xmlns:inkscape="http://www.inkscape.org/namespaces/inkscape"
   xmlns:sodipodi="http://sodipodi.sourceforge.net/DTD/sodipodi-0.dtd"
   xmlns="http://www.w3.org/2000/svg"
   xmlns:svg="http://www.w3.org/2000/svg">
  <sodipodi:namedview
     id="namedview1"
     pagecolor="#ffffff"
     bordercolor="#000000"
     borderopacity="0.25"
     inkscape:showpageshadow="2"
     inkscape:pageopacity="0.0"
     inkscape:pagecheckerboard="0"
     inkscape:deskcolor="#d1d1d1"
     inkscape:zoom="48.4375"
     inkscape:cx="7.9896774"
     inkscape:cy="8"
     inkscape:window-width="1920"
     inkscape:window-height="998"
     inkscape:window-x="0"
     inkscape:window-y="0"
     inkscape:window-maximized="1"
     inkscape:current-layer="svg1" />
  <defs
     id="defs1">
    <style
       id="current-color-scheme"
       type="text/css">.ColorScheme-Text { color:#dedede; } .ColorScheme-Highlight { color:#5294e2; }</style>
  </defs>
  <path
     d="M 2.8571443,2 C 1.9074299,2 1.1428585,2.7645717 1.1428585,3.7142858 V 12.285717 C 1.1428585,13.235425 1.9074299,14 2.8571443,14 H 13.142858 c 0.949717,0 1.714284,-0.764575 1.714284,-1.714283 V 5.4285717 c 0,-0.9497142 -0.764567,-1.7142859 -1.714284,-1.7142859 H 8.000001 L 6.285716,2 Z m 0,0.8571425 H 5.9307727 L 7.2131443,4.1462 5.9307727,5.4285717 H 2.0000013 V 3.7142858 c 0,-0.4748575 0.3822855,-0.8571433 0.857143,-0.8571433 z M 8.000001,4.5714283 h 5.142857 C 13.617717,4.5714283 14,4.9537142 14,5.4285717 v 6.8571453 c 0,0.474858 -0.382283,0.857141 -0.857142,0.857141 H 2.8571443 c -0.4748575,0 -0.857143,-0.382283 -0.857143,-0.857141 V 6.2857142 H 6.285716 Z"
     fill="#dedede"
     stroke-linecap="round"
     stroke-linejoin="round"
     stroke-width="1.28575"
     style="paint-order:stroke fill markers"
     id="path1" />
</svg>
