<?xml version="1.0" encoding="UTF-8" standalone="no"?>
<svg
   width="16"
   height="16"
   version="1.1"
   id="svg2"
   sodipodi:docname="usb-creator-gtk-symbolic.svg"
   inkscape:version="1.4 (unknown)"
   xmlns:inkscape="http://www.inkscape.org/namespaces/inkscape"
   xmlns:sodipodi="http://sodipodi.sourceforge.net/DTD/sodipodi-0.dtd"
   xmlns="http://www.w3.org/2000/svg"
   xmlns:svg="http://www.w3.org/2000/svg">
  <defs
     id="defs2" />
  <sodipodi:namedview
     id="namedview2"
     pagecolor="#ffffff"
     bordercolor="#000000"
     borderopacity="0.25"
     inkscape:showpageshadow="2"
     inkscape:pageopacity="0.0"
     inkscape:pagecheckerboard="0"
     inkscape:deskcolor="#d1d1d1"
     inkscape:zoom="24.21875"
     inkscape:cx="17.837419"
     inkscape:cy="10.260645"
     inkscape:window-width="1920"
     inkscape:window-height="998"
     inkscape:window-x="0"
     inkscape:window-y="0"
     inkscape:window-maximized="1"
     inkscape:current-layer="svg2" />
  <g
     color="#000000"
     fill="#dedede"
     font-family="sans-serif"
     font-weight="400"
     id="g2"
     transform="matrix(0.75,0,0,0.75,1.25,2)">
    <path
       d="M 5,4 C 4.342,4 3.821,4.06 3.383,4.225 A 1.88,1.88 0 0 0 2.385,5.063 C 1.969,5.815 2.015,6.736 2,7.994 v 4.012 c 0.015,1.258 -0.03,2.179 0.385,2.932 0.207,0.376 0.56,0.673 0.998,0.838 C 3.821,15.94 4.343,16 5,16 H 9.678 A 4.5,4.5 0 0 1 8.762,15 H 5 C 4.408,15 3.994,14.937 3.734,14.84 3.474,14.742 3.363,14.637 3.262,14.453 3.06,14.087 3.015,13.26 3,12 V 8 C 3.015,6.741 3.06,5.913 3.262,5.547 3.362,5.363 3.474,5.257 3.734,5.16 3.994,5.063 4.408,5 5,5 h 5 c 0.592,0 1.006,0.063 1.266,0.16 0.26,0.098 0.371,0.203 0.472,0.387 C 11.94,5.913 11.985,6.741 12,8 V 8.033 A 4.5,4.5 0 0 1 12.5,8 4.5,4.5 0 0 1 13,8.031 V 7.994 C 12.985,6.736 13.03,5.815 12.615,5.062 A 1.88,1.88 0 0 0 11.617,4.224 C 11.18,4.06 10.657,4 10,4 Z m 7.5,5 a 3.5,3.5 0 1 0 0,7 3.5,3.5 0 0 0 0,-7 z M 12,10 h 1 v 0.668 c 0,0.348 -0.016,0.667 -0.047,0.957 -0.03,0.29 -0.069,0.581 -0.115,0.875 H 14 L 12.5,15 11,12.5 h 1.172 A 12.898,12.898 0 0 1 12.047,11.625 9.148,9.148 0 0 1 12,10.668 Z"
       overflow="visible"
       solid-color="#000000"
       style="font-variant-ligatures:normal;font-variant-position:normal;font-variant-caps:normal;font-variant-numeric:normal;font-variant-alternates:normal;font-feature-settings:normal;text-indent:0;text-decoration-line:none;text-decoration-style:solid;text-decoration-color:#000000;text-transform:none;text-orientation:mixed;white-space:normal;shape-padding:0;isolation:auto;mix-blend-mode:normal"
       id="path1" />
    <path
       d="M 4,0 V 3 H 5 V 1 h 5 v 2 h 1 V 0 Z M 6,2 V 3 H 7 V 2 Z M 8,2 V 3 H 9 V 2 Z"
       fill-rule="evenodd"
       overflow="visible"
       solid-color="#000000"
       style="font-variant-ligatures:normal;font-variant-position:normal;font-variant-caps:normal;font-variant-numeric:normal;font-variant-alternates:normal;font-feature-settings:normal;text-indent:0;text-decoration-line:none;text-decoration-style:solid;text-decoration-color:#000000;text-transform:none;text-orientation:mixed;white-space:normal;shape-padding:0;isolation:auto;mix-blend-mode:normal"
       id="path2" />
  </g>
</svg>
