<?xml version="1.0" encoding="UTF-8" standalone="no"?>
<svg
   width="16"
   height="16"
   version="1.1"
   id="svg2"
   sodipodi:docname="user-info-symbolic.svg"
   inkscape:version="1.4 (unknown)"
   xmlns:inkscape="http://www.inkscape.org/namespaces/inkscape"
   xmlns:sodipodi="http://sodipodi.sourceforge.net/DTD/sodipodi-0.dtd"
   xmlns="http://www.w3.org/2000/svg"
   xmlns:svg="http://www.w3.org/2000/svg">
  <defs
     id="defs2" />
  <sodipodi:namedview
     id="namedview2"
     pagecolor="#ffffff"
     bordercolor="#000000"
     borderopacity="0.25"
     inkscape:showpageshadow="2"
     inkscape:pageopacity="0.0"
     inkscape:pagecheckerboard="0"
     inkscape:deskcolor="#d1d1d1"
     inkscape:zoom="48.4375"
     inkscape:cx="7.9896774"
     inkscape:cy="8"
     inkscape:window-width="1920"
     inkscape:window-height="998"
     inkscape:window-x="0"
     inkscape:window-y="0"
     inkscape:window-maximized="1"
     inkscape:current-layer="svg2" />
  <g
     id="g2"
     transform="matrix(0.7999944,0,0,0.7999944,1.2000476,1.2000896)">
    <g
       transform="translate(0.89198,-0.37964)"
       fill="#dedede"
       stroke-linecap="square"
       style="paint-order:stroke fill markers"
       aria-label=""
       id="g1">
      <path
         transform="translate(-0.89198,0.37964)"
         d="M 3,1 C 1.892,1 1,1.892 1,3 v 10 c 0,1.108 0.892,2 2,2 h 1 a 4,4 0 0 1 0.29492,-1.5078 c 0.00706,-0.0178 0.01,-0.03707 0.017578,-0.05469 0.00736,-0.0173 0.01784,-0.03169 0.025391,-0.04883 a 4,4 0 0 1 0.29297,-0.54297 c 0.038423,-0.06088 0.079694,-0.11942 0.12109,-0.17773 A 4,4 0 0 1 5.076169,12.2715 C 5.081509,12.2658 5.086418,12.25963 5.091794,12.25392 5.118167,12.22593 5.136819,12.19131 5.16406,12.16408 5.195908,12.13223 5.23474,12.10881 5.26758,12.07814 A 4,4 0 0 1 5.6582,11.75783 c 0.063812,-0.0458 0.1285,-0.09064 0.19531,-0.13281 a 4,4 0 0 1 0.14648,-0.08984 5.5,5.5 0 0 1 0,-0.03516 5.5,5.5 0 0 1 0.37305,-1.9902 C 6.19653,9.394275 6.03117,9.265615 5.88281,9.117245 5.61199,8.846415 5.39583,8.528685 5.23437,8.164125 5.07812,7.799555 4.99999,7.411605 4.99999,7.000025 c 0,-0.41147 0.07812,-0.79941 0.23438,-1.1641 0.16145,-0.36457 0.37761,-0.6823 0.64844,-0.95312 0.27083,-0.27082 0.58856,-0.48438 0.95312,-0.64062 0.36459,-0.16145 0.75254,-0.24219 1.1641,-0.24219 0.41147,0 0.79941,0.08073 1.1641,0.24219 0.36457,0.15624 0.6823,0.3698 0.95313,0.64062 0.27082,0.27083 0.48438,0.58856 0.64062,0.95312 0.0296,0.066838 0.04223,0.13862 0.06641,0.20703 a 5.5,5.5 0 0 1 0.67578,-0.042969 5.5,5.5 0 0 1 0.36328,0.011719 c -0.0489,-0.19196 -0.09735,-0.38404 -0.17578,-0.56641 -0.20832,-0.48959 -0.4948,-0.91416 -0.85938,-1.2734 -0.35939,-0.36457 -0.78396,-0.65104 -1.2734,-0.85938 -0.48436,-0.20832 -1.0026,-0.3125 -1.5547,-0.3125 -0.55206,0 -1.0729,0.10418 -1.5625,0.3125 -0.48438,0.20832 -0.90895,0.4948 -1.2734,0.85938 -0.35936,0.35938 -0.64324,0.78395 -0.85156,1.2734 -0.20832,0.48436 -0.31055,1.0026 -0.31055,1.5547 0,0.34891 0.042317,0.69019 0.13086,1.0234 0.088541,0.33333 0.21616,0.65106 0.38281,0.95312 0.17187,0.29686 0.37762,0.57032 0.61719,0.82031 0.23957,0.24478 0.51043,0.45574 0.8125,0.63281 -0.36975,0.16145 -0.71103,0.3646 -1.0234,0.60937 -0.31248,0.24478 -0.59115,0.52084 -0.83594,0.82813 -0.24479,0.30728 -0.45313,0.64326 -0.625,1.0078 -0.16666,0.35935 -0.28906,0.73439 -0.36719,1.125 H 3.00016 c -0.554,0 -1,-0.446 -1,-1 v -10 c 0,-0.554 0.446,-1 1,-1 h 10 c 0.554,0 1,0.446 1,1 v 3.5996 a 5.5,5.5 0 0 1 1,0.66016 v -4.2598 c 0,-1.108 -0.892,-2 -2,-2 h -10 z"
         id="path1" />
    </g>
    <path
       d="M 11.5,7 A 4.5,4.5 0 0 0 7,11.5 4.5,4.5 0 0 0 11.5,16 4.5,4.5 0 0 0 16,11.5 4.5,4.5 0 0 0 11.5,7 Z m 0,1 A 3.5,3.5 0 0 1 15,11.5 3.5,3.5 0 0 1 11.5,15 3.5,3.5 0 0 1 8,11.5 3.5,3.5 0 0 1 11.5,8 Z M 11,9 v 1 h 1 V 9 Z m 0,2 v 3 h 1 v -3 z"
       fill="#dedede"
       stroke-linecap="square"
       stroke-width="2"
       style="paint-order:stroke fill markers"
       id="path2" />
  </g>
</svg>
