<?xml version="1.0" encoding="UTF-8" standalone="no"?>
<svg
   width="16"
   height="16"
   version="1.1"
   id="svg2"
   sodipodi:docname="utilities-tweak-tool-symbolic.svg"
   inkscape:version="1.4 (unknown)"
   xmlns:inkscape="http://www.inkscape.org/namespaces/inkscape"
   xmlns:sodipodi="http://sodipodi.sourceforge.net/DTD/sodipodi-0.dtd"
   xmlns="http://www.w3.org/2000/svg"
   xmlns:svg="http://www.w3.org/2000/svg">
  <defs
     id="defs2" />
  <sodipodi:namedview
     id="namedview2"
     pagecolor="#ffffff"
     bordercolor="#000000"
     borderopacity="0.25"
     inkscape:showpageshadow="2"
     inkscape:pageopacity="0.0"
     inkscape:pagecheckerboard="0"
     inkscape:deskcolor="#d1d1d1"
     inkscape:zoom="24.21875"
     inkscape:cx="9.3729032"
     inkscape:cy="10.178065"
     inkscape:window-width="1920"
     inkscape:window-height="998"
     inkscape:window-x="0"
     inkscape:window-y="0"
     inkscape:window-maximized="1"
     inkscape:current-layer="svg2" />
  <g
     fill="#dedede"
     id="g2"
     transform="matrix(0.8,0,0,0.8,1.6,1.2)">
    <path
       d="M 3.5,1 C 1.561,1 0,2.561 0,4.5 0,6.439 1.561,8 3.5,8 h 9 C 14.439,8 16,6.439 16,4.5 16,2.561 14.439,1 12.5,1 Z m 0,1 h 9 C 13.885,2 15,3.115 15,4.5 15,5.885 13.885,7 12.5,7 h -9 C 2.115,7 1,5.885 1,4.5 1,3.115 2.115,2 3.5,2 Z"
       id="path1" />
    <circle
       cx="3.5"
       cy="4.5"
       r="1.5"
       id="circle1" />
    <path
       d="M 3.5,9 C 1.5615,9 0,10.5616 0,12.5 0,14.4385 1.5615,16 3.5,16 h 9 C 14.4385,16 16,14.4384 16,12.5 16,10.5615 14.4385,9 12.5,9 Z m 9,2 A 1.5,1.5 0 0 1 14,12.5 1.5,1.5 0 0 1 12.5,14 1.5,1.5 0 0 1 11,12.5 1.5,1.5 0 0 1 12.5,11 Z"
       id="path2" />
  </g>
</svg>
