<?xml version="1.0" encoding="UTF-8" standalone="no"?>
<svg
   width="16"
   height="16"
   version="1.1"
   id="svg2"
   sodipodi:docname="system-monitor-app-symbolic.svg"
   inkscape:version="1.4 (unknown)"
   xmlns:inkscape="http://www.inkscape.org/namespaces/inkscape"
   xmlns:sodipodi="http://sodipodi.sourceforge.net/DTD/sodipodi-0.dtd"
   xmlns="http://www.w3.org/2000/svg"
   xmlns:svg="http://www.w3.org/2000/svg">
  <defs
     id="defs2" />
  <sodipodi:namedview
     id="namedview2"
     pagecolor="#ffffff"
     bordercolor="#000000"
     borderopacity="0.25"
     inkscape:showpageshadow="2"
     inkscape:pageopacity="0.0"
     inkscape:pagecheckerboard="0"
     inkscape:deskcolor="#d1d1d1"
     inkscape:zoom="48.4375"
     inkscape:cx="7.9896774"
     inkscape:cy="8"
     inkscape:window-width="1920"
     inkscape:window-height="998"
     inkscape:window-x="0"
     inkscape:window-y="0"
     inkscape:window-maximized="1"
     inkscape:current-layer="svg2" />
  <g
     id="g2"
     transform="translate(0.10714295,0.30857195)">
    <path
       d="m 9.0157146,5.0942856 c 0.2228567,-0.068575 0.48,0.077142 0.54,0.2914282 l 1.2257174,4.0200001 h 2.254283 v 0.8571401 h -2.571432 c -0.181026,-0.0063 -0.340266,-0.121446 -0.402852,-0.2914259 L 9.1528571,6.9971423 7.8414288,11.651428 c -0.094286,0.3 -0.5657142,0.385717 -0.7542859,0.137142 L 5.9642854,10.262854 H 2.7499996 V 9.4057139 h 3.4285717 c 0.1371433,0 0.2742858,0.077142 0.3514283,0.188572 L 7.2757146,10.614286 8.7242854,5.3857139 C 8.7671434,5.2485706 8.8785713,5.1371423 9.0157146,5.0942856 Z"
       fill="#dedede"
       id="path1"
       style="stroke-width:0.857142" />
    <path
       d="m 3.6071429,1.6914281 c -0.9497141,0 -1.7142858,0.7645717 -1.7142858,1.7142858 v 8.5714311 c 0,0.949708 0.7645717,1.714283 1.7142858,1.714283 h 8.5714311 c 0.949708,0 1.714283,-0.764575 1.714283,-1.714283 V 3.4057139 c 0,-0.9497141 -0.764575,-1.7142858 -1.714283,-1.7142858 z m 0,0.8571425 h 8.5714311 c 0.474858,0 0.857141,0.3822858 0.857141,0.8571433 v 8.5714311 c 0,0.474858 -0.382283,0.857141 -0.857141,0.857141 H 3.6071429 c -0.4748575,0 -0.8571433,-0.382283 -0.8571433,-0.857141 V 3.4057139 c 0,-0.4748575 0.3822858,-0.8571433 0.8571433,-0.8571433 z"
       fill="#dedede"
       id="path2"
       style="stroke-width:0.857142" />
  </g>
</svg>
