<?xml version="1.0" encoding="UTF-8" standalone="no"?>
<svg
   width="16"
   height="16"
   version="1.1"
   id="svg2"
   sodipodi:docname="utilities-terminal-symbolic.svg"
   inkscape:version="1.4 (unknown)"
   xmlns:inkscape="http://www.inkscape.org/namespaces/inkscape"
   xmlns:sodipodi="http://sodipodi.sourceforge.net/DTD/sodipodi-0.dtd"
   xmlns="http://www.w3.org/2000/svg"
   xmlns:svg="http://www.w3.org/2000/svg">
  <defs
     id="defs2" />
  <sodipodi:namedview
     id="namedview2"
     pagecolor="#ffffff"
     bordercolor="#000000"
     borderopacity="0.25"
     inkscape:showpageshadow="2"
     inkscape:pageopacity="0.0"
     inkscape:pagecheckerboard="0"
     inkscape:deskcolor="#d1d1d1"
     inkscape:zoom="48.4375"
     inkscape:cx="7.9896774"
     inkscape:cy="8"
     inkscape:window-width="1920"
     inkscape:window-height="998"
     inkscape:window-x="0"
     inkscape:window-y="0"
     inkscape:window-maximized="1"
     inkscape:current-layer="svg2" />
  <g
     id="g2"
     transform="translate(0.615385,-0.1032259)">
    <path
       d="M 3.432692,3.9493798 2.769231,4.5839948 5.192308,7.1801488 2.798077,9.776304 3.432692,10.410916 6.173077,7.4974568 6.461538,7.1801488 6.173077,6.8628408 Z m 3.028846,6.4615362 v 0.92308 h 3.692312 v -0.92308 z"
       fill="#dedede"
       id="path1"
       style="stroke-width:0.92308" />
    <path
       d="M 1.846154,2.1032258 C 0.8233846,2.1032258 0,2.9266108 0,3.9493798 v 8.3076962 c 0,1.02277 0.8233846,1.84615 1.846154,1.84615 H 12.92308 c 1.02277,0 1.84615,-0.82338 1.84615,-1.84615 V 3.9493798 c 0,-1.022769 -0.82338,-1.846154 -1.84615,-1.846154 z m 0,0.923077 H 12.92308 c 0.51138,0 0.92307,0.411692 0.92307,0.923077 v 8.3076962 c 0,0.51138 -0.41169,0.92307 -0.92307,0.92307 H 1.846154 c -0.511385,0 -0.9230771,-0.41169 -0.9230771,-0.92307 V 3.9493798 c 0,-0.511385 0.4116921,-0.923077 0.9230771,-0.923077 z"
       fill="#dedede"
       id="path2"
       style="stroke-width:0.92308" />
  </g>
</svg>
