<?xml version="1.0" encoding="UTF-8" standalone="no"?>
<svg
   width="16"
   height="16"
   version="1.1"
   id="svg2"
   sodipodi:docname="weather-app-symbolic.svg"
   inkscape:version="1.4 (unknown)"
   xmlns:inkscape="http://www.inkscape.org/namespaces/inkscape"
   xmlns:sodipodi="http://sodipodi.sourceforge.net/DTD/sodipodi-0.dtd"
   xmlns="http://www.w3.org/2000/svg"
   xmlns:svg="http://www.w3.org/2000/svg">
  <defs
     id="defs2" />
  <sodipodi:namedview
     id="namedview2"
     pagecolor="#ffffff"
     bordercolor="#000000"
     borderopacity="0.25"
     inkscape:showpageshadow="2"
     inkscape:pageopacity="0.0"
     inkscape:pagecheckerboard="0"
     inkscape:deskcolor="#d1d1d1"
     inkscape:zoom="48.4375"
     inkscape:cx="7.9896774"
     inkscape:cy="8"
     inkscape:window-width="1920"
     inkscape:window-height="998"
     inkscape:window-x="0"
     inkscape:window-y="0"
     inkscape:window-maximized="1"
     inkscape:current-layer="svg2" />
  <g
     id="g2"
     transform="translate(0.3300005,0.83)">
    <path
       d="M 10.117467,5.189034 C 8.9331816,5.1899116 7.9408678,5.9181696 7.4350703,6.9363252 l 0.050836,-0.00434 c -0.022797,0 -0.04032,0.014936 -0.063117,0.017575 -0.011399,0.022846 -0.03769,0.034258 -0.049089,0.057982 l 0.024544,-0.051837 c -1.1220442,0.1308594 -1.994263,1.1042123 -1.994263,2.2848846 0,1.2685202 0.9966951,2.3218222 2.2370862,2.3218222 h 4.7880045 c 0.966004,0 1.740927,-0.821386 1.740927,-1.8026368 0,-0.7089357 -0.421649,-1.2966368 -1.009852,-1.5874125 l 0.005,0.049194 v 0.007 c -8.77e-4,-0.022846 -0.01398,-0.042172 -0.01581,-0.065003 -0.02629,-0.012301 -0.03861,-0.043041 -0.06489,-0.054464 l 0.05791,0.026348 C 13.019022,6.5049922 11.733042,5.1925481 10.120096,5.1907904 h 0.01747 l -0.01049,-8.788e-4 z m 0,1.0348454 h 0.006 c 1.076466,0.0035 1.956574,0.8898977 2.00917,2.0503666 v 0.0018 l 0.03677,0.5683748 0.508429,0.2152272 a 0.73634512,0.73792096 0 0 1 0.459339,0.7001471 v 0.00193 c 0.005,0.4427539 -0.324343,0.7669109 -0.706542,0.7669109 H 7.6419477 c -0.656575,0 -1.2053266,-0.5560762 -1.2053266,-1.2878475 0,-0.6975127 0.5084284,-1.2333837 1.1238024,-1.2781861 l 0.5233313,-0.03799 0.2279159,-0.486677 C 8.6509153,6.7052852 9.3223921,6.2238794 10.117467,6.223002 Z"
       fill="#dedede"
       id="path1"
       style="stroke-width:0.877533" />
    <path
       d="M 5.5530069,1.17 4.626439,2.7776131 H 2.77418 V 4.633836 L 1.17,5.5623869 2.0965679,7.17 1.17,8.7776131 2.77418,9.7061604 V 11.56239 H 4.626439 L 5.5530069,13.17 7.157187,12.241451 8.761367,13.17 9.6879314,11.56239 h 1.8522656 v -0.970722 c -0.955503,0.04653 -1.9320349,0.0074 -2.8954171,0.01144 C 8.0600857,10.542474 7.3772136,10.738384 6.8845636,10.321984 6.0649413,9.7360275 6.2665605,8.2250511 7.2755279,7.9711717 7.5314959,7.8499411 7.9145711,7.9588732 8.0837548,7.7445242 8.402838,6.96795 9.0637957,6.1746854 9.9737106,6.1852263 c 0.2130134,0 0.4304024,-0.00884 0.6399204,0.039538 1.043148,0.2582718 1.646256,1.3616398 1.609435,2.3885797 -0.105195,0.3206438 0.382195,0.1959004 0.411998,0.4480229 -0.0084,0.010535 -0.02097,0.017568 -0.02979,0.028987 L 13.144374,8.7776131 12.217808,7.17 13.144374,5.5623869 11.540197,4.633836 V 2.7776131 H 9.6879314 L 8.761367,1.17 7.157187,2.0985508 Z"
       fill="#dedede"
       opacity="0.5"
       id="path2"
       style="stroke-width:0.877533" />
  </g>
</svg>
